M48
;Layer_Color=9474304
;FILE_FORMAT=4:4
METRIC,LZ
;TYPE=PLATED
T1F00S00C0.2500
T2F00S00C0.4000
T3F00S00C0.5000
T4F00S00C0.8000
T5F00S00C1.0000
T6F00S00C1.5000
T7F00S00C1.6000
T8F00S00C2.8000
;TYPE=NON_PLATED
T9F00S00C3.8000
%
T01
X0075Y0005
X008
X0085
X009
X0095
X01
X0105
X01025Y001
X00975
X00925
X00875
X00825
X00775
X00725
X0075Y0025
X008
X0085
X009
X0095
X01
X0105
X011
X0115Y0015
X012
X0125
X013
X0135
X01375Y001
X01325
X01275
X01225
X01175
X01125
X01075
X011Y0005
X0115
X012
X0125
X013
X01325Y002
X01275
X01225
X01453Y002
X01452Y0008
X0149Y00143
X015Y0025
X0155
X01575Y002
Y005
X01525
X01475
X015Y0055
X01475Y006
X015Y0045
X01475Y004
X01454Y0044
X01453Y0056
X01343Y00562
X01375Y006
X01303Y00602
X0131Y00635
X01319Y00642
X01328Y00632
X013Y0065
X01247Y0065
X012Y0065
X01175Y00649101
X01172Y0061
X011605
X01144Y0062
X01134611Y00601611
X01182Y00603
X012Y0055
X01234Y00563
X01247Y00583
X0127Y00569
X01248Y00543
X01234Y0052
Y00511
X01239Y0050375
X01253Y00494
X01271
X01273Y00515
X012595
X01296Y00526
X01375Y005
X0135Y0035
X013
X0125
X012
X0115
X011
X01075Y004
X01139Y00442
X01148
X01148389Y00452611
X01173Y00442
X01192Y00453
X01225Y004
X01275
Y003
X01225
X01453Y0032
X01075Y006
X01053Y00607
X01025Y006
X01032Y00582
X01032389Y00570389
X01045Y00571
Y0058
X01014Y00582
Y0056
X01025
X01003
X01003Y00549
X01009Y0054
X01022
X01003Y00532
X01009Y00524
X00996
X01003Y00516
X00989
X00968
Y00501
Y00491
Y00479
Y00465
X00978Y00472
Y00458
Y00486
X00975Y00526
X00982Y00533
X00975Y006
X00925
X00875
X00825
X00775
X00725
X00675
X007Y0065
X0075
X008
X0085
X009
X0095
X01
X0105
X01046Y00518
X010705Y00527
X01046Y00453
X01036
X0102Y00452
X0101
Y00465
X01019389Y00464611
X01046Y00439
X01057Y00432
X01025Y004
X00975
X00925
X00875
X00825
X00775
X00725
X00675
X007Y0035
X0075
X008
X0085
X009
X0095
X01
X0105
X00925Y005
X00875
X00825
X00775
X00725
X00675
X00625
X00575
X00525
Y006
X00575
X00625
X0065Y0065
X006
X0055
X005
X0045
X00475Y004
X00525
X00575
X00625
X0065Y0035
X006
X0055
X005
X0045
X002
Y0045
Y0055
X0025
Y0065
X002
X00175Y007
X00125
Y008
X00175
X002Y0075
X0025
Y0085
X00375Y009
X00525
X005Y0085
X00525Y008
X00575
X00625
X0065Y0085
X006
X00625Y009
X0065Y0075
X006
X0055
X005
X0045
X00475Y008
Y007
X00525
X00575
X00625
X00425
X00337Y00758
X007Y0075
X0075
X008
X0085
X009
X0095
X01
X0105
X01025Y008
X00975
X00925
X00875
X00825
X00775
X00725
X00675
X007Y0085
X0075
X008
X0085
X009
X0095
X01
X0105
X01025Y009
X00975
X00925
X00875
X00825
X00775
X00725
X00675
Y007
X00725
X00775
X00825
X00875
X00925
X00975
X01025
X01075
Y008
X01148Y00807
Y00823
X0115Y0085
X012
X01216Y00818
X0123Y00823
X0123Y00802
X01275Y008
X013Y0075
X0135
X01375Y007
X01453Y0068
X0145Y0075
X0145Y008
X0145Y0085
X01452Y0092
X01425Y009
X0135Y0085
X01253Y00875
X01228Y00892
Y00922
X01257Y00918
X01254Y00944
X01282Y00905
X01075Y009
X01124Y0076
X0115Y0075
X01175Y007
X01275
X015Y0075
X0155
X01575Y008
X0155Y0085
X015
T02
X0114Y00426
X01184Y004255
X01091Y00531
T03
X0026528Y0019812
X003075Y00205
Y0015
X003525Y00115
Y0024
X0042Y00255
X01342Y00187
Y0017
Y00067
X01343Y00049
X01488Y00067
X01487Y00092
X01488Y00187
X01487Y00213
X01488Y00307
X01487Y00332
Y00427
X01486Y00452
X01488Y00547
X01487Y00572
X01488Y00667
X01342Y00665
X01343Y0065
X01342Y00546
X01343Y00529
Y00427
X01344Y00409
X01342Y00306
X01343Y00289
X01241Y0053
X00478Y00295
X003925Y0079
X003775
X003625
X003475
X00345Y00805
Y0083
Y00855
Y0088
Y00905
X004
Y0088
Y00855
Y0083
X00488Y00888
X01142Y00869
X01141Y00913
X0116Y00909
X01342Y00906
X01343Y00889
X01342Y00787
X01343Y0077
X01488Y00787
X01487Y00812
X01488Y00907
X01487Y00933
Y00692
T04
X01398Y0004
X01432
Y0016
X01398
Y00278
X01432
Y00399
X01398
Y00522
X01432Y00521
Y00642
X01398
X01091Y00617
X0108Y00543
X01162Y00376
X01185Y00333
X01138
X01065Y00626
X00213Y00959
X01398Y00878
X01432
Y0076
X01398
T05
X000514Y001063
X000514Y001317
Y001571
Y001825
Y002079
X000514Y002333
X000514Y002587
X001022
Y002333
Y002079
Y001825
Y001571
Y001317
Y001063
X00502Y000994
Y00074
Y001248
X00501Y00167
X00485
X00469
X005025Y0021
Y002354
Y002608
X0073Y00205
Y00169
Y00127
X0115Y00133
X01173284
X01432Y0026
X0145
X0148Y0012
X011Y0067
X00291Y006502
Y006248
Y005994
Y00574
Y005486
Y005232
Y004978
Y004724
Y00447
Y004216
Y003962
Y003708
Y003454
Y0032
X002656
Y003454
Y003708
Y003962
Y004216
Y00447
Y004724
Y004978
Y005232
Y005486
Y00574
Y005994
Y006248
Y006502
X001022Y006397
Y006651
Y006143
Y005889
Y005635
Y005381
Y005127
Y004873
Y004619
Y004365
Y004111
Y003857
Y003603
Y003349
Y003095
Y002841
X000514
Y003095
X000514Y003349
X000514Y003603
Y003857
Y004111
Y004365
X000514Y004619
X000514Y004873
Y005127
Y005381
Y005635
Y005889
Y006143
Y006397
Y006651
X000514Y006905
X000514Y007159
Y007413
Y007667
Y007921
X000514Y008175
X000514Y008429
Y008683
Y008937
X001022
Y008683
Y008429
Y008175
Y007921
Y007667
Y007413
Y007159
Y006905
X002656Y00701
Y007264
Y007518
Y007772
Y008026
Y00828
Y008534
Y008788
Y009042
Y009296
X00247Y0093
X00213Y00862
X001605Y008615
X002656Y006756
X00291
Y00701
Y007264
Y007518
Y007772
Y008026
Y00828
Y008534
Y008788
Y009042
Y009296
X011Y0069
X012036Y00747
X01229
X012544
Y00778
X01229
X012036
T06
X0154Y0008
Y002
Y0032
Y0044
Y0056
Y0068
Y008
Y0092
T07
X015146Y000546
Y001054
X015654
Y000546
Y001746
Y002254
X015146
Y001746
Y002946
Y003454
X015654
Y002946
Y004146
Y004654
X015146
Y004146
Y005346
Y005854
X015654
Y005346
Y006546
X015146
Y007054
X015654
Y007746
Y008254
X015146
Y007746
Y008946
Y009454
X015654
Y008946
T08
X00026Y000555
Y009445
T09
X00668Y000994
X006685Y002354
M30
