G04*
G04 #@! TF.GenerationSoftware,Altium Limited,Altium Designer,22.6.1 (34)*
G04*
G04 Layer_Color=8732672*
%FSLAX44Y44*%
%MOMM*%
G71*
G04*
G04 #@! TF.SameCoordinates,7EAFA6D0-7FEA-492A-8EC4-A6B53FA9F8CD*
G04*
G04*
G04 #@! TF.FilePolarity,Negative*
G04*
G01*
G75*
%ADD13C,0.1000*%
%ADD22C,1.0000*%
%ADD53C,4.1400*%
%ADD54C,1.6400*%
%ADD55R,1.6400X1.6400*%
%ADD56C,3.9400*%
%ADD57C,2.1400*%
%ADD58R,2.1400X2.1400*%
%ADD59C,2.9400*%
%ADD60C,2.6400*%
%ADD61R,1.6400X1.6400*%
%ADD62O,2.6400X1.8400*%
%ADD63R,2.6400X1.8400*%
%ADD64C,0.7400*%
%ADD65C,1.4400*%
%ADD66C,0.9400*%
G04:AMPARAMS|DCode=92|XSize=1.44mm|YSize=2.64mm|CornerRadius=0.395mm|HoleSize=0mm|Usage=FLASHONLY|Rotation=90.000|XOffset=0mm|YOffset=0mm|HoleType=Round|Shape=RoundedRectangle|*
%AMROUNDEDRECTD92*
21,1,1.4400,1.8500,0,0,90.0*
21,1,0.6500,2.6400,0,0,90.0*
1,1,0.7900,0.9250,0.3250*
1,1,0.7900,0.9250,-0.3250*
1,1,0.7900,-0.9250,-0.3250*
1,1,0.7900,-0.9250,0.3250*
%
%ADD92ROUNDEDRECTD92*%
%ADD93R,2.6400X1.4400*%
D13*
X0Y1000000D02*
X1600000D01*
X0Y0D02*
Y1000000D01*
X1600000D02*
X1600000Y0D01*
X0D02*
X1600000D01*
D22*
X1343000Y770000D02*
D03*
X1342000Y787000D02*
D03*
X1488000D02*
D03*
X1487000Y812000D02*
D03*
X1488000Y907000D02*
D03*
X1487000Y933000D02*
D03*
X1342000Y906000D02*
D03*
X1343000Y889000D02*
D03*
Y650000D02*
D03*
X1342000Y665000D02*
D03*
X1487000Y692000D02*
D03*
X1488000Y667000D02*
D03*
Y547000D02*
D03*
X1487000Y572000D02*
D03*
X1343000Y529000D02*
D03*
X1342000Y546000D02*
D03*
X1488000Y307000D02*
D03*
X1487000Y332000D02*
D03*
X1342000Y306000D02*
D03*
X1343000Y289000D02*
D03*
X1342000Y67000D02*
D03*
X1343000Y49000D02*
D03*
X1488000Y67000D02*
D03*
X1487000Y92000D02*
D03*
X1342000Y170000D02*
D03*
Y187000D02*
D03*
X1487000Y213000D02*
D03*
X1488000Y187000D02*
D03*
X478000Y295000D02*
D03*
X1487000Y427000D02*
D03*
X1486000Y452000D02*
D03*
X1344000Y409000D02*
D03*
X1343000Y427000D02*
D03*
X1241000Y530000D02*
D03*
X420000Y255000D02*
D03*
X1141000Y913000D02*
D03*
X1160000Y909000D02*
D03*
X1142000Y869000D02*
D03*
X488000Y888000D02*
D03*
X265280Y198120D02*
D03*
X307500Y150000D02*
D03*
X392500Y790000D02*
D03*
X400000Y830000D02*
D03*
X377500Y790000D02*
D03*
X400000Y855000D02*
D03*
X362500Y790000D02*
D03*
X400000Y880000D02*
D03*
X347500Y790000D02*
D03*
X400000Y905000D02*
D03*
X345000D02*
D03*
Y880000D02*
D03*
Y855000D02*
D03*
Y830000D02*
D03*
Y805000D02*
D03*
X307500Y205000D02*
D03*
X352500Y115000D02*
D03*
Y240000D02*
D03*
D53*
X26000Y55500D02*
D03*
Y944500D02*
D03*
D54*
X265600Y929600D02*
D03*
X291000D02*
D03*
X265600Y904200D02*
D03*
X291000D02*
D03*
X265600Y878800D02*
D03*
X291000D02*
D03*
X265600Y853400D02*
D03*
X291000D02*
D03*
X265600Y828000D02*
D03*
X291000D02*
D03*
X265600Y802600D02*
D03*
X291000D02*
D03*
X265600Y777200D02*
D03*
X291000D02*
D03*
X265600Y751800D02*
D03*
X291000D02*
D03*
X265600Y726400D02*
D03*
X291000D02*
D03*
X265600Y701000D02*
D03*
X291000D02*
D03*
X265600Y675600D02*
D03*
X291000D02*
D03*
X265600Y650200D02*
D03*
X291000D02*
D03*
X265600Y624800D02*
D03*
X291000D02*
D03*
X265600Y599400D02*
D03*
X291000D02*
D03*
X265600Y574000D02*
D03*
X291000D02*
D03*
Y396200D02*
D03*
Y345400D02*
D03*
X265600Y320000D02*
D03*
Y345400D02*
D03*
X291000Y370800D02*
D03*
X265600D02*
D03*
Y396200D02*
D03*
X291000Y421600D02*
D03*
X265600D02*
D03*
X291000Y447000D02*
D03*
X265600D02*
D03*
X291000Y472400D02*
D03*
X265600D02*
D03*
X291000Y497800D02*
D03*
X265600D02*
D03*
X291000Y523200D02*
D03*
X265600D02*
D03*
X291000Y548600D02*
D03*
X265600D02*
D03*
X1254400Y747000D02*
D03*
X1229000D02*
D03*
Y778000D02*
D03*
X1254400D02*
D03*
X247000Y930000D02*
D03*
X501000Y167000D02*
D03*
X1173284Y133000D02*
D03*
X1150000D02*
D03*
X730000Y127000D02*
D03*
Y169000D02*
D03*
Y205000D02*
D03*
X1450000Y260000D02*
D03*
X213000Y862000D02*
D03*
X485000Y167000D02*
D03*
X469000D02*
D03*
X1100000Y690000D02*
D03*
X1480000Y120000D02*
D03*
X160500Y861500D02*
D03*
X1432000Y260000D02*
D03*
X1100000Y670000D02*
D03*
D55*
X291000Y320000D02*
D03*
D56*
X668000Y99400D02*
D03*
X668500Y235400D02*
D03*
D57*
X502000Y74000D02*
D03*
Y99400D02*
D03*
X502500Y210000D02*
D03*
Y235400D02*
D03*
D58*
X502000Y124800D02*
D03*
X502500Y260800D02*
D03*
D59*
X1514600Y105400D02*
D03*
X1565400D02*
D03*
Y54600D02*
D03*
X1514600D02*
D03*
Y225400D02*
D03*
X1565400D02*
D03*
Y174600D02*
D03*
X1514600D02*
D03*
Y345400D02*
D03*
X1565400D02*
D03*
Y294600D02*
D03*
X1514600D02*
D03*
Y465400D02*
D03*
X1565400D02*
D03*
Y414600D02*
D03*
X1514600D02*
D03*
Y585400D02*
D03*
X1565400D02*
D03*
Y534600D02*
D03*
X1514600D02*
D03*
Y945400D02*
D03*
X1565400D02*
D03*
Y894600D02*
D03*
X1514600D02*
D03*
Y705400D02*
D03*
X1565400D02*
D03*
Y654600D02*
D03*
X1514600D02*
D03*
Y825400D02*
D03*
X1565400D02*
D03*
Y774600D02*
D03*
X1514600D02*
D03*
D60*
X1540000Y80000D02*
D03*
Y200000D02*
D03*
Y320000D02*
D03*
Y440000D02*
D03*
Y560000D02*
D03*
Y920000D02*
D03*
Y680000D02*
D03*
Y800000D02*
D03*
D61*
X1203600Y747000D02*
D03*
Y778000D02*
D03*
D62*
X102200Y868300D02*
D03*
Y842900D02*
D03*
Y817500D02*
D03*
Y792100D02*
D03*
Y766700D02*
D03*
Y741300D02*
D03*
Y715900D02*
D03*
Y690500D02*
D03*
Y665100D02*
D03*
Y639700D02*
D03*
Y614300D02*
D03*
Y309500D02*
D03*
Y334900D02*
D03*
Y360300D02*
D03*
Y385700D02*
D03*
Y411100D02*
D03*
Y436500D02*
D03*
Y461900D02*
D03*
Y487300D02*
D03*
Y512700D02*
D03*
Y538100D02*
D03*
Y563500D02*
D03*
Y588900D02*
D03*
Y893700D02*
D03*
X51400Y792100D02*
D03*
Y715900D02*
D03*
Y639700D02*
D03*
Y360300D02*
D03*
Y284100D02*
D03*
Y207900D02*
D03*
Y131700D02*
D03*
Y411100D02*
D03*
Y436500D02*
D03*
X51400Y461900D02*
D03*
X51400Y487300D02*
D03*
Y512700D02*
D03*
Y538100D02*
D03*
Y563500D02*
D03*
Y588900D02*
D03*
Y614300D02*
D03*
Y665100D02*
D03*
X51400Y690500D02*
D03*
X51400Y741300D02*
D03*
Y766700D02*
D03*
X51400Y817500D02*
D03*
X51400Y842900D02*
D03*
Y893700D02*
D03*
Y385700D02*
D03*
X51400Y334900D02*
D03*
X51400Y309500D02*
D03*
Y258700D02*
D03*
X51400Y233300D02*
D03*
X51400Y182500D02*
D03*
Y157100D02*
D03*
X102200Y258700D02*
D03*
Y233300D02*
D03*
Y182500D02*
D03*
Y157100D02*
D03*
X51400Y868300D02*
D03*
X102200Y284100D02*
D03*
Y207900D02*
D03*
Y131700D02*
D03*
Y106300D02*
D03*
D63*
X51400D02*
D03*
D64*
X1200000Y550000D02*
D03*
X1100000Y350000D02*
D03*
X1075000Y900000D02*
D03*
X1050000Y850000D02*
D03*
X1075000Y800000D02*
D03*
X1050000Y750000D02*
D03*
X1075000Y700000D02*
D03*
X1050000Y650000D02*
D03*
X1075000Y600000D02*
D03*
Y400000D02*
D03*
X1050000Y350000D02*
D03*
X1025000Y900000D02*
D03*
X1000000Y850000D02*
D03*
X1025000Y800000D02*
D03*
X1000000Y750000D02*
D03*
X1025000Y700000D02*
D03*
X1000000Y650000D02*
D03*
X1025000Y600000D02*
D03*
Y400000D02*
D03*
X1000000Y350000D02*
D03*
X975000Y900000D02*
D03*
X950000Y850000D02*
D03*
X975000Y800000D02*
D03*
X950000Y750000D02*
D03*
X975000Y700000D02*
D03*
X950000Y650000D02*
D03*
X975000Y600000D02*
D03*
Y400000D02*
D03*
X950000Y350000D02*
D03*
X925000Y900000D02*
D03*
X900000Y850000D02*
D03*
X925000Y800000D02*
D03*
X900000Y750000D02*
D03*
X925000Y700000D02*
D03*
X900000Y650000D02*
D03*
X925000Y600000D02*
D03*
Y500000D02*
D03*
Y400000D02*
D03*
X900000Y350000D02*
D03*
X875000Y900000D02*
D03*
X850000Y850000D02*
D03*
X875000Y800000D02*
D03*
X850000Y750000D02*
D03*
X875000Y700000D02*
D03*
X850000Y650000D02*
D03*
X875000Y600000D02*
D03*
Y500000D02*
D03*
Y400000D02*
D03*
X850000Y350000D02*
D03*
X825000Y900000D02*
D03*
X800000Y850000D02*
D03*
X825000Y800000D02*
D03*
X800000Y750000D02*
D03*
X825000Y700000D02*
D03*
X800000Y650000D02*
D03*
X825000Y600000D02*
D03*
Y500000D02*
D03*
Y400000D02*
D03*
X800000Y350000D02*
D03*
X775000Y900000D02*
D03*
X750000Y850000D02*
D03*
X775000Y800000D02*
D03*
X750000Y750000D02*
D03*
X775000Y700000D02*
D03*
X750000Y650000D02*
D03*
X775000Y600000D02*
D03*
Y500000D02*
D03*
Y400000D02*
D03*
X750000Y350000D02*
D03*
X725000Y900000D02*
D03*
X700000Y850000D02*
D03*
X725000Y800000D02*
D03*
X700000Y750000D02*
D03*
X725000Y700000D02*
D03*
X700000Y650000D02*
D03*
X725000Y600000D02*
D03*
Y500000D02*
D03*
Y400000D02*
D03*
X700000Y350000D02*
D03*
X675000Y900000D02*
D03*
X650000Y850000D02*
D03*
X675000Y800000D02*
D03*
X650000Y750000D02*
D03*
X675000Y700000D02*
D03*
X650000Y650000D02*
D03*
X675000Y600000D02*
D03*
Y500000D02*
D03*
Y400000D02*
D03*
X650000Y350000D02*
D03*
X625000Y900000D02*
D03*
X600000Y850000D02*
D03*
X625000Y800000D02*
D03*
X600000Y750000D02*
D03*
X625000Y700000D02*
D03*
X600000Y650000D02*
D03*
X625000Y600000D02*
D03*
Y500000D02*
D03*
Y400000D02*
D03*
X600000Y350000D02*
D03*
X575000Y800000D02*
D03*
X550000Y750000D02*
D03*
X575000Y700000D02*
D03*
X550000Y650000D02*
D03*
X575000Y600000D02*
D03*
Y500000D02*
D03*
Y400000D02*
D03*
X550000Y350000D02*
D03*
X525000Y900000D02*
D03*
X500000Y850000D02*
D03*
X525000Y800000D02*
D03*
X500000Y750000D02*
D03*
X525000Y700000D02*
D03*
X500000Y650000D02*
D03*
X525000Y600000D02*
D03*
Y500000D02*
D03*
Y400000D02*
D03*
X500000Y350000D02*
D03*
X475000Y800000D02*
D03*
X450000Y750000D02*
D03*
X475000Y700000D02*
D03*
X450000Y650000D02*
D03*
X475000Y400000D02*
D03*
X450000Y350000D02*
D03*
X425000Y700000D02*
D03*
X375000Y900000D02*
D03*
X250000Y850000D02*
D03*
Y750000D02*
D03*
Y650000D02*
D03*
Y550000D02*
D03*
X200000Y750000D02*
D03*
Y650000D02*
D03*
Y550000D02*
D03*
Y450000D02*
D03*
Y350000D02*
D03*
X175000Y800000D02*
D03*
Y700000D02*
D03*
X125000Y800000D02*
D03*
Y700000D02*
D03*
X1550000Y850000D02*
D03*
X1575000Y800000D02*
D03*
X1550000Y750000D02*
D03*
X1575000Y500000D02*
D03*
X1550000Y250000D02*
D03*
X1575000Y200000D02*
D03*
X1500000Y850000D02*
D03*
Y750000D02*
D03*
Y550000D02*
D03*
X1525000Y500000D02*
D03*
X1500000Y450000D02*
D03*
Y250000D02*
D03*
X1450000Y850000D02*
D03*
Y750000D02*
D03*
X1475000Y600000D02*
D03*
Y500000D02*
D03*
Y400000D02*
D03*
X1425000Y900000D02*
D03*
X1350000Y850000D02*
D03*
Y750000D02*
D03*
X1375000Y700000D02*
D03*
Y600000D02*
D03*
Y500000D02*
D03*
X1350000Y350000D02*
D03*
Y150000D02*
D03*
X1375000Y100000D02*
D03*
X1300000Y750000D02*
D03*
Y650000D02*
D03*
Y350000D02*
D03*
X1325000Y200000D02*
D03*
X1300000Y150000D02*
D03*
X1325000Y100000D02*
D03*
X1300000Y50000D02*
D03*
X1275000Y800000D02*
D03*
Y700000D02*
D03*
Y400000D02*
D03*
X1250000Y350000D02*
D03*
X1275000Y300000D02*
D03*
Y200000D02*
D03*
X1250000Y150000D02*
D03*
X1275000Y100000D02*
D03*
X1250000Y50000D02*
D03*
X1200000Y850000D02*
D03*
Y650000D02*
D03*
X1225000Y400000D02*
D03*
X1200000Y350000D02*
D03*
X1225000Y300000D02*
D03*
Y200000D02*
D03*
X1200000Y150000D02*
D03*
X1225000Y100000D02*
D03*
X1200000Y50000D02*
D03*
X1150000Y850000D02*
D03*
Y750000D02*
D03*
X1175000Y700000D02*
D03*
X1150000Y350000D02*
D03*
Y150000D02*
D03*
X1175000Y100000D02*
D03*
X1150000Y50000D02*
D03*
X1100000Y250000D02*
D03*
X1125000Y100000D02*
D03*
X1100000Y50000D02*
D03*
X1050000Y250000D02*
D03*
X1075000Y100000D02*
D03*
X1050000Y50000D02*
D03*
X1000000Y250000D02*
D03*
X1025000Y100000D02*
D03*
X1000000Y50000D02*
D03*
X950000Y250000D02*
D03*
X975000Y100000D02*
D03*
X950000Y50000D02*
D03*
X900000Y250000D02*
D03*
X925000Y100000D02*
D03*
X900000Y50000D02*
D03*
X850000Y250000D02*
D03*
X875000Y100000D02*
D03*
X850000Y50000D02*
D03*
X800000Y250000D02*
D03*
X825000Y100000D02*
D03*
X800000Y50000D02*
D03*
X750000Y250000D02*
D03*
X775000Y100000D02*
D03*
X750000Y50000D02*
D03*
X725000Y100000D02*
D03*
X1148000Y442000D02*
D03*
X1139000D02*
D03*
X1452000Y920000D02*
D03*
X337000Y758000D02*
D03*
X1228000Y922000D02*
D03*
Y892000D02*
D03*
X1144000Y620000D02*
D03*
X1230000Y802000D02*
D03*
X1230000Y823000D02*
D03*
X1490000Y143000D02*
D03*
X1303000Y602000D02*
D03*
X1328000Y632000D02*
D03*
X1319000Y642000D02*
D03*
X1310000Y635000D02*
D03*
X1253000Y494000D02*
D03*
X1271000D02*
D03*
X1273000Y515000D02*
D03*
X1259500D02*
D03*
X1296000Y526000D02*
D03*
X1270000Y569000D02*
D03*
X1175000Y649101D02*
D03*
X1247000Y650000D02*
D03*
X1452000Y80000D02*
D03*
X1453000Y200000D02*
D03*
X1343000Y562000D02*
D03*
X1453000Y320000D02*
D03*
Y560000D02*
D03*
X1454000Y440000D02*
D03*
X1247000Y583000D02*
D03*
X1192000Y453000D02*
D03*
X1173000Y442000D02*
D03*
X1032389Y570389D02*
D03*
X1248000Y543000D02*
D03*
X1234000Y563000D02*
D03*
X1032000Y582000D02*
D03*
X1045000Y580000D02*
D03*
Y571000D02*
D03*
X1014000Y582000D02*
D03*
X1025000Y560000D02*
D03*
X1014000D02*
D03*
X1003000D02*
D03*
X1239000Y503750D02*
D03*
X1234000Y511000D02*
D03*
Y520000D02*
D03*
X1172000Y610000D02*
D03*
X1160500D02*
D03*
X1182000Y603000D02*
D03*
X1134611Y601611D02*
D03*
X1148389Y452611D02*
D03*
X1046000Y453000D02*
D03*
X1036000D02*
D03*
X1046000Y439000D02*
D03*
X1057000Y432000D02*
D03*
X1453000Y680000D02*
D03*
X1450000Y800000D02*
D03*
X1124000Y760000D02*
D03*
X1257000Y918000D02*
D03*
X1282000Y905000D02*
D03*
X1148000Y823000D02*
D03*
Y807000D02*
D03*
X1216000Y818000D02*
D03*
X1254000Y944000D02*
D03*
X1053000Y607000D02*
D03*
X1253000Y875000D02*
D03*
X978000Y472000D02*
D03*
X968000Y479000D02*
D03*
X1019389Y464611D02*
D03*
X978000Y458000D02*
D03*
X968000Y465000D02*
D03*
X1010000D02*
D03*
Y452000D02*
D03*
X1020000D02*
D03*
X1022000Y540000D02*
D03*
X982000Y533000D02*
D03*
X1046000Y518000D02*
D03*
X975000Y526000D02*
D03*
X1070500Y527000D02*
D03*
X1009000Y540000D02*
D03*
X1003000Y532000D02*
D03*
X1009000Y524000D02*
D03*
X996000D02*
D03*
X989000Y516000D02*
D03*
X1003000D02*
D03*
X968000D02*
D03*
Y491000D02*
D03*
X978000Y486000D02*
D03*
X1003000Y549000D02*
D03*
X968000Y501000D02*
D03*
D65*
X213000Y959000D02*
D03*
X1398000Y40000D02*
D03*
Y399000D02*
D03*
X1162000Y376000D02*
D03*
X1432000Y160000D02*
D03*
X1398000D02*
D03*
X1432000Y399000D02*
D03*
Y278000D02*
D03*
X1398000D02*
D03*
Y878000D02*
D03*
X1432000D02*
D03*
Y521000D02*
D03*
X1398000Y522000D02*
D03*
X1185000Y333000D02*
D03*
X1138000D02*
D03*
X1080000Y543000D02*
D03*
X1432000Y642000D02*
D03*
X1398000D02*
D03*
X1432000Y760000D02*
D03*
X1398000D02*
D03*
X1432000Y40000D02*
D03*
X1065000Y626000D02*
D03*
X1091000Y617000D02*
D03*
D66*
X1184000Y425500D02*
D03*
X1140000Y426000D02*
D03*
X1091000Y531000D02*
D03*
D92*
X1577000Y149000D02*
D03*
D93*
Y131000D02*
D03*
M02*
