G04*
G04 #@! TF.GenerationSoftware,Altium Limited,Altium Designer,22.6.1 (34)*
G04*
G04 Layer_Color=7597287*
%FSLAX44Y44*%
%MOMM*%
G71*
G04*
G04 #@! TF.SameCoordinates,7EAFA6D0-7FEA-492A-8EC4-A6B53FA9F8CD*
G04*
G04*
G04 #@! TF.FilePolarity,Positive*
G04*
G01*
G75*
%ADD13C,0.1000*%
%ADD16R,1.0000X0.9500*%
%ADD17O,1.4500X0.3000*%
%ADD18O,0.3000X1.4500*%
%ADD19R,0.9500X1.0000*%
%ADD20R,1.0500X1.4000*%
G04:AMPARAMS|DCode=21|XSize=0.6mm|YSize=1.55mm|CornerRadius=0.15mm|HoleSize=0mm|Usage=FLASHONLY|Rotation=90.000|XOffset=0mm|YOffset=0mm|HoleType=Round|Shape=RoundedRectangle|*
%AMROUNDEDRECTD21*
21,1,0.6000,1.2500,0,0,90.0*
21,1,0.3000,1.5500,0,0,90.0*
1,1,0.3000,0.6250,0.1500*
1,1,0.3000,0.6250,-0.1500*
1,1,0.3000,-0.6250,-0.1500*
1,1,0.3000,-0.6250,0.1500*
%
%ADD21ROUNDEDRECTD21*%
%ADD22C,1.0000*%
%ADD23O,0.9000X2.4000*%
%ADD24O,2.4000X0.9000*%
%ADD25O,1.0000X0.5000*%
%ADD26R,1.4000X1.0500*%
%ADD27O,1.9000X0.6000*%
G04:AMPARAMS|DCode=28|XSize=0.5mm|YSize=0.9mm|CornerRadius=0.0625mm|HoleSize=0mm|Usage=FLASHONLY|Rotation=0.000|XOffset=0mm|YOffset=0mm|HoleType=Round|Shape=RoundedRectangle|*
%AMROUNDEDRECTD28*
21,1,0.5000,0.7750,0,0,0.0*
21,1,0.3750,0.9000,0,0,0.0*
1,1,0.1250,0.1875,-0.3875*
1,1,0.1250,-0.1875,-0.3875*
1,1,0.1250,-0.1875,0.3875*
1,1,0.1250,0.1875,0.3875*
%
%ADD28ROUNDEDRECTD28*%
%ADD29R,0.9000X0.7500*%
G04:AMPARAMS|DCode=30|XSize=0.6mm|YSize=1mm|CornerRadius=0.15mm|HoleSize=0mm|Usage=FLASHONLY|Rotation=90.000|XOffset=0mm|YOffset=0mm|HoleType=Round|Shape=RoundedRectangle|*
%AMROUNDEDRECTD30*
21,1,0.6000,0.7000,0,0,90.0*
21,1,0.3000,1.0000,0,0,90.0*
1,1,0.3000,0.3500,0.1500*
1,1,0.3000,0.3500,-0.1500*
1,1,0.3000,-0.3500,-0.1500*
1,1,0.3000,-0.3500,0.1500*
%
%ADD30ROUNDEDRECTD30*%
%ADD31O,1.8500X1.5000*%
%ADD32R,2.0000X4.0000*%
%ADD33R,1.5000X1.1000*%
D13*
X0Y1000000D02*
X1600000D01*
X0Y0D02*
Y1000000D01*
X1600000D02*
X1600000Y0D01*
X0D02*
X1600000D01*
D16*
X761000Y137000D02*
D03*
Y153000D02*
D03*
X730000Y137000D02*
D03*
Y153000D02*
D03*
X745000D02*
D03*
Y137000D02*
D03*
X237500Y97000D02*
D03*
Y113000D02*
D03*
X1185000Y371000D02*
D03*
Y355000D02*
D03*
X1138000Y371595D02*
D03*
Y355595D02*
D03*
X1216000Y859000D02*
D03*
Y875000D02*
D03*
X1232000Y961000D02*
D03*
Y945000D02*
D03*
X1216000Y844000D02*
D03*
Y828000D02*
D03*
X1217000Y929000D02*
D03*
Y945000D02*
D03*
X1160000Y939000D02*
D03*
Y923000D02*
D03*
X1124000Y790000D02*
D03*
Y774000D02*
D03*
X1296000Y533000D02*
D03*
Y549000D02*
D03*
Y518797D02*
D03*
Y502798D02*
D03*
X237500Y217000D02*
D03*
Y233000D02*
D03*
X730000Y181000D02*
D03*
Y197000D02*
D03*
X265280Y210440D02*
D03*
Y226440D02*
D03*
X307500Y117000D02*
D03*
Y133000D02*
D03*
X438000Y99000D02*
D03*
Y83000D02*
D03*
D17*
X1105250Y488250D02*
D03*
Y493250D02*
D03*
Y498250D02*
D03*
Y503250D02*
D03*
Y508250D02*
D03*
Y513250D02*
D03*
Y518250D02*
D03*
Y523250D02*
D03*
Y528250D02*
D03*
Y533250D02*
D03*
Y538250D02*
D03*
Y543250D02*
D03*
Y548250D02*
D03*
Y553250D02*
D03*
Y558250D02*
D03*
Y563250D02*
D03*
X1219750D02*
D03*
Y558250D02*
D03*
Y553250D02*
D03*
Y548250D02*
D03*
Y543250D02*
D03*
Y538250D02*
D03*
Y533250D02*
D03*
Y528250D02*
D03*
Y523250D02*
D03*
Y518250D02*
D03*
Y513250D02*
D03*
Y508250D02*
D03*
Y503250D02*
D03*
Y498250D02*
D03*
Y493250D02*
D03*
Y488250D02*
D03*
D18*
X1125000Y583000D02*
D03*
X1130000D02*
D03*
X1135000D02*
D03*
X1140000D02*
D03*
X1145000D02*
D03*
X1150000D02*
D03*
X1155000D02*
D03*
X1160000D02*
D03*
X1165000D02*
D03*
X1170000D02*
D03*
X1175000D02*
D03*
X1180000D02*
D03*
X1185000D02*
D03*
X1190000D02*
D03*
X1195000D02*
D03*
X1200000D02*
D03*
Y468500D02*
D03*
X1195000D02*
D03*
X1190000D02*
D03*
X1185000D02*
D03*
X1180000D02*
D03*
X1175000D02*
D03*
X1170000D02*
D03*
X1165000D02*
D03*
X1160000D02*
D03*
X1155000D02*
D03*
X1150000D02*
D03*
X1145000D02*
D03*
X1140000D02*
D03*
X1135000D02*
D03*
X1130000D02*
D03*
X1125000D02*
D03*
D19*
X1463000Y143000D02*
D03*
X1479000D02*
D03*
X488520Y761500D02*
D03*
X504520D02*
D03*
X1184000Y406000D02*
D03*
X1168000D02*
D03*
X1155000D02*
D03*
X1139000D02*
D03*
X1368000Y49000D02*
D03*
X1352000D02*
D03*
Y84000D02*
D03*
X1368000D02*
D03*
X1398000Y49000D02*
D03*
X1382000D02*
D03*
X1432000D02*
D03*
X1448000D02*
D03*
X1462000Y92000D02*
D03*
X1478000D02*
D03*
X1407000Y121000D02*
D03*
X1423000D02*
D03*
X1462000Y213000D02*
D03*
X1478000D02*
D03*
X1432000Y170000D02*
D03*
X1448000D02*
D03*
X1398000D02*
D03*
X1382000D02*
D03*
X1367000D02*
D03*
X1351000D02*
D03*
X1352000Y204000D02*
D03*
X1368000D02*
D03*
X1405000Y242000D02*
D03*
X1421000D02*
D03*
X1448000Y289000D02*
D03*
X1432000D02*
D03*
X1382000D02*
D03*
X1398000D02*
D03*
X1352000D02*
D03*
X1368000D02*
D03*
Y325000D02*
D03*
X1352000D02*
D03*
X1478000Y332000D02*
D03*
X1462000D02*
D03*
X1423000Y361000D02*
D03*
X1407000D02*
D03*
X1253000Y468000D02*
D03*
X1237000D02*
D03*
X1223000Y665000D02*
D03*
X1239000D02*
D03*
X1225000Y583000D02*
D03*
X1241000D02*
D03*
X1223000Y650000D02*
D03*
X1239000D02*
D03*
X1368000D02*
D03*
X1352000D02*
D03*
Y409000D02*
D03*
X1368000D02*
D03*
Y444000D02*
D03*
X1352000D02*
D03*
X1382000Y409000D02*
D03*
X1398000D02*
D03*
X1448000D02*
D03*
X1432000D02*
D03*
X1478000Y452000D02*
D03*
X1462000D02*
D03*
X1423000Y481000D02*
D03*
X1407000D02*
D03*
X1276000Y583000D02*
D03*
X1260000D02*
D03*
X1253000Y486000D02*
D03*
X1237000D02*
D03*
X1272000D02*
D03*
X1288000D02*
D03*
X1382000Y529000D02*
D03*
X1398000D02*
D03*
X1448000D02*
D03*
X1432000D02*
D03*
X1478000Y572000D02*
D03*
X1462000D02*
D03*
X1368000Y562000D02*
D03*
X1352000D02*
D03*
Y529000D02*
D03*
X1368000D02*
D03*
X1423000Y601000D02*
D03*
X1407000D02*
D03*
X1382000Y650000D02*
D03*
X1398000D02*
D03*
X1448000D02*
D03*
X1432000D02*
D03*
X1369000Y681000D02*
D03*
X1353000D02*
D03*
X1423000Y720703D02*
D03*
X1407000D02*
D03*
X1478000Y692000D02*
D03*
X1462000D02*
D03*
X1448000Y770000D02*
D03*
X1432000D02*
D03*
X1423000Y840703D02*
D03*
X1407000D02*
D03*
X1382000Y770000D02*
D03*
X1398000D02*
D03*
X1369000Y804000D02*
D03*
X1353000D02*
D03*
X1352000Y770000D02*
D03*
X1368000D02*
D03*
X1478000Y812000D02*
D03*
X1462000D02*
D03*
X1156000Y823000D02*
D03*
X1172000D02*
D03*
X1091000Y626000D02*
D03*
X1075000D02*
D03*
X1038000D02*
D03*
X1054000D02*
D03*
X1091000Y641000D02*
D03*
X1075000D02*
D03*
X1238000Y802000D02*
D03*
X1254000D02*
D03*
X1156000Y807000D02*
D03*
X1172000D02*
D03*
X1277000Y875000D02*
D03*
X1261000D02*
D03*
X1151000Y650000D02*
D03*
X1167000D02*
D03*
X1151000Y665000D02*
D03*
X1167000D02*
D03*
X1247000Y568797D02*
D03*
X1263000D02*
D03*
X1263797Y540392D02*
D03*
X1279797D02*
D03*
X1274000Y554595D02*
D03*
X1258000D02*
D03*
X1278000Y944000D02*
D03*
X1262000D02*
D03*
X300500Y245000D02*
D03*
X284500D02*
D03*
X468000Y295000D02*
D03*
X452000D02*
D03*
X323000Y192500D02*
D03*
X307000D02*
D03*
X240000Y959000D02*
D03*
X224000D02*
D03*
X1448000Y889000D02*
D03*
X1432000D02*
D03*
X1478000Y933000D02*
D03*
X1462000D02*
D03*
X1423000Y960000D02*
D03*
X1407000D02*
D03*
X1368000Y923000D02*
D03*
X1352000D02*
D03*
Y888797D02*
D03*
X1368000D02*
D03*
X1382000D02*
D03*
X1398000D02*
D03*
D20*
X1170452Y388797D02*
D03*
X1187952D02*
D03*
X1135250D02*
D03*
X1152750D02*
D03*
X1351250Y67000D02*
D03*
X1368750D02*
D03*
X1478750D02*
D03*
X1461250D02*
D03*
X1478750Y187000D02*
D03*
X1461250D02*
D03*
X1351250D02*
D03*
X1368750D02*
D03*
X1351250Y306000D02*
D03*
X1368750D02*
D03*
X1478750Y307000D02*
D03*
X1461250D02*
D03*
X1351250Y427000D02*
D03*
X1368750D02*
D03*
X1478750D02*
D03*
X1461250D02*
D03*
X1351250Y546000D02*
D03*
X1368750D02*
D03*
X1478750Y547000D02*
D03*
X1461250D02*
D03*
X1478750Y667000D02*
D03*
X1461250D02*
D03*
X1351250Y665000D02*
D03*
X1368750D02*
D03*
X1351250Y786797D02*
D03*
X1368750D02*
D03*
X1478750Y787000D02*
D03*
X1461250D02*
D03*
Y907000D02*
D03*
X1478750D02*
D03*
X1368750Y906000D02*
D03*
X1351250D02*
D03*
D21*
X1442000Y105050D02*
D03*
Y92350D02*
D03*
Y79650D02*
D03*
Y66950D02*
D03*
X1388000D02*
D03*
Y79650D02*
D03*
Y92350D02*
D03*
Y105050D02*
D03*
X1442000Y225860D02*
D03*
Y213160D02*
D03*
Y200460D02*
D03*
Y187760D02*
D03*
X1388000D02*
D03*
Y200460D02*
D03*
Y213160D02*
D03*
Y225860D02*
D03*
Y345050D02*
D03*
Y332350D02*
D03*
Y319650D02*
D03*
Y306950D02*
D03*
X1442000D02*
D03*
Y319650D02*
D03*
Y332350D02*
D03*
Y345050D02*
D03*
X1388000Y825050D02*
D03*
Y812350D02*
D03*
Y799650D02*
D03*
Y786950D02*
D03*
X1442000D02*
D03*
Y799650D02*
D03*
Y812350D02*
D03*
Y825050D02*
D03*
X1388000Y465360D02*
D03*
Y452660D02*
D03*
Y439960D02*
D03*
Y427260D02*
D03*
X1442000D02*
D03*
Y439960D02*
D03*
Y452660D02*
D03*
Y465360D02*
D03*
Y945050D02*
D03*
Y932350D02*
D03*
Y919650D02*
D03*
Y906950D02*
D03*
X1388000D02*
D03*
Y919650D02*
D03*
Y932350D02*
D03*
Y945050D02*
D03*
Y585050D02*
D03*
Y572350D02*
D03*
Y559650D02*
D03*
Y546950D02*
D03*
X1442000D02*
D03*
Y559650D02*
D03*
Y572350D02*
D03*
Y585050D02*
D03*
X1388000Y705050D02*
D03*
Y692350D02*
D03*
Y679650D02*
D03*
Y666950D02*
D03*
X1442000D02*
D03*
Y679650D02*
D03*
Y692350D02*
D03*
Y705050D02*
D03*
X1296000Y861050D02*
D03*
Y848350D02*
D03*
Y835650D02*
D03*
Y822950D02*
D03*
X1242000D02*
D03*
Y835650D02*
D03*
Y848350D02*
D03*
Y861050D02*
D03*
X1296350Y930360D02*
D03*
Y917660D02*
D03*
Y904960D02*
D03*
Y892260D02*
D03*
X1242350D02*
D03*
Y904960D02*
D03*
Y917660D02*
D03*
Y930360D02*
D03*
D22*
X1144000Y635000D02*
D03*
X1223000D02*
D03*
X1207000Y442000D02*
D03*
X1213000Y468000D02*
D03*
X1124000Y442000D02*
D03*
X1185700Y823325D02*
D03*
X1206000Y609000D02*
D03*
X1211000Y583000D02*
D03*
D23*
X1185700Y889250D02*
D03*
X1173000Y889250D02*
D03*
X1160300Y889250D02*
D03*
Y848750D02*
D03*
X1173000Y848750D02*
D03*
X1185700Y848750D02*
D03*
D24*
X1155250Y869000D02*
D03*
X1190750D02*
D03*
D25*
X1176000Y945000D02*
D03*
X1176000Y935500D02*
D03*
X1176000Y926000D02*
D03*
X1203000Y945000D02*
D03*
X1203000Y935500D02*
D03*
X1203000Y926000D02*
D03*
X1253500Y524490D02*
D03*
X1253500Y514990D02*
D03*
X1253500Y505490D02*
D03*
X1280500Y524490D02*
D03*
X1280500Y514990D02*
D03*
X1280500Y505490D02*
D03*
X473500Y260500D02*
D03*
X473500Y270000D02*
D03*
X473500Y279500D02*
D03*
X446500Y260500D02*
D03*
X446500Y270000D02*
D03*
X446500Y279500D02*
D03*
D26*
X1141000Y922250D02*
D03*
Y939750D02*
D03*
D27*
X459020Y893150D02*
D03*
Y880450D02*
D03*
Y867750D02*
D03*
Y855050D02*
D03*
Y842350D02*
D03*
Y829650D02*
D03*
Y816950D02*
D03*
Y804250D02*
D03*
Y791550D02*
D03*
Y778850D02*
D03*
X554020Y893150D02*
D03*
Y880450D02*
D03*
Y867750D02*
D03*
Y855050D02*
D03*
Y842350D02*
D03*
Y829650D02*
D03*
Y816950D02*
D03*
Y804250D02*
D03*
Y791550D02*
D03*
Y778850D02*
D03*
D28*
X749000Y176000D02*
D03*
Y202000D02*
D03*
D29*
X408000Y758000D02*
D03*
Y772000D02*
D03*
X392500Y758000D02*
D03*
Y772000D02*
D03*
X377500Y758000D02*
D03*
Y772000D02*
D03*
X362500Y758000D02*
D03*
Y772000D02*
D03*
X347500Y758000D02*
D03*
Y772000D02*
D03*
D30*
X306500Y217500D02*
D03*
X283500Y208000D02*
D03*
Y227000D02*
D03*
X475500Y100000D02*
D03*
X452500Y90500D02*
D03*
Y109500D02*
D03*
D31*
X330750Y115200D02*
D03*
Y89800D02*
D03*
X419250Y115200D02*
D03*
Y89800D02*
D03*
X330750Y240200D02*
D03*
Y214800D02*
D03*
X419250Y240200D02*
D03*
Y214800D02*
D03*
D32*
X185000Y74500D02*
D03*
Y145500D02*
D03*
X185000Y195000D02*
D03*
Y266000D02*
D03*
X184000Y931500D02*
D03*
Y860500D02*
D03*
D33*
X418180Y905800D02*
D03*
Y880400D02*
D03*
X329280Y804200D02*
D03*
X329230Y829600D02*
D03*
X418180Y804200D02*
D03*
X329230Y855000D02*
D03*
X418180Y829600D02*
D03*
X329230Y880400D02*
D03*
X418180Y855000D02*
D03*
X329230Y905800D02*
D03*
M02*
