G04*
G04 #@! TF.GenerationSoftware,Altium Limited,Altium Designer,22.6.1 (34)*
G04*
G04 Layer_Color=65535*
%FSLAX44Y44*%
%MOMM*%
G71*
G04*
G04 #@! TF.SameCoordinates,7EAFA6D0-7FEA-492A-8EC4-A6B53FA9F8CD*
G04*
G04*
G04 #@! TF.FilePolarity,Positive*
G04*
G01*
G75*
%ADD10C,0.6000*%
%ADD11C,0.2500*%
%ADD12C,0.2000*%
%ADD13C,0.1000*%
%ADD14C,0.0152*%
%ADD15C,0.2540*%
D10*
X1129500Y489750D02*
G03*
X1129500Y489750I-3000J0D01*
G01*
X534020Y780500D02*
G03*
X534020Y780500I-3000J0D01*
G01*
X357000Y117500D02*
G03*
X357000Y117500I-3000J0D01*
G01*
Y242500D02*
G03*
X357000Y242500I-3000J0D01*
G01*
D11*
X1119250Y468500D02*
G03*
X1119250Y468500I-1250J0D01*
G01*
X1388207Y111500D02*
G03*
X1388207Y111500I-707J0D01*
G01*
Y232310D02*
G03*
X1388207Y232310I-707J0D01*
G01*
Y351500D02*
G03*
X1388207Y351500I-707J0D01*
G01*
Y831500D02*
G03*
X1388207Y831500I-707J0D01*
G01*
Y471810D02*
G03*
X1388207Y471810I-707J0D01*
G01*
Y951500D02*
G03*
X1388207Y951500I-707J0D01*
G01*
Y591500D02*
G03*
X1388207Y591500I-707J0D01*
G01*
Y711500D02*
G03*
X1388207Y711500I-707J0D01*
G01*
X1186950Y906750D02*
G03*
X1186950Y906750I-1250J0D01*
G01*
X1204250Y918000D02*
G03*
X1204250Y918000I-1250J0D01*
G01*
X1281750Y497490D02*
G03*
X1281750Y497490I-1250J0D01*
G01*
X1242207Y867500D02*
G03*
X1242207Y867500I-707J0D01*
G01*
X1242557Y936810D02*
G03*
X1242557Y936810I-707J0D01*
G01*
X555270Y770350D02*
G03*
X555270Y770350I-1250J0D01*
G01*
X755750Y202000D02*
G03*
X755750Y202000I-1000J0D01*
G01*
X281000Y233000D02*
G03*
X281000Y233000I-500J0D01*
G01*
X332000Y128200D02*
G03*
X332000Y128200I-1250J0D01*
G01*
Y253200D02*
G03*
X332000Y253200I-1250J0D01*
G01*
X474750Y252500D02*
G03*
X474750Y252500I-1250J0D01*
G01*
X450000Y115500D02*
G03*
X450000Y115500I-500J0D01*
G01*
D12*
X1156000Y706000D02*
X1319000D01*
X1156000Y793000D02*
X1319000D01*
Y706000D02*
Y793000D01*
X1156000Y706000D02*
Y793000D01*
X1226000Y723000D02*
X1262000D01*
X1226000Y725000D02*
X1262000D01*
Y723000D02*
Y725000D01*
X1226000Y723000D02*
Y725000D01*
X1196000Y728000D02*
X1232000D01*
X1196000Y730000D02*
X1232000D01*
Y728000D02*
Y730000D01*
X1196000Y728000D02*
Y730000D01*
X314000Y784000D02*
X443000D01*
X314000Y941000D02*
X443000D01*
Y784000D02*
Y941000D01*
X314000Y784000D02*
Y941000D01*
X1185000Y951000D02*
X1194000D01*
X1185000Y920000D02*
X1194000D01*
X1185000D02*
Y951000D01*
X1194000Y920000D02*
Y951000D01*
X1262500Y530490D02*
X1271500D01*
X1262500Y499490D02*
X1271500D01*
X1262500D02*
Y530490D01*
X1271500Y499490D02*
Y530490D01*
X344000Y77500D02*
Y127500D01*
X406000Y77500D02*
Y127500D01*
X344000D02*
X406000D01*
X344000Y77500D02*
X406000D01*
X344000Y202500D02*
Y252500D01*
X406000Y202500D02*
Y252500D01*
X344000D02*
X406000D01*
X344000Y202500D02*
X406000D01*
X143500Y68500D02*
Y133500D01*
Y68500D02*
X173000D01*
X197000D02*
X226500D01*
Y133500D01*
X161500Y151500D02*
X173000D01*
X143500Y133500D02*
X161500Y151500D01*
X208500D02*
X226500Y133500D01*
X197000Y151500D02*
X208500D01*
X143500Y189000D02*
Y254000D01*
Y189000D02*
X173000D01*
X197000D02*
X226500D01*
Y254000D01*
X161500Y272000D02*
X173000D01*
X143500Y254000D02*
X161500Y272000D01*
X208500D02*
X226500Y254000D01*
X197000Y272000D02*
X208500D01*
X464500Y254500D02*
Y285500D01*
X455500Y254500D02*
Y285500D01*
Y254500D02*
X464500D01*
X455500Y285500D02*
X464500D01*
X-76600Y938700D02*
X-27600D01*
Y971700D01*
X55400D01*
Y913700D02*
Y971700D01*
X31400Y913700D02*
X55400D01*
X31400Y86700D02*
Y913700D01*
X55400Y28700D02*
Y76700D01*
X-27600Y28700D02*
X55400D01*
X-27600D02*
Y61700D01*
X-76600D02*
X-27600D01*
X-76600D02*
Y938700D01*
X225500Y872500D02*
Y937500D01*
X196000D02*
X225500D01*
X142500D02*
X172000D01*
X142500Y872500D02*
Y937500D01*
X196000Y854500D02*
X207500Y854500D01*
X225500Y872500D01*
X142500D02*
X160500Y854500D01*
X172000Y854500D01*
X296620Y299140D02*
Y302472D01*
Y300806D01*
X286623D01*
X288289Y299140D01*
X271220Y303265D02*
Y296600D01*
X264555Y303265D01*
X262889D01*
X261223Y301598D01*
Y298266D01*
X262889Y296600D01*
X296620Y951838D02*
X286623D01*
X291622Y946840D01*
Y953504D01*
X294954Y956837D02*
X296620Y958503D01*
Y961835D01*
X294954Y963501D01*
X288289D01*
X286623Y961835D01*
Y958503D01*
X288289Y956837D01*
X289956D01*
X291622Y958503D01*
Y963501D01*
X261223Y953504D02*
Y946840D01*
X266222D01*
X264555Y950172D01*
Y951838D01*
X266222Y953504D01*
X269554D01*
X271220Y951838D01*
Y948506D01*
X269554Y946840D01*
X262889Y956837D02*
X261223Y958503D01*
Y961835D01*
X262889Y963501D01*
X269554D01*
X271220Y961835D01*
Y958503D01*
X269554Y956837D01*
X262889D01*
X431000Y911000D02*
X436332D01*
X438997Y908334D01*
X436332Y905668D01*
X431000D01*
X434999D01*
Y911000D01*
X438997Y903003D02*
Y897671D01*
X437664D01*
X432333Y903003D01*
X431000D01*
X331000Y936997D02*
Y929000D01*
X334999D01*
X336332Y930333D01*
Y931666D01*
X334999Y932999D01*
X331000D01*
X334999D01*
X336332Y934332D01*
Y935665D01*
X334999Y936997D01*
X331000D01*
X338997Y929000D02*
Y934332D01*
X341663Y936997D01*
X344329Y934332D01*
Y929000D01*
Y932999D01*
X338997D01*
X352326Y935665D02*
X350994Y936997D01*
X348328D01*
X346995Y935665D01*
Y934332D01*
X348328Y932999D01*
X350994D01*
X352326Y931666D01*
Y930333D01*
X350994Y929000D01*
X348328D01*
X346995Y930333D01*
X360324Y936997D02*
X354992D01*
Y929000D01*
X360324D01*
X354992Y932999D02*
X357658D01*
X370987Y929000D02*
Y934332D01*
X373653Y936997D01*
X376319Y934332D01*
Y929000D01*
Y932999D01*
X370987D01*
X378984Y936997D02*
Y929000D01*
X382983D01*
X384316Y930333D01*
Y935665D01*
X382983Y936997D01*
X378984D01*
X386982D02*
Y929000D01*
X390981D01*
X392313Y930333D01*
Y935665D01*
X390981Y936997D01*
X386982D01*
X394979Y929000D02*
Y936997D01*
X398978D01*
X400311Y935665D01*
Y932999D01*
X398978Y931666D01*
X394979D01*
X397645D02*
X400311Y929000D01*
X408308Y936997D02*
X402977D01*
Y929000D01*
X408308D01*
X402977Y932999D02*
X405643D01*
X416306Y935665D02*
X414973Y936997D01*
X412307D01*
X410974Y935665D01*
Y934332D01*
X412307Y932999D01*
X414973D01*
X416306Y931666D01*
Y930333D01*
X414973Y929000D01*
X412307D01*
X410974Y930333D01*
X424303Y935665D02*
X422970Y936997D01*
X420304D01*
X418972Y935665D01*
Y934332D01*
X420304Y932999D01*
X422970D01*
X424303Y931666D01*
Y930333D01*
X422970Y929000D01*
X420304D01*
X418972Y930333D01*
X432000Y811000D02*
X437332D01*
X439997Y808334D01*
X437332Y805668D01*
X432000D01*
X435999D01*
Y811000D01*
X438665Y803003D02*
X439997Y801670D01*
Y799004D01*
X438665Y797671D01*
X437332D01*
X435999Y799004D01*
Y800337D01*
Y799004D01*
X434666Y797671D01*
X433333D01*
X432000Y799004D01*
Y801670D01*
X433333Y803003D01*
X431000Y836000D02*
X436332D01*
X438997Y833334D01*
X436332Y830668D01*
X431000D01*
X434999D01*
Y836000D01*
X431000Y824004D02*
X438997D01*
X434999Y828003D01*
Y822671D01*
X431000Y861000D02*
X436332D01*
X438997Y858334D01*
X436332Y855668D01*
X431000D01*
X434999D01*
Y861000D01*
X438997Y847671D02*
Y853003D01*
X434999D01*
X436332Y850337D01*
Y849004D01*
X434999Y847671D01*
X432333D01*
X431000Y849004D01*
Y851670D01*
X432333Y853003D01*
X431000Y886000D02*
X436332D01*
X438997Y883334D01*
X436332Y880668D01*
X431000D01*
X434999D01*
Y886000D01*
X438997Y872671D02*
X437664Y875337D01*
X434999Y878003D01*
X432333D01*
X431000Y876670D01*
Y874004D01*
X432333Y872671D01*
X433666D01*
X434999Y874004D01*
Y878003D01*
X490997Y657993D02*
X481000D01*
Y650496D01*
X485998D01*
X481000D01*
Y642998D01*
X495995D02*
Y657993D01*
X505992Y642998D01*
Y657993D01*
X510990D02*
Y642998D01*
X515989Y647997D01*
X520987Y642998D01*
Y657993D01*
X525985D02*
X530984D01*
X528485D01*
Y642998D01*
X525985D01*
X530984D01*
X553476Y657993D02*
X563473D01*
X558475D01*
Y642998D01*
X575969D02*
X570971D01*
X568472Y645498D01*
Y650496D01*
X570971Y652995D01*
X575969D01*
X578468Y650496D01*
Y647997D01*
X568472D01*
X593464Y652995D02*
X585966D01*
X583467Y650496D01*
Y645498D01*
X585966Y642998D01*
X593464D01*
X598462Y657993D02*
Y642998D01*
Y650496D01*
X600961Y652995D01*
X605960D01*
X608459Y650496D01*
Y642998D01*
X613457D02*
Y652995D01*
X620955D01*
X623454Y650496D01*
Y642998D01*
X630951D02*
X635950D01*
X638449Y645498D01*
Y650496D01*
X635950Y652995D01*
X630951D01*
X628452Y650496D01*
Y645498D01*
X630951Y642998D01*
X643447D02*
X648446D01*
X645947D01*
Y657993D01*
X643447D01*
X658443Y642998D02*
X663441D01*
X665940Y645498D01*
Y650496D01*
X663441Y652995D01*
X658443D01*
X655943Y650496D01*
Y645498D01*
X658443Y642998D01*
X675937Y638000D02*
X678436D01*
X680935Y640499D01*
Y652995D01*
X673438D01*
X670938Y650496D01*
Y645498D01*
X673438Y642998D01*
X680935D01*
X685934Y652995D02*
Y645498D01*
X688433Y642998D01*
X695930D01*
Y640499D01*
X693431Y638000D01*
X690932D01*
X695930Y642998D02*
Y652995D01*
X725921Y655494D02*
X723421Y657993D01*
X718423D01*
X715924Y655494D01*
Y645498D01*
X718423Y642998D01*
X723421D01*
X725921Y645498D01*
X738417Y642998D02*
X733418D01*
X730919Y645498D01*
Y650496D01*
X733418Y652995D01*
X738417D01*
X740916Y650496D01*
Y647997D01*
X730919D01*
X745914Y642998D02*
Y652995D01*
X753412D01*
X755911Y650496D01*
Y642998D01*
X763409Y655494D02*
Y652995D01*
X760909D01*
X765908D01*
X763409D01*
Y645498D01*
X765908Y642998D01*
X773405Y652995D02*
Y642998D01*
Y647997D01*
X775904Y650496D01*
X778404Y652995D01*
X780903D01*
X795898Y642998D02*
X790900D01*
X788400Y645498D01*
Y650496D01*
X790900Y652995D01*
X795898D01*
X798397Y650496D01*
Y647997D01*
X788400D01*
X489997Y627994D02*
X480000D01*
Y612998D01*
X489997D01*
X480000Y620496D02*
X484998D01*
X494995Y612998D02*
Y615498D01*
X497494D01*
Y612998D01*
X494995D01*
X507491Y627994D02*
Y612998D01*
X512490Y617997D01*
X517488Y612998D01*
Y627994D01*
X522486Y612998D02*
Y615498D01*
X524985D01*
Y612998D01*
X522486D01*
X534982Y627994D02*
Y612998D01*
X542480D01*
X544979Y615498D01*
Y617997D01*
X542480Y620496D01*
X534982D01*
X542480D01*
X544979Y622995D01*
Y625494D01*
X542480Y627994D01*
X534982D01*
X552477Y622995D02*
X557475D01*
X559974Y620496D01*
Y612998D01*
X552477D01*
X549977Y615498D01*
X552477Y617997D01*
X559974D01*
X567472Y622995D02*
X572470D01*
X574969Y620496D01*
Y612998D01*
X567472D01*
X564972Y615498D01*
X567472Y617997D01*
X574969D01*
X579968Y612998D02*
X584966D01*
X582467D01*
Y622995D01*
X579968D01*
X592464Y608000D02*
X594963D01*
X597462Y610499D01*
Y622995D01*
X622454Y625494D02*
X624953Y627994D01*
X629952D01*
X632451Y625494D01*
Y615498D01*
X629952Y612998D01*
X624953D01*
X622454Y615498D01*
Y625494D01*
X637449Y627994D02*
X647446D01*
Y625494D01*
X637449Y615498D01*
Y612998D01*
X652444Y620496D02*
X662441D01*
X677436Y612998D02*
X667439D01*
X677436Y622995D01*
Y625494D01*
X674937Y627994D01*
X669939D01*
X667439Y625494D01*
X682434D02*
X684934Y627994D01*
X689932D01*
X692431Y625494D01*
Y615498D01*
X689932Y612998D01*
X684934D01*
X682434Y615498D01*
Y625494D01*
X707426Y612998D02*
X697430D01*
X707426Y622995D01*
Y625494D01*
X704927Y627994D01*
X699929D01*
X697430Y625494D01*
X722421Y612998D02*
X712425D01*
X722421Y622995D01*
Y625494D01*
X719922Y627994D01*
X714924D01*
X712425Y625494D01*
X481000Y687995D02*
Y673000D01*
X488498D01*
X490997Y675499D01*
Y685496D01*
X488498Y687995D01*
X481000D01*
X495995Y673000D02*
Y682997D01*
X500993Y687995D01*
X505992Y682997D01*
Y673000D01*
Y680498D01*
X495995D01*
X520987Y685496D02*
X518488Y687995D01*
X513489D01*
X510990Y685496D01*
Y675499D01*
X513489Y673000D01*
X518488D01*
X520987Y675499D01*
X540981Y685496D02*
X543480Y687995D01*
X548478D01*
X550977Y685496D01*
Y682997D01*
X548478Y680498D01*
X550977Y677998D01*
Y675499D01*
X548478Y673000D01*
X543480D01*
X540981Y675499D01*
Y677998D01*
X543480Y680498D01*
X540981Y682997D01*
Y685496D01*
X543480Y680498D02*
X548478D01*
X555976Y687995D02*
X565973D01*
Y685496D01*
X555976Y675499D01*
Y673000D01*
X580968D02*
X570971D01*
X580968Y682997D01*
Y685496D01*
X578468Y687995D01*
X573470D01*
X570971Y685496D01*
X585966D02*
X588465Y687995D01*
X593464D01*
X595963Y685496D01*
Y682997D01*
X593464Y680498D01*
X595963Y677998D01*
Y675499D01*
X593464Y673000D01*
X588465D01*
X585966Y675499D01*
Y677998D01*
X588465Y680498D01*
X585966Y682997D01*
Y685496D01*
X588465Y680498D02*
X593464D01*
X615956Y687995D02*
Y673000D01*
X623454D01*
X625953Y675499D01*
Y677998D01*
X623454Y680498D01*
X615956D01*
X623454D01*
X625953Y682997D01*
Y685496D01*
X623454Y687995D01*
X615956D01*
X633451Y673000D02*
X638449D01*
X640948Y675499D01*
Y680498D01*
X638449Y682997D01*
X633451D01*
X630951Y680498D01*
Y675499D01*
X633451Y673000D01*
X648446Y682997D02*
X653444D01*
X655943Y680498D01*
Y673000D01*
X648446D01*
X645947Y675499D01*
X648446Y677998D01*
X655943D01*
X660942Y682997D02*
Y673000D01*
Y677998D01*
X663441Y680498D01*
X665940Y682997D01*
X668439D01*
X685934Y687995D02*
Y673000D01*
X678436D01*
X675937Y675499D01*
Y680498D01*
X678436Y682997D01*
X685934D01*
X705927Y680498D02*
X715924D01*
X735918Y685496D02*
X738417Y687995D01*
X743415D01*
X745914Y685496D01*
Y682997D01*
X743415Y680498D01*
X745914Y677998D01*
Y675499D01*
X743415Y673000D01*
X738417D01*
X735918Y675499D01*
Y677998D01*
X738417Y680498D01*
X735918Y682997D01*
Y685496D01*
X738417Y680498D02*
X743415D01*
X775904Y685496D02*
X773405Y687995D01*
X768407D01*
X765908Y685496D01*
Y675499D01*
X768407Y673000D01*
X773405D01*
X775904Y675499D01*
X780903Y687995D02*
Y673000D01*
Y680498D01*
X783402Y682997D01*
X788400D01*
X790900Y680498D01*
Y673000D01*
X798397Y682997D02*
X803396D01*
X805895Y680498D01*
Y673000D01*
X798397D01*
X795898Y675499D01*
X798397Y677998D01*
X805895D01*
X810893Y673000D02*
Y682997D01*
X818391D01*
X820890Y680498D01*
Y673000D01*
X825888D02*
Y682997D01*
X833386D01*
X835885Y680498D01*
Y673000D01*
X848381D02*
X843383D01*
X840883Y675499D01*
Y680498D01*
X843383Y682997D01*
X848381D01*
X850880Y680498D01*
Y677998D01*
X840883D01*
X855879Y673000D02*
X860877D01*
X858378D01*
Y687995D01*
X855879D01*
X883370Y680498D02*
X893366D01*
X913360Y673000D02*
X918358D01*
X915859D01*
Y687995D01*
X913360Y685496D01*
X935853Y687995D02*
X930854Y685496D01*
X925856Y680498D01*
Y675499D01*
X928355Y673000D01*
X933354D01*
X935853Y675499D01*
Y677998D01*
X933354Y680498D01*
X925856D01*
X955846Y687995D02*
Y673000D01*
X963344D01*
X965843Y675499D01*
Y677998D01*
Y680498D01*
X963344Y682997D01*
X955846D01*
X970841Y673000D02*
X975840D01*
X973341D01*
Y682997D01*
X970841D01*
X985836Y685496D02*
Y682997D01*
X983337D01*
X988336D01*
X985836D01*
Y675499D01*
X988336Y673000D01*
X995833D02*
X1003331D01*
X1005830Y675499D01*
X1003331Y677998D01*
X998333D01*
X995833Y680498D01*
X998333Y682997D01*
X1005830D01*
X315669Y301002D02*
Y310998D01*
X320668D01*
X322334Y309332D01*
Y306000D01*
X320668Y304334D01*
X315669D01*
X325666Y302668D02*
X327332Y301002D01*
X330664D01*
X332331Y302668D01*
Y309332D01*
X330664Y310998D01*
X327332D01*
X325666Y309332D01*
Y307666D01*
X327332Y306000D01*
X332331D01*
X699669Y100998D02*
Y92668D01*
X701336Y91002D01*
X704668D01*
X706334Y92668D01*
Y100998D01*
X709666Y92668D02*
X711332Y91002D01*
X714665D01*
X716331Y92668D01*
Y99332D01*
X714665Y100998D01*
X711332D01*
X709666Y99332D01*
Y97666D01*
X711332Y96000D01*
X716331D01*
X702336Y259998D02*
Y251668D01*
X704002Y250002D01*
X707334D01*
X709000Y251668D01*
Y259998D01*
X712332Y250002D02*
X715665D01*
X713998D01*
Y259998D01*
X712332Y258332D01*
X1484669Y118002D02*
Y127998D01*
X1489668D01*
X1491334Y126332D01*
Y123000D01*
X1489668Y121334D01*
X1484669D01*
X1494666Y126332D02*
X1496332Y127998D01*
X1499664D01*
X1501331Y126332D01*
Y124666D01*
X1499664Y123000D01*
X1501331Y121334D01*
Y119668D01*
X1499664Y118002D01*
X1496332D01*
X1494666Y119668D01*
Y121334D01*
X1496332Y123000D01*
X1494666Y124666D01*
Y126332D01*
X1496332Y123000D02*
X1499664D01*
X1485669Y238002D02*
Y247998D01*
X1490668D01*
X1492334Y246332D01*
Y243000D01*
X1490668Y241334D01*
X1485669D01*
X1495666Y247998D02*
X1502331D01*
Y246332D01*
X1495666Y239668D01*
Y238002D01*
X1485669Y357002D02*
Y366998D01*
X1490668D01*
X1492334Y365332D01*
Y362000D01*
X1490668Y360334D01*
X1485669D01*
X1502331Y366998D02*
X1498998Y365332D01*
X1495666Y362000D01*
Y358668D01*
X1497332Y357002D01*
X1500665D01*
X1502331Y358668D01*
Y360334D01*
X1500665Y362000D01*
X1495666D01*
X1486669Y478002D02*
Y487998D01*
X1491668D01*
X1493334Y486332D01*
Y483000D01*
X1491668Y481334D01*
X1486669D01*
X1503331Y487998D02*
X1496666D01*
Y483000D01*
X1499998Y484666D01*
X1501664D01*
X1503331Y483000D01*
Y479668D01*
X1501664Y478002D01*
X1498332D01*
X1496666Y479668D01*
X1485669Y600002D02*
Y609998D01*
X1490668D01*
X1492334Y608332D01*
Y605000D01*
X1490668Y603334D01*
X1485669D01*
X1500665Y600002D02*
Y609998D01*
X1495666Y605000D01*
X1502331D01*
X1486669Y715002D02*
Y724998D01*
X1491668D01*
X1493334Y723332D01*
Y720000D01*
X1491668Y718334D01*
X1486669D01*
X1496666Y723332D02*
X1498332Y724998D01*
X1501664D01*
X1503331Y723332D01*
Y721666D01*
X1501664Y720000D01*
X1499998D01*
X1501664D01*
X1503331Y718334D01*
Y716668D01*
X1501664Y715002D01*
X1498332D01*
X1496666Y716668D01*
X1486669Y839002D02*
Y848998D01*
X1491668D01*
X1493334Y847332D01*
Y844000D01*
X1491668Y842334D01*
X1486669D01*
X1503331Y839002D02*
X1496666D01*
X1503331Y845666D01*
Y847332D01*
X1501664Y848998D01*
X1498332D01*
X1496666Y847332D01*
X1488336Y956002D02*
Y965998D01*
X1493334D01*
X1495000Y964332D01*
Y961000D01*
X1493334Y959334D01*
X1488336D01*
X1498332Y956002D02*
X1501664D01*
X1499998D01*
Y965998D01*
X1498332Y964332D01*
D13*
X303700Y307302D02*
Y942300D01*
X278298D02*
X303698D01*
X278298Y307302D02*
X303700D01*
X252898D02*
Y942300D01*
Y307302D02*
X278298D01*
X252898Y942300D02*
X278298D01*
X632000Y49400D02*
Y149400D01*
X490000D02*
X692000D01*
X490000Y49400D02*
Y149400D01*
Y49400D02*
X692000D01*
Y149400D01*
X766000Y143250D02*
Y146750D01*
X756000Y143250D02*
Y146750D01*
X735000Y143250D02*
Y146750D01*
X725000Y143250D02*
Y146750D01*
X1208500Y479750D02*
Y571750D01*
X1116500Y479750D02*
Y571750D01*
X1208500D01*
X1116500Y479750D02*
X1208500D01*
X1469250Y138000D02*
X1472750D01*
X1469250Y148000D02*
X1472750D01*
X740000Y143250D02*
Y146750D01*
X750000Y143250D02*
Y146750D01*
X494770Y756500D02*
X498270D01*
X494770Y766500D02*
X498270D01*
X242500Y103250D02*
Y106750D01*
X232500Y103250D02*
Y106750D01*
X1174250Y411000D02*
X1177750D01*
X1174250Y401000D02*
X1177750D01*
X1177203Y395797D02*
X1181202D01*
X1177203Y381797D02*
X1181202D01*
X1180000Y361250D02*
Y364750D01*
X1190000Y361250D02*
Y364750D01*
X1133000Y361845D02*
Y365345D01*
X1143000Y361845D02*
Y365345D01*
X1142000Y395797D02*
X1146000D01*
X1142000Y381797D02*
X1146000D01*
X1145250Y411000D02*
X1148750D01*
X1145250Y401000D02*
X1148750D01*
X1508000Y69000D02*
Y91000D01*
X1689816Y53092D02*
X1698000D01*
X1685710Y48987D02*
X1689816Y53092D01*
X1583750D02*
X1587842Y49000D01*
X1579000Y53092D02*
X1583750D01*
X1528750Y48250D02*
X1551000D01*
X1528750Y111750D02*
X1551000D01*
X1579000Y106908D02*
X1583750D01*
X1587855Y111013D01*
X1685987D01*
X1689816Y107184D01*
X1689816Y106908D02*
X1698000D01*
Y53092D02*
Y106908D01*
X1583750Y53092D02*
Y106908D01*
Y53092D02*
X1587855Y48987D01*
X1689749Y53092D02*
X1689816Y107184D01*
X1689579Y106714D02*
X1689816Y106908D01*
X1583920Y106714D02*
X1589629Y49079D01*
X1588629Y111092D02*
X1594774Y49066D01*
X1593774Y111079D02*
X1599919Y49053D01*
X1598919Y111066D02*
X1605064Y49040D01*
X1604064Y111053D02*
X1610209Y49026D01*
X1609209Y111040D02*
X1615354Y49013D01*
X1614354Y111026D02*
X1620499Y49000D01*
X1572000Y69000D02*
Y91000D01*
X1587842Y49000D02*
X1686000D01*
X1619524Y111079D02*
X1625669Y49053D01*
X1624669Y111066D02*
X1630814Y49040D01*
X1629814Y111053D02*
X1635959Y49026D01*
X1634959Y111040D02*
X1641104Y49013D01*
X1640104Y111026D02*
X1646249Y49000D01*
X1645274Y111079D02*
X1651419Y49053D01*
X1650419Y111066D02*
X1656564Y49040D01*
X1655564Y111053D02*
X1661709Y49026D01*
X1660709Y111040D02*
X1666854Y49013D01*
X1665854Y111026D02*
X1671999Y49000D01*
X1671024Y111079D02*
X1677169Y49053D01*
X1676169Y111066D02*
X1682314Y49040D01*
X1681314Y111053D02*
X1687315Y50482D01*
X1358250Y54000D02*
X1361750D01*
X1358250Y44000D02*
X1361750D01*
X1358250Y79000D02*
X1361750D01*
X1358250Y89000D02*
X1361750D01*
X1358000Y74000D02*
X1362000D01*
X1358000Y60000D02*
X1362000D01*
X1388250Y54000D02*
X1391750D01*
X1388250Y44000D02*
X1391750D01*
X1438250D02*
X1441750D01*
X1438250Y54000D02*
X1441750D01*
X1468000Y60000D02*
X1472000D01*
X1468000Y74000D02*
X1472000D01*
X1468250Y87000D02*
X1471750D01*
X1468250Y97000D02*
X1471750D01*
X1399000Y61500D02*
Y110500D01*
Y61500D02*
X1431000D01*
Y110500D01*
X1399000D02*
X1431000D01*
X1413250Y116000D02*
X1416750D01*
X1413250Y126000D02*
X1416750D01*
X1468250Y208000D02*
X1471750D01*
X1468250Y218000D02*
X1471750D01*
X1468000Y180000D02*
X1472000D01*
X1468000Y194000D02*
X1472000D01*
X1438250Y165000D02*
X1441750D01*
X1438250Y175000D02*
X1441750D01*
X1388250D02*
X1391750D01*
X1388250Y165000D02*
X1391750D01*
X1357250Y175000D02*
X1360750D01*
X1357250Y165000D02*
X1360750D01*
X1358000Y194000D02*
X1362000D01*
X1358000Y180000D02*
X1362000D01*
X1358250Y199000D02*
X1361750D01*
X1358250Y209000D02*
X1361750D01*
X1399000Y182310D02*
Y231310D01*
Y182310D02*
X1431000D01*
Y231310D01*
X1399000D02*
X1431000D01*
X1411250Y237000D02*
X1414750D01*
X1411250Y247000D02*
X1414750D01*
X1508000Y189000D02*
Y211000D01*
X1689816Y173092D02*
X1698000D01*
X1685710Y168987D02*
X1689816Y173092D01*
X1583750D02*
X1587842Y169000D01*
X1579000Y173092D02*
X1583750D01*
X1528750Y168250D02*
X1551000D01*
X1528750Y231750D02*
X1551000D01*
X1579000Y226908D02*
X1583750D01*
X1587855Y231013D01*
X1685987D01*
X1689816Y227184D01*
X1689816Y226908D02*
X1698000D01*
Y173092D02*
Y226908D01*
X1583750Y173092D02*
Y226908D01*
Y173092D02*
X1587855Y168987D01*
X1689749Y173092D02*
X1689816Y227184D01*
X1689579Y226714D02*
X1689816Y226908D01*
X1583920Y226714D02*
X1589629Y169079D01*
X1588629Y231092D02*
X1594774Y169066D01*
X1593774Y231079D02*
X1599919Y169053D01*
X1598919Y231066D02*
X1605064Y169040D01*
X1604064Y231053D02*
X1610209Y169026D01*
X1609209Y231040D02*
X1615354Y169013D01*
X1614354Y231026D02*
X1620499Y169000D01*
X1572000Y189000D02*
Y211000D01*
X1587842Y169000D02*
X1686000D01*
X1619524Y231079D02*
X1625669Y169053D01*
X1624669Y231066D02*
X1630814Y169040D01*
X1629814Y231053D02*
X1635959Y169026D01*
X1634959Y231040D02*
X1641104Y169013D01*
X1640104Y231026D02*
X1646249Y169000D01*
X1645274Y231079D02*
X1651419Y169053D01*
X1650419Y231066D02*
X1656564Y169040D01*
X1655564Y231053D02*
X1661709Y169026D01*
X1660709Y231040D02*
X1666854Y169013D01*
X1665854Y231026D02*
X1671999Y169000D01*
X1671024Y231079D02*
X1677169Y169053D01*
X1676169Y231066D02*
X1682314Y169040D01*
X1681314Y231053D02*
X1687315Y170482D01*
X1438250Y294000D02*
X1441750D01*
X1438250Y284000D02*
X1441750D01*
X1388250D02*
X1391750D01*
X1388250Y294000D02*
X1391750D01*
X1358250Y284000D02*
X1361750D01*
X1358250Y294000D02*
X1361750D01*
X1358000Y313000D02*
X1362000D01*
X1358000Y299000D02*
X1362000D01*
X1358250Y330000D02*
X1361750D01*
X1358250Y320000D02*
X1361750D01*
X1468000Y300000D02*
X1472000D01*
X1468000Y314000D02*
X1472000D01*
X1468250Y337000D02*
X1471750D01*
X1468250Y327000D02*
X1471750D01*
X1508000Y309000D02*
Y331000D01*
X1689816Y293092D02*
X1698000D01*
X1685710Y288987D02*
X1689816Y293092D01*
X1583750D02*
X1587842Y289000D01*
X1579000Y293092D02*
X1583750D01*
X1528750Y288250D02*
X1551000D01*
X1528750Y351750D02*
X1551000D01*
X1579000Y346908D02*
X1583750D01*
X1587855Y351013D01*
X1685987D01*
X1689816Y347184D01*
X1689816Y346908D02*
X1698000D01*
Y293092D02*
Y346908D01*
X1583750Y293092D02*
Y346908D01*
Y293092D02*
X1587855Y288987D01*
X1689749Y293092D02*
X1689816Y347184D01*
X1689579Y346714D02*
X1689816Y346908D01*
X1583920Y346714D02*
X1589629Y289079D01*
X1588629Y351092D02*
X1594774Y289066D01*
X1593774Y351079D02*
X1599919Y289053D01*
X1598919Y351066D02*
X1605064Y289040D01*
X1604064Y351053D02*
X1610209Y289026D01*
X1609209Y351040D02*
X1615354Y289013D01*
X1614354Y351026D02*
X1620499Y289000D01*
X1572000Y309000D02*
Y331000D01*
X1587842Y289000D02*
X1686000D01*
X1619524Y351079D02*
X1625669Y289053D01*
X1624669Y351066D02*
X1630814Y289040D01*
X1629814Y351053D02*
X1635959Y289026D01*
X1634959Y351040D02*
X1641104Y289013D01*
X1640104Y351026D02*
X1646249Y289000D01*
X1645274Y351079D02*
X1651419Y289053D01*
X1650419Y351066D02*
X1656564Y289040D01*
X1655564Y351053D02*
X1661709Y289026D01*
X1660709Y351040D02*
X1666854Y289013D01*
X1665854Y351026D02*
X1671999Y289000D01*
X1671024Y351079D02*
X1677169Y289053D01*
X1676169Y351066D02*
X1682314Y289040D01*
X1681314Y351053D02*
X1687315Y290482D01*
X1399000Y350500D02*
X1431000D01*
Y301500D02*
Y350500D01*
X1399000Y301500D02*
X1431000D01*
X1399000D02*
Y350500D01*
X1413250Y366000D02*
X1416750D01*
X1413250Y356000D02*
X1416750D01*
X1508000Y429000D02*
Y451000D01*
X1689816Y413092D02*
X1698000D01*
X1685710Y408987D02*
X1689816Y413092D01*
X1583750D02*
X1587842Y409000D01*
X1579000Y413092D02*
X1583750D01*
X1528750Y408250D02*
X1551000D01*
X1528750Y471750D02*
X1551000D01*
X1579000Y466908D02*
X1583750D01*
X1587855Y471013D01*
X1685987D01*
X1689816Y467184D01*
X1689816Y466908D02*
X1698000D01*
Y413092D02*
Y466908D01*
X1583750Y413092D02*
Y466908D01*
Y413092D02*
X1587855Y408987D01*
X1689749Y413092D02*
X1689816Y467184D01*
X1689579Y466714D02*
X1689816Y466908D01*
X1583920Y466714D02*
X1589629Y409079D01*
X1588629Y471092D02*
X1594774Y409066D01*
X1593774Y471079D02*
X1599919Y409053D01*
X1598919Y471066D02*
X1605064Y409040D01*
X1604064Y471053D02*
X1610209Y409026D01*
X1609209Y471040D02*
X1615354Y409013D01*
X1614354Y471026D02*
X1620499Y409000D01*
X1572000Y429000D02*
Y451000D01*
X1587842Y409000D02*
X1686000D01*
X1619524Y471079D02*
X1625669Y409053D01*
X1624669Y471066D02*
X1630814Y409040D01*
X1629814Y471053D02*
X1635959Y409026D01*
X1634959Y471040D02*
X1641104Y409013D01*
X1640104Y471026D02*
X1646249Y409000D01*
X1645274Y471079D02*
X1651419Y409053D01*
X1650419Y471066D02*
X1656564Y409040D01*
X1655564Y471053D02*
X1661709Y409026D01*
X1660709Y471040D02*
X1666854Y409013D01*
X1665854Y471026D02*
X1671999Y409000D01*
X1671024Y471079D02*
X1677169Y409053D01*
X1676169Y471066D02*
X1682314Y409040D01*
X1681314Y471053D02*
X1687315Y410482D01*
X1508000Y549000D02*
Y571000D01*
X1689816Y533092D02*
X1698000D01*
X1685710Y528987D02*
X1689816Y533092D01*
X1583750D02*
X1587842Y529000D01*
X1579000Y533092D02*
X1583750D01*
X1528750Y528250D02*
X1551000D01*
X1528750Y591750D02*
X1551000D01*
X1579000Y586908D02*
X1583750D01*
X1587855Y591013D01*
X1685987D01*
X1689816Y587184D01*
X1689816Y586908D02*
X1698000D01*
Y533092D02*
Y586908D01*
X1583750Y533092D02*
Y586908D01*
Y533092D02*
X1587855Y528987D01*
X1689749Y533092D02*
X1689816Y587184D01*
X1689579Y586714D02*
X1689816Y586908D01*
X1583920Y586714D02*
X1589629Y529079D01*
X1588629Y591092D02*
X1594774Y529066D01*
X1593774Y591079D02*
X1599919Y529053D01*
X1598919Y591066D02*
X1605064Y529040D01*
X1604064Y591053D02*
X1610209Y529026D01*
X1609209Y591040D02*
X1615354Y529013D01*
X1614354Y591026D02*
X1620499Y529000D01*
X1572000Y549000D02*
Y571000D01*
X1587842Y529000D02*
X1686000D01*
X1619524Y591079D02*
X1625669Y529053D01*
X1624669Y591066D02*
X1630814Y529040D01*
X1629814Y591053D02*
X1635959Y529026D01*
X1634959Y591040D02*
X1641104Y529013D01*
X1640104Y591026D02*
X1646249Y529000D01*
X1645274Y591079D02*
X1651419Y529053D01*
X1650419Y591066D02*
X1656564Y529040D01*
X1655564Y591053D02*
X1661709Y529026D01*
X1660709Y591040D02*
X1666854Y529013D01*
X1665854Y591026D02*
X1671999Y529000D01*
X1671024Y591079D02*
X1677169Y529053D01*
X1676169Y591066D02*
X1682314Y529040D01*
X1681314Y591053D02*
X1687315Y530482D01*
X1508000Y909000D02*
Y931000D01*
X1689816Y893092D02*
X1698000D01*
X1685710Y888987D02*
X1689816Y893092D01*
X1583750D02*
X1587842Y889000D01*
X1579000Y893092D02*
X1583750D01*
X1528750Y888250D02*
X1551000D01*
X1528750Y951750D02*
X1551000D01*
X1579000Y946908D02*
X1583750D01*
X1587855Y951013D01*
X1685987D01*
X1689816Y947184D01*
X1689816Y946908D02*
X1698000D01*
Y893092D02*
Y946908D01*
X1583750Y893092D02*
Y946908D01*
Y893092D02*
X1587855Y888987D01*
X1689749Y893092D02*
X1689816Y947184D01*
X1689579Y946714D02*
X1689816Y946908D01*
X1583920Y946714D02*
X1589629Y889079D01*
X1588629Y951092D02*
X1594774Y889066D01*
X1593774Y951079D02*
X1599919Y889053D01*
X1598919Y951066D02*
X1605064Y889040D01*
X1604064Y951053D02*
X1610209Y889026D01*
X1609209Y951040D02*
X1615354Y889013D01*
X1614354Y951026D02*
X1620499Y889000D01*
X1572000Y909000D02*
Y931000D01*
X1587842Y889000D02*
X1686000D01*
X1619524Y951079D02*
X1625669Y889053D01*
X1624669Y951066D02*
X1630814Y889040D01*
X1629814Y951053D02*
X1635959Y889026D01*
X1634959Y951040D02*
X1641104Y889013D01*
X1640104Y951026D02*
X1646249Y889000D01*
X1645274Y951079D02*
X1651419Y889053D01*
X1650419Y951066D02*
X1656564Y889040D01*
X1655564Y951053D02*
X1661709Y889026D01*
X1660709Y951040D02*
X1666854Y889013D01*
X1665854Y951026D02*
X1671999Y889000D01*
X1671024Y951079D02*
X1677169Y889053D01*
X1676169Y951066D02*
X1682314Y889040D01*
X1681314Y951053D02*
X1687315Y890482D01*
X1508000Y669000D02*
Y691000D01*
X1689816Y653092D02*
X1698000D01*
X1685710Y648987D02*
X1689816Y653092D01*
X1583750D02*
X1587842Y649000D01*
X1579000Y653092D02*
X1583750D01*
X1528750Y648250D02*
X1551000D01*
X1528750Y711750D02*
X1551000D01*
X1579000Y706908D02*
X1583750D01*
X1587855Y711013D01*
X1685987D01*
X1689816Y707184D01*
X1689816Y706908D02*
X1698000D01*
Y653092D02*
Y706908D01*
X1583750Y653092D02*
Y706908D01*
Y653092D02*
X1587855Y648987D01*
X1689749Y653092D02*
X1689816Y707184D01*
X1689579Y706714D02*
X1689816Y706908D01*
X1583920Y706714D02*
X1589629Y649079D01*
X1588629Y711093D02*
X1594774Y649066D01*
X1593774Y711079D02*
X1599919Y649053D01*
X1598919Y711066D02*
X1605064Y649040D01*
X1604064Y711053D02*
X1610209Y649026D01*
X1609209Y711040D02*
X1615354Y649013D01*
X1614354Y711026D02*
X1620499Y649000D01*
X1572000Y669000D02*
Y691000D01*
X1587842Y649000D02*
X1686000D01*
X1619524Y711079D02*
X1625669Y649053D01*
X1624669Y711066D02*
X1630814Y649040D01*
X1629814Y711053D02*
X1635959Y649026D01*
X1634959Y711040D02*
X1641104Y649013D01*
X1640104Y711026D02*
X1646249Y649000D01*
X1645274Y711079D02*
X1651419Y649053D01*
X1650419Y711066D02*
X1656564Y649040D01*
X1655564Y711053D02*
X1661709Y649026D01*
X1660709Y711040D02*
X1666854Y649013D01*
X1665854Y711026D02*
X1671999Y649000D01*
X1671024Y711079D02*
X1677169Y649053D01*
X1676169Y711066D02*
X1682314Y649040D01*
X1681314Y711053D02*
X1687315Y650482D01*
X1508000Y789000D02*
Y811000D01*
X1689816Y773092D02*
X1698000D01*
X1685710Y768987D02*
X1689816Y773092D01*
X1583750D02*
X1587842Y769000D01*
X1579000Y773092D02*
X1583750D01*
X1528750Y768250D02*
X1551000D01*
X1528750Y831750D02*
X1551000D01*
X1579000Y826908D02*
X1583750D01*
X1587855Y831013D01*
X1685987D01*
X1689816Y827184D01*
X1689816Y826908D02*
X1698000D01*
Y773092D02*
Y826908D01*
X1583750Y773092D02*
Y826908D01*
Y773092D02*
X1587855Y768987D01*
X1689749Y773092D02*
X1689816Y827184D01*
X1689579Y826714D02*
X1689816Y826908D01*
X1583920Y826714D02*
X1589629Y769079D01*
X1588629Y831092D02*
X1594774Y769066D01*
X1593774Y831079D02*
X1599919Y769053D01*
X1598919Y831066D02*
X1605064Y769040D01*
X1604064Y831053D02*
X1610209Y769026D01*
X1609209Y831040D02*
X1615354Y769013D01*
X1614354Y831026D02*
X1620499Y769000D01*
X1572000Y789000D02*
Y811000D01*
X1587842Y769000D02*
X1686000D01*
X1619524Y831079D02*
X1625669Y769053D01*
X1624669Y831066D02*
X1630814Y769040D01*
X1629814Y831053D02*
X1635959Y769026D01*
X1634959Y831040D02*
X1641104Y769013D01*
X1640104Y831026D02*
X1646249Y769000D01*
X1645274Y831079D02*
X1651419Y769053D01*
X1650419Y831066D02*
X1656564Y769040D01*
X1655564Y831053D02*
X1661709Y769026D01*
X1660709Y831040D02*
X1666854Y769013D01*
X1665854Y831026D02*
X1671999Y769000D01*
X1671024Y831079D02*
X1677169Y769053D01*
X1676169Y831066D02*
X1682314Y769040D01*
X1681314Y831053D02*
X1687315Y770482D01*
X1399000Y830500D02*
X1431000D01*
Y781500D02*
Y830500D01*
X1399000Y781500D02*
X1431000D01*
X1399000D02*
Y830500D01*
X1243250Y473000D02*
X1246750D01*
X1243250Y463000D02*
X1246750D01*
X1229250Y660000D02*
X1232750D01*
X1229250Y670000D02*
X1232750D01*
X1231250Y578000D02*
X1234750D01*
X1231250Y588000D02*
X1234750D01*
X1229250Y645000D02*
X1232750D01*
X1229250Y655000D02*
X1232750D01*
X1190902Y734302D02*
Y759702D01*
X1267100Y734302D02*
Y759702D01*
X1190902Y759702D02*
X1267100Y759702D01*
X1190902Y734302D02*
X1267100D01*
X1190902Y765302D02*
X1267100D01*
X1190902Y790702D02*
X1267100Y790702D01*
Y765302D02*
Y790702D01*
X1190902Y765302D02*
Y790702D01*
X1358250Y655000D02*
X1361750D01*
X1358250Y645000D02*
X1361750D01*
X1358250Y404000D02*
X1361750D01*
X1358250Y414000D02*
X1361750D01*
X1358000Y434000D02*
X1362000D01*
X1358000Y420000D02*
X1362000D01*
X1358250Y449000D02*
X1361750D01*
X1358250Y439000D02*
X1361750D01*
X1388250Y404000D02*
X1391750D01*
X1388250Y414000D02*
X1391750D01*
X1438250D02*
X1441750D01*
X1438250Y404000D02*
X1441750D01*
X1468000Y420000D02*
X1472000D01*
X1468000Y434000D02*
X1472000D01*
X1468250Y457000D02*
X1471750D01*
X1468250Y447000D02*
X1471750D01*
X1413250Y486000D02*
X1416750D01*
X1413250Y476000D02*
X1416750D01*
X1399000Y470810D02*
X1431000D01*
Y421810D02*
Y470810D01*
X1399000Y421810D02*
X1431000D01*
X1399000D02*
Y470810D01*
Y901500D02*
Y950500D01*
Y901500D02*
X1431000D01*
Y950500D01*
X1399000D02*
X1431000D01*
X1266250Y588000D02*
X1269750D01*
X1266250Y578000D02*
X1269750D01*
X1243250Y491000D02*
X1246750D01*
X1243250Y481000D02*
X1246750D01*
X1278250D02*
X1281750D01*
X1278250Y491000D02*
X1281750D01*
X1358000Y553000D02*
X1362000D01*
X1358000Y539000D02*
X1362000D01*
X1468000Y540000D02*
X1472000D01*
X1468000Y554000D02*
X1472000D01*
X1388250Y524000D02*
X1391750D01*
X1388250Y534000D02*
X1391750D01*
X1438250D02*
X1441750D01*
X1438250Y524000D02*
X1441750D01*
X1468250Y577000D02*
X1471750D01*
X1468250Y567000D02*
X1471750D01*
X1358250Y567000D02*
X1361750D01*
X1358250Y557000D02*
X1361750D01*
X1358250Y524000D02*
X1361750D01*
X1358250Y534000D02*
X1361750D01*
X1413250Y606000D02*
X1416750D01*
X1413250Y596000D02*
X1416750D01*
X1388250Y645000D02*
X1391750D01*
X1388250Y655000D02*
X1391750D01*
X1399000Y590500D02*
X1431000D01*
Y541500D02*
Y590500D01*
X1399000Y541500D02*
X1431000D01*
X1399000D02*
Y590500D01*
Y710500D02*
X1431000D01*
Y661500D02*
Y710500D01*
X1399000Y661500D02*
X1431000D01*
X1399000D02*
Y710500D01*
X1468000Y660000D02*
X1472000D01*
X1468000Y674000D02*
X1472000D01*
X1438250Y655000D02*
X1441750D01*
X1438250Y645000D02*
X1441750D01*
X1359250Y686000D02*
X1362750D01*
X1359250Y676000D02*
X1362750D01*
X1413250Y725703D02*
X1416750D01*
X1413250Y715703D02*
X1416750D01*
X1468250Y697000D02*
X1471750D01*
X1468250Y687000D02*
X1471750D01*
X1358000Y672000D02*
X1362000D01*
X1358000Y658000D02*
X1362000D01*
X1438250Y775000D02*
X1441750D01*
X1438250Y765000D02*
X1441750D01*
X1413250Y845703D02*
X1416750D01*
X1413250Y835703D02*
X1416750D01*
X1388250Y765000D02*
X1391750D01*
X1388250Y775000D02*
X1391750D01*
X1359250Y809000D02*
X1362750D01*
X1359250Y799000D02*
X1362750D01*
X1358250Y765000D02*
X1361750D01*
X1358250Y775000D02*
X1361750D01*
X1358000Y793798D02*
X1362000D01*
X1358000Y779797D02*
X1362000D01*
X1468000Y780000D02*
X1472000D01*
X1468000Y794000D02*
X1472000D01*
X1468250Y817000D02*
X1471750D01*
X1468250Y807000D02*
X1471750D01*
X1193700Y896000D02*
X1195350D01*
X1197000Y877000D02*
Y894350D01*
X1195350Y896000D02*
X1197000Y894350D01*
X1193700Y842000D02*
X1197000D01*
Y861000D01*
X1149000Y896000D02*
X1152300D01*
X1149000Y877000D02*
Y896000D01*
Y842000D02*
X1152300D01*
X1149000D02*
Y861000D01*
X1221000Y865250D02*
Y868750D01*
X1211000Y865250D02*
Y868750D01*
X1227000Y951250D02*
Y954750D01*
X1237000Y951250D02*
Y954750D01*
X1162250Y818000D02*
X1165750D01*
X1162250Y828000D02*
X1165750D01*
X1211000Y834250D02*
Y837750D01*
X1221000Y834250D02*
Y837750D01*
X1222000Y935250D02*
Y938750D01*
X1212000Y935250D02*
Y938750D01*
X1081250Y631000D02*
X1084750D01*
X1081250Y621000D02*
X1084750D01*
X1044250D02*
X1047750D01*
X1044250Y631000D02*
X1047750D01*
X1081250Y646000D02*
X1084750D01*
X1081250Y636000D02*
X1084750D01*
X1155000Y929250D02*
Y932750D01*
X1165000Y929250D02*
Y932750D01*
X1119000Y780250D02*
Y783750D01*
X1129000Y780250D02*
Y783750D01*
X1134000Y929000D02*
Y933000D01*
X1148000Y929000D02*
Y933000D01*
X1301000Y539250D02*
Y542750D01*
X1291000Y539250D02*
Y542750D01*
X1244250Y797000D02*
X1247750D01*
X1244250Y807000D02*
X1247750D01*
X1162250Y802000D02*
X1165750D01*
X1162250Y812000D02*
X1165750D01*
X1291000Y509048D02*
Y512547D01*
X1301000Y509048D02*
Y512547D01*
X1253000Y817500D02*
Y866500D01*
Y817500D02*
X1285000D01*
Y866500D01*
X1253000D02*
X1285000D01*
X1267250Y880000D02*
X1270750D01*
X1267250Y870000D02*
X1270750D01*
X1157250Y645000D02*
X1160750D01*
X1157250Y655000D02*
X1160750D01*
X1157250Y660000D02*
X1160750D01*
X1157250Y670000D02*
X1160750D01*
X1253250Y563797D02*
X1256750D01*
X1253250Y573797D02*
X1256750D01*
X1270047Y535392D02*
X1273547D01*
X1270047Y545392D02*
X1273547D01*
X1264250Y559595D02*
X1267750D01*
X1264250Y549595D02*
X1267750D01*
X1253350Y886810D02*
Y935810D01*
Y886810D02*
X1285350D01*
Y935810D01*
X1253350D02*
X1285350D01*
X1268250Y949000D02*
X1271750D01*
X1268250Y939000D02*
X1271750D01*
X472520Y901000D02*
X540520Y901000D01*
X472520Y771000D02*
X540520Y771000D01*
X472520Y771000D02*
Y901000D01*
X540520Y771000D02*
Y901000D01*
X242500Y223250D02*
Y226750D01*
X232500Y223250D02*
Y226750D01*
X735000Y187250D02*
Y190750D01*
X725000Y187250D02*
Y190750D01*
X753000Y197500D02*
X755500D01*
X753000Y180500D02*
X755500D01*
X742500D02*
X745000D01*
X742500Y197500D02*
X745000D01*
X755500Y180500D02*
Y197500D01*
X742500Y180500D02*
Y197500D01*
X413000Y763250D02*
Y766750D01*
X403000Y763250D02*
Y766750D01*
X397500Y763250D02*
Y766750D01*
X387500Y763250D02*
Y766750D01*
X382500Y763250D02*
X382500Y766750D01*
X372500D02*
X372500Y763250D01*
X367500D02*
Y766750D01*
X357500Y763250D02*
Y766750D01*
X352500Y763250D02*
Y766750D01*
X342500Y763250D02*
Y766750D01*
X290750Y250000D02*
X294250D01*
X290750Y240000D02*
X294250D01*
X291500Y203000D02*
Y232000D01*
Y203000D02*
X298500D01*
Y232000D01*
X291500D02*
X298500D01*
X270280Y216690D02*
Y220190D01*
X260280Y216690D02*
Y220190D01*
X312500Y123250D02*
Y126750D01*
X302500Y123250D02*
Y126750D01*
X632500Y185400D02*
Y285400D01*
X490500D02*
X692500D01*
X490500Y185400D02*
Y285400D01*
Y185400D02*
X692500D01*
Y285400D01*
X458250Y300000D02*
X461750D01*
X458250Y290000D02*
X461750D01*
X313250Y197500D02*
X316750D01*
X313250Y187500D02*
X316750D01*
X460500Y114500D02*
X460500Y85500D01*
X467500D01*
Y114500D01*
X460500D02*
X467500D01*
X433000Y89250D02*
Y92750D01*
X443000Y89250D02*
Y92750D01*
X-1600Y971700D02*
X-1600Y28700D01*
X230250Y964000D02*
X233750D01*
X230250Y954000D02*
X233750D01*
X339440Y898180D02*
X354680Y913420D01*
X339440Y796580D02*
Y913420D01*
Y796580D02*
X408020D01*
Y913420D01*
X339440Y913420D02*
X408020Y913420D01*
X1438250Y894000D02*
X1441750D01*
X1438250Y884000D02*
X1441750D01*
X1468250Y938000D02*
X1471750D01*
X1468250Y928000D02*
X1471750D01*
X1468000Y914000D02*
X1472000D01*
X1468000Y900000D02*
X1472000D01*
X1413250Y965000D02*
X1416750D01*
X1413250Y955000D02*
X1416750D01*
X1358250Y928000D02*
X1361750D01*
X1358250Y918000D02*
X1361750D01*
X1358250Y883797D02*
X1361750D01*
X1358250Y893797D02*
X1361750D01*
X1358000Y899000D02*
X1362000D01*
X1358000Y913000D02*
X1362000D01*
X1388250Y883797D02*
X1391750D01*
X1388250Y893797D02*
X1391750D01*
X1275998Y781248D02*
X1274749Y782498D01*
X1272250D01*
X1271000Y781248D01*
Y776250D01*
X1272250Y775000D01*
X1274749D01*
X1275998Y776250D01*
X1278498Y782498D02*
Y775000D01*
Y778749D01*
X1283496D01*
Y782498D01*
Y775000D01*
X1293493D02*
X1295992D01*
X1294742D01*
Y782498D01*
X1293493Y781248D01*
X1299741Y778749D02*
X1304739D01*
X1310987Y775000D02*
Y782498D01*
X1307238Y778749D01*
X1312237D01*
X1272000Y723749D02*
X1276998D01*
X1274499Y726248D02*
Y721250D01*
X1279498Y723749D02*
X1284496D01*
X1291994Y727498D02*
X1286995D01*
Y723749D01*
X1289494Y724998D01*
X1290744D01*
X1291994Y723749D01*
Y721250D01*
X1290744Y720000D01*
X1288245D01*
X1286995Y721250D01*
X1294493Y727498D02*
Y722499D01*
X1296992Y720000D01*
X1299491Y722499D01*
Y727498D01*
X1159000Y728749D02*
X1163998D01*
X1161499Y731248D02*
Y726250D01*
X1166498Y728749D02*
X1171496D01*
X1173995Y725000D02*
X1176494D01*
X1175245D01*
Y732498D01*
X1173995Y731248D01*
X1180243D02*
X1181493Y732498D01*
X1183992D01*
X1185242Y731248D01*
Y726250D01*
X1183992Y725000D01*
X1181493D01*
X1180243Y726250D01*
Y731248D01*
X1187741Y732498D02*
Y727499D01*
X1190240Y725000D01*
X1192739Y727499D01*
Y732498D01*
X1275998Y753248D02*
X1274749Y754498D01*
X1272250D01*
X1271000Y753248D01*
Y748250D01*
X1272250Y747000D01*
X1274749D01*
X1275998Y748250D01*
X1278498Y754498D02*
Y747000D01*
Y750749D01*
X1283496D01*
Y754498D01*
Y747000D01*
X1298491Y754498D02*
X1293493D01*
Y750749D01*
X1295992Y751998D01*
X1297242D01*
X1298491Y750749D01*
Y748250D01*
X1297242Y747000D01*
X1294742D01*
X1293493Y748250D01*
X1300990Y750749D02*
X1305989D01*
X1308488Y753248D02*
X1309738Y754498D01*
X1312237D01*
X1313486Y753248D01*
Y751998D01*
X1312237Y750749D01*
X1313486Y749499D01*
Y748250D01*
X1312237Y747000D01*
X1309738D01*
X1308488Y748250D01*
Y749499D01*
X1309738Y750749D01*
X1308488Y751998D01*
Y753248D01*
X1309738Y750749D02*
X1312237D01*
X1188000Y710499D02*
Y717997D01*
X1191749D01*
X1192998Y716747D01*
Y714248D01*
X1191749Y712998D01*
X1188000D01*
X1190499D02*
X1192998Y710499D01*
X1196747Y715498D02*
X1199246D01*
X1200496Y714248D01*
Y710499D01*
X1196747D01*
X1195498Y711749D01*
X1196747Y712998D01*
X1200496D01*
X1202995Y710499D02*
Y715498D01*
X1206744D01*
X1207994Y714248D01*
Y710499D01*
X1212992Y708000D02*
X1214242D01*
X1215491Y709250D01*
Y715498D01*
X1211742D01*
X1210493Y714248D01*
Y711749D01*
X1211742Y710499D01*
X1215491D01*
X1221739D02*
X1219240D01*
X1217990Y711749D01*
Y714248D01*
X1219240Y715498D01*
X1221739D01*
X1222989Y714248D01*
Y712998D01*
X1217990D01*
X1237984Y716747D02*
X1236734Y717997D01*
X1234235D01*
X1232986Y716747D01*
Y715498D01*
X1234235Y714248D01*
X1236734D01*
X1237984Y712998D01*
Y711749D01*
X1236734Y710499D01*
X1234235D01*
X1232986Y711749D01*
X1244232Y710499D02*
X1241733D01*
X1240483Y711749D01*
Y714248D01*
X1241733Y715498D01*
X1244232D01*
X1245482Y714248D01*
Y712998D01*
X1240483D01*
X1247981Y710499D02*
X1250480D01*
X1249230D01*
Y717997D01*
X1247981D01*
X1257978Y710499D02*
X1255478D01*
X1254229Y711749D01*
Y714248D01*
X1255478Y715498D01*
X1257978D01*
X1259227Y714248D01*
Y712998D01*
X1254229D01*
X1266725Y715498D02*
X1262976D01*
X1261726Y714248D01*
Y711749D01*
X1262976Y710499D01*
X1266725D01*
X1270474Y716747D02*
Y715498D01*
X1269224D01*
X1271723D01*
X1270474D01*
Y711749D01*
X1271723Y710499D01*
X1504000Y138000D02*
Y142998D01*
X1506499D01*
X1507332Y142165D01*
Y140499D01*
X1506499Y139666D01*
X1504000D01*
X1509831Y138000D02*
X1511497D01*
X1512331Y138833D01*
Y140499D01*
X1511497Y141332D01*
X1509831D01*
X1508998Y140499D01*
Y138833D01*
X1509831Y138000D01*
X1513997Y141332D02*
Y138833D01*
X1514830Y138000D01*
X1515663Y138833D01*
X1516496Y138000D01*
X1517329Y138833D01*
Y141332D01*
X1521494Y138000D02*
X1519828D01*
X1518995Y138833D01*
Y140499D01*
X1519828Y141332D01*
X1521494D01*
X1522327Y140499D01*
Y139666D01*
X1518995D01*
X1523993Y141332D02*
Y138000D01*
Y139666D01*
X1524827Y140499D01*
X1525660Y141332D01*
X1526493D01*
X1535656Y138000D02*
X1533990Y139666D01*
Y141332D01*
X1535656Y142998D01*
X1538156Y140499D02*
X1541488D01*
X1539822Y142165D02*
Y138833D01*
X1543154Y138000D02*
X1544820D01*
X1543987D01*
Y142998D01*
X1543154Y142165D01*
X1550651Y142998D02*
X1547319D01*
Y140499D01*
X1548985Y141332D01*
X1549818D01*
X1550651Y140499D01*
Y138833D01*
X1549818Y138000D01*
X1548152D01*
X1547319Y138833D01*
X1552318Y142998D02*
Y139666D01*
X1553984Y138000D01*
X1555650Y139666D01*
Y142998D01*
X1557316Y138000D02*
X1558982Y139666D01*
Y141332D01*
X1557316Y142998D01*
X763499Y160336D02*
X758501D01*
Y162835D01*
X759334Y163668D01*
X761000D01*
X761833Y162835D01*
Y160336D01*
Y162002D02*
X763499Y163668D01*
X758501Y168666D02*
X759334Y167000D01*
X761000Y165334D01*
X762666D01*
X763499Y166167D01*
Y167833D01*
X762666Y168666D01*
X761833D01*
X761000Y167833D01*
Y165334D01*
X758501Y173664D02*
Y170332D01*
X761000D01*
X760167Y171998D01*
Y172831D01*
X761000Y173664D01*
X762666D01*
X763499Y172831D01*
Y171165D01*
X762666Y170332D01*
X717334Y142084D02*
X716501Y141251D01*
Y139585D01*
X717334Y138752D01*
X720666D01*
X721499Y139585D01*
Y141251D01*
X720666Y142084D01*
X721499Y143750D02*
Y145416D01*
Y144584D01*
X716501D01*
X717334Y143750D01*
X721499Y151248D02*
Y147916D01*
X718167Y151248D01*
X717334D01*
X716501Y150415D01*
Y148749D01*
X717334Y147916D01*
X1262336Y465501D02*
Y470499D01*
X1264835D01*
X1265668Y469666D01*
Y468000D01*
X1264835Y467167D01*
X1262336D01*
X1264002D02*
X1265668Y465501D01*
X1270666Y470499D02*
X1269000Y469666D01*
X1267334Y468000D01*
Y466334D01*
X1268167Y465501D01*
X1269833D01*
X1270666Y466334D01*
Y467167D01*
X1269833Y468000D01*
X1267334D01*
X1274831Y465501D02*
Y470499D01*
X1272332Y468000D01*
X1275665D01*
X1230335Y637647D02*
X1233668D01*
X1232002D01*
Y632648D01*
X1235334D02*
Y637647D01*
X1237833D01*
X1238666Y636814D01*
Y635147D01*
X1237833Y634314D01*
X1235334D01*
X1240332Y636814D02*
X1241165Y637647D01*
X1242831D01*
X1243664Y636814D01*
Y635980D01*
X1242831Y635147D01*
X1243664Y634314D01*
Y633481D01*
X1242831Y632648D01*
X1241165D01*
X1240332Y633481D01*
Y634314D01*
X1241165Y635147D01*
X1240332Y635980D01*
Y636814D01*
X1241165Y635147D02*
X1242831D01*
X1224335Y591501D02*
Y596499D01*
X1226835D01*
X1227668Y595666D01*
Y594000D01*
X1226835Y593167D01*
X1224335D01*
X1226002D02*
X1227668Y591501D01*
X1232666Y596499D02*
X1231000Y595666D01*
X1229334Y594000D01*
Y592334D01*
X1230167Y591501D01*
X1231833D01*
X1232666Y592334D01*
Y593167D01*
X1231833Y594000D01*
X1229334D01*
X1234332Y595666D02*
X1235165Y596499D01*
X1236831D01*
X1237664Y595666D01*
Y594833D01*
X1236831Y594000D01*
X1235998D01*
X1236831D01*
X1237664Y593167D01*
Y592334D01*
X1236831Y591501D01*
X1235165D01*
X1234332Y592334D01*
X1202336Y662501D02*
Y667499D01*
X1204835D01*
X1205668Y666666D01*
Y665000D01*
X1204835Y664167D01*
X1202336D01*
X1204002D02*
X1205668Y662501D01*
X1210666Y667499D02*
X1209000Y666666D01*
X1207334Y665000D01*
Y663334D01*
X1208167Y662501D01*
X1209833D01*
X1210666Y663334D01*
Y664167D01*
X1209833Y665000D01*
X1207334D01*
X1215665Y662501D02*
X1212332D01*
X1215665Y665833D01*
Y666666D01*
X1214831Y667499D01*
X1213165D01*
X1212332Y666666D01*
X1183501Y785167D02*
Y783501D01*
Y784334D01*
X1187666D01*
X1188499Y783501D01*
Y782668D01*
X1187666Y781835D01*
X1188499Y790165D02*
Y786833D01*
X1185167Y790165D01*
X1184334D01*
X1183501Y789332D01*
Y787666D01*
X1184334Y786833D01*
X1209167Y651666D02*
X1208334Y652499D01*
X1206668D01*
X1205835Y651666D01*
Y648334D01*
X1206668Y647501D01*
X1208334D01*
X1209167Y648334D01*
X1210833D02*
X1211666Y647501D01*
X1213332D01*
X1214165Y648334D01*
Y651666D01*
X1213332Y652499D01*
X1211666D01*
X1210833Y651666D01*
Y650833D01*
X1211666Y650000D01*
X1214165D01*
X1297169Y483501D02*
Y488499D01*
X1299668D01*
X1300501Y487666D01*
Y486000D01*
X1299668Y485167D01*
X1297169D01*
X1298835D02*
X1300501Y483501D01*
X1305499Y488499D02*
X1303833Y487666D01*
X1302167Y486000D01*
Y484334D01*
X1303000Y483501D01*
X1304666D01*
X1305499Y484334D01*
Y485167D01*
X1304666Y486000D01*
X1302167D01*
X1307165Y483501D02*
X1308831D01*
X1307998D01*
Y488499D01*
X1307165Y487666D01*
X1232336Y493501D02*
Y498499D01*
X1234835D01*
X1235668Y497666D01*
Y496000D01*
X1234835Y495167D01*
X1232336D01*
X1234002D02*
X1235668Y493501D01*
X1240666Y498499D02*
X1239000Y497666D01*
X1237334Y496000D01*
Y494334D01*
X1238167Y493501D01*
X1239833D01*
X1240666Y494334D01*
Y495167D01*
X1239833Y496000D01*
X1237334D01*
X1242332Y497666D02*
X1243165Y498499D01*
X1244831D01*
X1245665Y497666D01*
Y494334D01*
X1244831Y493501D01*
X1243165D01*
X1242332Y494334D01*
Y497666D01*
X1260335Y591501D02*
Y596499D01*
X1262835D01*
X1263668Y595666D01*
Y594000D01*
X1262835Y593167D01*
X1260335D01*
X1262002D02*
X1263668Y591501D01*
X1268666Y596499D02*
X1265334D01*
Y594000D01*
X1267000Y594833D01*
X1267833D01*
X1268666Y594000D01*
Y592334D01*
X1267833Y591501D01*
X1266167D01*
X1265334Y592334D01*
X1270332D02*
X1271165Y591501D01*
X1272831D01*
X1273664Y592334D01*
Y595666D01*
X1272831Y596499D01*
X1271165D01*
X1270332Y595666D01*
Y594833D01*
X1271165Y594000D01*
X1273664D01*
X1150335Y637499D02*
X1153668D01*
X1152002D01*
Y632501D01*
X1155334D02*
Y637499D01*
X1157833D01*
X1158666Y636666D01*
Y635000D01*
X1157833Y634167D01*
X1155334D01*
X1160332Y637499D02*
X1163664D01*
Y636666D01*
X1160332Y633334D01*
Y632501D01*
X1190335Y818499D02*
X1193668D01*
X1192002D01*
Y813501D01*
X1195334D02*
Y818499D01*
X1197833D01*
X1198666Y817666D01*
Y816000D01*
X1197833Y815167D01*
X1195334D01*
X1203664Y818499D02*
X1201998Y817666D01*
X1200332Y816000D01*
Y814334D01*
X1201165Y813501D01*
X1202831D01*
X1203664Y814334D01*
Y815167D01*
X1202831Y816000D01*
X1200332D01*
X1101668Y627666D02*
X1100835Y628499D01*
X1099169D01*
X1098335Y627666D01*
Y624334D01*
X1099169Y623501D01*
X1100835D01*
X1101668Y624334D01*
X1106666Y623501D02*
X1103334D01*
X1106666Y626833D01*
Y627666D01*
X1105833Y628499D01*
X1104167D01*
X1103334Y627666D01*
X1108332Y628499D02*
X1111665D01*
Y627666D01*
X1108332Y624334D01*
Y623501D01*
X410499Y736336D02*
X405501D01*
Y738835D01*
X406334Y739668D01*
X408000D01*
X408833Y738835D01*
Y736336D01*
Y738002D02*
X410499Y739668D01*
X405501Y744666D02*
Y741334D01*
X408000D01*
X407167Y743000D01*
Y743833D01*
X408000Y744666D01*
X409666D01*
X410499Y743833D01*
Y742167D01*
X409666Y741334D01*
X406334Y746332D02*
X405501Y747165D01*
Y748831D01*
X406334Y749665D01*
X407167D01*
X408000Y748831D01*
X408833Y749665D01*
X409666D01*
X410499Y748831D01*
Y747165D01*
X409666Y746332D01*
X408833D01*
X408000Y747165D01*
X407167Y746332D01*
X406334D01*
X408000Y747165D02*
Y748831D01*
X395499Y736336D02*
X390501D01*
Y738835D01*
X391334Y739668D01*
X393000D01*
X393833Y738835D01*
Y736336D01*
Y738002D02*
X395499Y739668D01*
X390501Y744666D02*
Y741334D01*
X393000D01*
X392167Y743000D01*
Y743833D01*
X393000Y744666D01*
X394666D01*
X395499Y743833D01*
Y742167D01*
X394666Y741334D01*
X390501Y746332D02*
Y749665D01*
X391334D01*
X394666Y746332D01*
X395499D01*
X379499Y736336D02*
X374501D01*
Y738835D01*
X375334Y739668D01*
X377000D01*
X377833Y738835D01*
Y736336D01*
Y738002D02*
X379499Y739668D01*
X374501Y744666D02*
Y741334D01*
X377000D01*
X376167Y743000D01*
Y743833D01*
X377000Y744666D01*
X378666D01*
X379499Y743833D01*
Y742167D01*
X378666Y741334D01*
X374501Y749665D02*
X375334Y747998D01*
X377000Y746332D01*
X378666D01*
X379499Y747165D01*
Y748831D01*
X378666Y749665D01*
X377833D01*
X377000Y748831D01*
Y746332D01*
X364499Y737336D02*
X359501D01*
Y739835D01*
X360334Y740668D01*
X362000D01*
X362833Y739835D01*
Y737336D01*
Y739002D02*
X364499Y740668D01*
X359501Y745666D02*
Y742334D01*
X362000D01*
X361167Y744000D01*
Y744833D01*
X362000Y745666D01*
X363666D01*
X364499Y744833D01*
Y743167D01*
X363666Y742334D01*
X359501Y750665D02*
Y747332D01*
X362000D01*
X361167Y748998D01*
Y749831D01*
X362000Y750665D01*
X363666D01*
X364499Y749831D01*
Y748165D01*
X363666Y747332D01*
X349499Y737336D02*
X344501D01*
Y739835D01*
X345334Y740668D01*
X347000D01*
X347833Y739835D01*
Y737336D01*
Y739002D02*
X349499Y740668D01*
X344501Y745666D02*
Y742334D01*
X347000D01*
X346167Y744000D01*
Y744833D01*
X347000Y745666D01*
X348666D01*
X349499Y744833D01*
Y743167D01*
X348666Y742334D01*
X349499Y749831D02*
X344501D01*
X347000Y747332D01*
Y750665D01*
X486668Y750666D02*
X485835Y751499D01*
X484169D01*
X483335Y750666D01*
Y747334D01*
X484169Y746501D01*
X485835D01*
X486668Y747334D01*
X491666Y751499D02*
X488334D01*
Y749000D01*
X490000Y749833D01*
X490833D01*
X491666Y749000D01*
Y747334D01*
X490833Y746501D01*
X489167D01*
X488334Y747334D01*
X493332D02*
X494165Y746501D01*
X495831D01*
X496665Y747334D01*
Y750666D01*
X495831Y751499D01*
X494165D01*
X493332Y750666D01*
Y749833D01*
X494165Y749000D01*
X496665D01*
X235332Y946334D02*
X236165Y945501D01*
X237831D01*
X238664Y946334D01*
Y949666D01*
X237831Y950499D01*
X236165D01*
X235332Y949666D01*
X230334Y945501D02*
X233666D01*
Y948000D01*
X232000Y947167D01*
X231167D01*
X230334Y948000D01*
Y949666D01*
X231167Y950499D01*
X232833D01*
X233666Y949666D01*
X228668Y946334D02*
X227835Y945501D01*
X226169D01*
X225336Y946334D01*
Y947167D01*
X226169Y948000D01*
X225336Y948833D01*
Y949666D01*
X226169Y950499D01*
X227835D01*
X228668Y949666D01*
Y948833D01*
X227835Y948000D01*
X228668Y947167D01*
Y946334D01*
X227835Y948000D02*
X226169D01*
X1206336Y461499D02*
X1209668D01*
X1208002D01*
Y456501D01*
X1211334D02*
Y461499D01*
X1213833D01*
X1214666Y460666D01*
Y459000D01*
X1213833Y458167D01*
X1211334D01*
X1219665Y461499D02*
X1216332D01*
Y459000D01*
X1217998Y459833D01*
X1218831D01*
X1219665Y459000D01*
Y457334D01*
X1218831Y456501D01*
X1217165D01*
X1216332Y457334D01*
X1203335Y596499D02*
X1206668D01*
X1205002D01*
Y591501D01*
X1208334D02*
Y596499D01*
X1210833D01*
X1211666Y595666D01*
Y594000D01*
X1210833Y593167D01*
X1208334D01*
X1215831Y591501D02*
Y596499D01*
X1213332Y594000D01*
X1216665D01*
X1215335Y611499D02*
X1218668D01*
X1217002D01*
Y606501D01*
X1220334D02*
Y611499D01*
X1222833D01*
X1223666Y610666D01*
Y609000D01*
X1222833Y608167D01*
X1220334D01*
X1225332Y610666D02*
X1226165Y611499D01*
X1227831D01*
X1228664Y610666D01*
Y609833D01*
X1227831Y609000D01*
X1226998D01*
X1227831D01*
X1228664Y608167D01*
Y607334D01*
X1227831Y606501D01*
X1226165D01*
X1225332Y607334D01*
X1213335Y444499D02*
X1216668D01*
X1215002D01*
Y439501D01*
X1218334D02*
Y444499D01*
X1220833D01*
X1221666Y443666D01*
Y442000D01*
X1220833Y441167D01*
X1218334D01*
X1226665Y439501D02*
X1223332D01*
X1226665Y442833D01*
Y443666D01*
X1225831Y444499D01*
X1224165D01*
X1223332Y443666D01*
X1104169Y444499D02*
X1107501D01*
X1105835D01*
Y439501D01*
X1109167D02*
Y444499D01*
X1111666D01*
X1112499Y443666D01*
Y442000D01*
X1111666Y441167D01*
X1109167D01*
X1114165Y439501D02*
X1115831D01*
X1114998D01*
Y444499D01*
X1114165Y443666D01*
X1033335Y633501D02*
Y638499D01*
X1035835D01*
X1036668Y637666D01*
Y636000D01*
X1035835Y635167D01*
X1033335D01*
X1035002D02*
X1036668Y633501D01*
X1041666Y638499D02*
X1038334D01*
Y636000D01*
X1040000Y636833D01*
X1040833D01*
X1041666Y636000D01*
Y634334D01*
X1040833Y633501D01*
X1039167D01*
X1038334Y634334D01*
X1043332Y637666D02*
X1044165Y638499D01*
X1045831D01*
X1046665Y637666D01*
Y636833D01*
X1045831Y636000D01*
X1044998D01*
X1045831D01*
X1046665Y635167D01*
Y634334D01*
X1045831Y633501D01*
X1044165D01*
X1043332Y634334D01*
X1225335Y566298D02*
Y571297D01*
X1227835D01*
X1228668Y570464D01*
Y568797D01*
X1227835Y567964D01*
X1225335D01*
X1227002D02*
X1228668Y566298D01*
X1233666Y571297D02*
X1230334D01*
Y568797D01*
X1232000Y569631D01*
X1232833D01*
X1233666Y568797D01*
Y567131D01*
X1232833Y566298D01*
X1231167D01*
X1230334Y567131D01*
X1238664Y566298D02*
X1235332D01*
X1238664Y569631D01*
Y570464D01*
X1237831Y571297D01*
X1236165D01*
X1235332Y570464D01*
X1239169Y552096D02*
Y557094D01*
X1241668D01*
X1242501Y556261D01*
Y554595D01*
X1241668Y553762D01*
X1239169D01*
X1240835D02*
X1242501Y552096D01*
X1247499Y557094D02*
X1244167D01*
Y554595D01*
X1245833Y555428D01*
X1246666D01*
X1247499Y554595D01*
Y552929D01*
X1246666Y552096D01*
X1245000D01*
X1244167Y552929D01*
X1249165Y552096D02*
X1250831D01*
X1249998D01*
Y557094D01*
X1249165Y556261D01*
X1098752Y470499D02*
Y466334D01*
X1099585Y465501D01*
X1101251D01*
X1102084Y466334D01*
Y470499D01*
X1103750Y465501D02*
X1105416D01*
X1104584D01*
Y470499D01*
X1103750Y469666D01*
X1107916Y470499D02*
X1111248D01*
Y469666D01*
X1107916Y466334D01*
Y465501D01*
X267210Y243624D02*
X270542D01*
X268876D01*
Y238626D01*
X272208Y242791D02*
X273041Y243624D01*
X274707D01*
X275540Y242791D01*
Y241958D01*
X274707Y241125D01*
X273874D01*
X274707D01*
X275540Y240292D01*
Y239459D01*
X274707Y238626D01*
X273041D01*
X272208Y239459D01*
X1209335Y883501D02*
Y888499D01*
X1211835D01*
X1212668Y887666D01*
Y886000D01*
X1211835Y885167D01*
X1209335D01*
X1211002D02*
X1212668Y883501D01*
X1217666Y888499D02*
X1214334D01*
Y886000D01*
X1216000Y886833D01*
X1216833D01*
X1217666Y886000D01*
Y884334D01*
X1216833Y883501D01*
X1215167D01*
X1214334Y884334D01*
X1219332Y887666D02*
X1220165Y888499D01*
X1221831D01*
X1222664Y887666D01*
Y884334D01*
X1221831Y883501D01*
X1220165D01*
X1219332Y884334D01*
Y887666D01*
X287835Y254501D02*
Y259499D01*
X290334D01*
X291167Y258666D01*
Y257000D01*
X290334Y256167D01*
X287835D01*
X289501D02*
X291167Y254501D01*
X292833Y258666D02*
X293666Y259499D01*
X295332D01*
X296165Y258666D01*
Y257833D01*
X295332Y257000D01*
X296165Y256167D01*
Y255334D01*
X295332Y254501D01*
X293666D01*
X292833Y255334D01*
Y256167D01*
X293666Y257000D01*
X292833Y257833D01*
Y258666D01*
X293666Y257000D02*
X295332D01*
X159668Y847666D02*
X158835Y848499D01*
X157169D01*
X156335Y847666D01*
Y844334D01*
X157169Y843501D01*
X158835D01*
X159668Y844334D01*
X161334Y847666D02*
X162167Y848499D01*
X163833D01*
X164666Y847666D01*
Y846833D01*
X163833Y846000D01*
X163000D01*
X163833D01*
X164666Y845167D01*
Y844334D01*
X163833Y843501D01*
X162167D01*
X161334Y844334D01*
X169664Y848499D02*
X167998Y847666D01*
X166332Y846000D01*
Y844334D01*
X167165Y843501D01*
X168831D01*
X169664Y844334D01*
Y845167D01*
X168831Y846000D01*
X166332D01*
X251334Y207084D02*
X250501Y206251D01*
Y204585D01*
X251334Y203752D01*
X254666D01*
X255499Y204585D01*
Y206251D01*
X254666Y207084D01*
X255499Y208750D02*
Y210417D01*
Y209583D01*
X250501D01*
X251334Y208750D01*
X255499Y215415D02*
X250501D01*
X253000Y212916D01*
Y216248D01*
X472752Y909499D02*
Y905334D01*
X473585Y904501D01*
X475251D01*
X476084Y905334D01*
Y909499D01*
X477750Y904501D02*
X479417D01*
X478583D01*
Y909499D01*
X477750Y908666D01*
X484415Y904501D02*
Y909499D01*
X481916Y907000D01*
X485248D01*
X123850Y61508D02*
X120518D01*
Y59009D01*
X122184D01*
X120518D01*
Y56510D01*
X125516D02*
X127183D01*
X126349D01*
Y59842D01*
X125516D01*
X133014Y61508D02*
Y56510D01*
X130515D01*
X129682Y57343D01*
Y59009D01*
X130515Y59842D01*
X133014D01*
X138012Y56510D02*
X134680D01*
X138012Y59842D01*
Y60675D01*
X137179Y61508D01*
X135513D01*
X134680Y60675D01*
X1465418Y976499D02*
X1462086D01*
Y974000D01*
X1463752D01*
X1462086D01*
Y971501D01*
X1467084D02*
X1468750D01*
X1467917D01*
Y974833D01*
X1467084D01*
X1474582Y976499D02*
Y971501D01*
X1472083D01*
X1471250Y972334D01*
Y974000D01*
X1472083Y974833D01*
X1474582D01*
X1476248Y971501D02*
X1477914D01*
X1477081D01*
Y976499D01*
X1476248Y975666D01*
X328000Y922666D02*
X327167Y923499D01*
X325501D01*
X324668Y922666D01*
Y921833D01*
X325501Y921000D01*
X327167D01*
X328000Y920167D01*
Y919334D01*
X327167Y918501D01*
X325501D01*
X324668Y919334D01*
X329666Y918501D02*
X331332D01*
X330499D01*
Y923499D01*
X329666Y922666D01*
X1377752Y120499D02*
Y116334D01*
X1378585Y115501D01*
X1380251D01*
X1381084Y116334D01*
Y120499D01*
X1382750Y115501D02*
X1384417D01*
X1383584D01*
Y120499D01*
X1382750Y119666D01*
X1390248Y120499D02*
X1388582Y119666D01*
X1386916Y118000D01*
Y116334D01*
X1387749Y115501D01*
X1389415D01*
X1390248Y116334D01*
Y117167D01*
X1389415Y118000D01*
X1386916D01*
X1377752Y241499D02*
Y237334D01*
X1378585Y236501D01*
X1380251D01*
X1381084Y237334D01*
Y241499D01*
X1382750Y236501D02*
X1384417D01*
X1383584D01*
Y241499D01*
X1382750Y240666D01*
X1390248Y241499D02*
X1386916D01*
Y239000D01*
X1388582Y239833D01*
X1389415D01*
X1390248Y239000D01*
Y237334D01*
X1389415Y236501D01*
X1387749D01*
X1386916Y237334D01*
X1377752Y360499D02*
Y356334D01*
X1378585Y355501D01*
X1380251D01*
X1381084Y356334D01*
Y360499D01*
X1382750Y355501D02*
X1384417D01*
X1383584D01*
Y360499D01*
X1382750Y359666D01*
X1386916D02*
X1387749Y360499D01*
X1389415D01*
X1390248Y359666D01*
Y358833D01*
X1389415Y358000D01*
X1388582D01*
X1389415D01*
X1390248Y357167D01*
Y356334D01*
X1389415Y355501D01*
X1387749D01*
X1386916Y356334D01*
X1377802Y480499D02*
Y476334D01*
X1378635Y475501D01*
X1380301D01*
X1381134Y476334D01*
Y480499D01*
X1382800Y475501D02*
X1384467D01*
X1383634D01*
Y480499D01*
X1382800Y479666D01*
X1390298Y475501D02*
X1386966D01*
X1390298Y478833D01*
Y479666D01*
X1389465Y480499D01*
X1387799D01*
X1386966Y479666D01*
X1377585Y600499D02*
Y596334D01*
X1378418Y595501D01*
X1380084D01*
X1380917Y596334D01*
Y600499D01*
X1382583Y595501D02*
X1384250D01*
X1383416D01*
Y600499D01*
X1382583Y599666D01*
X1386749Y595501D02*
X1388415D01*
X1387582D01*
Y600499D01*
X1386749Y599666D01*
X1377752Y720499D02*
Y716334D01*
X1378585Y715501D01*
X1380251D01*
X1381084Y716334D01*
Y720499D01*
X1382750Y715501D02*
X1384417D01*
X1383584D01*
Y720499D01*
X1382750Y719666D01*
X1386916D02*
X1387749Y720499D01*
X1389415D01*
X1390248Y719666D01*
Y716334D01*
X1389415Y715501D01*
X1387749D01*
X1386916Y716334D01*
Y719666D01*
X1377835Y840499D02*
Y836334D01*
X1378668Y835501D01*
X1380334D01*
X1381167Y836334D01*
Y840499D01*
X1382833Y839666D02*
X1383666Y840499D01*
X1385332D01*
X1386165Y839666D01*
Y838833D01*
X1385332Y838000D01*
X1386165Y837167D01*
Y836334D01*
X1385332Y835501D01*
X1383666D01*
X1382833Y836334D01*
Y837167D01*
X1383666Y838000D01*
X1382833Y838833D01*
Y839666D01*
X1383666Y838000D02*
X1385332D01*
X1377835Y960499D02*
Y956334D01*
X1378668Y955501D01*
X1380334D01*
X1381167Y956334D01*
Y960499D01*
X1382833D02*
X1386165D01*
Y959666D01*
X1382833Y956334D01*
Y955501D01*
X343335Y134999D02*
Y130834D01*
X344168Y130001D01*
X345834D01*
X346667Y130834D01*
Y134999D01*
X351665D02*
X349999Y134166D01*
X348333Y132500D01*
Y130834D01*
X349166Y130001D01*
X350832D01*
X351665Y130834D01*
Y131667D01*
X350832Y132500D01*
X348333D01*
X343335Y259999D02*
Y255834D01*
X344168Y255001D01*
X345834D01*
X346667Y255834D01*
Y259999D01*
X351665D02*
X348333D01*
Y257500D01*
X349999Y258333D01*
X350832D01*
X351665Y257500D01*
Y255834D01*
X350832Y255001D01*
X349166D01*
X348333Y255834D01*
X1238835Y877499D02*
Y873334D01*
X1239668Y872501D01*
X1241334D01*
X1242167Y873334D01*
Y877499D01*
X1246332Y872501D02*
Y877499D01*
X1243833Y875000D01*
X1247165D01*
X1240835Y945499D02*
Y941334D01*
X1241668Y940501D01*
X1243334D01*
X1244167Y941334D01*
Y945499D01*
X1245833Y944666D02*
X1246666Y945499D01*
X1248332D01*
X1249165Y944666D01*
Y943833D01*
X1248332Y943000D01*
X1247499D01*
X1248332D01*
X1249165Y942167D01*
Y941334D01*
X1248332Y940501D01*
X1246666D01*
X1245833Y941334D01*
X1142835Y904499D02*
Y900334D01*
X1143668Y899501D01*
X1145334D01*
X1146167Y900334D01*
Y904499D01*
X1151165Y899501D02*
X1147833D01*
X1151165Y902833D01*
Y903666D01*
X1150332Y904499D01*
X1148666D01*
X1147833Y903666D01*
X1250835Y534489D02*
X1254167D01*
X1252501D01*
Y529491D01*
X1259165Y534489D02*
X1255833D01*
Y531990D01*
X1257499Y532823D01*
X1258332D01*
X1259165Y531990D01*
Y530324D01*
X1258332Y529491D01*
X1256666D01*
X1255833Y530324D01*
X444835Y125499D02*
X448167D01*
X446501D01*
Y120501D01*
X452332D02*
Y125499D01*
X449833Y123000D01*
X453165D01*
X1171835Y960499D02*
X1175167D01*
X1173501D01*
Y955501D01*
X1180165D02*
X1176833D01*
X1180165Y958833D01*
Y959666D01*
X1179332Y960499D01*
X1177666D01*
X1176833Y959666D01*
X461668Y250499D02*
X465000D01*
X463334D01*
Y245501D01*
X466666D02*
X468332D01*
X467499D01*
Y250499D01*
X466666Y249666D01*
X1378336Y35501D02*
Y40499D01*
X1380835D01*
X1381668Y39666D01*
Y38000D01*
X1380835Y37167D01*
X1378336D01*
X1380002D02*
X1381668Y35501D01*
X1385833D02*
Y40499D01*
X1383334Y38000D01*
X1386666D01*
X1388332Y36334D02*
X1389165Y35501D01*
X1390831D01*
X1391664Y36334D01*
Y39666D01*
X1390831Y40499D01*
X1389165D01*
X1388332Y39666D01*
Y38833D01*
X1389165Y38000D01*
X1391664D01*
X1376335Y156501D02*
Y161499D01*
X1378835D01*
X1379668Y160666D01*
Y159000D01*
X1378835Y158167D01*
X1376335D01*
X1378002D02*
X1379668Y156501D01*
X1383833D02*
Y161499D01*
X1381334Y159000D01*
X1384666D01*
X1386332Y160666D02*
X1387165Y161499D01*
X1388831D01*
X1389664Y160666D01*
Y159833D01*
X1388831Y159000D01*
X1389664Y158167D01*
Y157334D01*
X1388831Y156501D01*
X1387165D01*
X1386332Y157334D01*
Y158167D01*
X1387165Y159000D01*
X1386332Y159833D01*
Y160666D01*
X1387165Y159000D02*
X1388831D01*
X1352336Y93501D02*
Y98499D01*
X1354835D01*
X1355668Y97666D01*
Y96000D01*
X1354835Y95167D01*
X1352336D01*
X1354002D02*
X1355668Y93501D01*
X1359833D02*
Y98499D01*
X1357334Y96000D01*
X1360666D01*
X1362332Y98499D02*
X1365665D01*
Y97666D01*
X1362332Y94334D01*
Y93501D01*
X1348336Y212501D02*
Y217499D01*
X1350835D01*
X1351668Y216666D01*
Y215000D01*
X1350835Y214167D01*
X1348336D01*
X1350002D02*
X1351668Y212501D01*
X1355833D02*
Y217499D01*
X1353334Y215000D01*
X1356666D01*
X1361664Y217499D02*
X1359998Y216666D01*
X1358332Y215000D01*
Y213334D01*
X1359165Y212501D01*
X1360831D01*
X1361664Y213334D01*
Y214167D01*
X1360831Y215000D01*
X1358332D01*
X1304501Y517462D02*
X1309499D01*
Y514963D01*
X1308666Y514130D01*
X1307000D01*
X1306167Y514963D01*
Y517462D01*
Y515796D02*
X1304501Y514130D01*
Y509964D02*
X1309499D01*
X1307000Y512464D01*
Y509131D01*
X1309499Y504133D02*
Y507465D01*
X1307000D01*
X1307833Y505799D01*
Y504966D01*
X1307000Y504133D01*
X1305334D01*
X1304501Y504966D01*
Y506632D01*
X1305334Y507465D01*
X1304501Y548665D02*
X1309499D01*
Y546165D01*
X1308666Y545332D01*
X1307000D01*
X1306167Y546165D01*
Y548665D01*
Y546998D02*
X1304501Y545332D01*
Y541167D02*
X1309499D01*
X1307000Y543666D01*
Y540334D01*
X1304501Y536169D02*
X1309499D01*
X1307000Y538668D01*
Y535336D01*
X1438336Y35501D02*
Y40499D01*
X1440835D01*
X1441668Y39666D01*
Y38000D01*
X1440835Y37167D01*
X1438336D01*
X1440002D02*
X1441668Y35501D01*
X1445833D02*
Y40499D01*
X1443334Y38000D01*
X1446666D01*
X1448332Y39666D02*
X1449165Y40499D01*
X1450831D01*
X1451664Y39666D01*
Y38833D01*
X1450831Y38000D01*
X1449998D01*
X1450831D01*
X1451664Y37167D01*
Y36334D01*
X1450831Y35501D01*
X1449165D01*
X1448332Y36334D01*
X1440336Y156501D02*
Y161499D01*
X1442835D01*
X1443668Y160666D01*
Y159000D01*
X1442835Y158167D01*
X1440336D01*
X1442002D02*
X1443668Y156501D01*
X1447833D02*
Y161499D01*
X1445334Y159000D01*
X1448666D01*
X1453665Y156501D02*
X1450332D01*
X1453665Y159833D01*
Y160666D01*
X1452831Y161499D01*
X1451165D01*
X1450332Y160666D01*
X1378169Y275501D02*
Y280499D01*
X1380668D01*
X1381501Y279666D01*
Y278000D01*
X1380668Y277167D01*
X1378169D01*
X1379835D02*
X1381501Y275501D01*
X1385666D02*
Y280499D01*
X1383167Y278000D01*
X1386499D01*
X1388165Y275501D02*
X1389831D01*
X1388998D01*
Y280499D01*
X1388165Y279666D01*
X1403336Y128501D02*
Y133499D01*
X1405835D01*
X1406668Y132666D01*
Y131000D01*
X1405835Y130167D01*
X1403336D01*
X1405002D02*
X1406668Y128501D01*
X1410833D02*
Y133499D01*
X1408334Y131000D01*
X1411666D01*
X1413332Y132666D02*
X1414165Y133499D01*
X1415831D01*
X1416664Y132666D01*
Y129334D01*
X1415831Y128501D01*
X1414165D01*
X1413332Y129334D01*
Y132666D01*
X1375336Y395501D02*
Y400499D01*
X1377835D01*
X1378668Y399666D01*
Y398000D01*
X1377835Y397167D01*
X1375336D01*
X1377002D02*
X1378668Y395501D01*
X1380334Y399666D02*
X1381167Y400499D01*
X1382833D01*
X1383666Y399666D01*
Y398833D01*
X1382833Y398000D01*
X1382000D01*
X1382833D01*
X1383666Y397167D01*
Y396334D01*
X1382833Y395501D01*
X1381167D01*
X1380334Y396334D01*
X1385332D02*
X1386165Y395501D01*
X1387831D01*
X1388665Y396334D01*
Y399666D01*
X1387831Y400499D01*
X1386165D01*
X1385332Y399666D01*
Y398833D01*
X1386165Y398000D01*
X1388665D01*
X1401335Y251501D02*
Y256499D01*
X1403835D01*
X1404668Y255666D01*
Y254000D01*
X1403835Y253167D01*
X1401335D01*
X1403002D02*
X1404668Y251501D01*
X1406334Y255666D02*
X1407167Y256499D01*
X1408833D01*
X1409666Y255666D01*
Y254833D01*
X1408833Y254000D01*
X1408000D01*
X1408833D01*
X1409666Y253167D01*
Y252334D01*
X1408833Y251501D01*
X1407167D01*
X1406334Y252334D01*
X1411332Y255666D02*
X1412165Y256499D01*
X1413831D01*
X1414664Y255666D01*
Y254833D01*
X1413831Y254000D01*
X1414664Y253167D01*
Y252334D01*
X1413831Y251501D01*
X1412165D01*
X1411332Y252334D01*
Y253167D01*
X1412165Y254000D01*
X1411332Y254833D01*
Y255666D01*
X1412165Y254000D02*
X1413831D01*
X1328336Y322501D02*
Y327499D01*
X1330835D01*
X1331668Y326666D01*
Y325000D01*
X1330835Y324167D01*
X1328336D01*
X1330002D02*
X1331668Y322501D01*
X1333334Y326666D02*
X1334167Y327499D01*
X1335833D01*
X1336666Y326666D01*
Y325833D01*
X1335833Y325000D01*
X1335000D01*
X1335833D01*
X1336666Y324167D01*
Y323334D01*
X1335833Y322501D01*
X1334167D01*
X1333334Y323334D01*
X1338332Y327499D02*
X1341664D01*
Y326666D01*
X1338332Y323334D01*
Y322501D01*
X1346335Y452501D02*
Y457499D01*
X1348835D01*
X1349668Y456666D01*
Y455000D01*
X1348835Y454167D01*
X1346335D01*
X1348002D02*
X1349668Y452501D01*
X1351334Y456666D02*
X1352167Y457499D01*
X1353833D01*
X1354666Y456666D01*
Y455833D01*
X1353833Y455000D01*
X1353000D01*
X1353833D01*
X1354666Y454167D01*
Y453334D01*
X1353833Y452501D01*
X1352167D01*
X1351334Y453334D01*
X1359664Y457499D02*
X1357998Y456666D01*
X1356332Y455000D01*
Y453334D01*
X1357165Y452501D01*
X1358831D01*
X1359664Y453334D01*
Y454167D01*
X1358831Y455000D01*
X1356332D01*
X1440336Y275501D02*
Y280499D01*
X1442835D01*
X1443668Y279666D01*
Y278000D01*
X1442835Y277167D01*
X1440336D01*
X1442002D02*
X1443668Y275501D01*
X1445334Y279666D02*
X1446167Y280499D01*
X1447833D01*
X1448666Y279666D01*
Y278833D01*
X1447833Y278000D01*
X1447000D01*
X1447833D01*
X1448666Y277167D01*
Y276334D01*
X1447833Y275501D01*
X1446167D01*
X1445334Y276334D01*
X1453665Y280499D02*
X1450332D01*
Y278000D01*
X1451998Y278833D01*
X1452831D01*
X1453665Y278000D01*
Y276334D01*
X1452831Y275501D01*
X1451165D01*
X1450332Y276334D01*
X1440336Y395501D02*
Y400499D01*
X1442835D01*
X1443668Y399666D01*
Y398000D01*
X1442835Y397167D01*
X1440336D01*
X1442002D02*
X1443668Y395501D01*
X1445334Y399666D02*
X1446167Y400499D01*
X1447833D01*
X1448666Y399666D01*
Y398833D01*
X1447833Y398000D01*
X1447000D01*
X1447833D01*
X1448666Y397167D01*
Y396334D01*
X1447833Y395501D01*
X1446167D01*
X1445334Y396334D01*
X1452831Y395501D02*
Y400499D01*
X1450332Y398000D01*
X1453665D01*
X1377336Y515501D02*
Y520499D01*
X1379835D01*
X1380668Y519666D01*
Y518000D01*
X1379835Y517167D01*
X1377336D01*
X1379002D02*
X1380668Y515501D01*
X1382334Y519666D02*
X1383167Y520499D01*
X1384833D01*
X1385666Y519666D01*
Y518833D01*
X1384833Y518000D01*
X1384000D01*
X1384833D01*
X1385666Y517167D01*
Y516334D01*
X1384833Y515501D01*
X1383167D01*
X1382334Y516334D01*
X1387332Y519666D02*
X1388165Y520499D01*
X1389831D01*
X1390665Y519666D01*
Y518833D01*
X1389831Y518000D01*
X1388998D01*
X1389831D01*
X1390665Y517167D01*
Y516334D01*
X1389831Y515501D01*
X1388165D01*
X1387332Y516334D01*
X1403336Y369501D02*
Y374499D01*
X1405835D01*
X1406668Y373666D01*
Y372000D01*
X1405835Y371167D01*
X1403336D01*
X1405002D02*
X1406668Y369501D01*
X1408334Y373666D02*
X1409167Y374499D01*
X1410833D01*
X1411666Y373666D01*
Y372833D01*
X1410833Y372000D01*
X1410000D01*
X1410833D01*
X1411666Y371167D01*
Y370334D01*
X1410833Y369501D01*
X1409167D01*
X1408334Y370334D01*
X1416664Y369501D02*
X1413332D01*
X1416664Y372833D01*
Y373666D01*
X1415831Y374499D01*
X1414165D01*
X1413332Y373666D01*
X1378169Y636501D02*
Y641499D01*
X1380668D01*
X1381501Y640666D01*
Y639000D01*
X1380668Y638167D01*
X1378169D01*
X1379835D02*
X1381501Y636501D01*
X1383167Y640666D02*
X1384000Y641499D01*
X1385666D01*
X1386499Y640666D01*
Y639833D01*
X1385666Y639000D01*
X1384833D01*
X1385666D01*
X1386499Y638167D01*
Y637334D01*
X1385666Y636501D01*
X1384000D01*
X1383167Y637334D01*
X1388165Y636501D02*
X1389831D01*
X1388998D01*
Y641499D01*
X1388165Y640666D01*
X1403336Y489501D02*
Y494499D01*
X1405835D01*
X1406668Y493666D01*
Y492000D01*
X1405835Y491167D01*
X1403336D01*
X1405002D02*
X1406668Y489501D01*
X1408334Y493666D02*
X1409167Y494499D01*
X1410833D01*
X1411666Y493666D01*
Y492833D01*
X1410833Y492000D01*
X1410000D01*
X1410833D01*
X1411666Y491167D01*
Y490334D01*
X1410833Y489501D01*
X1409167D01*
X1408334Y490334D01*
X1413332Y493666D02*
X1414165Y494499D01*
X1415831D01*
X1416664Y493666D01*
Y490334D01*
X1415831Y489501D01*
X1414165D01*
X1413332Y490334D01*
Y493666D01*
X1353336Y560501D02*
Y565499D01*
X1355835D01*
X1356668Y564666D01*
Y563000D01*
X1355835Y562167D01*
X1353336D01*
X1355002D02*
X1356668Y560501D01*
X1361666D02*
X1358334D01*
X1361666Y563833D01*
Y564666D01*
X1360833Y565499D01*
X1359167D01*
X1358334Y564666D01*
X1363332Y561334D02*
X1364165Y560501D01*
X1365831D01*
X1366664Y561334D01*
Y564666D01*
X1365831Y565499D01*
X1364165D01*
X1363332Y564666D01*
Y563833D01*
X1364165Y563000D01*
X1366664D01*
X1331335Y678501D02*
Y683499D01*
X1333835D01*
X1334668Y682666D01*
Y681000D01*
X1333835Y680167D01*
X1331335D01*
X1333002D02*
X1334668Y678501D01*
X1339666D02*
X1336334D01*
X1339666Y681833D01*
Y682666D01*
X1338833Y683499D01*
X1337167D01*
X1336334Y682666D01*
X1341332D02*
X1342165Y683499D01*
X1343831D01*
X1344664Y682666D01*
Y681833D01*
X1343831Y681000D01*
X1344664Y680167D01*
Y679334D01*
X1343831Y678501D01*
X1342165D01*
X1341332Y679334D01*
Y680167D01*
X1342165Y681000D01*
X1341332Y681833D01*
Y682666D01*
X1342165Y681000D02*
X1343831D01*
X1129335Y662400D02*
Y667398D01*
X1131835D01*
X1132668Y666565D01*
Y664899D01*
X1131835Y664066D01*
X1129335D01*
X1131002D02*
X1132668Y662400D01*
X1137666D02*
X1134334D01*
X1137666Y665732D01*
Y666565D01*
X1136833Y667398D01*
X1135167D01*
X1134334Y666565D01*
X1139332Y667398D02*
X1142664D01*
Y666565D01*
X1139332Y663233D01*
Y662400D01*
X1438336Y515501D02*
Y520499D01*
X1440835D01*
X1441668Y519666D01*
Y518000D01*
X1440835Y517167D01*
X1438336D01*
X1440002D02*
X1441668Y515501D01*
X1446666D02*
X1443334D01*
X1446666Y518833D01*
Y519666D01*
X1445833Y520499D01*
X1444167D01*
X1443334Y519666D01*
X1451664Y520499D02*
X1449998Y519666D01*
X1448332Y518000D01*
Y516334D01*
X1449165Y515501D01*
X1450831D01*
X1451664Y516334D01*
Y517167D01*
X1450831Y518000D01*
X1448332D01*
X1438336Y636501D02*
Y641499D01*
X1440835D01*
X1441668Y640666D01*
Y639000D01*
X1440835Y638167D01*
X1438336D01*
X1440002D02*
X1441668Y636501D01*
X1446666D02*
X1443334D01*
X1446666Y639833D01*
Y640666D01*
X1445833Y641499D01*
X1444167D01*
X1443334Y640666D01*
X1451664Y641499D02*
X1448332D01*
Y639000D01*
X1449998Y639833D01*
X1450831D01*
X1451664Y639000D01*
Y637334D01*
X1450831Y636501D01*
X1449165D01*
X1448332Y637334D01*
X1377336Y757501D02*
Y762499D01*
X1379835D01*
X1380668Y761666D01*
Y760000D01*
X1379835Y759167D01*
X1377336D01*
X1379002D02*
X1380668Y757501D01*
X1385666D02*
X1382334D01*
X1385666Y760833D01*
Y761666D01*
X1384833Y762499D01*
X1383167D01*
X1382334Y761666D01*
X1389831Y757501D02*
Y762499D01*
X1387332Y760000D01*
X1390665D01*
X1409075Y599251D02*
Y604249D01*
X1411574D01*
X1412407Y603416D01*
Y601750D01*
X1411574Y600917D01*
X1409075D01*
X1410741D02*
X1412407Y599251D01*
X1417406D02*
X1414073D01*
X1417406Y602583D01*
Y603416D01*
X1416573Y604249D01*
X1414906D01*
X1414073Y603416D01*
X1419072D02*
X1419905Y604249D01*
X1421571D01*
X1422404Y603416D01*
Y602583D01*
X1421571Y601750D01*
X1420738D01*
X1421571D01*
X1422404Y600917D01*
Y600084D01*
X1421571Y599251D01*
X1419905D01*
X1419072Y600084D01*
X1378336Y896501D02*
Y901499D01*
X1380835D01*
X1381668Y900666D01*
Y899000D01*
X1380835Y898167D01*
X1378336D01*
X1380002D02*
X1381668Y896501D01*
X1386666D02*
X1383334D01*
X1386666Y899833D01*
Y900666D01*
X1385833Y901499D01*
X1384167D01*
X1383334Y900666D01*
X1391664Y896501D02*
X1388332D01*
X1391664Y899833D01*
Y900666D01*
X1390831Y901499D01*
X1389165D01*
X1388332Y900666D01*
X1403169Y728501D02*
Y733499D01*
X1405668D01*
X1406501Y732666D01*
Y731000D01*
X1405668Y730167D01*
X1403169D01*
X1404835D02*
X1406501Y728501D01*
X1411499D02*
X1408167D01*
X1411499Y731833D01*
Y732666D01*
X1410666Y733499D01*
X1409000D01*
X1408167Y732666D01*
X1413165Y728501D02*
X1414831D01*
X1413998D01*
Y733499D01*
X1413165Y732666D01*
X1192501Y372664D02*
X1197499D01*
Y370165D01*
X1196666Y369332D01*
X1195000D01*
X1194167Y370165D01*
Y372664D01*
Y370998D02*
X1192501Y369332D01*
Y364334D02*
Y367666D01*
X1195833Y364334D01*
X1196666D01*
X1197499Y365167D01*
Y366833D01*
X1196666Y367666D01*
Y362668D02*
X1197499Y361835D01*
Y360169D01*
X1196666Y359336D01*
X1193334D01*
X1192501Y360169D01*
Y361835D01*
X1193334Y362668D01*
X1196666D01*
X1146501Y372843D02*
X1151499D01*
Y370344D01*
X1150666Y369511D01*
X1149000D01*
X1148167Y370344D01*
Y372843D01*
Y371177D02*
X1146501Y369511D01*
Y367845D02*
Y366178D01*
Y367011D01*
X1151499D01*
X1150666Y367845D01*
X1147334Y363679D02*
X1146501Y362846D01*
Y361180D01*
X1147334Y360347D01*
X1150666D01*
X1151499Y361180D01*
Y362846D01*
X1150666Y363679D01*
X1149833D01*
X1149000Y362846D01*
Y360347D01*
X1332752Y801501D02*
Y806499D01*
X1335251D01*
X1336084Y805666D01*
Y804000D01*
X1335251Y803167D01*
X1332752D01*
X1334418D02*
X1336084Y801501D01*
X1337750D02*
X1339417D01*
X1338584D01*
Y806499D01*
X1337750Y805666D01*
X1341916D02*
X1342749Y806499D01*
X1344415D01*
X1345248Y805666D01*
Y804833D01*
X1344415Y804000D01*
X1345248Y803167D01*
Y802334D01*
X1344415Y801501D01*
X1342749D01*
X1341916Y802334D01*
Y803167D01*
X1342749Y804000D01*
X1341916Y804833D01*
Y805666D01*
X1342749Y804000D02*
X1344415D01*
X1347752Y930501D02*
Y935499D01*
X1350251D01*
X1351084Y934666D01*
Y933000D01*
X1350251Y932167D01*
X1347752D01*
X1349418D02*
X1351084Y930501D01*
X1352750D02*
X1354417D01*
X1353584D01*
Y935499D01*
X1352750Y934666D01*
X1356916Y935499D02*
X1360248D01*
Y934666D01*
X1356916Y931334D01*
Y930501D01*
X1438752Y757501D02*
Y762499D01*
X1441251D01*
X1442084Y761666D01*
Y760000D01*
X1441251Y759167D01*
X1438752D01*
X1440418D02*
X1442084Y757501D01*
X1443750D02*
X1445417D01*
X1444583D01*
Y762499D01*
X1443750Y761666D01*
X1451248Y762499D02*
X1449582Y761666D01*
X1447916Y760000D01*
Y758334D01*
X1448749Y757501D01*
X1450415D01*
X1451248Y758334D01*
Y759167D01*
X1450415Y760000D01*
X1447916D01*
X1440752Y875501D02*
Y880499D01*
X1443251D01*
X1444084Y879666D01*
Y878000D01*
X1443251Y877167D01*
X1440752D01*
X1442418D02*
X1444084Y875501D01*
X1445750D02*
X1447417D01*
X1446584D01*
Y880499D01*
X1445750Y879666D01*
X1453248Y880499D02*
X1449916D01*
Y878000D01*
X1451582Y878833D01*
X1452415D01*
X1453248Y878000D01*
Y876334D01*
X1452415Y875501D01*
X1450749D01*
X1449916Y876334D01*
X439999Y109252D02*
X435001D01*
Y111751D01*
X435834Y112584D01*
X437500D01*
X438333Y111751D01*
Y109252D01*
Y110918D02*
X439999Y112584D01*
Y114250D02*
Y115917D01*
Y115083D01*
X435001D01*
X435834Y114250D01*
X439999Y120915D02*
X435001D01*
X437500Y118416D01*
Y121748D01*
X1402752Y847501D02*
Y852499D01*
X1405251D01*
X1406084Y851666D01*
Y850000D01*
X1405251Y849167D01*
X1402752D01*
X1404418D02*
X1406084Y847501D01*
X1407750D02*
X1409417D01*
X1408584D01*
Y852499D01*
X1407750Y851666D01*
X1411916D02*
X1412749Y852499D01*
X1414415D01*
X1415248Y851666D01*
Y850833D01*
X1414415Y850000D01*
X1413582D01*
X1414415D01*
X1415248Y849167D01*
Y848334D01*
X1414415Y847501D01*
X1412749D01*
X1411916Y848334D01*
X1402752Y967501D02*
Y972499D01*
X1405251D01*
X1406084Y971666D01*
Y970000D01*
X1405251Y969167D01*
X1402752D01*
X1404418D02*
X1406084Y967501D01*
X1407750D02*
X1409417D01*
X1408584D01*
Y972499D01*
X1407750Y971666D01*
X1415248Y967501D02*
X1411916D01*
X1415248Y970833D01*
Y971666D01*
X1414415Y972499D01*
X1412749D01*
X1411916Y971666D01*
X747499Y160585D02*
X742501D01*
Y163084D01*
X743334Y163917D01*
X745000D01*
X745833Y163084D01*
Y160585D01*
Y162251D02*
X747499Y163917D01*
Y165583D02*
Y167250D01*
Y166416D01*
X742501D01*
X743334Y165583D01*
X747499Y169749D02*
Y171415D01*
Y170582D01*
X742501D01*
X743334Y169749D01*
X1206752Y952501D02*
Y957499D01*
X1209251D01*
X1210084Y956666D01*
Y955000D01*
X1209251Y954167D01*
X1206752D01*
X1208418D02*
X1210084Y952501D01*
X1211750D02*
X1213417D01*
X1212583D01*
Y957499D01*
X1211750Y956666D01*
X1215916D02*
X1216749Y957499D01*
X1218415D01*
X1219248Y956666D01*
Y953334D01*
X1218415Y952501D01*
X1216749D01*
X1215916Y953334D01*
Y956666D01*
X297499Y110835D02*
X292501D01*
Y113334D01*
X293334Y114167D01*
X295000D01*
X295833Y113334D01*
Y110835D01*
Y112501D02*
X297499Y114167D01*
X296666Y115833D02*
X297499Y116666D01*
Y118332D01*
X296666Y119165D01*
X293334D01*
X292501Y118332D01*
Y116666D01*
X293334Y115833D01*
X294167D01*
X295000Y116666D01*
Y119165D01*
X1134835Y804501D02*
Y809499D01*
X1137334D01*
X1138167Y808666D01*
Y807000D01*
X1137334Y806167D01*
X1134835D01*
X1136501D02*
X1138167Y804501D01*
X1139833Y809499D02*
X1143165D01*
Y808666D01*
X1139833Y805334D01*
Y804501D01*
X1264835Y799501D02*
Y804499D01*
X1267334D01*
X1268167Y803666D01*
Y802000D01*
X1267334Y801167D01*
X1264835D01*
X1266501D02*
X1268167Y799501D01*
X1273165Y804499D02*
X1271499Y803666D01*
X1269833Y802000D01*
Y800334D01*
X1270666Y799501D01*
X1272332D01*
X1273165Y800334D01*
Y801167D01*
X1272332Y802000D01*
X1269833D01*
X1134835Y820501D02*
Y825499D01*
X1137334D01*
X1138167Y824666D01*
Y823000D01*
X1137334Y822167D01*
X1134835D01*
X1136501D02*
X1138167Y820501D01*
X1143165Y825499D02*
X1139833D01*
Y823000D01*
X1141499Y823833D01*
X1142332D01*
X1143165Y823000D01*
Y821334D01*
X1142332Y820501D01*
X1140666D01*
X1139833Y821334D01*
X319165Y194999D02*
Y190001D01*
X316666D01*
X315833Y190834D01*
Y192500D01*
X316666Y193333D01*
X319165D01*
X317499D02*
X315833Y194999D01*
X311668D02*
Y190001D01*
X314167Y192500D01*
X310835D01*
X1466835Y152501D02*
Y157499D01*
X1469334D01*
X1470167Y156666D01*
Y155000D01*
X1469334Y154167D01*
X1466835D01*
X1468501D02*
X1470167Y152501D01*
X1471833Y156666D02*
X1472666Y157499D01*
X1474332D01*
X1475165Y156666D01*
Y155833D01*
X1474332Y155000D01*
X1473499D01*
X1474332D01*
X1475165Y154167D01*
Y153334D01*
X1474332Y152501D01*
X1472666D01*
X1471833Y153334D01*
X445835Y304501D02*
Y309499D01*
X448334D01*
X449167Y308666D01*
Y307000D01*
X448334Y306167D01*
X445835D01*
X447501D02*
X449167Y304501D01*
X454165D02*
X450833D01*
X454165Y307833D01*
Y308666D01*
X453332Y309499D01*
X451666D01*
X450833Y308666D01*
X1114499Y777668D02*
X1109501D01*
Y780167D01*
X1110334Y781000D01*
X1112000D01*
X1112833Y780167D01*
Y777668D01*
Y779334D02*
X1114499Y781000D01*
Y782666D02*
Y784332D01*
Y783499D01*
X1109501D01*
X1110334Y782666D01*
X-75248Y943001D02*
Y947999D01*
X-72749D01*
X-71916Y947166D01*
Y945500D01*
X-72749Y944667D01*
X-75248D01*
X-70250Y943001D02*
X-68583D01*
X-69416D01*
Y947999D01*
X-70250Y947166D01*
X-66084D02*
X-65251Y947999D01*
X-63585D01*
X-62752Y947166D01*
Y943834D01*
X-63585Y943001D01*
X-65251D01*
X-66084Y943834D01*
Y947166D01*
X1183501Y756000D02*
Y754334D01*
Y755167D01*
X1187666D01*
X1188499Y754334D01*
Y753501D01*
X1187666Y752668D01*
X1188499Y757666D02*
Y759332D01*
Y758499D01*
X1183501D01*
X1184334Y757666D01*
X766999Y207832D02*
X762001D01*
Y205333D01*
X762834Y204500D01*
X766166D01*
X766999Y205333D01*
Y207832D01*
X762001Y202834D02*
Y201168D01*
Y202001D01*
X766999D01*
X766166Y202834D01*
X1322668Y50666D02*
X1321835Y51499D01*
X1320169D01*
X1319335Y50666D01*
Y47334D01*
X1320169Y46501D01*
X1321835D01*
X1322668Y47334D01*
X1327666Y51499D02*
X1324334D01*
Y49000D01*
X1326000Y49833D01*
X1326833D01*
X1327666Y49000D01*
Y47334D01*
X1326833Y46501D01*
X1325167D01*
X1324334Y47334D01*
X1329332Y51499D02*
X1332664D01*
Y50666D01*
X1329332Y47334D01*
Y46501D01*
X1326668Y171666D02*
X1325835Y172499D01*
X1324169D01*
X1323336Y171666D01*
Y168334D01*
X1324169Y167501D01*
X1325835D01*
X1326668Y168334D01*
X1331666Y172499D02*
X1328334D01*
Y170000D01*
X1330000Y170833D01*
X1330833D01*
X1331666Y170000D01*
Y168334D01*
X1330833Y167501D01*
X1329167D01*
X1328334Y168334D01*
X1336664Y172499D02*
X1334998Y171666D01*
X1333332Y170000D01*
Y168334D01*
X1334165Y167501D01*
X1335831D01*
X1336664Y168334D01*
Y169167D01*
X1335831Y170000D01*
X1333332D01*
X1322668Y69666D02*
X1321835Y70499D01*
X1320169D01*
X1319335Y69666D01*
Y66334D01*
X1320169Y65501D01*
X1321835D01*
X1322668Y66334D01*
X1327666Y70499D02*
X1324334D01*
Y68000D01*
X1326000Y68833D01*
X1326833D01*
X1327666Y68000D01*
Y66334D01*
X1326833Y65501D01*
X1325167D01*
X1324334Y66334D01*
X1332664Y70499D02*
X1329332D01*
Y68000D01*
X1330998Y68833D01*
X1331831D01*
X1332664Y68000D01*
Y66334D01*
X1331831Y65501D01*
X1330165D01*
X1329332Y66334D01*
X1326668Y188666D02*
X1325835Y189499D01*
X1324169D01*
X1323336Y188666D01*
Y185334D01*
X1324169Y184501D01*
X1325835D01*
X1326668Y185334D01*
X1331666Y189499D02*
X1328334D01*
Y187000D01*
X1330000Y187833D01*
X1330833D01*
X1331666Y187000D01*
Y185334D01*
X1330833Y184501D01*
X1329167D01*
X1328334Y185334D01*
X1335831Y184501D02*
Y189499D01*
X1333332Y187000D01*
X1336664D01*
X1466668Y104666D02*
X1465835Y105499D01*
X1464169D01*
X1463336Y104666D01*
Y101334D01*
X1464169Y100501D01*
X1465835D01*
X1466668Y101334D01*
X1471666Y105499D02*
X1468334D01*
Y103000D01*
X1470000Y103833D01*
X1470833D01*
X1471666Y103000D01*
Y101334D01*
X1470833Y100501D01*
X1469167D01*
X1468334Y101334D01*
X1473332Y104666D02*
X1474165Y105499D01*
X1475831D01*
X1476664Y104666D01*
Y103833D01*
X1475831Y103000D01*
X1474998D01*
X1475831D01*
X1476664Y102167D01*
Y101334D01*
X1475831Y100501D01*
X1474165D01*
X1473332Y101334D01*
X1465668Y225666D02*
X1464835Y226499D01*
X1463169D01*
X1462336Y225666D01*
Y222334D01*
X1463169Y221501D01*
X1464835D01*
X1465668Y222334D01*
X1470666Y226499D02*
X1467334D01*
Y224000D01*
X1469000Y224833D01*
X1469833D01*
X1470666Y224000D01*
Y222334D01*
X1469833Y221501D01*
X1468167D01*
X1467334Y222334D01*
X1475665Y221501D02*
X1472332D01*
X1475665Y224833D01*
Y225666D01*
X1474831Y226499D01*
X1473165D01*
X1472332Y225666D01*
X1467501Y81666D02*
X1466668Y82499D01*
X1465002D01*
X1464169Y81666D01*
Y78334D01*
X1465002Y77501D01*
X1466668D01*
X1467501Y78334D01*
X1472499Y82499D02*
X1469167D01*
Y80000D01*
X1470833Y80833D01*
X1471666D01*
X1472499Y80000D01*
Y78334D01*
X1471666Y77501D01*
X1470000D01*
X1469167Y78334D01*
X1474165Y77501D02*
X1475831D01*
X1474998D01*
Y82499D01*
X1474165Y81666D01*
X1464668Y201666D02*
X1463835Y202499D01*
X1462169D01*
X1461335Y201666D01*
Y198334D01*
X1462169Y197501D01*
X1463835D01*
X1464668Y198334D01*
X1469666Y202499D02*
X1466334D01*
Y200000D01*
X1468000Y200833D01*
X1468833D01*
X1469666Y200000D01*
Y198334D01*
X1468833Y197501D01*
X1467167D01*
X1466334Y198334D01*
X1471332Y201666D02*
X1472165Y202499D01*
X1473831D01*
X1474664Y201666D01*
Y198334D01*
X1473831Y197501D01*
X1472165D01*
X1471332Y198334D01*
Y201666D01*
X1245668Y541666D02*
X1244835Y542499D01*
X1243169D01*
X1242336Y541666D01*
Y538334D01*
X1243169Y537501D01*
X1244835D01*
X1245668Y538334D01*
X1249833Y537501D02*
Y542499D01*
X1247334Y540000D01*
X1250666D01*
X1252332Y538334D02*
X1253165Y537501D01*
X1254831D01*
X1255665Y538334D01*
Y541666D01*
X1254831Y542499D01*
X1253165D01*
X1252332Y541666D01*
Y540833D01*
X1253165Y540000D01*
X1255665D01*
X1327668Y290666D02*
X1326835Y291499D01*
X1325169D01*
X1324335Y290666D01*
Y287334D01*
X1325169Y286501D01*
X1326835D01*
X1327668Y287334D01*
X1331833Y286501D02*
Y291499D01*
X1329334Y289000D01*
X1332666D01*
X1334332Y290666D02*
X1335165Y291499D01*
X1336831D01*
X1337664Y290666D01*
Y289833D01*
X1336831Y289000D01*
X1337664Y288167D01*
Y287334D01*
X1336831Y286501D01*
X1335165D01*
X1334332Y287334D01*
Y288167D01*
X1335165Y289000D01*
X1334332Y289833D01*
Y290666D01*
X1335165Y289000D02*
X1336831D01*
X1327668Y410666D02*
X1326835Y411499D01*
X1325169D01*
X1324335Y410666D01*
Y407334D01*
X1325169Y406501D01*
X1326835D01*
X1327668Y407334D01*
X1331833Y406501D02*
Y411499D01*
X1329334Y409000D01*
X1332666D01*
X1334332Y411499D02*
X1337664D01*
Y410666D01*
X1334332Y407334D01*
Y406501D01*
X1327668Y307666D02*
X1326835Y308499D01*
X1325169D01*
X1324335Y307666D01*
Y304334D01*
X1325169Y303501D01*
X1326835D01*
X1327668Y304334D01*
X1331833Y303501D02*
Y308499D01*
X1329334Y306000D01*
X1332666D01*
X1337664Y308499D02*
X1335998Y307666D01*
X1334332Y306000D01*
Y304334D01*
X1335165Y303501D01*
X1336831D01*
X1337664Y304334D01*
Y305167D01*
X1336831Y306000D01*
X1334332D01*
X1326668Y428666D02*
X1325835Y429499D01*
X1324169D01*
X1323336Y428666D01*
Y425334D01*
X1324169Y424501D01*
X1325835D01*
X1326668Y425334D01*
X1330833Y424501D02*
Y429499D01*
X1328334Y427000D01*
X1331666D01*
X1336664Y429499D02*
X1333332D01*
Y427000D01*
X1334998Y427833D01*
X1335831D01*
X1336664Y427000D01*
Y425334D01*
X1335831Y424501D01*
X1334165D01*
X1333332Y425334D01*
X1461668Y344666D02*
X1460835Y345499D01*
X1459169D01*
X1458336Y344666D01*
Y341334D01*
X1459169Y340501D01*
X1460835D01*
X1461668Y341334D01*
X1465833Y340501D02*
Y345499D01*
X1463334Y343000D01*
X1466666D01*
X1470831Y340501D02*
Y345499D01*
X1468332Y343000D01*
X1471664D01*
X1458668Y464666D02*
X1457835Y465499D01*
X1456169D01*
X1455336Y464666D01*
Y461334D01*
X1456169Y460501D01*
X1457835D01*
X1458668Y461334D01*
X1462833Y460501D02*
Y465499D01*
X1460334Y463000D01*
X1463666D01*
X1465332Y464666D02*
X1466165Y465499D01*
X1467831D01*
X1468665Y464666D01*
Y463833D01*
X1467831Y463000D01*
X1466998D01*
X1467831D01*
X1468665Y462167D01*
Y461334D01*
X1467831Y460501D01*
X1466165D01*
X1465332Y461334D01*
X1466668Y321666D02*
X1465835Y322499D01*
X1464169D01*
X1463336Y321666D01*
Y318334D01*
X1464169Y317501D01*
X1465835D01*
X1466668Y318334D01*
X1470833Y317501D02*
Y322499D01*
X1468334Y320000D01*
X1471666D01*
X1476664Y317501D02*
X1473332D01*
X1476664Y320833D01*
Y321666D01*
X1475831Y322499D01*
X1474165D01*
X1473332Y321666D01*
X1464501Y441666D02*
X1463668Y442499D01*
X1462002D01*
X1461169Y441666D01*
Y438334D01*
X1462002Y437501D01*
X1463668D01*
X1464501Y438334D01*
X1468666Y437501D02*
Y442499D01*
X1466167Y440000D01*
X1469499D01*
X1471165Y437501D02*
X1472831D01*
X1471998D01*
Y442499D01*
X1471165Y441666D01*
X1327668Y530666D02*
X1326835Y531499D01*
X1325169D01*
X1324335Y530666D01*
Y527334D01*
X1325169Y526501D01*
X1326835D01*
X1327668Y527334D01*
X1331833Y526501D02*
Y531499D01*
X1329334Y529000D01*
X1332666D01*
X1334332Y530666D02*
X1335165Y531499D01*
X1336831D01*
X1337664Y530666D01*
Y527334D01*
X1336831Y526501D01*
X1335165D01*
X1334332Y527334D01*
Y530666D01*
X1326668Y651666D02*
X1325835Y652499D01*
X1324169D01*
X1323336Y651666D01*
Y648334D01*
X1324169Y647501D01*
X1325835D01*
X1326668Y648334D01*
X1328334Y651666D02*
X1329167Y652499D01*
X1330833D01*
X1331666Y651666D01*
Y650833D01*
X1330833Y650000D01*
X1330000D01*
X1330833D01*
X1331666Y649167D01*
Y648334D01*
X1330833Y647501D01*
X1329167D01*
X1328334Y648334D01*
X1333332D02*
X1334165Y647501D01*
X1335831D01*
X1336664Y648334D01*
Y651666D01*
X1335831Y652499D01*
X1334165D01*
X1333332Y651666D01*
Y650833D01*
X1334165Y650000D01*
X1336664D01*
X1327668Y547666D02*
X1326835Y548499D01*
X1325169D01*
X1324335Y547666D01*
Y544334D01*
X1325169Y543501D01*
X1326835D01*
X1327668Y544334D01*
X1329334Y547666D02*
X1330167Y548499D01*
X1331833D01*
X1332666Y547666D01*
Y546833D01*
X1331833Y546000D01*
X1331000D01*
X1331833D01*
X1332666Y545167D01*
Y544334D01*
X1331833Y543501D01*
X1330167D01*
X1329334Y544334D01*
X1334332Y547666D02*
X1335165Y548499D01*
X1336831D01*
X1337664Y547666D01*
Y546833D01*
X1336831Y546000D01*
X1337664Y545167D01*
Y544334D01*
X1336831Y543501D01*
X1335165D01*
X1334332Y544334D01*
Y545167D01*
X1335165Y546000D01*
X1334332Y546833D01*
Y547666D01*
X1335165Y546000D02*
X1336831D01*
X1325668Y665666D02*
X1324835Y666499D01*
X1323169D01*
X1322336Y665666D01*
Y662334D01*
X1323169Y661501D01*
X1324835D01*
X1325668Y662334D01*
X1327334Y665666D02*
X1328167Y666499D01*
X1329833D01*
X1330666Y665666D01*
Y664833D01*
X1329833Y664000D01*
X1329000D01*
X1329833D01*
X1330666Y663167D01*
Y662334D01*
X1329833Y661501D01*
X1328167D01*
X1327334Y662334D01*
X1332332Y666499D02*
X1335665D01*
Y665666D01*
X1332332Y662334D01*
Y661501D01*
X1132668Y651767D02*
X1131835Y652600D01*
X1130169D01*
X1129335Y651767D01*
Y648435D01*
X1130169Y647602D01*
X1131835D01*
X1132668Y648435D01*
X1134334Y651767D02*
X1135167Y652600D01*
X1136833D01*
X1137666Y651767D01*
Y650934D01*
X1136833Y650101D01*
X1136000D01*
X1136833D01*
X1137666Y649268D01*
Y648435D01*
X1136833Y647602D01*
X1135167D01*
X1134334Y648435D01*
X1142664Y652600D02*
X1139332D01*
Y650101D01*
X1140998Y650934D01*
X1141831D01*
X1142664Y650101D01*
Y648435D01*
X1141831Y647602D01*
X1140165D01*
X1139332Y648435D01*
X1461668Y584666D02*
X1460835Y585499D01*
X1459169D01*
X1458336Y584666D01*
Y581334D01*
X1459169Y580501D01*
X1460835D01*
X1461668Y581334D01*
X1463334Y584666D02*
X1464167Y585499D01*
X1465833D01*
X1466666Y584666D01*
Y583833D01*
X1465833Y583000D01*
X1465000D01*
X1465833D01*
X1466666Y582167D01*
Y581334D01*
X1465833Y580501D01*
X1464167D01*
X1463334Y581334D01*
X1470831Y580501D02*
Y585499D01*
X1468332Y583000D01*
X1471664D01*
X1461668Y704666D02*
X1460835Y705499D01*
X1459169D01*
X1458336Y704666D01*
Y701334D01*
X1459169Y700501D01*
X1460835D01*
X1461668Y701334D01*
X1463334Y704666D02*
X1464167Y705499D01*
X1465833D01*
X1466666Y704666D01*
Y703833D01*
X1465833Y703000D01*
X1465000D01*
X1465833D01*
X1466666Y702167D01*
Y701334D01*
X1465833Y700501D01*
X1464167D01*
X1463334Y701334D01*
X1468332Y704666D02*
X1469165Y705499D01*
X1470831D01*
X1471664Y704666D01*
Y703833D01*
X1470831Y703000D01*
X1469998D01*
X1470831D01*
X1471664Y702167D01*
Y701334D01*
X1470831Y700501D01*
X1469165D01*
X1468332Y701334D01*
X1461668Y561666D02*
X1460835Y562499D01*
X1459169D01*
X1458336Y561666D01*
Y558334D01*
X1459169Y557501D01*
X1460835D01*
X1461668Y558334D01*
X1463334Y561666D02*
X1464167Y562499D01*
X1465833D01*
X1466666Y561666D01*
Y560833D01*
X1465833Y560000D01*
X1465000D01*
X1465833D01*
X1466666Y559167D01*
Y558334D01*
X1465833Y557501D01*
X1464167D01*
X1463334Y558334D01*
X1471664Y557501D02*
X1468332D01*
X1471664Y560833D01*
Y561666D01*
X1470831Y562499D01*
X1469165D01*
X1468332Y561666D01*
X1464501Y681666D02*
X1463668Y682499D01*
X1462002D01*
X1461169Y681666D01*
Y678334D01*
X1462002Y677501D01*
X1463668D01*
X1464501Y678334D01*
X1466167Y681666D02*
X1467000Y682499D01*
X1468666D01*
X1469499Y681666D01*
Y680833D01*
X1468666Y680000D01*
X1467833D01*
X1468666D01*
X1469499Y679167D01*
Y678334D01*
X1468666Y677501D01*
X1467000D01*
X1466167Y678334D01*
X1471165Y677501D02*
X1472831D01*
X1471998D01*
Y682499D01*
X1471165Y681666D01*
X1194668Y407666D02*
X1193835Y408499D01*
X1192169D01*
X1191336Y407666D01*
Y404334D01*
X1192169Y403501D01*
X1193835D01*
X1194668Y404334D01*
X1196334Y407666D02*
X1197167Y408499D01*
X1198833D01*
X1199666Y407666D01*
Y406833D01*
X1198833Y406000D01*
X1198000D01*
X1198833D01*
X1199666Y405167D01*
Y404334D01*
X1198833Y403501D01*
X1197167D01*
X1196334Y404334D01*
X1201332Y407666D02*
X1202165Y408499D01*
X1203831D01*
X1204665Y407666D01*
Y404334D01*
X1203831Y403501D01*
X1202165D01*
X1201332Y404334D01*
Y407666D01*
X1118668D02*
X1117835Y408499D01*
X1116169D01*
X1115335Y407666D01*
Y404334D01*
X1116169Y403501D01*
X1117835D01*
X1118668Y404334D01*
X1123666Y403501D02*
X1120334D01*
X1123666Y406833D01*
Y407666D01*
X1122833Y408499D01*
X1121167D01*
X1120334Y407666D01*
X1125332Y404334D02*
X1126165Y403501D01*
X1127831D01*
X1128664Y404334D01*
Y407666D01*
X1127831Y408499D01*
X1126165D01*
X1125332Y407666D01*
Y406833D01*
X1126165Y406000D01*
X1128664D01*
X1198870Y390464D02*
X1198037Y391297D01*
X1196371D01*
X1195538Y390464D01*
Y387131D01*
X1196371Y386298D01*
X1198037D01*
X1198870Y387131D01*
X1203869Y386298D02*
X1200536D01*
X1203869Y389631D01*
Y390464D01*
X1203036Y391297D01*
X1201369D01*
X1200536Y390464D01*
X1208867Y391297D02*
X1207201Y390464D01*
X1205535Y388797D01*
Y387131D01*
X1206368Y386298D01*
X1208034D01*
X1208867Y387131D01*
Y387964D01*
X1208034Y388797D01*
X1205535D01*
X1115668Y390464D02*
X1114835Y391297D01*
X1113169D01*
X1112336Y390464D01*
Y387131D01*
X1113169Y386298D01*
X1114835D01*
X1115668Y387131D01*
X1120666Y386298D02*
X1117334D01*
X1120666Y389631D01*
Y390464D01*
X1119833Y391297D01*
X1118167D01*
X1117334Y390464D01*
X1125665Y391297D02*
X1122332D01*
Y388797D01*
X1123998Y389631D01*
X1124831D01*
X1125665Y388797D01*
Y387131D01*
X1124831Y386298D01*
X1123165D01*
X1122332Y387131D01*
X1328668Y771666D02*
X1327835Y772499D01*
X1326169D01*
X1325336Y771666D01*
Y768334D01*
X1326169Y767501D01*
X1327835D01*
X1328668Y768334D01*
X1333666Y767501D02*
X1330334D01*
X1333666Y770833D01*
Y771666D01*
X1332833Y772499D01*
X1331167D01*
X1330334Y771666D01*
X1337831Y767501D02*
Y772499D01*
X1335332Y770000D01*
X1338665D01*
X1326668Y890666D02*
X1325835Y891499D01*
X1324169D01*
X1323336Y890666D01*
Y887334D01*
X1324169Y886501D01*
X1325835D01*
X1326668Y887334D01*
X1331666Y886501D02*
X1328334D01*
X1331666Y889833D01*
Y890666D01*
X1330833Y891499D01*
X1329167D01*
X1328334Y890666D01*
X1333332D02*
X1334165Y891499D01*
X1335831D01*
X1336664Y890666D01*
Y889833D01*
X1335831Y889000D01*
X1334998D01*
X1335831D01*
X1336664Y888167D01*
Y887334D01*
X1335831Y886501D01*
X1334165D01*
X1333332Y887334D01*
X1101668Y642666D02*
X1100835Y643499D01*
X1099169D01*
X1098335Y642666D01*
Y639334D01*
X1099169Y638501D01*
X1100835D01*
X1101668Y639334D01*
X1106666Y638501D02*
X1103334D01*
X1106666Y641833D01*
Y642666D01*
X1105833Y643499D01*
X1104167D01*
X1103334Y642666D01*
X1111665Y638501D02*
X1108332D01*
X1111665Y641833D01*
Y642666D01*
X1110831Y643499D01*
X1109165D01*
X1108332Y642666D01*
X1329501Y788666D02*
X1328668Y789499D01*
X1327002D01*
X1326169Y788666D01*
Y785334D01*
X1327002Y784501D01*
X1328668D01*
X1329501Y785334D01*
X1334499Y784501D02*
X1331167D01*
X1334499Y787833D01*
Y788666D01*
X1333666Y789499D01*
X1332000D01*
X1331167Y788666D01*
X1336165Y784501D02*
X1337831D01*
X1336998D01*
Y789499D01*
X1336165Y788666D01*
X1326668Y907666D02*
X1325835Y908499D01*
X1324169D01*
X1323336Y907666D01*
Y904334D01*
X1324169Y903501D01*
X1325835D01*
X1326668Y904334D01*
X1331666Y903501D02*
X1328334D01*
X1331666Y906833D01*
Y907666D01*
X1330833Y908499D01*
X1329167D01*
X1328334Y907666D01*
X1333332D02*
X1334165Y908499D01*
X1335831D01*
X1336664Y907666D01*
Y904334D01*
X1335831Y903501D01*
X1334165D01*
X1333332Y904334D01*
Y907666D01*
X1465084Y823666D02*
X1464251Y824499D01*
X1462585D01*
X1461752Y823666D01*
Y820334D01*
X1462585Y819501D01*
X1464251D01*
X1465084Y820334D01*
X1466750Y819501D02*
X1468416D01*
X1467583D01*
Y824499D01*
X1466750Y823666D01*
X1470916Y820334D02*
X1471749Y819501D01*
X1473415D01*
X1474248Y820334D01*
Y823666D01*
X1473415Y824499D01*
X1471749D01*
X1470916Y823666D01*
Y822833D01*
X1471749Y822000D01*
X1474248D01*
X1464084Y945666D02*
X1463251Y946499D01*
X1461585D01*
X1460752Y945666D01*
Y942334D01*
X1461585Y941501D01*
X1463251D01*
X1464084Y942334D01*
X1465750Y941501D02*
X1467417D01*
X1466584D01*
Y946499D01*
X1465750Y945666D01*
X1469916D02*
X1470749Y946499D01*
X1472415D01*
X1473248Y945666D01*
Y944833D01*
X1472415Y944000D01*
X1473248Y943167D01*
Y942334D01*
X1472415Y941501D01*
X1470749D01*
X1469916Y942334D01*
Y943167D01*
X1470749Y944000D01*
X1469916Y944833D01*
Y945666D01*
X1470749Y944000D02*
X1472415D01*
X1465084Y800666D02*
X1464251Y801499D01*
X1462585D01*
X1461752Y800666D01*
Y797334D01*
X1462585Y796501D01*
X1464251D01*
X1465084Y797334D01*
X1466750Y796501D02*
X1468416D01*
X1467583D01*
Y801499D01*
X1466750Y800666D01*
X1470916Y801499D02*
X1474248D01*
Y800666D01*
X1470916Y797334D01*
Y796501D01*
X1464084Y921666D02*
X1463251Y922499D01*
X1461585D01*
X1460752Y921666D01*
Y918334D01*
X1461585Y917501D01*
X1463251D01*
X1464084Y918334D01*
X1465750Y917501D02*
X1467417D01*
X1466584D01*
Y922499D01*
X1465750Y921666D01*
X1473248Y922499D02*
X1471582Y921666D01*
X1469916Y920000D01*
Y918334D01*
X1470749Y917501D01*
X1472415D01*
X1473248Y918334D01*
Y919167D01*
X1472415Y920000D01*
X1469916D01*
X234084Y126666D02*
X233251Y127499D01*
X231585D01*
X230752Y126666D01*
Y123334D01*
X231585Y122501D01*
X233251D01*
X234084Y123334D01*
X235750Y122501D02*
X237416D01*
X236583D01*
Y127499D01*
X235750Y126666D01*
X243248Y127499D02*
X239916D01*
Y125000D01*
X241582Y125833D01*
X242415D01*
X243248Y125000D01*
Y123334D01*
X242415Y122501D01*
X240749D01*
X239916Y123334D01*
X204084Y161666D02*
X203251Y162499D01*
X201585D01*
X200752Y161666D01*
Y158334D01*
X201585Y157501D01*
X203251D01*
X204084Y158334D01*
X205750Y157501D02*
X207416D01*
X206583D01*
Y162499D01*
X205750Y161666D01*
X209916D02*
X210749Y162499D01*
X212415D01*
X213248Y161666D01*
Y160833D01*
X212415Y160000D01*
X211582D01*
X212415D01*
X213248Y159167D01*
Y158334D01*
X212415Y157501D01*
X210749D01*
X209916Y158334D01*
X1203334Y827917D02*
X1202501Y827084D01*
Y825418D01*
X1203334Y824585D01*
X1206666D01*
X1207499Y825418D01*
Y827084D01*
X1206666Y827917D01*
X1207499Y829584D02*
Y831250D01*
Y830416D01*
X1202501D01*
X1203334Y829584D01*
X1207499Y833749D02*
Y835415D01*
Y834582D01*
X1202501D01*
X1203334Y833749D01*
X1158167Y951666D02*
X1157334Y952499D01*
X1155668D01*
X1154835Y951666D01*
Y948334D01*
X1155668Y947501D01*
X1157334D01*
X1158167Y948334D01*
X1159833Y951666D02*
X1160666Y952499D01*
X1162332D01*
X1163165Y951666D01*
Y950833D01*
X1162332Y950000D01*
X1163165Y949167D01*
Y948334D01*
X1162332Y947501D01*
X1160666D01*
X1159833Y948334D01*
Y949167D01*
X1160666Y950000D01*
X1159833Y950833D01*
Y951666D01*
X1160666Y950000D02*
X1162332D01*
X1138167Y951666D02*
X1137334Y952499D01*
X1135668D01*
X1134835Y951666D01*
Y948334D01*
X1135668Y947501D01*
X1137334D01*
X1138167Y948334D01*
X1139833Y952499D02*
X1143165D01*
Y951666D01*
X1139833Y948334D01*
Y947501D01*
X237167Y244666D02*
X236334Y245499D01*
X234668D01*
X233835Y244666D01*
Y241334D01*
X234668Y240501D01*
X236334D01*
X237167Y241334D01*
X242165Y245499D02*
X240499Y244666D01*
X238833Y243000D01*
Y241334D01*
X239666Y240501D01*
X241332D01*
X242165Y241334D01*
Y242167D01*
X241332Y243000D01*
X238833D01*
X203167Y282666D02*
X202334Y283499D01*
X200668D01*
X199835Y282666D01*
Y279334D01*
X200668Y278501D01*
X202334D01*
X203167Y279334D01*
X208165Y283499D02*
X204833D01*
Y281000D01*
X206499Y281833D01*
X207332D01*
X208165Y281000D01*
Y279334D01*
X207332Y278501D01*
X205666D01*
X204833Y279334D01*
X731666Y209333D02*
X732499Y210166D01*
Y211832D01*
X731666Y212665D01*
X728334D01*
X727501Y211832D01*
Y210166D01*
X728334Y209333D01*
X727501Y205168D02*
X732499D01*
X730000Y207667D01*
Y204335D01*
X1231167Y972666D02*
X1230334Y973499D01*
X1228668D01*
X1227835Y972666D01*
Y969334D01*
X1228668Y968501D01*
X1230334D01*
X1231167Y969334D01*
X1232833Y972666D02*
X1233666Y973499D01*
X1235332D01*
X1236165Y972666D01*
Y971833D01*
X1235332Y971000D01*
X1234499D01*
X1235332D01*
X1236165Y970167D01*
Y969334D01*
X1235332Y968501D01*
X1233666D01*
X1232833Y969334D01*
X1287167Y876666D02*
X1286334Y877499D01*
X1284668D01*
X1283835Y876666D01*
Y873334D01*
X1284668Y872501D01*
X1286334D01*
X1287167Y873334D01*
X1292165Y872501D02*
X1288833D01*
X1292165Y875833D01*
Y876666D01*
X1291332Y877499D01*
X1289666D01*
X1288833Y876666D01*
X1288000Y945666D02*
X1287167Y946499D01*
X1285501D01*
X1284668Y945666D01*
Y942334D01*
X1285501Y941501D01*
X1287167D01*
X1288000Y942334D01*
X1289666Y941501D02*
X1291332D01*
X1290499D01*
Y946499D01*
X1289666Y945666D01*
X0Y1000000D02*
X1600000D01*
X0Y0D02*
Y1000000D01*
X1600000D02*
X1600000Y0D01*
X0D02*
X1600000D01*
D14*
X378000Y601000D02*
X466697D01*
X378000Y601152D02*
X466697D01*
X378000Y601305D02*
X466697D01*
X378000Y601457D02*
X466697D01*
X378000Y601610D02*
X466697D01*
X378000Y601762D02*
X466697D01*
X378000Y601914D02*
X466697D01*
X378000Y602067D02*
X466697D01*
X378000Y602219D02*
X466697D01*
X378000Y602372D02*
X466697D01*
X378000Y602524D02*
X466697D01*
X378000Y602676D02*
X466697D01*
X378000Y602829D02*
X466697D01*
X378000Y602981D02*
X466697D01*
X378000Y603134D02*
X466697D01*
X378000Y603286D02*
X466697D01*
X378000Y603438D02*
X466697D01*
X378000Y603591D02*
X466697D01*
X378000Y603743D02*
X466697D01*
X378000Y603896D02*
X466697D01*
X378000Y604048D02*
X466697D01*
X378000Y604200D02*
X466697D01*
X378000Y604353D02*
X466697D01*
X378000Y604505D02*
X466697D01*
X378000Y604658D02*
X466697D01*
X378000Y604810D02*
X466697D01*
X378000Y604962D02*
X466697D01*
X378000Y605115D02*
X466697D01*
X429054Y605267D02*
X466697D01*
X415338D02*
X428902D01*
X378000D02*
X415033D01*
X429206Y605420D02*
X466697D01*
X415490D02*
X428749D01*
X378000D02*
X414881D01*
X429359Y605572D02*
X466697D01*
X415643D02*
X428597D01*
X378000D02*
X414728D01*
X429511Y605724D02*
X466697D01*
X415795D02*
X428444D01*
X378000D02*
X414576D01*
X429664Y605877D02*
X466697D01*
X415948D02*
X428292D01*
X378000D02*
X414424D01*
X429816Y606029D02*
X466697D01*
X416100D02*
X428140D01*
X378000D02*
X414271D01*
X429968Y606182D02*
X466697D01*
X416252D02*
X427987D01*
X378000D02*
X414119D01*
X430121Y606334D02*
X466697D01*
X416405D02*
X427835D01*
X378000D02*
X413966D01*
X430273Y606486D02*
X466697D01*
X416557D02*
X427682D01*
X378000D02*
X413814D01*
X430426Y606639D02*
X466697D01*
X416710D02*
X427530D01*
X378000D02*
X413662D01*
X430578Y606791D02*
X466697D01*
X416862D02*
X427378D01*
X378000D02*
X413509D01*
X430730Y606944D02*
X466697D01*
X417014D02*
X427225D01*
X378000D02*
X413357D01*
X430883Y607096D02*
X466697D01*
X417167D02*
X427073D01*
X378000D02*
X413204D01*
X431035Y607248D02*
X466697D01*
X417319D02*
X426920D01*
X378000D02*
X413052D01*
X431188Y607401D02*
X466697D01*
X417472D02*
X426768D01*
X378000D02*
X412900D01*
X431340Y607553D02*
X466697D01*
X417624D02*
X426616D01*
X378000D02*
X412747D01*
X431492Y607706D02*
X466697D01*
X417776D02*
X426463D01*
X378000D02*
X412595D01*
X431645Y607858D02*
X466697D01*
X417929D02*
X426311D01*
X378000D02*
X412442D01*
X431797Y608010D02*
X466697D01*
X418081D02*
X426158D01*
X378000D02*
X412290D01*
X431950Y608163D02*
X466697D01*
X418234D02*
X426006D01*
X378000D02*
X412138D01*
X432102Y608315D02*
X466697D01*
X418386D02*
X425854D01*
X378000D02*
X411985D01*
X432254Y608468D02*
X466697D01*
X418538D02*
X425701D01*
X378000D02*
X411833D01*
X432407Y608620D02*
X466697D01*
X418691D02*
X425549D01*
X378000D02*
X411680D01*
X432559Y608772D02*
X466697D01*
X418843D02*
X425396D01*
X378000D02*
X411680D01*
X432407Y608925D02*
X466697D01*
X418996D02*
X425244D01*
X378000D02*
X411833D01*
X432254Y609077D02*
X466697D01*
X419148D02*
X425092D01*
X378000D02*
X411985D01*
X432102Y609230D02*
X466697D01*
X419300D02*
X424939D01*
X378000D02*
X412138D01*
X431950Y609382D02*
X466697D01*
X419453D02*
X424787D01*
X378000D02*
X412290D01*
X431797Y609534D02*
X466697D01*
X419605D02*
X424634D01*
X378000D02*
X412442D01*
X431645Y609687D02*
X466697D01*
X419758D02*
X424482D01*
X378000D02*
X412595D01*
X431492Y609839D02*
X466697D01*
X419910D02*
X424330D01*
X378000D02*
X412747D01*
X431340Y609992D02*
X466697D01*
X420062D02*
X424177D01*
X378000D02*
X412900D01*
X431188Y610144D02*
X466697D01*
X420215D02*
X424025D01*
X378000D02*
X413052D01*
X431035Y610296D02*
X466697D01*
X420367D02*
X423872D01*
X378000D02*
X413204D01*
X430883Y610449D02*
X466697D01*
X420520D02*
X423720D01*
X378000D02*
X413357D01*
X430730Y610601D02*
X466697D01*
X420672D02*
X423568D01*
X378000D02*
X413509D01*
X430578Y610754D02*
X466697D01*
X420824D02*
X423415D01*
X378000D02*
X413662D01*
X430426Y610906D02*
X466697D01*
X420977D02*
X423263D01*
X378000D02*
X413814D01*
X430273Y611058D02*
X466697D01*
X421129D02*
X423110D01*
X378000D02*
X413966D01*
X430121Y611211D02*
X466697D01*
X421282D02*
X422958D01*
X378000D02*
X414119D01*
X429968Y611363D02*
X466697D01*
X421434D02*
X422806D01*
X378000D02*
X414271D01*
X429816Y611516D02*
X466697D01*
X421586D02*
X422653D01*
X378000D02*
X414424D01*
X429664Y611668D02*
X466697D01*
X421739D02*
X422501D01*
X378000D02*
X414576D01*
X429511Y611820D02*
X466697D01*
X421891D02*
X422348D01*
X378000D02*
X414728D01*
X429359Y611973D02*
X466697D01*
X422044D02*
X422196D01*
X378000D02*
X414881D01*
X429206Y612125D02*
X466697D01*
X378000D02*
X415033D01*
X429054Y612278D02*
X466697D01*
X378000D02*
X415186D01*
X428902Y612430D02*
X466697D01*
X378000D02*
X415338D01*
X428749Y612582D02*
X466697D01*
X378000D02*
X415490D01*
X428597Y612735D02*
X466697D01*
X378000D02*
X415643D01*
X428444Y612887D02*
X466697D01*
X378000D02*
X415795D01*
X428292Y613040D02*
X466697D01*
X378000D02*
X415948D01*
X428140Y613192D02*
X466697D01*
X378000D02*
X416100D01*
X427987Y613344D02*
X466697D01*
X378000D02*
X416252D01*
X427835Y613497D02*
X466697D01*
X378000D02*
X416405D01*
X427682Y613649D02*
X466697D01*
X378000D02*
X416557D01*
X427530Y613802D02*
X466697D01*
X378000D02*
X416710D01*
X427378Y613954D02*
X466697D01*
X378000D02*
X416862D01*
X427225Y614106D02*
X466697D01*
X378000D02*
X417014D01*
X427073Y614259D02*
X466697D01*
X378000D02*
X417167D01*
X426920Y614411D02*
X466697D01*
X378000D02*
X417319D01*
X426768Y614564D02*
X466697D01*
X378000D02*
X417472D01*
X426616Y614716D02*
X466697D01*
X378000D02*
X417624D01*
X426463Y614868D02*
X466697D01*
X378000D02*
X417776D01*
X426311Y615021D02*
X466697D01*
X378000D02*
X417929D01*
X426158Y615173D02*
X466697D01*
X378000D02*
X418081D01*
X426006Y615326D02*
X466697D01*
X378000D02*
X418234D01*
X425854Y615478D02*
X466697D01*
X378000D02*
X418386D01*
X425701Y615630D02*
X466697D01*
X378000D02*
X418538D01*
X425854Y615783D02*
X466697D01*
X378000D02*
X418386D01*
X426006Y615935D02*
X466697D01*
X378000D02*
X418234D01*
X426158Y616088D02*
X466697D01*
X378000D02*
X418081D01*
X426311Y616240D02*
X466697D01*
X378000D02*
X417929D01*
X426463Y616392D02*
X466697D01*
X378000D02*
X417776D01*
X426616Y616545D02*
X466697D01*
X378000D02*
X417624D01*
X426768Y616697D02*
X466697D01*
X378000D02*
X417472D01*
X426920Y616850D02*
X466697D01*
X378000D02*
X417319D01*
X427073Y617002D02*
X466697D01*
X378000D02*
X417167D01*
X427225Y617154D02*
X466697D01*
X378000D02*
X417014D01*
X427378Y617307D02*
X466697D01*
X378000D02*
X416862D01*
X427530Y617459D02*
X466697D01*
X378000D02*
X416710D01*
X427682Y617612D02*
X466697D01*
X378000D02*
X416557D01*
X427835Y617764D02*
X466697D01*
X378000D02*
X416405D01*
X427987Y617916D02*
X466697D01*
X378000D02*
X416252D01*
X428140Y618069D02*
X466697D01*
X378000D02*
X416100D01*
X428292Y618221D02*
X466697D01*
X378000D02*
X415948D01*
X428444Y618374D02*
X466697D01*
X378000D02*
X415795D01*
X428597Y618526D02*
X466697D01*
X378000D02*
X415643D01*
X428749Y618678D02*
X466697D01*
X378000D02*
X415490D01*
X428902Y618831D02*
X466697D01*
X378000D02*
X415338D01*
X429054Y618983D02*
X466697D01*
X378000D02*
X415186D01*
X429206Y619136D02*
X466697D01*
X378000D02*
X415033D01*
X429359Y619288D02*
X466697D01*
X422044D02*
X422196D01*
X378000D02*
X414881D01*
X429511Y619440D02*
X466697D01*
X421891D02*
X422348D01*
X378000D02*
X414728D01*
X429664Y619593D02*
X466697D01*
X421739D02*
X422501D01*
X378000D02*
X414576D01*
X429816Y619745D02*
X466697D01*
X421586D02*
X422653D01*
X378000D02*
X414424D01*
X429968Y619898D02*
X466697D01*
X421434D02*
X422806D01*
X378000D02*
X414271D01*
X430121Y620050D02*
X466697D01*
X421282D02*
X422958D01*
X378000D02*
X414119D01*
X430273Y620202D02*
X466697D01*
X421129D02*
X423110D01*
X378000D02*
X413966D01*
X430426Y620355D02*
X466697D01*
X420977D02*
X423263D01*
X378000D02*
X413814D01*
X430578Y620507D02*
X466697D01*
X420824D02*
X423415D01*
X378000D02*
X413662D01*
X430730Y620660D02*
X466697D01*
X420672D02*
X423568D01*
X378000D02*
X413509D01*
X430883Y620812D02*
X466697D01*
X420520D02*
X423720D01*
X378000D02*
X413357D01*
X431035Y620964D02*
X466697D01*
X420367D02*
X423872D01*
X378000D02*
X413204D01*
X431188Y621117D02*
X466697D01*
X420215D02*
X424025D01*
X378000D02*
X413052D01*
X431340Y621269D02*
X466697D01*
X420062D02*
X424177D01*
X378000D02*
X412900D01*
X431492Y621422D02*
X466697D01*
X419910D02*
X424330D01*
X378000D02*
X412747D01*
X431645Y621574D02*
X466697D01*
X419758D02*
X424482D01*
X378000D02*
X412595D01*
X431797Y621726D02*
X466697D01*
X419605D02*
X424634D01*
X378000D02*
X412442D01*
X431950Y621879D02*
X466697D01*
X419453D02*
X424787D01*
X378000D02*
X412290D01*
X432102Y622031D02*
X466697D01*
X419300D02*
X424939D01*
X378000D02*
X412138D01*
X431950Y622184D02*
X466697D01*
X419148D02*
X425092D01*
X378000D02*
X412138D01*
X431797Y622336D02*
X466697D01*
X418996D02*
X425244D01*
X378000D02*
X412290D01*
X431645Y622488D02*
X466697D01*
X418843D02*
X425396D01*
X378000D02*
X412442D01*
X431492Y622641D02*
X466697D01*
X418691D02*
X425549D01*
X378000D02*
X412595D01*
X431340Y622793D02*
X466697D01*
X418538D02*
X425701D01*
X378000D02*
X412747D01*
X431188Y622946D02*
X466697D01*
X418386D02*
X425854D01*
X378000D02*
X412900D01*
X431035Y623098D02*
X466697D01*
X418234D02*
X426006D01*
X378000D02*
X413052D01*
X430883Y623250D02*
X466697D01*
X418081D02*
X426158D01*
X378000D02*
X413204D01*
X430730Y623403D02*
X466697D01*
X417929D02*
X426311D01*
X378000D02*
X413357D01*
X430578Y623555D02*
X466697D01*
X417776D02*
X426463D01*
X378000D02*
X413509D01*
X430426Y623708D02*
X466697D01*
X417624D02*
X426616D01*
X378000D02*
X413662D01*
X430273Y623860D02*
X466697D01*
X417472D02*
X426768D01*
X378000D02*
X413814D01*
X430121Y624012D02*
X466697D01*
X417319D02*
X426920D01*
X378000D02*
X413966D01*
X429968Y624165D02*
X466697D01*
X417167D02*
X427073D01*
X378000D02*
X414119D01*
X429816Y624317D02*
X466697D01*
X417014D02*
X427225D01*
X378000D02*
X414271D01*
X429664Y624470D02*
X466697D01*
X416862D02*
X427378D01*
X378000D02*
X414424D01*
X429511Y624622D02*
X466697D01*
X416710D02*
X427530D01*
X378000D02*
X414576D01*
X429359Y624774D02*
X466697D01*
X416557D02*
X427682D01*
X378000D02*
X414728D01*
X429206Y624927D02*
X466697D01*
X416405D02*
X427835D01*
X378000D02*
X414881D01*
X429054Y625079D02*
X466697D01*
X416252D02*
X427987D01*
X378000D02*
X415033D01*
X428902Y625232D02*
X466697D01*
X416100D02*
X428140D01*
X378000D02*
X415186D01*
X428749Y625384D02*
X466697D01*
X415948D02*
X428292D01*
X378000D02*
X415338D01*
X428597Y625536D02*
X466697D01*
X415795D02*
X428444D01*
X378000D02*
X415490D01*
X378000Y625689D02*
X466697D01*
X378000Y625841D02*
X466697D01*
X378000Y625994D02*
X466697D01*
X378000Y626146D02*
X466697D01*
X378000Y626298D02*
X466697D01*
X378000Y626451D02*
X466697D01*
X378000Y626603D02*
X466697D01*
X378000Y626756D02*
X466697D01*
X435760Y626908D02*
X466697D01*
X378000D02*
X435302D01*
X436217Y627060D02*
X466697D01*
X378000D02*
X435302D01*
X436826Y627213D02*
X466697D01*
X420367D02*
X435302D01*
X378000D02*
X415490D01*
X437284Y627365D02*
X466697D01*
X421586D02*
X435302D01*
X378000D02*
X414424D01*
X437741Y627518D02*
X466697D01*
X422501D02*
X435302D01*
X378000D02*
X413662D01*
X438350Y627670D02*
X466697D01*
X423263D02*
X435302D01*
X378000D02*
X412900D01*
X438808Y627822D02*
X466697D01*
X423872D02*
X435302D01*
X378000D02*
X412290D01*
X439417Y627975D02*
X466697D01*
X424634D02*
X435302D01*
X378000D02*
X411680D01*
X439874Y628127D02*
X466697D01*
X425092D02*
X435302D01*
X378000D02*
X411223D01*
X440332Y628280D02*
X466697D01*
X425701D02*
X435302D01*
X378000D02*
X410766D01*
X440941Y628432D02*
X466697D01*
X426158D02*
X435302D01*
X378000D02*
X410309D01*
X441398Y628584D02*
X466697D01*
X426616D02*
X435302D01*
X378000D02*
X409852D01*
X442008Y628737D02*
X466697D01*
X426920D02*
X435302D01*
X378000D02*
X409394D01*
X442465Y628889D02*
X466697D01*
X427378D02*
X435302D01*
X378000D02*
X409090D01*
X442770Y629042D02*
X466697D01*
X427682D02*
X435302D01*
X378000D02*
X408632D01*
X442770Y629194D02*
X466697D01*
X427987D02*
X435302D01*
X378000D02*
X408328D01*
X442618Y629346D02*
X466697D01*
X428444D02*
X435302D01*
X378000D02*
X408023D01*
X442618Y629499D02*
X466697D01*
X428749D02*
X435302D01*
X378000D02*
X407718D01*
X442618Y629651D02*
X466697D01*
X429054D02*
X435302D01*
X378000D02*
X407566D01*
X442618Y629804D02*
X466697D01*
X429206D02*
X435302D01*
X378000D02*
X407261D01*
X442618Y629956D02*
X466697D01*
X429511D02*
X435302D01*
X378000D02*
X406956D01*
X442618Y630108D02*
X466697D01*
X429816D02*
X435302D01*
X378000D02*
X406804D01*
X442618Y630261D02*
X466697D01*
X429968D02*
X435302D01*
X378000D02*
X406651D01*
X442618Y630413D02*
X466697D01*
X430273D02*
X435302D01*
X378000D02*
X406346D01*
X442465Y630566D02*
X466697D01*
X430426D02*
X435302D01*
X378000D02*
X406194D01*
X442465Y630718D02*
X466697D01*
X430730D02*
X435302D01*
X378000D02*
X406042D01*
X442465Y630870D02*
X466697D01*
X430883D02*
X435302D01*
X378000D02*
X405889D01*
X442465Y631023D02*
X466697D01*
X431035D02*
X435302D01*
X378000D02*
X405584D01*
X442465Y631175D02*
X466697D01*
X431340D02*
X435302D01*
X378000D02*
X405432D01*
X442465Y631328D02*
X466697D01*
X431492D02*
X435302D01*
X378000D02*
X405280D01*
X442465Y631480D02*
X466697D01*
X431645D02*
X435302D01*
X378000D02*
X405127D01*
X442465Y631632D02*
X466697D01*
X431797D02*
X435302D01*
X378000D02*
X404975D01*
X442465Y631785D02*
X466697D01*
X431950D02*
X435302D01*
X378000D02*
X404822D01*
X442313Y631937D02*
X466697D01*
X432102D02*
X435302D01*
X378000D02*
X404670D01*
X442313Y632090D02*
X466697D01*
X432254D02*
X435302D01*
X378000D02*
X404670D01*
X442313Y632242D02*
X466697D01*
X432407D02*
X435302D01*
X378000D02*
X404518D01*
X442313Y632394D02*
X466697D01*
X432559D02*
X435302D01*
X378000D02*
X404365D01*
X442313Y632547D02*
X466697D01*
X432712D02*
X435302D01*
X420215D02*
X422044D01*
X378000D02*
X404213D01*
X442313Y632699D02*
X466697D01*
X432864D02*
X435302D01*
X418234D02*
X424330D01*
X378000D02*
X404060D01*
X442313Y632852D02*
X466697D01*
X433016D02*
X435302D01*
X417167D02*
X425549D01*
X378000D02*
X404060D01*
X442313Y633004D02*
X466697D01*
X433169D02*
X435302D01*
X416405D02*
X426463D01*
X378000D02*
X403908D01*
X442313Y633156D02*
X466697D01*
X433321D02*
X435302D01*
X415643D02*
X427225D01*
X378000D02*
X403756D01*
X442313Y633309D02*
X466697D01*
X433626D02*
X435302D01*
X415033D02*
X427987D01*
X378000D02*
X403603D01*
X442313Y633461D02*
X466697D01*
X433778D02*
X435302D01*
X414576D02*
X428444D01*
X378000D02*
X403603D01*
X442160Y633614D02*
X466697D01*
X433931D02*
X435302D01*
X414119D02*
X429054D01*
X378000D02*
X403451D01*
X442160Y633766D02*
X466697D01*
X434083D02*
X435302D01*
X413662D02*
X429359D01*
X378000D02*
X403298D01*
X442160Y633918D02*
X466697D01*
X434236D02*
X435302D01*
X413204D02*
X429816D01*
X378000D02*
X403298D01*
X442160Y634071D02*
X466697D01*
X434388D02*
X435302D01*
X412900D02*
X430121D01*
X378000D02*
X403146D01*
X442160Y634223D02*
X466697D01*
X434540D02*
X435302D01*
X412595D02*
X430578D01*
X378000D02*
X403146D01*
X442160Y634376D02*
X466697D01*
X434693D02*
X435302D01*
X412290D02*
X430883D01*
X378000D02*
X402994D01*
X442160Y634528D02*
X466697D01*
X434845D02*
X435302D01*
X411985D02*
X431188D01*
X378000D02*
X402994D01*
X442160Y634680D02*
X466697D01*
X434998D02*
X435302D01*
X411833D02*
X431340D01*
X378000D02*
X402994D01*
X442160Y634833D02*
X466697D01*
X411528D02*
X431645D01*
X378000D02*
X402841D01*
X442160Y634985D02*
X466697D01*
X411376D02*
X431797D01*
X378000D02*
X402841D01*
X442160Y635138D02*
X466697D01*
X411071D02*
X432102D01*
X378000D02*
X402841D01*
X442160Y635290D02*
X466697D01*
X410918D02*
X432254D01*
X378000D02*
X402689D01*
X442160Y635442D02*
X466697D01*
X410766D02*
X432407D01*
X378000D02*
X402689D01*
X442008Y635595D02*
X466697D01*
X410614D02*
X432559D01*
X378000D02*
X402689D01*
X442008Y635747D02*
X466697D01*
X410461D02*
X432712D01*
X378000D02*
X402689D01*
X442008Y635900D02*
X466697D01*
X410309D02*
X432864D01*
X378000D02*
X402689D01*
X442008Y636052D02*
X466697D01*
X410309D02*
X433016D01*
X378000D02*
X402536D01*
X442008Y636204D02*
X466697D01*
X410156D02*
X433169D01*
X378000D02*
X402536D01*
X442008Y636357D02*
X466697D01*
X410004D02*
X433321D01*
X378000D02*
X402536D01*
X442008Y636509D02*
X466697D01*
X410004D02*
X433474D01*
X378000D02*
X402536D01*
X442008Y636662D02*
X466697D01*
X409852D02*
X433474D01*
X378000D02*
X402536D01*
X442008Y636814D02*
X466697D01*
X409852D02*
X433626D01*
X378000D02*
X402536D01*
X442008Y636966D02*
X466697D01*
X409852D02*
X433626D01*
X378000D02*
X402384D01*
X442008Y637119D02*
X466697D01*
X409699D02*
X433778D01*
X378000D02*
X402384D01*
X442008Y637271D02*
X466697D01*
X409699D02*
X433931D01*
X378000D02*
X402384D01*
X442008Y637424D02*
X466697D01*
X409547D02*
X433931D01*
X378000D02*
X402384D01*
X442008Y637576D02*
X466697D01*
X409547D02*
X433931D01*
X378000D02*
X402384D01*
X442008Y637728D02*
X466697D01*
X409547D02*
X434083D01*
X378000D02*
X402384D01*
X442008Y637881D02*
X466697D01*
X409394D02*
X434083D01*
X378000D02*
X402384D01*
X442008Y638033D02*
X466697D01*
X409394D02*
X434236D01*
X378000D02*
X402384D01*
X441856Y638186D02*
X466697D01*
X409394D02*
X434236D01*
X378000D02*
X402384D01*
X441856Y638338D02*
X466697D01*
X409394D02*
X434236D01*
X378000D02*
X402232D01*
X441856Y638490D02*
X466697D01*
X409242D02*
X434236D01*
X378000D02*
X402232D01*
X441856Y638643D02*
X466697D01*
X409242D02*
X434388D01*
X378000D02*
X402232D01*
X441856Y638795D02*
X466697D01*
X409242D02*
X434388D01*
X378000D02*
X402232D01*
X441856Y638948D02*
X466697D01*
X409242D02*
X434388D01*
X378000D02*
X402232D01*
X441856Y639100D02*
X466697D01*
X409242D02*
X434540D01*
X378000D02*
X402232D01*
X441856Y639252D02*
X466697D01*
X409090D02*
X434540D01*
X378000D02*
X402232D01*
X441856Y639405D02*
X466697D01*
X409090D02*
X434540D01*
X378000D02*
X402232D01*
X441856Y639557D02*
X466697D01*
X409090D02*
X434540D01*
X378000D02*
X402232D01*
X441856Y639710D02*
X466697D01*
X429054D02*
X434540D01*
X415338D02*
X428902D01*
X409090D02*
X415033D01*
X378000D02*
X402232D01*
X441856Y639862D02*
X466697D01*
X429206D02*
X434693D01*
X415490D02*
X428749D01*
X409090D02*
X414881D01*
X378000D02*
X402232D01*
X441856Y640014D02*
X466697D01*
X429359D02*
X434693D01*
X415643D02*
X428597D01*
X408937D02*
X414728D01*
X378000D02*
X402232D01*
X441856Y640167D02*
X466697D01*
X429511D02*
X434693D01*
X415795D02*
X428444D01*
X408937D02*
X414576D01*
X378000D02*
X402232D01*
X441856Y640319D02*
X466697D01*
X429664D02*
X434693D01*
X415948D02*
X428292D01*
X408937D02*
X414424D01*
X378000D02*
X402232D01*
X441856Y640472D02*
X466697D01*
X429816D02*
X434693D01*
X416100D02*
X428140D01*
X408937D02*
X414271D01*
X378000D02*
X402232D01*
X441856Y640624D02*
X466697D01*
X429968D02*
X434845D01*
X416252D02*
X427987D01*
X408937D02*
X414119D01*
X378000D02*
X402232D01*
X441856Y640776D02*
X466697D01*
X430121D02*
X434845D01*
X416405D02*
X427835D01*
X408937D02*
X413966D01*
X378000D02*
X402232D01*
X441856Y640929D02*
X466697D01*
X430273D02*
X434845D01*
X416557D02*
X427682D01*
X408937D02*
X413814D01*
X378000D02*
X402232D01*
X441856Y641081D02*
X466697D01*
X430426D02*
X434845D01*
X416710D02*
X427530D01*
X408937D02*
X413662D01*
X378000D02*
X402232D01*
X441856Y641234D02*
X466697D01*
X430578D02*
X434845D01*
X416862D02*
X427378D01*
X408785D02*
X413509D01*
X378000D02*
X402232D01*
X441856Y641386D02*
X466697D01*
X430730D02*
X434845D01*
X417014D02*
X427225D01*
X408785D02*
X413357D01*
X378000D02*
X402232D01*
X441856Y641538D02*
X466697D01*
X430883D02*
X434845D01*
X417167D02*
X427073D01*
X408785D02*
X413204D01*
X378000D02*
X402232D01*
X441856Y641691D02*
X466697D01*
X431035D02*
X434998D01*
X417319D02*
X426920D01*
X408785D02*
X413052D01*
X378000D02*
X402232D01*
X441856Y641843D02*
X466697D01*
X431188D02*
X434998D01*
X417472D02*
X426768D01*
X408785D02*
X412900D01*
X378000D02*
X402232D01*
X441856Y641996D02*
X466697D01*
X431340D02*
X434998D01*
X417624D02*
X426616D01*
X408785D02*
X412747D01*
X378000D02*
X402232D01*
X441856Y642148D02*
X466697D01*
X431492D02*
X434998D01*
X417776D02*
X426463D01*
X408785D02*
X412595D01*
X378000D02*
X402232D01*
X441856Y642300D02*
X466697D01*
X431645D02*
X434998D01*
X417929D02*
X426311D01*
X408785D02*
X412442D01*
X378000D02*
X402232D01*
X441856Y642453D02*
X466697D01*
X431797D02*
X434998D01*
X418081D02*
X426158D01*
X408785D02*
X412290D01*
X378000D02*
X402232D01*
X441856Y642605D02*
X466697D01*
X431950D02*
X434998D01*
X418234D02*
X426006D01*
X408785D02*
X412138D01*
X378000D02*
X402232D01*
X441703Y642758D02*
X466697D01*
X432102D02*
X434998D01*
X418386D02*
X425854D01*
X408632D02*
X411985D01*
X378000D02*
X402232D01*
X441703Y642910D02*
X466697D01*
X432254D02*
X435150D01*
X418538D02*
X425701D01*
X408632D02*
X411833D01*
X378000D02*
X402232D01*
X441703Y643062D02*
X466697D01*
X432407D02*
X435150D01*
X418691D02*
X425549D01*
X408632D02*
X411680D01*
X378000D02*
X402232D01*
X441703Y643215D02*
X466697D01*
X432559D02*
X435150D01*
X418843D02*
X425396D01*
X408632D02*
X411680D01*
X378000D02*
X402232D01*
X441703Y643367D02*
X466697D01*
X432407D02*
X435150D01*
X418996D02*
X425244D01*
X408632D02*
X411833D01*
X378000D02*
X402232D01*
X441703Y643520D02*
X466697D01*
X432254D02*
X435150D01*
X419148D02*
X425092D01*
X408632D02*
X411985D01*
X378000D02*
X402232D01*
X441703Y643672D02*
X466697D01*
X432102D02*
X435150D01*
X419300D02*
X424939D01*
X408632D02*
X412138D01*
X378000D02*
X402232D01*
X441703Y643824D02*
X466697D01*
X431950D02*
X435150D01*
X419453D02*
X424787D01*
X408632D02*
X412290D01*
X378000D02*
X402232D01*
X441703Y643977D02*
X466697D01*
X431797D02*
X435150D01*
X419605D02*
X424634D01*
X408632D02*
X412442D01*
X378000D02*
X402232D01*
X441703Y644129D02*
X466697D01*
X431645D02*
X435150D01*
X419758D02*
X424482D01*
X408632D02*
X412595D01*
X378000D02*
X402232D01*
X441703Y644282D02*
X466697D01*
X431492D02*
X435150D01*
X419910D02*
X424330D01*
X408632D02*
X412747D01*
X378000D02*
X402232D01*
X441703Y644434D02*
X466697D01*
X431340D02*
X435302D01*
X420062D02*
X424177D01*
X408632D02*
X412900D01*
X378000D02*
X402232D01*
X441703Y644586D02*
X466697D01*
X431188D02*
X435302D01*
X420215D02*
X424025D01*
X408632D02*
X413052D01*
X378000D02*
X402232D01*
X441703Y644739D02*
X466697D01*
X431035D02*
X435302D01*
X420367D02*
X423872D01*
X408632D02*
X413204D01*
X378000D02*
X402232D01*
X441703Y644891D02*
X466697D01*
X430883D02*
X435302D01*
X420520D02*
X423720D01*
X408632D02*
X413357D01*
X378000D02*
X402232D01*
X441703Y645044D02*
X466697D01*
X430730D02*
X435302D01*
X420672D02*
X423568D01*
X408632D02*
X413509D01*
X378000D02*
X402232D01*
X441703Y645196D02*
X466697D01*
X430578D02*
X435302D01*
X420824D02*
X423415D01*
X408632D02*
X413662D01*
X378000D02*
X402232D01*
X441703Y645348D02*
X466697D01*
X430426D02*
X435302D01*
X420977D02*
X423263D01*
X408632D02*
X413814D01*
X378000D02*
X402232D01*
X441703Y645501D02*
X466697D01*
X430273D02*
X435302D01*
X421129D02*
X423110D01*
X408632D02*
X413966D01*
X378000D02*
X402232D01*
X441703Y645653D02*
X466697D01*
X430121D02*
X435302D01*
X421282D02*
X422958D01*
X408632D02*
X414119D01*
X378000D02*
X402232D01*
X441703Y645806D02*
X466697D01*
X429968D02*
X435302D01*
X421434D02*
X422806D01*
X408632D02*
X414271D01*
X378000D02*
X402232D01*
X441703Y645958D02*
X466697D01*
X429816D02*
X435302D01*
X421586D02*
X422653D01*
X408632D02*
X414424D01*
X378000D02*
X402232D01*
X441703Y646110D02*
X466697D01*
X429664D02*
X435302D01*
X421739D02*
X422501D01*
X408632D02*
X414576D01*
X378000D02*
X402232D01*
X441703Y646263D02*
X466697D01*
X429511D02*
X435302D01*
X421891D02*
X422348D01*
X408632D02*
X414728D01*
X378000D02*
X402232D01*
X441703Y646415D02*
X466697D01*
X429359D02*
X435302D01*
X422044D02*
X422196D01*
X408632D02*
X414881D01*
X378000D02*
X402232D01*
X441703Y646568D02*
X466697D01*
X429206D02*
X435302D01*
X408632D02*
X415033D01*
X378000D02*
X402232D01*
X441703Y646720D02*
X466697D01*
X429054D02*
X435302D01*
X408632D02*
X415186D01*
X378000D02*
X402232D01*
X441703Y646872D02*
X466697D01*
X428902D02*
X435455D01*
X408632D02*
X415338D01*
X378000D02*
X402232D01*
X441703Y647025D02*
X466697D01*
X428749D02*
X435455D01*
X408632D02*
X415490D01*
X378000D02*
X402232D01*
X441703Y647177D02*
X466697D01*
X428597D02*
X435455D01*
X408632D02*
X415643D01*
X378000D02*
X402232D01*
X441703Y647330D02*
X466697D01*
X428444D02*
X435455D01*
X408632D02*
X415795D01*
X378000D02*
X402232D01*
X441703Y647482D02*
X466697D01*
X428292D02*
X435455D01*
X408632D02*
X415948D01*
X378000D02*
X402232D01*
X441703Y647634D02*
X466697D01*
X428140D02*
X435455D01*
X408632D02*
X416100D01*
X378000D02*
X402232D01*
X441703Y647787D02*
X466697D01*
X427987D02*
X435455D01*
X408632D02*
X416252D01*
X378000D02*
X402232D01*
X441703Y647939D02*
X466697D01*
X427835D02*
X435455D01*
X408632D02*
X416405D01*
X378000D02*
X402232D01*
X441703Y648092D02*
X466697D01*
X427682D02*
X435455D01*
X408632D02*
X416557D01*
X378000D02*
X402384D01*
X441703Y648244D02*
X466697D01*
X427530D02*
X435455D01*
X408632D02*
X416710D01*
X378000D02*
X402384D01*
X441703Y648396D02*
X466697D01*
X427378D02*
X435455D01*
X408632D02*
X416862D01*
X378000D02*
X402384D01*
X441703Y648549D02*
X466697D01*
X427225D02*
X435455D01*
X408632D02*
X417014D01*
X378000D02*
X402384D01*
X441703Y648701D02*
X466697D01*
X427073D02*
X435455D01*
X408632D02*
X417167D01*
X378000D02*
X402232D01*
X441703Y648854D02*
X466697D01*
X426920D02*
X435455D01*
X408632D02*
X417319D01*
X378000D02*
X402232D01*
X441703Y649006D02*
X466697D01*
X426768D02*
X435455D01*
X408632D02*
X417472D01*
X378000D02*
X402232D01*
X441703Y649158D02*
X466697D01*
X426616D02*
X435455D01*
X408632D02*
X417624D01*
X378000D02*
X402232D01*
X441703Y649311D02*
X466697D01*
X426463D02*
X435455D01*
X408632D02*
X417776D01*
X378000D02*
X402232D01*
X441703Y649463D02*
X466697D01*
X426311D02*
X435455D01*
X408632D02*
X417929D01*
X378000D02*
X402232D01*
X441703Y649616D02*
X466697D01*
X426158D02*
X435455D01*
X408632D02*
X418081D01*
X378000D02*
X402232D01*
X441703Y649768D02*
X466697D01*
X426006D02*
X435455D01*
X408632D02*
X418234D01*
X378000D02*
X402232D01*
X441703Y649920D02*
X466697D01*
X425854D02*
X435455D01*
X408632D02*
X418386D01*
X378000D02*
X402232D01*
X441703Y650073D02*
X466697D01*
X425701D02*
X435455D01*
X408632D02*
X418538D01*
X378000D02*
X402232D01*
X441703Y650225D02*
X466697D01*
X425854D02*
X435455D01*
X408632D02*
X418386D01*
X378000D02*
X402232D01*
X441703Y650378D02*
X466697D01*
X426006D02*
X435455D01*
X408632D02*
X418234D01*
X378000D02*
X402232D01*
X441703Y650530D02*
X466697D01*
X426158D02*
X435455D01*
X408632D02*
X418081D01*
X378000D02*
X402232D01*
X441856Y650682D02*
X466697D01*
X426311D02*
X435455D01*
X408632D02*
X417929D01*
X378000D02*
X402232D01*
X441856Y650835D02*
X466697D01*
X426463D02*
X435455D01*
X408632D02*
X417776D01*
X378000D02*
X402232D01*
X441856Y650987D02*
X466697D01*
X426616D02*
X435455D01*
X408632D02*
X417624D01*
X378000D02*
X402232D01*
X441856Y651140D02*
X466697D01*
X426768D02*
X435455D01*
X408632D02*
X417472D01*
X378000D02*
X402232D01*
X441856Y651292D02*
X466697D01*
X426920D02*
X435455D01*
X408632D02*
X417319D01*
X378000D02*
X402232D01*
X441856Y651444D02*
X466697D01*
X427073D02*
X435455D01*
X408632D02*
X417167D01*
X378000D02*
X402232D01*
X441856Y651597D02*
X466697D01*
X427225D02*
X435455D01*
X408632D02*
X417014D01*
X378000D02*
X402232D01*
X441856Y651749D02*
X466697D01*
X427378D02*
X435455D01*
X408632D02*
X416862D01*
X378000D02*
X402232D01*
X441856Y651902D02*
X466697D01*
X427530D02*
X435455D01*
X408632D02*
X416710D01*
X378000D02*
X402232D01*
X441856Y652054D02*
X466697D01*
X427682D02*
X435455D01*
X408632D02*
X416557D01*
X378000D02*
X402079D01*
X441856Y652206D02*
X466697D01*
X427835D02*
X435455D01*
X408632D02*
X416405D01*
X378000D02*
X402079D01*
X441856Y652359D02*
X466697D01*
X427987D02*
X435455D01*
X408632D02*
X416252D01*
X378000D02*
X402079D01*
X441856Y652511D02*
X466697D01*
X428140D02*
X435455D01*
X408632D02*
X416100D01*
X378000D02*
X402079D01*
X441856Y652664D02*
X466697D01*
X428292D02*
X435455D01*
X408632D02*
X415948D01*
X378000D02*
X402079D01*
X441856Y652816D02*
X466697D01*
X428444D02*
X435455D01*
X408632D02*
X415795D01*
X378000D02*
X402079D01*
X441856Y652968D02*
X466697D01*
X428597D02*
X435455D01*
X408632D02*
X415643D01*
X378000D02*
X402079D01*
X441856Y653121D02*
X466697D01*
X428749D02*
X435455D01*
X408632D02*
X415490D01*
X378000D02*
X402079D01*
X441856Y653273D02*
X466697D01*
X428902D02*
X435455D01*
X408632D02*
X415338D01*
X378000D02*
X402079D01*
X441856Y653426D02*
X466697D01*
X429054D02*
X435455D01*
X408632D02*
X415186D01*
X378000D02*
X402079D01*
X441856Y653578D02*
X466697D01*
X429206D02*
X435455D01*
X408632D02*
X415033D01*
X378000D02*
X402079D01*
X441856Y653730D02*
X466697D01*
X429359D02*
X435455D01*
X422044D02*
X422196D01*
X408632D02*
X414881D01*
X378000D02*
X402079D01*
X441856Y653883D02*
X466697D01*
X429511D02*
X435455D01*
X421891D02*
X422348D01*
X408632D02*
X414728D01*
X378000D02*
X402079D01*
X441856Y654035D02*
X466697D01*
X429664D02*
X435455D01*
X421739D02*
X422501D01*
X408632D02*
X414576D01*
X378000D02*
X402079D01*
X441856Y654188D02*
X466697D01*
X429816D02*
X435455D01*
X421586D02*
X422653D01*
X408632D02*
X414424D01*
X378000D02*
X402079D01*
X441856Y654340D02*
X466697D01*
X429968D02*
X435455D01*
X421434D02*
X422806D01*
X408632D02*
X414271D01*
X378000D02*
X402079D01*
X441856Y654492D02*
X466697D01*
X430121D02*
X435455D01*
X421282D02*
X422958D01*
X408632D02*
X414119D01*
X378000D02*
X402079D01*
X441856Y654645D02*
X466697D01*
X430273D02*
X435302D01*
X421129D02*
X423110D01*
X408632D02*
X413966D01*
X378000D02*
X402079D01*
X441856Y654797D02*
X466697D01*
X430426D02*
X435302D01*
X420977D02*
X423263D01*
X408632D02*
X413814D01*
X378000D02*
X402079D01*
X441856Y654950D02*
X466697D01*
X430578D02*
X435302D01*
X420824D02*
X423415D01*
X408632D02*
X413662D01*
X378000D02*
X402079D01*
X441856Y655102D02*
X466697D01*
X430730D02*
X435302D01*
X420672D02*
X423568D01*
X408632D02*
X413509D01*
X378000D02*
X402079D01*
X441856Y655254D02*
X466697D01*
X430883D02*
X435302D01*
X420520D02*
X423720D01*
X408632D02*
X413357D01*
X378000D02*
X402079D01*
X441856Y655407D02*
X466697D01*
X431035D02*
X435302D01*
X420367D02*
X423872D01*
X408632D02*
X413204D01*
X378000D02*
X401927D01*
X441856Y655559D02*
X466697D01*
X431188D02*
X435302D01*
X420215D02*
X424025D01*
X408632D02*
X413052D01*
X378000D02*
X401927D01*
X441856Y655712D02*
X466697D01*
X431340D02*
X435302D01*
X420062D02*
X424177D01*
X408632D02*
X412900D01*
X378000D02*
X401927D01*
X441856Y655864D02*
X466697D01*
X431492D02*
X435302D01*
X419910D02*
X424330D01*
X408632D02*
X412747D01*
X378000D02*
X401927D01*
X441856Y656016D02*
X466697D01*
X431645D02*
X435302D01*
X419758D02*
X424482D01*
X408632D02*
X412595D01*
X378000D02*
X401927D01*
X441856Y656169D02*
X466697D01*
X431797D02*
X435302D01*
X419605D02*
X424634D01*
X408632D02*
X412442D01*
X378000D02*
X401927D01*
X441856Y656321D02*
X466697D01*
X431950D02*
X435302D01*
X419453D02*
X424787D01*
X408632D02*
X412290D01*
X378000D02*
X401927D01*
X441856Y656474D02*
X466697D01*
X432102D02*
X435302D01*
X419300D02*
X424939D01*
X408632D02*
X412138D01*
X378000D02*
X401927D01*
X442008Y656626D02*
X466697D01*
X431950D02*
X435302D01*
X419148D02*
X425092D01*
X408632D02*
X412138D01*
X378000D02*
X401927D01*
X442008Y656778D02*
X466697D01*
X431797D02*
X435302D01*
X418996D02*
X425244D01*
X408632D02*
X412290D01*
X378000D02*
X401927D01*
X442008Y656931D02*
X466697D01*
X431645D02*
X435302D01*
X418843D02*
X425396D01*
X408632D02*
X412442D01*
X378000D02*
X401927D01*
X442008Y657083D02*
X466697D01*
X431492D02*
X435302D01*
X418691D02*
X425549D01*
X408632D02*
X412595D01*
X378000D02*
X401927D01*
X442008Y657236D02*
X466697D01*
X431340D02*
X435302D01*
X418538D02*
X425701D01*
X408632D02*
X412747D01*
X378000D02*
X401927D01*
X442008Y657388D02*
X466697D01*
X431188D02*
X435150D01*
X418386D02*
X425854D01*
X408632D02*
X412900D01*
X378000D02*
X401927D01*
X442008Y657540D02*
X466697D01*
X431035D02*
X435150D01*
X418234D02*
X426006D01*
X408632D02*
X413052D01*
X378000D02*
X401927D01*
X442008Y657693D02*
X466697D01*
X430883D02*
X435150D01*
X418081D02*
X426158D01*
X408632D02*
X413204D01*
X378000D02*
X401927D01*
X442008Y657845D02*
X466697D01*
X430730D02*
X435150D01*
X417929D02*
X426311D01*
X408632D02*
X413357D01*
X378000D02*
X401927D01*
X442008Y657998D02*
X466697D01*
X430578D02*
X435150D01*
X417776D02*
X426463D01*
X408632D02*
X413509D01*
X378000D02*
X401927D01*
X442008Y658150D02*
X466697D01*
X430426D02*
X435150D01*
X417624D02*
X426616D01*
X408632D02*
X413662D01*
X378000D02*
X401927D01*
X442008Y658302D02*
X466697D01*
X430273D02*
X435150D01*
X417472D02*
X426768D01*
X408632D02*
X413814D01*
X378000D02*
X401927D01*
X442008Y658455D02*
X466697D01*
X430121D02*
X435150D01*
X417319D02*
X426920D01*
X408632D02*
X413966D01*
X378000D02*
X401927D01*
X442008Y658607D02*
X466697D01*
X429968D02*
X435150D01*
X417167D02*
X427073D01*
X408632D02*
X414119D01*
X378000D02*
X401927D01*
X442008Y658760D02*
X466697D01*
X429816D02*
X435150D01*
X417014D02*
X427225D01*
X408632D02*
X414271D01*
X378000D02*
X401774D01*
X442008Y658912D02*
X466697D01*
X429664D02*
X435150D01*
X416862D02*
X427378D01*
X408632D02*
X414424D01*
X378000D02*
X401774D01*
X442008Y659064D02*
X466697D01*
X429511D02*
X435150D01*
X416710D02*
X427530D01*
X408632D02*
X414576D01*
X378000D02*
X401774D01*
X442008Y659217D02*
X466697D01*
X429359D02*
X435150D01*
X416557D02*
X427682D01*
X408632D02*
X414728D01*
X378000D02*
X401774D01*
X442008Y659369D02*
X466697D01*
X429206D02*
X434998D01*
X416405D02*
X427835D01*
X408632D02*
X414881D01*
X378000D02*
X401774D01*
X442008Y659522D02*
X466697D01*
X429054D02*
X434998D01*
X416252D02*
X427987D01*
X408632D02*
X415033D01*
X378000D02*
X401774D01*
X442008Y659674D02*
X466697D01*
X428902D02*
X434998D01*
X416100D02*
X428140D01*
X408632D02*
X415186D01*
X378000D02*
X401774D01*
X442008Y659826D02*
X466697D01*
X428749D02*
X434998D01*
X415948D02*
X428292D01*
X408632D02*
X415338D01*
X378000D02*
X401774D01*
X442160Y659979D02*
X466697D01*
X428749D02*
X434998D01*
X415795D02*
X428444D01*
X408632D02*
X415490D01*
X378000D02*
X401774D01*
X442160Y660131D02*
X466697D01*
X408632D02*
X434998D01*
X378000D02*
X401774D01*
X442160Y660284D02*
X466697D01*
X408632D02*
X434998D01*
X378000D02*
X401774D01*
X442160Y660436D02*
X466697D01*
X408632D02*
X434998D01*
X378000D02*
X401774D01*
X442160Y660588D02*
X466697D01*
X408632D02*
X434998D01*
X378000D02*
X401774D01*
X442160Y660741D02*
X466697D01*
X408632D02*
X434998D01*
X378000D02*
X401774D01*
X442160Y660893D02*
X466697D01*
X408632D02*
X434845D01*
X378000D02*
X401774D01*
X442160Y661046D02*
X466697D01*
X408632D02*
X434845D01*
X378000D02*
X401774D01*
X442160Y661198D02*
X466697D01*
X408632D02*
X434845D01*
X378000D02*
X401774D01*
X442160Y661350D02*
X466697D01*
X408632D02*
X434845D01*
X378000D02*
X401774D01*
X442160Y661503D02*
X466697D01*
X408632D02*
X434845D01*
X378000D02*
X401774D01*
X442160Y661655D02*
X466697D01*
X408632D02*
X434845D01*
X378000D02*
X401774D01*
X442160Y661808D02*
X466697D01*
X408632D02*
X434845D01*
X378000D02*
X401774D01*
X442160Y661960D02*
X466697D01*
X408632D02*
X434845D01*
X378000D02*
X401774D01*
X442160Y662112D02*
X466697D01*
X408632D02*
X434845D01*
X378000D02*
X401774D01*
X442160Y662265D02*
X466697D01*
X408632D02*
X434693D01*
X378000D02*
X401622D01*
X442313Y662417D02*
X466697D01*
X408632D02*
X434693D01*
X378000D02*
X401622D01*
X442313Y662570D02*
X466697D01*
X408632D02*
X436522D01*
X402232D02*
X406651D01*
X378000D02*
X401622D01*
X442313Y662722D02*
X466697D01*
X408480D02*
X439874D01*
X378000D02*
X408175D01*
X378000Y662874D02*
X466697D01*
X378000Y663027D02*
X466697D01*
X378000Y663179D02*
X466697D01*
X378000Y663332D02*
X466697D01*
X378000Y663484D02*
X466697D01*
X378000Y663636D02*
X466697D01*
X378000Y663789D02*
X466697D01*
X378000Y663941D02*
X466697D01*
X378000Y664094D02*
X466697D01*
X378000Y664246D02*
X466697D01*
X378000Y664398D02*
X466697D01*
X378000Y664551D02*
X466697D01*
X378000Y664703D02*
X466697D01*
X378000Y664856D02*
X466697D01*
X378000Y665008D02*
X466697D01*
X378000Y665160D02*
X466697D01*
X378000Y665313D02*
X466697D01*
X429054Y665465D02*
X466697D01*
X415338D02*
X428902D01*
X378000D02*
X415033D01*
X429206Y665618D02*
X466697D01*
X415490D02*
X428749D01*
X378000D02*
X414881D01*
X429359Y665770D02*
X466697D01*
X415643D02*
X428597D01*
X378000D02*
X414728D01*
X429511Y665922D02*
X466697D01*
X415795D02*
X428444D01*
X378000D02*
X414576D01*
X429664Y666075D02*
X466697D01*
X415948D02*
X428292D01*
X378000D02*
X414424D01*
X429816Y666227D02*
X466697D01*
X416100D02*
X428140D01*
X378000D02*
X414271D01*
X429968Y666380D02*
X466697D01*
X416252D02*
X427987D01*
X378000D02*
X414119D01*
X430121Y666532D02*
X466697D01*
X416405D02*
X427835D01*
X378000D02*
X413966D01*
X430273Y666684D02*
X466697D01*
X416557D02*
X427682D01*
X378000D02*
X413814D01*
X430426Y666837D02*
X466697D01*
X416710D02*
X427530D01*
X378000D02*
X413662D01*
X430578Y666989D02*
X466697D01*
X416862D02*
X427378D01*
X378000D02*
X413509D01*
X430730Y667142D02*
X466697D01*
X417014D02*
X427225D01*
X378000D02*
X413357D01*
X430883Y667294D02*
X466697D01*
X417167D02*
X427073D01*
X378000D02*
X413204D01*
X431035Y667446D02*
X466697D01*
X417319D02*
X426920D01*
X378000D02*
X413052D01*
X431188Y667599D02*
X466697D01*
X417472D02*
X426768D01*
X378000D02*
X412900D01*
X431340Y667751D02*
X466697D01*
X417624D02*
X426616D01*
X378000D02*
X412747D01*
X431492Y667904D02*
X466697D01*
X417776D02*
X426463D01*
X378000D02*
X412595D01*
X431645Y668056D02*
X466697D01*
X417929D02*
X426311D01*
X378000D02*
X412442D01*
X431797Y668208D02*
X466697D01*
X418081D02*
X426158D01*
X378000D02*
X412290D01*
X431950Y668361D02*
X466697D01*
X418234D02*
X426006D01*
X378000D02*
X412138D01*
X432102Y668513D02*
X466697D01*
X418386D02*
X425854D01*
X378000D02*
X411985D01*
X432254Y668666D02*
X466697D01*
X418538D02*
X425701D01*
X378000D02*
X411833D01*
X432407Y668818D02*
X466697D01*
X418691D02*
X425549D01*
X378000D02*
X411680D01*
X432559Y668970D02*
X466697D01*
X418843D02*
X425396D01*
X378000D02*
X411680D01*
X432407Y669123D02*
X466697D01*
X418996D02*
X425244D01*
X378000D02*
X411833D01*
X432254Y669275D02*
X466697D01*
X419148D02*
X425092D01*
X378000D02*
X411985D01*
X432102Y669428D02*
X466697D01*
X419300D02*
X424939D01*
X378000D02*
X412138D01*
X431950Y669580D02*
X466697D01*
X419453D02*
X424787D01*
X378000D02*
X412290D01*
X431797Y669732D02*
X466697D01*
X419605D02*
X424634D01*
X378000D02*
X412442D01*
X431645Y669885D02*
X466697D01*
X419758D02*
X424482D01*
X378000D02*
X412595D01*
X431492Y670037D02*
X466697D01*
X419910D02*
X424330D01*
X378000D02*
X412747D01*
X431340Y670190D02*
X466697D01*
X420062D02*
X424177D01*
X378000D02*
X412900D01*
X431188Y670342D02*
X466697D01*
X420215D02*
X424025D01*
X378000D02*
X413052D01*
X431035Y670494D02*
X466697D01*
X420367D02*
X423872D01*
X378000D02*
X413204D01*
X430883Y670647D02*
X466697D01*
X420520D02*
X423720D01*
X378000D02*
X413357D01*
X430730Y670799D02*
X466697D01*
X420672D02*
X423568D01*
X378000D02*
X413509D01*
X430578Y670952D02*
X466697D01*
X420824D02*
X423415D01*
X378000D02*
X413662D01*
X430426Y671104D02*
X466697D01*
X420977D02*
X423263D01*
X378000D02*
X413814D01*
X430273Y671256D02*
X466697D01*
X421129D02*
X423110D01*
X378000D02*
X413966D01*
X430121Y671409D02*
X466697D01*
X421282D02*
X422958D01*
X378000D02*
X414119D01*
X429968Y671561D02*
X466697D01*
X421434D02*
X422806D01*
X378000D02*
X414271D01*
X429816Y671714D02*
X466697D01*
X421586D02*
X422653D01*
X378000D02*
X414424D01*
X429664Y671866D02*
X466697D01*
X421739D02*
X422501D01*
X378000D02*
X414576D01*
X429511Y672018D02*
X466697D01*
X421891D02*
X422348D01*
X378000D02*
X414728D01*
X429359Y672171D02*
X466697D01*
X422044D02*
X422196D01*
X378000D02*
X414881D01*
X429206Y672323D02*
X466697D01*
X378000D02*
X415033D01*
X429054Y672476D02*
X466697D01*
X378000D02*
X415186D01*
X428902Y672628D02*
X466697D01*
X378000D02*
X415338D01*
X428749Y672780D02*
X466697D01*
X378000D02*
X415490D01*
X428597Y672933D02*
X466697D01*
X378000D02*
X415643D01*
X428444Y673085D02*
X466697D01*
X378000D02*
X415795D01*
X428292Y673238D02*
X466697D01*
X378000D02*
X415948D01*
X428140Y673390D02*
X466697D01*
X378000D02*
X416100D01*
X427987Y673542D02*
X466697D01*
X378000D02*
X416252D01*
X427835Y673695D02*
X466697D01*
X378000D02*
X416405D01*
X427682Y673847D02*
X466697D01*
X378000D02*
X416557D01*
X427530Y674000D02*
X466697D01*
X378000D02*
X416710D01*
X427378Y674152D02*
X466697D01*
X378000D02*
X416862D01*
X427225Y674304D02*
X466697D01*
X378000D02*
X417014D01*
X427073Y674457D02*
X466697D01*
X378000D02*
X417167D01*
X426920Y674609D02*
X466697D01*
X378000D02*
X417319D01*
X426768Y674762D02*
X466697D01*
X378000D02*
X417472D01*
X426616Y674914D02*
X466697D01*
X378000D02*
X417624D01*
X426463Y675066D02*
X466697D01*
X378000D02*
X417776D01*
X426311Y675219D02*
X466697D01*
X378000D02*
X417929D01*
X426158Y675371D02*
X466697D01*
X378000D02*
X418081D01*
X426006Y675524D02*
X466697D01*
X378000D02*
X418234D01*
X425854Y675676D02*
X466697D01*
X378000D02*
X418386D01*
X425701Y675828D02*
X466697D01*
X378000D02*
X418538D01*
X425854Y675981D02*
X466697D01*
X378000D02*
X418386D01*
X426006Y676133D02*
X466697D01*
X378000D02*
X418234D01*
X426158Y676286D02*
X466697D01*
X378000D02*
X418081D01*
X426311Y676438D02*
X466697D01*
X378000D02*
X417929D01*
X426463Y676590D02*
X466697D01*
X378000D02*
X417776D01*
X426616Y676743D02*
X466697D01*
X378000D02*
X417624D01*
X426768Y676895D02*
X466697D01*
X378000D02*
X417472D01*
X426920Y677048D02*
X466697D01*
X378000D02*
X417319D01*
X427073Y677200D02*
X466697D01*
X378000D02*
X417167D01*
X427225Y677352D02*
X466697D01*
X378000D02*
X417014D01*
X427378Y677505D02*
X466697D01*
X378000D02*
X416862D01*
X427530Y677657D02*
X466697D01*
X378000D02*
X416710D01*
X427682Y677810D02*
X466697D01*
X378000D02*
X416557D01*
X427835Y677962D02*
X466697D01*
X378000D02*
X416405D01*
X427987Y678114D02*
X466697D01*
X378000D02*
X416252D01*
X428140Y678267D02*
X466697D01*
X378000D02*
X416100D01*
X428292Y678419D02*
X466697D01*
X378000D02*
X415948D01*
X428444Y678572D02*
X466697D01*
X378000D02*
X415795D01*
X428597Y678724D02*
X466697D01*
X378000D02*
X415643D01*
X428749Y678876D02*
X466697D01*
X378000D02*
X415490D01*
X428902Y679029D02*
X466697D01*
X378000D02*
X415338D01*
X429054Y679181D02*
X466697D01*
X378000D02*
X415186D01*
X429206Y679334D02*
X466697D01*
X378000D02*
X415033D01*
X429359Y679486D02*
X466697D01*
X378000D02*
X414881D01*
X429511Y679638D02*
X466697D01*
X421891D02*
X422348D01*
X378000D02*
X414728D01*
X429664Y679791D02*
X466697D01*
X421739D02*
X422501D01*
X378000D02*
X414576D01*
X429816Y679943D02*
X466697D01*
X421586D02*
X422653D01*
X378000D02*
X414424D01*
X429968Y680096D02*
X466697D01*
X421434D02*
X422806D01*
X378000D02*
X414271D01*
X430121Y680248D02*
X466697D01*
X421282D02*
X422958D01*
X378000D02*
X414119D01*
X430273Y680400D02*
X466697D01*
X421129D02*
X423110D01*
X378000D02*
X413966D01*
X430426Y680553D02*
X466697D01*
X420977D02*
X423263D01*
X378000D02*
X413814D01*
X430578Y680705D02*
X466697D01*
X420824D02*
X423415D01*
X378000D02*
X413662D01*
X430730Y680858D02*
X466697D01*
X420672D02*
X423568D01*
X378000D02*
X413509D01*
X430883Y681010D02*
X466697D01*
X420520D02*
X423720D01*
X378000D02*
X413357D01*
X431035Y681162D02*
X466697D01*
X420367D02*
X423872D01*
X378000D02*
X413204D01*
X431188Y681315D02*
X466697D01*
X420215D02*
X424025D01*
X378000D02*
X413052D01*
X431340Y681467D02*
X466697D01*
X420062D02*
X424177D01*
X378000D02*
X412900D01*
X431492Y681620D02*
X466697D01*
X419910D02*
X424330D01*
X378000D02*
X412747D01*
X431645Y681772D02*
X466697D01*
X419758D02*
X424482D01*
X378000D02*
X412595D01*
X431797Y681924D02*
X466697D01*
X419605D02*
X424634D01*
X378000D02*
X412442D01*
X431950Y682077D02*
X466697D01*
X419453D02*
X424787D01*
X378000D02*
X412290D01*
X432102Y682229D02*
X466697D01*
X419300D02*
X424939D01*
X378000D02*
X412138D01*
X432102Y682382D02*
X466697D01*
X419148D02*
X425092D01*
X378000D02*
X411985D01*
X431950Y682534D02*
X466697D01*
X418996D02*
X425244D01*
X378000D02*
X412138D01*
X431797Y682686D02*
X466697D01*
X418843D02*
X425396D01*
X378000D02*
X412290D01*
X431645Y682839D02*
X466697D01*
X418691D02*
X425549D01*
X378000D02*
X412442D01*
X431492Y682991D02*
X466697D01*
X418538D02*
X425701D01*
X378000D02*
X412595D01*
X431340Y683144D02*
X466697D01*
X418386D02*
X425854D01*
X378000D02*
X412747D01*
X431188Y683296D02*
X466697D01*
X418234D02*
X426006D01*
X378000D02*
X412900D01*
X431035Y683448D02*
X466697D01*
X418081D02*
X426158D01*
X378000D02*
X413052D01*
X430883Y683601D02*
X466697D01*
X417929D02*
X426311D01*
X378000D02*
X413204D01*
X430730Y683753D02*
X466697D01*
X417776D02*
X426463D01*
X378000D02*
X413357D01*
X430578Y683906D02*
X466697D01*
X417624D02*
X426616D01*
X378000D02*
X413509D01*
X430426Y684058D02*
X466697D01*
X417472D02*
X426768D01*
X378000D02*
X413662D01*
X430273Y684210D02*
X466697D01*
X417319D02*
X426920D01*
X378000D02*
X413814D01*
X430121Y684363D02*
X466697D01*
X417167D02*
X427073D01*
X378000D02*
X413966D01*
X429968Y684515D02*
X466697D01*
X417014D02*
X427225D01*
X378000D02*
X414119D01*
X429816Y684668D02*
X466697D01*
X416862D02*
X427378D01*
X378000D02*
X414271D01*
X429664Y684820D02*
X466697D01*
X416710D02*
X427530D01*
X378000D02*
X414424D01*
X429511Y684972D02*
X466697D01*
X416557D02*
X427682D01*
X378000D02*
X414576D01*
X429359Y685125D02*
X466697D01*
X416405D02*
X427835D01*
X378000D02*
X414728D01*
X429206Y685277D02*
X466697D01*
X416252D02*
X427987D01*
X378000D02*
X414881D01*
X429054Y685430D02*
X466697D01*
X416100D02*
X428140D01*
X378000D02*
X415033D01*
X428902Y685582D02*
X466697D01*
X415948D02*
X428292D01*
X378000D02*
X415186D01*
X428749Y685734D02*
X466697D01*
X415795D02*
X428444D01*
X378000D02*
X415338D01*
X415643Y685887D02*
X466697D01*
X378000D02*
X415490D01*
X378000Y686039D02*
X466697D01*
X378000Y686192D02*
X466697D01*
X378000Y686344D02*
X466697D01*
X378000Y686496D02*
X466697D01*
X378000Y686649D02*
X466697D01*
X378000Y686801D02*
X466697D01*
X378000Y686954D02*
X466697D01*
X378000Y687106D02*
X466697D01*
X378000Y687258D02*
X466697D01*
X378000Y687411D02*
X466697D01*
X378000Y687563D02*
X466697D01*
X378000Y687716D02*
X466697D01*
X378000Y687868D02*
X466697D01*
X378000Y688020D02*
X466697D01*
X378000Y688173D02*
X466697D01*
X378000Y688325D02*
X466697D01*
X378000Y688478D02*
X466697D01*
X378000Y688630D02*
X466697D01*
X378000Y688782D02*
X466697D01*
X378000Y688935D02*
X466697D01*
X378000Y689087D02*
X466697D01*
X378000Y689240D02*
X466697D01*
X378000Y689392D02*
X466697D01*
D15*
X130164Y880240D02*
X127625Y882779D01*
Y887858D01*
X130164Y890397D01*
X132703D01*
X135243Y887858D01*
Y885318D01*
Y887858D01*
X137782Y890397D01*
X140321D01*
X142860Y887858D01*
Y882779D01*
X140321Y880240D01*
X142860Y905632D02*
Y895475D01*
X132703Y905632D01*
X130164D01*
X127625Y903093D01*
Y898014D01*
X130164Y895475D01*
X142860Y587397D02*
Y577240D01*
X132703Y587397D01*
X130164D01*
X127625Y584857D01*
Y579779D01*
X130164Y577240D01*
Y592475D02*
X127625Y595014D01*
Y600093D01*
X130164Y602632D01*
X140321D01*
X142860Y600093D01*
Y595014D01*
X140321Y592475D01*
X130164D01*
X142860Y324240D02*
Y329318D01*
Y326779D01*
X127625D01*
X130164Y324240D01*
Y336936D02*
X127625Y339475D01*
Y344553D01*
X130164Y347093D01*
X140321D01*
X142860Y344553D01*
Y339475D01*
X140321Y336936D01*
X130164D01*
X142860Y104240D02*
Y109318D01*
Y106779D01*
X127625D01*
X130164Y104240D01*
X45703Y82779D02*
Y87858D01*
X48242Y90397D01*
X55860D01*
Y82779D01*
X53321Y80240D01*
X50782Y82779D01*
Y90397D01*
X96703D02*
Y82779D01*
X99242Y80240D01*
X104321D01*
X106860Y82779D01*
Y90397D01*
X1472303Y73269D02*
X1462146D01*
Y65651D01*
X1467224D01*
X1462146D01*
Y58034D01*
X1477381D02*
X1482459D01*
X1479920D01*
Y68191D01*
X1477381D01*
X1500234Y73269D02*
Y58034D01*
X1492616D01*
X1490077Y60573D01*
Y65651D01*
X1492616Y68191D01*
X1500234D01*
X1505312Y70730D02*
X1507851Y73269D01*
X1512930D01*
X1515469Y70730D01*
Y68191D01*
X1512930Y65651D01*
X1510390D01*
X1512930D01*
X1515469Y63112D01*
Y60573D01*
X1512930Y58034D01*
X1507851D01*
X1505312Y60573D01*
M02*
