G04*
G04 #@! TF.GenerationSoftware,Altium Limited,Altium Designer,22.6.1 (34)*
G04*
G04 Layer_Physical_Order=4*
G04 Layer_Color=16711680*
%FSLAX44Y44*%
%MOMM*%
G71*
G04*
G04 #@! TF.SameCoordinates,7EAFA6D0-7FEA-492A-8EC4-A6B53FA9F8CD*
G04*
G04*
G04 #@! TF.FilePolarity,Positive*
G04*
G01*
G75*
%ADD10C,0.6000*%
%ADD12C,0.2000*%
%ADD13C,0.1000*%
%ADD22C,1.0000*%
%ADD69C,0.3000*%
%ADD71C,0.5000*%
%ADD72C,2.0000*%
%ADD73C,0.4000*%
%ADD74C,4.0000*%
%ADD75C,1.5000*%
%ADD76R,1.5000X1.5000*%
%ADD77C,3.8000*%
%ADD78C,2.0000*%
%ADD79R,2.0000X2.0000*%
%ADD80C,2.8000*%
%ADD81C,2.5000*%
%ADD82R,1.5000X1.5000*%
%ADD83O,2.5000X1.7000*%
%ADD84R,2.5000X1.7000*%
%ADD85C,0.6000*%
%ADD86C,1.3000*%
%ADD87C,0.8000*%
G04:AMPARAMS|DCode=89|XSize=1.3mm|YSize=2.5mm|CornerRadius=0.325mm|HoleSize=0mm|Usage=FLASHONLY|Rotation=90.000|XOffset=0mm|YOffset=0mm|HoleType=Round|Shape=RoundedRectangle|*
%AMROUNDEDRECTD89*
21,1,1.3000,1.8500,0,0,90.0*
21,1,0.6500,2.5000,0,0,90.0*
1,1,0.6500,0.9250,0.3250*
1,1,0.6500,0.9250,-0.3250*
1,1,0.6500,-0.9250,-0.3250*
1,1,0.6500,-0.9250,0.3250*
%
%ADD89ROUNDEDRECTD89*%
%ADD90R,2.5000X1.3000*%
%ADD91C,1.2000*%
G36*
X1115000Y565549D02*
X1046918D01*
X1046665Y566819D01*
X1047549Y567185D01*
X1048815Y568451D01*
X1049500Y570105D01*
Y571895D01*
X1048815Y573549D01*
X1047549Y574815D01*
Y576185D01*
X1048815Y577451D01*
X1049500Y579105D01*
Y580895D01*
X1048815Y582549D01*
X1047549Y583815D01*
X1045895Y584500D01*
X1044105D01*
X1042451Y583815D01*
X1041185Y582549D01*
X1040500Y580895D01*
Y579105D01*
X1041185Y577451D01*
X1042451Y576185D01*
Y574815D01*
X1041185Y573549D01*
X1040500Y571895D01*
Y570105D01*
X1041185Y568451D01*
X1042451Y567185D01*
X1043335Y566819D01*
X1043082Y565549D01*
X1040834D01*
X1036889Y569494D01*
X1036889Y569494D01*
Y571284D01*
X1036204Y572938D01*
X1034938Y574204D01*
X1033284Y574889D01*
X1031494D01*
X1029840Y574204D01*
X1028574Y572938D01*
X1027889Y571284D01*
Y569494D01*
X1028574Y567840D01*
X1029840Y566574D01*
X1031494Y565889D01*
X1033284D01*
X1033284Y565889D01*
X1037976Y561198D01*
X1038803Y560645D01*
X1039778Y560451D01*
X1115000D01*
Y524588D01*
X1103901D01*
X1096500Y531989D01*
Y532094D01*
X1095663Y534115D01*
X1094116Y535663D01*
X1092094Y536500D01*
X1089906D01*
X1087885Y535663D01*
X1086337Y534115D01*
X1085500Y532094D01*
Y529906D01*
X1086337Y527884D01*
X1087885Y526337D01*
X1089906Y525500D01*
X1090011D01*
X1098756Y516756D01*
X1100244Y515761D01*
X1102000Y515412D01*
X1115000D01*
Y513549D01*
X1073056D01*
X1028914Y557691D01*
X1029500Y559105D01*
Y560895D01*
X1028815Y562549D01*
X1027549Y563815D01*
X1025895Y564500D01*
X1024105D01*
X1022451Y563815D01*
X1021185Y562549D01*
X1020500Y560895D01*
Y559105D01*
X1020644Y558756D01*
X1019568Y558037D01*
X1018500Y559105D01*
X1018500Y559105D01*
Y560895D01*
X1017815Y562549D01*
X1016549Y563815D01*
X1014895Y564500D01*
X1013105D01*
X1011451Y563815D01*
X1010185Y562549D01*
X1009500Y560895D01*
Y559105D01*
X1010185Y557451D01*
X1011451Y556185D01*
X1013105Y555500D01*
X1014895D01*
X1014895Y555500D01*
X1046625Y523770D01*
X1046099Y522500D01*
X1045105D01*
X1043451Y521815D01*
X1042185Y520549D01*
X1041500Y518895D01*
Y517105D01*
X1042185Y515451D01*
X1043451Y514185D01*
X1045105Y513500D01*
X1046895D01*
X1048549Y514185D01*
X1049815Y515451D01*
X1050500Y517105D01*
Y518099D01*
X1051770Y518625D01*
X1068448Y501948D01*
X1069275Y501395D01*
X1070250Y501201D01*
X1115000D01*
Y310000D01*
X300652D01*
X300000Y311000D01*
X300000Y311270D01*
Y329000D01*
X282000D01*
Y311270D01*
X282000Y311000D01*
X281348Y310000D01*
X270900D01*
X270559Y311270D01*
X271765Y311966D01*
X273634Y313835D01*
X274956Y316125D01*
X275458Y318000D01*
X265600D01*
X255742D01*
X256244Y316125D01*
X257566Y313835D01*
X259435Y311966D01*
X260641Y311270D01*
X260301Y310000D01*
X236078D01*
Y892753D01*
X257267Y913941D01*
X259852D01*
X260193Y912671D01*
X259435Y912234D01*
X257566Y910365D01*
X256244Y908075D01*
X255742Y906200D01*
X265600D01*
Y904200D01*
D01*
Y906200D01*
X275458D01*
X274956Y908075D01*
X273634Y910365D01*
X271765Y912234D01*
X271007Y912671D01*
X271348Y913941D01*
X277700D01*
X277700Y913941D01*
X278871Y914174D01*
X279863Y914837D01*
X286710Y921684D01*
X287526Y921213D01*
X289815Y920600D01*
X292185D01*
X294474Y921213D01*
X296526Y922398D01*
X298202Y924074D01*
X299387Y926126D01*
X300000Y928415D01*
Y930785D01*
X299387Y933074D01*
X298202Y935126D01*
X296526Y936802D01*
X294474Y937987D01*
X292185Y938600D01*
X289815D01*
X287526Y937987D01*
X285474Y936802D01*
X283798Y935126D01*
X282613Y933074D01*
X282000Y930785D01*
Y928415D01*
X282589Y926215D01*
X276433Y920059D01*
X271694D01*
X271354Y921329D01*
X271765Y921566D01*
X273634Y923435D01*
X274956Y925725D01*
X275458Y927600D01*
X265600D01*
X255742D01*
X256244Y925725D01*
X257566Y923435D01*
X259435Y921566D01*
X259846Y921329D01*
X259506Y920059D01*
X256000D01*
X256000Y920059D01*
X254830Y919826D01*
X253837Y919163D01*
X231691Y897017D01*
X230439Y896768D01*
X229116Y895884D01*
X228232Y894561D01*
X227922Y893000D01*
Y310000D01*
X116220D01*
X115943Y312111D01*
X114935Y314543D01*
X113332Y316632D01*
X111243Y318235D01*
X108811Y319242D01*
X106200Y319586D01*
X98200D01*
X95590Y319242D01*
X93157Y318235D01*
X91068Y316632D01*
X89465Y314543D01*
X88457Y312111D01*
X88180Y310000D01*
X80000D01*
Y970000D01*
X1115000D01*
Y565549D01*
D02*
G37*
G36*
X1276981Y594954D02*
X1277178Y594822D01*
X1303895Y568105D01*
X1304027Y567908D01*
X1304073Y567676D01*
Y492057D01*
X1304037Y491907D01*
X1304035Y491856D01*
X1304015Y491809D01*
X1304012Y491791D01*
X1264184Y455000D01*
X1196042D01*
X1195815Y455549D01*
X1194549Y456815D01*
X1193640Y457192D01*
Y501201D01*
X1235185D01*
X1235185Y501201D01*
X1236451Y499935D01*
X1238105Y499250D01*
X1239895D01*
X1241549Y499935D01*
X1242815Y501201D01*
X1243500Y502855D01*
Y504645D01*
X1242815Y506299D01*
X1241549Y507565D01*
X1239895Y508250D01*
X1239106D01*
X1238258Y509520D01*
X1238500Y510105D01*
Y511895D01*
X1237815Y513549D01*
X1236549Y514815D01*
X1236497Y514965D01*
X1236549Y516185D01*
X1236869Y516505D01*
X1237244Y516756D01*
X1237495Y517132D01*
X1237815Y517451D01*
X1237988Y517868D01*
X1238239Y518244D01*
X1238327Y518687D01*
X1238500Y519105D01*
Y519557D01*
X1238588Y520000D01*
X1238500Y520443D01*
Y520895D01*
X1238327Y521313D01*
X1238239Y521756D01*
X1237988Y522132D01*
X1237815Y522549D01*
X1237495Y522869D01*
X1237244Y523244D01*
X1236869Y523495D01*
X1236549Y523815D01*
X1236132Y523988D01*
X1235756Y524239D01*
X1235313Y524327D01*
X1234895Y524500D01*
X1234443D01*
X1234000Y524588D01*
X1193640D01*
Y540451D01*
X1244185D01*
X1244185Y540451D01*
X1245451Y539185D01*
X1247105Y538500D01*
X1248895D01*
X1250549Y539185D01*
X1251815Y540451D01*
X1252500Y542105D01*
Y543895D01*
X1251815Y545549D01*
X1250549Y546815D01*
X1248895Y547500D01*
X1247105D01*
X1245451Y546815D01*
X1244185Y545549D01*
X1244185Y545549D01*
X1193640D01*
Y595000D01*
X1276749D01*
X1276981Y594954D01*
D02*
G37*
G36*
X1585000Y157093D02*
X1567750D01*
X1565897Y156724D01*
X1564325Y155675D01*
X1563276Y154103D01*
X1563173Y153588D01*
X1555000D01*
X1553244Y153239D01*
X1551756Y152244D01*
X1547099Y147588D01*
X1490000D01*
X1489557Y147500D01*
X1489105D01*
X1488687Y147327D01*
X1488244Y147239D01*
X1487868Y146988D01*
X1487451Y146815D01*
X1487131Y146495D01*
X1486756Y146244D01*
X1486505Y145869D01*
X1486185Y145549D01*
X1486012Y145132D01*
X1485761Y144756D01*
X1485673Y144313D01*
X1485500Y143895D01*
Y143443D01*
X1485412Y143000D01*
X1485500Y142557D01*
Y142105D01*
X1485673Y141687D01*
X1485761Y141244D01*
X1486012Y140868D01*
X1486185Y140451D01*
X1486505Y140131D01*
X1486756Y139756D01*
X1487131Y139505D01*
X1487451Y139185D01*
X1487868Y139012D01*
X1488244Y138761D01*
X1488687Y138673D01*
X1489105Y138500D01*
X1489557D01*
X1490000Y138412D01*
X1549000D01*
X1550756Y138761D01*
X1552244Y139756D01*
X1556900Y144412D01*
X1563173D01*
X1563276Y143897D01*
X1564325Y142325D01*
X1565897Y141276D01*
X1567750Y140907D01*
X1585000D01*
Y139000D01*
X1578000D01*
Y131000D01*
Y123000D01*
X1585000D01*
Y30000D01*
X1439834D01*
X1439426Y31203D01*
X1440202Y31798D01*
X1442045Y34200D01*
X1443204Y36998D01*
X1443599Y40000D01*
Y248401D01*
X1450000D01*
X1453002Y248796D01*
X1455800Y249955D01*
X1458202Y251798D01*
X1460045Y254200D01*
X1461204Y256998D01*
X1461599Y260000D01*
X1461204Y263002D01*
X1460045Y265800D01*
X1458202Y268202D01*
X1455800Y270045D01*
X1453002Y271204D01*
X1450000Y271599D01*
X1443599D01*
Y278000D01*
Y399000D01*
X1443599Y399000D01*
Y521000D01*
X1443599Y642000D01*
Y878000D01*
X1443204Y881002D01*
X1442045Y883800D01*
X1440202Y886202D01*
X1437800Y888045D01*
X1435002Y889204D01*
X1432000Y889599D01*
X1428998Y889204D01*
X1426200Y888045D01*
X1423798Y886202D01*
X1421955Y883800D01*
X1420796Y881002D01*
X1420401Y878000D01*
Y642000D01*
X1420401Y521000D01*
Y399000D01*
X1420401Y399000D01*
X1420401Y399000D01*
Y278000D01*
Y260000D01*
X1420401Y260000D01*
X1420401Y260000D01*
Y40000D01*
X1420796Y36998D01*
X1421955Y34200D01*
X1423798Y31798D01*
X1424574Y31203D01*
X1424166Y30000D01*
X1405834D01*
X1405426Y31203D01*
X1406202Y31798D01*
X1408045Y34200D01*
X1409204Y36998D01*
X1409599Y40000D01*
Y133000D01*
Y160000D01*
Y277000D01*
X1409533Y277500D01*
X1409599Y278000D01*
X1409599Y278000D01*
Y399000D01*
X1409599Y399000D01*
X1409533Y399500D01*
X1409599Y400000D01*
Y522000D01*
Y642000D01*
Y760000D01*
X1409533Y760500D01*
X1409599Y761000D01*
Y878000D01*
X1409204Y881002D01*
X1408045Y883800D01*
X1406202Y886202D01*
X1403800Y888045D01*
X1401002Y889204D01*
X1398000Y889599D01*
X1394998Y889204D01*
X1392200Y888045D01*
X1389798Y886202D01*
X1387955Y883800D01*
X1386796Y881002D01*
X1386401Y878000D01*
Y761000D01*
X1386467Y760500D01*
X1386401Y760000D01*
Y642000D01*
Y522000D01*
Y404462D01*
X1385796Y403002D01*
X1385401Y400000D01*
X1385796Y396998D01*
X1386401Y395538D01*
Y281462D01*
X1385796Y280002D01*
X1385401Y277000D01*
X1385796Y273998D01*
X1386401Y272538D01*
Y164462D01*
X1385796Y163002D01*
X1385401Y160000D01*
X1385796Y156998D01*
X1386401Y155538D01*
Y144599D01*
X1196701D01*
X1196599Y144716D01*
X1196599Y144716D01*
Y333000D01*
X1196204Y336002D01*
X1195045Y338800D01*
X1193202Y341202D01*
X1190800Y343045D01*
X1188002Y344204D01*
X1185000Y344599D01*
X1181998Y344204D01*
X1179200Y343045D01*
X1176798Y341202D01*
X1174955Y338800D01*
X1173796Y336002D01*
X1173401Y333000D01*
Y149520D01*
X1168480Y144599D01*
X1150000D01*
X1146998Y144204D01*
X1144200Y143045D01*
X1141798Y141202D01*
X1139955Y138800D01*
X1138796Y136002D01*
X1138401Y133000D01*
X1138796Y129998D01*
X1139955Y127200D01*
X1141798Y124798D01*
X1144200Y122955D01*
X1146998Y121796D01*
X1150000Y121401D01*
X1173284D01*
X1173284Y121401D01*
X1173284Y121401D01*
X1386401D01*
Y40000D01*
X1386796Y36998D01*
X1387955Y34200D01*
X1389798Y31798D01*
X1390574Y31203D01*
X1390166Y30000D01*
X530000D01*
Y300000D01*
X1132722D01*
Y325343D01*
X1133992Y326076D01*
X1134912Y325545D01*
X1136947Y325000D01*
X1139053D01*
X1141088Y325545D01*
X1142912Y326598D01*
X1144402Y328088D01*
X1145455Y329912D01*
X1146000Y331947D01*
Y334053D01*
X1145455Y336088D01*
X1144402Y337912D01*
X1142912Y339402D01*
X1141088Y340455D01*
X1139053Y341000D01*
X1136947D01*
X1134912Y340455D01*
X1133992Y339924D01*
X1132722Y340657D01*
Y501201D01*
X1190581D01*
Y457283D01*
X1189451Y456815D01*
X1188185Y455549D01*
X1187500Y453895D01*
Y452105D01*
X1188185Y450451D01*
X1188817Y449819D01*
X1188291Y448549D01*
X1177000D01*
X1176024Y448355D01*
X1175198Y447802D01*
X1173895Y446500D01*
X1173895Y446500D01*
X1172105D01*
X1170451Y445815D01*
X1169185Y444549D01*
X1168500Y442895D01*
Y441105D01*
X1169185Y439451D01*
X1170451Y438185D01*
X1172105Y437500D01*
X1173895D01*
X1175549Y438185D01*
X1176815Y439451D01*
X1177500Y441105D01*
Y442895D01*
X1178603Y443451D01*
X1196050D01*
X1196576Y442181D01*
X1189944Y435549D01*
X1158056D01*
X1152500Y441105D01*
X1152500Y441105D01*
Y442895D01*
X1151815Y444549D01*
X1150549Y445815D01*
X1148895Y446500D01*
X1147105D01*
X1145451Y445815D01*
X1144185Y444549D01*
X1144135Y444428D01*
X1142865D01*
X1142815Y444549D01*
X1141549Y445815D01*
X1139895Y446500D01*
X1138105D01*
X1136451Y445815D01*
X1135185Y444549D01*
X1134500Y442895D01*
Y441105D01*
X1135185Y439451D01*
X1136451Y438185D01*
X1138105Y437500D01*
X1138895D01*
X1161198Y415198D01*
X1162025Y414645D01*
X1163000Y414451D01*
X1198000D01*
X1198976Y414645D01*
X1199802Y415198D01*
X1218056Y433451D01*
X1281000D01*
X1281975Y433645D01*
X1282802Y434198D01*
X1330802Y482198D01*
X1331355Y483025D01*
X1331549Y484000D01*
Y546944D01*
X1342105Y557500D01*
X1342105Y557500D01*
X1343895D01*
X1345549Y558185D01*
X1346815Y559451D01*
X1347500Y561105D01*
Y562895D01*
X1346815Y564549D01*
X1345549Y565815D01*
X1343895Y566500D01*
X1342105D01*
X1340451Y565815D01*
X1339185Y564549D01*
X1338500Y562895D01*
Y561105D01*
X1338500Y561105D01*
X1328319Y550924D01*
X1327049Y551450D01*
Y626327D01*
X1327105Y627500D01*
X1328895D01*
X1330549Y628185D01*
X1331815Y629451D01*
X1332500Y631105D01*
Y632895D01*
X1331815Y634549D01*
X1330549Y635815D01*
X1328895Y636500D01*
X1327105D01*
X1325451Y635815D01*
X1324185Y634549D01*
X1323819Y633665D01*
X1322549Y633918D01*
Y638828D01*
X1322490Y639126D01*
X1322815Y639451D01*
X1323500Y641105D01*
Y642895D01*
X1322815Y644549D01*
X1321549Y645815D01*
X1319895Y646500D01*
X1318105D01*
X1316451Y645815D01*
X1315185Y644549D01*
X1314500Y642895D01*
Y641105D01*
X1315185Y639451D01*
X1316451Y638185D01*
X1317451Y637771D01*
Y632950D01*
X1316181Y632424D01*
X1314500Y634105D01*
X1314500Y634105D01*
Y635895D01*
X1313815Y637549D01*
X1312549Y638815D01*
X1310895Y639500D01*
X1309105D01*
X1307451Y638815D01*
X1306185Y637549D01*
X1305500Y635895D01*
Y634105D01*
X1306185Y632451D01*
X1307451Y631185D01*
X1309105Y630500D01*
X1310895D01*
X1310895Y630500D01*
X1312451Y628944D01*
Y495056D01*
X1308185Y490790D01*
X1307697Y490958D01*
X1307421Y491121D01*
X1307051Y491452D01*
X1307057Y491592D01*
X1307091Y491735D01*
X1307093Y491786D01*
X1307087Y491824D01*
X1307094Y491856D01*
X1307093Y491861D01*
X1307132Y492057D01*
Y567676D01*
X1307073Y567971D01*
Y568273D01*
X1307027Y568505D01*
X1306911Y568783D01*
X1306899Y568847D01*
X1306863Y568900D01*
X1306734Y569212D01*
X1306721Y569275D01*
X1306685Y569329D01*
X1306570Y569607D01*
X1306439Y569804D01*
X1306226Y570017D01*
X1306058Y570267D01*
X1279341Y596985D01*
X1279090Y597153D01*
X1278877Y597365D01*
X1278680Y597497D01*
X1278680Y597497D01*
X1278680Y597497D01*
X1278402Y597612D01*
X1278348Y597648D01*
X1278285Y597661D01*
X1277973Y597790D01*
X1277919Y597826D01*
X1277856Y597839D01*
X1277578Y597954D01*
X1277578D01*
X1277578Y597954D01*
X1277346Y598000D01*
X1277044Y598000D01*
X1276749Y598059D01*
X1196528D01*
X1195878Y599329D01*
X1196135Y599686D01*
X1299088D01*
X1299185Y599451D01*
X1300451Y598185D01*
X1302105Y597500D01*
X1303895D01*
X1305549Y598185D01*
X1306815Y599451D01*
X1307500Y601105D01*
Y602895D01*
X1306815Y604549D01*
X1305549Y605815D01*
X1303895Y606500D01*
X1302105D01*
X1300451Y605815D01*
X1299420Y604784D01*
X1194346D01*
X1193370Y604590D01*
X1192543Y604037D01*
X1187055Y598549D01*
X1185709D01*
X1185183Y599819D01*
X1185815Y600451D01*
X1186500Y602105D01*
Y603895D01*
X1185815Y605549D01*
X1184549Y606815D01*
X1182895Y607500D01*
X1181105D01*
X1179451Y606815D01*
X1178185Y605549D01*
X1177500Y603895D01*
Y602105D01*
X1178185Y600451D01*
X1178817Y599819D01*
X1178291Y598549D01*
X1141278D01*
X1139111Y600716D01*
X1139111Y600716D01*
Y602506D01*
X1138426Y604160D01*
X1137160Y605426D01*
X1135506Y606111D01*
X1133716D01*
X1132722Y606775D01*
Y768000D01*
Y970000D01*
X1585000D01*
Y157093D01*
D02*
G37*
%LPC*%
G36*
X214053Y967000D02*
X211947D01*
X209912Y966455D01*
X208088Y965402D01*
X206598Y963912D01*
X205545Y962088D01*
X205000Y960053D01*
Y957947D01*
X205545Y955912D01*
X206598Y954088D01*
X208088Y952598D01*
X209912Y951545D01*
X211947Y951000D01*
X214053D01*
X216088Y951545D01*
X217912Y952598D01*
X219402Y954088D01*
X220455Y955912D01*
X221000Y957947D01*
Y960053D01*
X220455Y962088D01*
X219402Y963912D01*
X217912Y965402D01*
X216088Y966455D01*
X214053Y967000D01*
D02*
G37*
G36*
X267600Y939458D02*
Y931600D01*
X275458D01*
X274956Y933475D01*
X273634Y935765D01*
X271765Y937634D01*
X269475Y938956D01*
X267600Y939458D01*
D02*
G37*
G36*
X263600Y939458D02*
X261725Y938956D01*
X259435Y937634D01*
X257566Y935765D01*
X256244Y933475D01*
X255742Y931600D01*
X263600D01*
Y939458D01*
D02*
G37*
G36*
X400856Y911500D02*
X399144D01*
X397491Y911057D01*
X396009Y910201D01*
X394799Y908991D01*
X393943Y907509D01*
X393500Y905856D01*
Y904144D01*
X393943Y902491D01*
X394799Y901009D01*
X396009Y899799D01*
X397491Y898943D01*
X399144Y898500D01*
X400856D01*
X402509Y898943D01*
X403991Y899799D01*
X405201Y901009D01*
X406057Y902491D01*
X406500Y904144D01*
Y905856D01*
X406057Y907509D01*
X405201Y908991D01*
X403991Y910201D01*
X402509Y911057D01*
X400856Y911500D01*
D02*
G37*
G36*
X345856D02*
X344144D01*
X342491Y911057D01*
X341009Y910201D01*
X339799Y908991D01*
X338943Y907509D01*
X338500Y905856D01*
Y904144D01*
X338943Y902491D01*
X339799Y901009D01*
X341009Y899799D01*
X342491Y898943D01*
X344144Y898500D01*
X345856D01*
X347509Y898943D01*
X348991Y899799D01*
X350201Y901009D01*
X351057Y902491D01*
X351500Y904144D01*
Y905856D01*
X351057Y907509D01*
X350201Y908991D01*
X348991Y910201D01*
X347509Y911057D01*
X345856Y911500D01*
D02*
G37*
G36*
X292185Y913200D02*
X289815D01*
X287526Y912587D01*
X285474Y911402D01*
X283798Y909726D01*
X282613Y907674D01*
X282000Y905385D01*
Y903015D01*
X282613Y900726D01*
X283798Y898674D01*
X285474Y896998D01*
X287526Y895813D01*
X289815Y895200D01*
X292185D01*
X294474Y895813D01*
X296526Y896998D01*
X298202Y898674D01*
X299387Y900726D01*
X300000Y903015D01*
Y905385D01*
X299387Y907674D01*
X298202Y909726D01*
X296526Y911402D01*
X294474Y912587D01*
X292185Y913200D01*
D02*
G37*
G36*
X275458Y902200D02*
X267600D01*
Y894342D01*
X269475Y894844D01*
X271765Y896166D01*
X273634Y898035D01*
X274956Y900325D01*
X275458Y902200D01*
D02*
G37*
G36*
X263600D02*
X255742D01*
X256244Y900325D01*
X257566Y898035D01*
X259435Y896166D01*
X261725Y894844D01*
X263600Y894342D01*
Y902200D01*
D02*
G37*
G36*
X106200Y903786D02*
X98200D01*
X95590Y903443D01*
X93157Y902435D01*
X91068Y900832D01*
X89465Y898743D01*
X88457Y896311D01*
X88114Y893700D01*
X88457Y891089D01*
X89465Y888657D01*
X91068Y886568D01*
X93157Y884965D01*
X95590Y883957D01*
X98200Y883614D01*
X106200D01*
X108811Y883957D01*
X111243Y884965D01*
X113332Y886568D01*
X114935Y888657D01*
X115943Y891089D01*
X116286Y893700D01*
X115943Y896311D01*
X114935Y898743D01*
X113332Y900832D01*
X111243Y902435D01*
X108811Y903443D01*
X106200Y903786D01*
D02*
G37*
G36*
X488856Y894500D02*
X487144D01*
X485491Y894057D01*
X484009Y893201D01*
X482799Y891991D01*
X481943Y890509D01*
X481500Y888856D01*
Y887144D01*
X481943Y885491D01*
X482799Y884009D01*
X484009Y882799D01*
X485491Y881943D01*
X487144Y881500D01*
X488856D01*
X490509Y881943D01*
X491991Y882799D01*
X493201Y884009D01*
X494057Y885491D01*
X494500Y887144D01*
Y888856D01*
X494057Y890509D01*
X493201Y891991D01*
X491991Y893201D01*
X490509Y894057D01*
X488856Y894500D01*
D02*
G37*
G36*
X267600Y888658D02*
Y880800D01*
X275458D01*
X274956Y882675D01*
X273634Y884965D01*
X271765Y886834D01*
X269475Y888156D01*
X267600Y888658D01*
D02*
G37*
G36*
X263600D02*
X261725Y888156D01*
X259435Y886834D01*
X257566Y884965D01*
X256244Y882675D01*
X255742Y880800D01*
X263600D01*
Y888658D01*
D02*
G37*
G36*
X400856Y886500D02*
X399144D01*
X397491Y886057D01*
X396009Y885201D01*
X394799Y883991D01*
X393943Y882509D01*
X393500Y880856D01*
Y879144D01*
X393943Y877491D01*
X394799Y876009D01*
X396009Y874799D01*
X397491Y873943D01*
X399144Y873500D01*
X400856D01*
X402509Y873943D01*
X403991Y874799D01*
X405201Y876009D01*
X406057Y877491D01*
X406500Y879144D01*
Y880856D01*
X406057Y882509D01*
X405201Y883991D01*
X403991Y885201D01*
X402509Y886057D01*
X400856Y886500D01*
D02*
G37*
G36*
X345856D02*
X344144D01*
X342491Y886057D01*
X341009Y885201D01*
X339799Y883991D01*
X338943Y882509D01*
X338500Y880856D01*
Y879144D01*
X338943Y877491D01*
X339799Y876009D01*
X341009Y874799D01*
X342491Y873943D01*
X344144Y873500D01*
X345856D01*
X347509Y873943D01*
X348991Y874799D01*
X350201Y876009D01*
X351057Y877491D01*
X351500Y879144D01*
Y880856D01*
X351057Y882509D01*
X350201Y883991D01*
X348991Y885201D01*
X347509Y886057D01*
X345856Y886500D01*
D02*
G37*
G36*
X292185Y887800D02*
X289815D01*
X287526Y887187D01*
X285474Y886002D01*
X283798Y884326D01*
X282613Y882274D01*
X282000Y879985D01*
Y877615D01*
X282613Y875326D01*
X283798Y873274D01*
X285474Y871598D01*
X287526Y870413D01*
X289815Y869800D01*
X292185D01*
X294474Y870413D01*
X296526Y871598D01*
X298202Y873274D01*
X299387Y875326D01*
X300000Y877615D01*
Y879985D01*
X299387Y882274D01*
X298202Y884326D01*
X296526Y886002D01*
X294474Y887187D01*
X292185Y887800D01*
D02*
G37*
G36*
X275458Y876800D02*
X267600D01*
Y868942D01*
X269475Y869444D01*
X271765Y870766D01*
X273634Y872635D01*
X274956Y874925D01*
X275458Y876800D01*
D02*
G37*
G36*
X263600D02*
X255742D01*
X256244Y874925D01*
X257566Y872635D01*
X259435Y870766D01*
X261725Y869444D01*
X263600Y868942D01*
Y876800D01*
D02*
G37*
G36*
X106200Y878386D02*
X98200D01*
X95590Y878043D01*
X93157Y877035D01*
X91068Y875432D01*
X89465Y873343D01*
X88457Y870910D01*
X88114Y868300D01*
X88457Y865689D01*
X89465Y863257D01*
X91068Y861168D01*
X93157Y859565D01*
X95590Y858557D01*
X98200Y858214D01*
X106200D01*
X108811Y858557D01*
X111243Y859565D01*
X113332Y861168D01*
X114935Y863257D01*
X115943Y865689D01*
X116286Y868300D01*
X115943Y870910D01*
X114935Y873343D01*
X113332Y875432D01*
X111243Y877035D01*
X108811Y878043D01*
X106200Y878386D01*
D02*
G37*
G36*
X267600Y863258D02*
Y855400D01*
X275458D01*
X274956Y857275D01*
X273634Y859565D01*
X271765Y861434D01*
X269475Y862756D01*
X267600Y863258D01*
D02*
G37*
G36*
X263600D02*
X261725Y862756D01*
X259435Y861434D01*
X257566Y859565D01*
X256244Y857275D01*
X255742Y855400D01*
X263600D01*
Y863258D01*
D02*
G37*
G36*
X214185Y871000D02*
X211815D01*
X209526Y870387D01*
X207474Y869202D01*
X205798Y867526D01*
X204613Y865474D01*
X204000Y863185D01*
Y860815D01*
X204613Y858526D01*
X205798Y856474D01*
X207474Y854798D01*
X209526Y853613D01*
X211815Y853000D01*
X214185D01*
X216474Y853613D01*
X218526Y854798D01*
X220202Y856474D01*
X221387Y858526D01*
X222000Y860815D01*
Y863185D01*
X221387Y865474D01*
X220202Y867526D01*
X218526Y869202D01*
X216474Y870387D01*
X214185Y871000D01*
D02*
G37*
G36*
X161685Y870500D02*
X159315D01*
X157026Y869887D01*
X154974Y868702D01*
X153298Y867026D01*
X152113Y864974D01*
X151500Y862685D01*
Y860315D01*
X152113Y858026D01*
X153298Y855974D01*
X154974Y854298D01*
X157026Y853113D01*
X159315Y852500D01*
X161685D01*
X163974Y853113D01*
X166026Y854298D01*
X167702Y855974D01*
X168887Y858026D01*
X169500Y860315D01*
Y862685D01*
X168887Y864974D01*
X167702Y867026D01*
X166026Y868702D01*
X163974Y869887D01*
X161685Y870500D01*
D02*
G37*
G36*
X400856Y861500D02*
X399144D01*
X397491Y861057D01*
X396009Y860201D01*
X394799Y858991D01*
X393943Y857509D01*
X393500Y855856D01*
Y854144D01*
X393943Y852491D01*
X394799Y851009D01*
X396009Y849799D01*
X397491Y848943D01*
X399144Y848500D01*
X400856D01*
X402509Y848943D01*
X403991Y849799D01*
X405201Y851009D01*
X406057Y852491D01*
X406500Y854144D01*
Y855856D01*
X406057Y857509D01*
X405201Y858991D01*
X403991Y860201D01*
X402509Y861057D01*
X400856Y861500D01*
D02*
G37*
G36*
X345856D02*
X344144D01*
X342491Y861057D01*
X341009Y860201D01*
X339799Y858991D01*
X338943Y857509D01*
X338500Y855856D01*
Y854144D01*
X338943Y852491D01*
X339799Y851009D01*
X341009Y849799D01*
X342491Y848943D01*
X344144Y848500D01*
X345856D01*
X347509Y848943D01*
X348991Y849799D01*
X350201Y851009D01*
X351057Y852491D01*
X351500Y854144D01*
Y855856D01*
X351057Y857509D01*
X350201Y858991D01*
X348991Y860201D01*
X347509Y861057D01*
X345856Y861500D01*
D02*
G37*
G36*
X292185Y862400D02*
X289815D01*
X287526Y861787D01*
X285474Y860602D01*
X283798Y858926D01*
X282613Y856874D01*
X282000Y854585D01*
Y852215D01*
X282613Y849926D01*
X283798Y847874D01*
X285474Y846198D01*
X287526Y845013D01*
X289815Y844400D01*
X292185D01*
X294474Y845013D01*
X296526Y846198D01*
X298202Y847874D01*
X299387Y849926D01*
X300000Y852215D01*
Y854585D01*
X299387Y856874D01*
X298202Y858926D01*
X296526Y860602D01*
X294474Y861787D01*
X292185Y862400D01*
D02*
G37*
G36*
X275458Y851400D02*
X267600D01*
Y843542D01*
X269475Y844044D01*
X271765Y845366D01*
X273634Y847235D01*
X274956Y849525D01*
X275458Y851400D01*
D02*
G37*
G36*
X263600D02*
X255742D01*
X256244Y849525D01*
X257566Y847235D01*
X259435Y845366D01*
X261725Y844044D01*
X263600Y843542D01*
Y851400D01*
D02*
G37*
G36*
X106200Y852986D02*
X98200D01*
X95590Y852643D01*
X93157Y851635D01*
X91068Y850032D01*
X89465Y847943D01*
X88457Y845510D01*
X88114Y842900D01*
X88457Y840290D01*
X89465Y837857D01*
X91068Y835768D01*
X93157Y834165D01*
X95590Y833157D01*
X98200Y832814D01*
X106200D01*
X108811Y833157D01*
X111243Y834165D01*
X113332Y835768D01*
X114935Y837857D01*
X115943Y840290D01*
X116286Y842900D01*
X115943Y845510D01*
X114935Y847943D01*
X113332Y850032D01*
X111243Y851635D01*
X108811Y852643D01*
X106200Y852986D01*
D02*
G37*
G36*
X267600Y837858D02*
Y830000D01*
X275458D01*
X274956Y831875D01*
X273634Y834165D01*
X271765Y836034D01*
X269475Y837356D01*
X267600Y837858D01*
D02*
G37*
G36*
X263600D02*
X261725Y837356D01*
X259435Y836034D01*
X257566Y834165D01*
X256244Y831875D01*
X255742Y830000D01*
X263600D01*
Y837858D01*
D02*
G37*
G36*
X400856Y836500D02*
X399144D01*
X397491Y836057D01*
X396009Y835201D01*
X394799Y833991D01*
X393943Y832509D01*
X393500Y830856D01*
Y829144D01*
X393943Y827491D01*
X394799Y826009D01*
X396009Y824799D01*
X397491Y823943D01*
X399144Y823500D01*
X400856D01*
X402509Y823943D01*
X403991Y824799D01*
X405201Y826009D01*
X406057Y827491D01*
X406500Y829144D01*
Y830856D01*
X406057Y832509D01*
X405201Y833991D01*
X403991Y835201D01*
X402509Y836057D01*
X400856Y836500D01*
D02*
G37*
G36*
X345856D02*
X344144D01*
X342491Y836057D01*
X341009Y835201D01*
X339799Y833991D01*
X338943Y832509D01*
X338500Y830856D01*
Y829144D01*
X338943Y827491D01*
X339799Y826009D01*
X341009Y824799D01*
X342491Y823943D01*
X344144Y823500D01*
X345856D01*
X347509Y823943D01*
X348991Y824799D01*
X350201Y826009D01*
X351057Y827491D01*
X351500Y829144D01*
Y830856D01*
X351057Y832509D01*
X350201Y833991D01*
X348991Y835201D01*
X347509Y836057D01*
X345856Y836500D01*
D02*
G37*
G36*
X292185Y837000D02*
X289815D01*
X287526Y836387D01*
X285474Y835202D01*
X283798Y833526D01*
X282613Y831474D01*
X282000Y829185D01*
Y826815D01*
X282613Y824526D01*
X283798Y822474D01*
X285474Y820798D01*
X287526Y819613D01*
X289815Y819000D01*
X292185D01*
X294474Y819613D01*
X296526Y820798D01*
X298202Y822474D01*
X299387Y824526D01*
X300000Y826815D01*
Y829185D01*
X299387Y831474D01*
X298202Y833526D01*
X296526Y835202D01*
X294474Y836387D01*
X292185Y837000D01*
D02*
G37*
G36*
X275458Y826000D02*
X267600D01*
Y818142D01*
X269475Y818644D01*
X271765Y819966D01*
X273634Y821835D01*
X274956Y824125D01*
X275458Y826000D01*
D02*
G37*
G36*
X263600D02*
X255742D01*
X256244Y824125D01*
X257566Y821835D01*
X259435Y819966D01*
X261725Y818644D01*
X263600Y818142D01*
Y826000D01*
D02*
G37*
G36*
X106200Y827586D02*
X98200D01*
X95590Y827243D01*
X93157Y826235D01*
X91068Y824632D01*
X89465Y822543D01*
X88457Y820110D01*
X88114Y817500D01*
X88457Y814890D01*
X89465Y812457D01*
X91068Y810368D01*
X93157Y808765D01*
X95590Y807757D01*
X98200Y807414D01*
X106200D01*
X108811Y807757D01*
X111243Y808765D01*
X113332Y810368D01*
X114935Y812457D01*
X115943Y814890D01*
X116286Y817500D01*
X115943Y820110D01*
X114935Y822543D01*
X113332Y824632D01*
X111243Y826235D01*
X108811Y827243D01*
X106200Y827586D01*
D02*
G37*
G36*
X267600Y812458D02*
Y804600D01*
X275458D01*
X274956Y806475D01*
X273634Y808765D01*
X271765Y810634D01*
X269475Y811956D01*
X267600Y812458D01*
D02*
G37*
G36*
X263600D02*
X261725Y811956D01*
X259435Y810634D01*
X257566Y808765D01*
X256244Y806475D01*
X255742Y804600D01*
X263600D01*
Y812458D01*
D02*
G37*
G36*
X345856Y811500D02*
X344144D01*
X342491Y811057D01*
X341009Y810201D01*
X339799Y808991D01*
X338943Y807509D01*
X338500Y805856D01*
Y804144D01*
X338943Y802491D01*
X339799Y801009D01*
X341009Y799799D01*
X342491Y798943D01*
X344144Y798500D01*
X345856D01*
X347509Y798943D01*
X348991Y799799D01*
X350201Y801009D01*
X351057Y802491D01*
X351500Y804144D01*
Y805856D01*
X351057Y807509D01*
X350201Y808991D01*
X348991Y810201D01*
X347509Y811057D01*
X345856Y811500D01*
D02*
G37*
G36*
X292185Y811600D02*
X289815D01*
X287526Y810987D01*
X285474Y809802D01*
X283798Y808126D01*
X282613Y806074D01*
X282000Y803785D01*
Y801415D01*
X282613Y799126D01*
X283798Y797074D01*
X285474Y795398D01*
X287526Y794213D01*
X289815Y793600D01*
X292185D01*
X294474Y794213D01*
X296526Y795398D01*
X298202Y797074D01*
X299387Y799126D01*
X300000Y801415D01*
Y803785D01*
X299387Y806074D01*
X298202Y808126D01*
X296526Y809802D01*
X294474Y810987D01*
X292185Y811600D01*
D02*
G37*
G36*
X275458Y800600D02*
X267600D01*
Y792742D01*
X269475Y793244D01*
X271765Y794566D01*
X273634Y796435D01*
X274956Y798725D01*
X275458Y800600D01*
D02*
G37*
G36*
X263600D02*
X255742D01*
X256244Y798725D01*
X257566Y796435D01*
X259435Y794566D01*
X261725Y793244D01*
X263600Y792742D01*
Y800600D01*
D02*
G37*
G36*
X393356Y796500D02*
X391644D01*
X389991Y796057D01*
X388509Y795201D01*
X387299Y793991D01*
X386443Y792509D01*
X386000Y790856D01*
Y789144D01*
X386443Y787491D01*
X387299Y786009D01*
X388509Y784799D01*
X389991Y783943D01*
X391644Y783500D01*
X393356D01*
X395009Y783943D01*
X396491Y784799D01*
X397701Y786009D01*
X398557Y787491D01*
X399000Y789144D01*
Y790856D01*
X398557Y792509D01*
X397701Y793991D01*
X396491Y795201D01*
X395009Y796057D01*
X393356Y796500D01*
D02*
G37*
G36*
X378356D02*
X376644D01*
X374991Y796057D01*
X373509Y795201D01*
X372299Y793991D01*
X371443Y792509D01*
X371000Y790856D01*
Y789144D01*
X371443Y787491D01*
X372299Y786009D01*
X373509Y784799D01*
X374991Y783943D01*
X376644Y783500D01*
X378356D01*
X380009Y783943D01*
X381491Y784799D01*
X382701Y786009D01*
X383557Y787491D01*
X384000Y789144D01*
Y790856D01*
X383557Y792509D01*
X382701Y793991D01*
X381491Y795201D01*
X380009Y796057D01*
X378356Y796500D01*
D02*
G37*
G36*
X363356D02*
X361644D01*
X359991Y796057D01*
X358509Y795201D01*
X357299Y793991D01*
X356443Y792509D01*
X356000Y790856D01*
Y789144D01*
X356443Y787491D01*
X357299Y786009D01*
X358509Y784799D01*
X359991Y783943D01*
X361644Y783500D01*
X363356D01*
X365009Y783943D01*
X366491Y784799D01*
X367701Y786009D01*
X368557Y787491D01*
X369000Y789144D01*
Y790856D01*
X368557Y792509D01*
X367701Y793991D01*
X366491Y795201D01*
X365009Y796057D01*
X363356Y796500D01*
D02*
G37*
G36*
X348356D02*
X346644D01*
X344991Y796057D01*
X343509Y795201D01*
X342299Y793991D01*
X341443Y792509D01*
X341000Y790856D01*
Y789144D01*
X341443Y787491D01*
X342299Y786009D01*
X343509Y784799D01*
X344991Y783943D01*
X346644Y783500D01*
X348356D01*
X350009Y783943D01*
X351491Y784799D01*
X352701Y786009D01*
X353557Y787491D01*
X354000Y789144D01*
Y790856D01*
X353557Y792509D01*
X352701Y793991D01*
X351491Y795201D01*
X350009Y796057D01*
X348356Y796500D01*
D02*
G37*
G36*
X106200Y802186D02*
X98200D01*
X95590Y801842D01*
X93157Y800835D01*
X91068Y799232D01*
X89465Y797143D01*
X88457Y794710D01*
X88114Y792100D01*
X88457Y789490D01*
X89465Y787057D01*
X91068Y784968D01*
X93157Y783365D01*
X95590Y782357D01*
X98200Y782014D01*
X106200D01*
X108811Y782357D01*
X111243Y783365D01*
X113332Y784968D01*
X114935Y787057D01*
X115943Y789490D01*
X116286Y792100D01*
X115943Y794710D01*
X114935Y797143D01*
X113332Y799232D01*
X111243Y800835D01*
X108811Y801842D01*
X106200Y802186D01*
D02*
G37*
G36*
X267600Y787058D02*
Y779200D01*
X275458D01*
X274956Y781075D01*
X273634Y783365D01*
X271765Y785234D01*
X269475Y786556D01*
X267600Y787058D01*
D02*
G37*
G36*
X263600D02*
X261725Y786556D01*
X259435Y785234D01*
X257566Y783365D01*
X256244Y781075D01*
X255742Y779200D01*
X263600D01*
Y787058D01*
D02*
G37*
G36*
X292185Y786200D02*
X289815D01*
X287526Y785587D01*
X285474Y784402D01*
X283798Y782726D01*
X282613Y780674D01*
X282000Y778385D01*
Y776015D01*
X282613Y773726D01*
X283798Y771674D01*
X285474Y769998D01*
X287526Y768813D01*
X289815Y768200D01*
X292185D01*
X294474Y768813D01*
X296526Y769998D01*
X298202Y771674D01*
X299387Y773726D01*
X300000Y776015D01*
Y778385D01*
X299387Y780674D01*
X298202Y782726D01*
X296526Y784402D01*
X294474Y785587D01*
X292185Y786200D01*
D02*
G37*
G36*
X275458Y775200D02*
X267600D01*
Y767342D01*
X269475Y767844D01*
X271765Y769166D01*
X273634Y771035D01*
X274956Y773325D01*
X275458Y775200D01*
D02*
G37*
G36*
X263600D02*
X255742D01*
X256244Y773325D01*
X257566Y771035D01*
X259435Y769166D01*
X261725Y767844D01*
X263600Y767342D01*
Y775200D01*
D02*
G37*
G36*
X106200Y776786D02*
X98200D01*
X95590Y776442D01*
X93157Y775435D01*
X91068Y773832D01*
X89465Y771743D01*
X88457Y769311D01*
X88114Y766700D01*
X88457Y764090D01*
X89465Y761657D01*
X91068Y759568D01*
X93157Y757965D01*
X95590Y756957D01*
X98200Y756614D01*
X106200D01*
X108811Y756957D01*
X111243Y757965D01*
X113332Y759568D01*
X114935Y761657D01*
X115943Y764090D01*
X116286Y766700D01*
X115943Y769311D01*
X114935Y771743D01*
X113332Y773832D01*
X111243Y775435D01*
X108811Y776442D01*
X106200Y776786D01*
D02*
G37*
G36*
X267600Y761658D02*
Y753800D01*
X275458D01*
X274956Y755675D01*
X273634Y757965D01*
X271765Y759834D01*
X269475Y761156D01*
X267600Y761658D01*
D02*
G37*
G36*
X263600D02*
X261725Y761156D01*
X259435Y759834D01*
X257566Y757965D01*
X256244Y755675D01*
X255742Y753800D01*
X263600D01*
Y761658D01*
D02*
G37*
G36*
X292185Y760800D02*
X289815D01*
X287526Y760187D01*
X285474Y759002D01*
X283798Y757326D01*
X282613Y755274D01*
X282000Y752985D01*
Y750615D01*
X282613Y748326D01*
X283798Y746274D01*
X285474Y744598D01*
X287526Y743413D01*
X289815Y742800D01*
X292185D01*
X294474Y743413D01*
X296526Y744598D01*
X298202Y746274D01*
X299387Y748326D01*
X300000Y750615D01*
Y752985D01*
X299387Y755274D01*
X298202Y757326D01*
X296526Y759002D01*
X294474Y760187D01*
X292185Y760800D01*
D02*
G37*
G36*
X275458Y749800D02*
X267600D01*
Y741942D01*
X269475Y742444D01*
X271765Y743766D01*
X273634Y745635D01*
X274956Y747925D01*
X275458Y749800D01*
D02*
G37*
G36*
X263600D02*
X255742D01*
X256244Y747925D01*
X257566Y745635D01*
X259435Y743766D01*
X261725Y742444D01*
X263600Y741942D01*
Y749800D01*
D02*
G37*
G36*
X106200Y751386D02*
X98200D01*
X95590Y751042D01*
X93157Y750035D01*
X91068Y748432D01*
X89465Y746343D01*
X88457Y743911D01*
X88114Y741300D01*
X88457Y738689D01*
X89465Y736257D01*
X91068Y734168D01*
X93157Y732565D01*
X95590Y731557D01*
X98200Y731214D01*
X106200D01*
X108811Y731557D01*
X111243Y732565D01*
X113332Y734168D01*
X114935Y736257D01*
X115943Y738689D01*
X116286Y741300D01*
X115943Y743911D01*
X114935Y746343D01*
X113332Y748432D01*
X111243Y750035D01*
X108811Y751042D01*
X106200Y751386D01*
D02*
G37*
G36*
X267600Y736258D02*
Y728400D01*
X275458D01*
X274956Y730275D01*
X273634Y732565D01*
X271765Y734434D01*
X269475Y735756D01*
X267600Y736258D01*
D02*
G37*
G36*
X263600D02*
X261725Y735756D01*
X259435Y734434D01*
X257566Y732565D01*
X256244Y730275D01*
X255742Y728400D01*
X263600D01*
Y736258D01*
D02*
G37*
G36*
X292185Y735400D02*
X289815D01*
X287526Y734787D01*
X285474Y733602D01*
X283798Y731926D01*
X282613Y729874D01*
X282000Y727585D01*
Y725215D01*
X282613Y722926D01*
X283798Y720874D01*
X285474Y719198D01*
X287526Y718013D01*
X289815Y717400D01*
X292185D01*
X294474Y718013D01*
X296526Y719198D01*
X298202Y720874D01*
X299387Y722926D01*
X300000Y725215D01*
Y727585D01*
X299387Y729874D01*
X298202Y731926D01*
X296526Y733602D01*
X294474Y734787D01*
X292185Y735400D01*
D02*
G37*
G36*
X275458Y724400D02*
X267600D01*
Y716542D01*
X269475Y717044D01*
X271765Y718366D01*
X273634Y720235D01*
X274956Y722525D01*
X275458Y724400D01*
D02*
G37*
G36*
X263600D02*
X255742D01*
X256244Y722525D01*
X257566Y720235D01*
X259435Y718366D01*
X261725Y717044D01*
X263600Y716542D01*
Y724400D01*
D02*
G37*
G36*
X106200Y725986D02*
X98200D01*
X95590Y725642D01*
X93157Y724635D01*
X91068Y723032D01*
X89465Y720943D01*
X88457Y718511D01*
X88114Y715900D01*
X88457Y713289D01*
X89465Y710857D01*
X91068Y708768D01*
X93157Y707165D01*
X95590Y706157D01*
X98200Y705814D01*
X106200D01*
X108811Y706157D01*
X111243Y707165D01*
X113332Y708768D01*
X114935Y710857D01*
X115943Y713289D01*
X116286Y715900D01*
X115943Y718511D01*
X114935Y720943D01*
X113332Y723032D01*
X111243Y724635D01*
X108811Y725642D01*
X106200Y725986D01*
D02*
G37*
G36*
X267600Y710858D02*
Y703000D01*
X275458D01*
X274956Y704875D01*
X273634Y707165D01*
X271765Y709034D01*
X269475Y710356D01*
X267600Y710858D01*
D02*
G37*
G36*
X263600D02*
X261725Y710356D01*
X259435Y709034D01*
X257566Y707165D01*
X256244Y704875D01*
X255742Y703000D01*
X263600D01*
Y710858D01*
D02*
G37*
G36*
X292185Y710000D02*
X289815D01*
X287526Y709387D01*
X285474Y708202D01*
X283798Y706526D01*
X282613Y704474D01*
X282000Y702185D01*
Y699815D01*
X282613Y697526D01*
X283798Y695474D01*
X285474Y693798D01*
X287526Y692613D01*
X289815Y692000D01*
X292185D01*
X294474Y692613D01*
X296526Y693798D01*
X298202Y695474D01*
X299387Y697526D01*
X300000Y699815D01*
Y702185D01*
X299387Y704474D01*
X298202Y706526D01*
X296526Y708202D01*
X294474Y709387D01*
X292185Y710000D01*
D02*
G37*
G36*
X275458Y699000D02*
X267600D01*
Y691142D01*
X269475Y691644D01*
X271765Y692966D01*
X273634Y694835D01*
X274956Y697125D01*
X275458Y699000D01*
D02*
G37*
G36*
X263600D02*
X255742D01*
X256244Y697125D01*
X257566Y694835D01*
X259435Y692966D01*
X261725Y691644D01*
X263600Y691142D01*
Y699000D01*
D02*
G37*
G36*
X1101185Y699000D02*
X1098815D01*
X1096526Y698387D01*
X1094474Y697202D01*
X1092798Y695526D01*
X1091613Y693474D01*
X1091000Y691185D01*
Y688815D01*
X1091613Y686526D01*
X1092798Y684474D01*
X1094474Y682798D01*
X1096526Y681613D01*
X1098815Y681000D01*
X1101185D01*
X1103474Y681613D01*
X1105526Y682798D01*
X1107202Y684474D01*
X1108387Y686526D01*
X1109000Y688815D01*
Y691185D01*
X1108387Y693474D01*
X1107202Y695526D01*
X1105526Y697202D01*
X1103474Y698387D01*
X1101185Y699000D01*
D02*
G37*
G36*
X106200Y700586D02*
X98200D01*
X95590Y700242D01*
X93157Y699235D01*
X91068Y697632D01*
X89465Y695543D01*
X88457Y693111D01*
X88114Y690500D01*
X88457Y687889D01*
X89465Y685457D01*
X91068Y683368D01*
X93157Y681765D01*
X95590Y680757D01*
X98200Y680414D01*
X106200D01*
X108811Y680757D01*
X111243Y681765D01*
X113332Y683368D01*
X114935Y685457D01*
X115943Y687889D01*
X116286Y690500D01*
X115943Y693111D01*
X114935Y695543D01*
X113332Y697632D01*
X111243Y699235D01*
X108811Y700242D01*
X106200Y700586D01*
D02*
G37*
G36*
X267600Y685458D02*
Y677600D01*
X275458D01*
X274956Y679475D01*
X273634Y681765D01*
X271765Y683634D01*
X269475Y684956D01*
X267600Y685458D01*
D02*
G37*
G36*
X263600D02*
X261725Y684956D01*
X259435Y683634D01*
X257566Y681765D01*
X256244Y679475D01*
X255742Y677600D01*
X263600D01*
Y685458D01*
D02*
G37*
G36*
X292185Y684600D02*
X289815D01*
X287526Y683987D01*
X285474Y682802D01*
X283798Y681126D01*
X282613Y679074D01*
X282000Y676785D01*
Y674415D01*
X282613Y672126D01*
X283798Y670074D01*
X285474Y668398D01*
X287526Y667213D01*
X289815Y666600D01*
X292185D01*
X294474Y667213D01*
X296526Y668398D01*
X298202Y670074D01*
X299387Y672126D01*
X300000Y674415D01*
Y676785D01*
X299387Y679074D01*
X298202Y681126D01*
X296526Y682802D01*
X294474Y683987D01*
X292185Y684600D01*
D02*
G37*
G36*
X275458Y673600D02*
X267600D01*
Y665742D01*
X269475Y666244D01*
X271765Y667566D01*
X273634Y669435D01*
X274956Y671725D01*
X275458Y673600D01*
D02*
G37*
G36*
X263600D02*
X255742D01*
X256244Y671725D01*
X257566Y669435D01*
X259435Y667566D01*
X261725Y666244D01*
X263600Y665742D01*
Y673600D01*
D02*
G37*
G36*
X1101185Y679000D02*
X1098815D01*
X1096526Y678387D01*
X1094474Y677202D01*
X1092798Y675526D01*
X1091613Y673474D01*
X1091000Y671185D01*
Y668815D01*
X1091613Y666526D01*
X1092798Y664474D01*
X1094474Y662798D01*
X1096526Y661613D01*
X1098815Y661000D01*
X1101185D01*
X1103474Y661613D01*
X1105526Y662798D01*
X1107202Y664474D01*
X1108387Y666526D01*
X1109000Y668815D01*
Y671185D01*
X1108387Y673474D01*
X1107202Y675526D01*
X1105526Y677202D01*
X1103474Y678387D01*
X1101185Y679000D01*
D02*
G37*
G36*
X106200Y675186D02*
X98200D01*
X95590Y674843D01*
X93157Y673835D01*
X91068Y672232D01*
X89465Y670143D01*
X88457Y667710D01*
X88114Y665100D01*
X88457Y662489D01*
X89465Y660057D01*
X91068Y657968D01*
X93157Y656365D01*
X95590Y655357D01*
X98200Y655014D01*
X106200D01*
X108811Y655357D01*
X111243Y656365D01*
X113332Y657968D01*
X114935Y660057D01*
X115943Y662489D01*
X116286Y665100D01*
X115943Y667710D01*
X114935Y670143D01*
X113332Y672232D01*
X111243Y673835D01*
X108811Y674843D01*
X106200Y675186D01*
D02*
G37*
G36*
X267600Y660058D02*
Y652200D01*
X275458D01*
X274956Y654075D01*
X273634Y656365D01*
X271765Y658234D01*
X269475Y659556D01*
X267600Y660058D01*
D02*
G37*
G36*
X263600D02*
X261725Y659556D01*
X259435Y658234D01*
X257566Y656365D01*
X256244Y654075D01*
X255742Y652200D01*
X263600D01*
Y660058D01*
D02*
G37*
G36*
X292185Y659200D02*
X289815D01*
X287526Y658587D01*
X285474Y657402D01*
X283798Y655726D01*
X282613Y653674D01*
X282000Y651385D01*
Y649015D01*
X282613Y646726D01*
X283798Y644674D01*
X285474Y642998D01*
X287526Y641813D01*
X289815Y641200D01*
X292185D01*
X294474Y641813D01*
X296526Y642998D01*
X298202Y644674D01*
X299387Y646726D01*
X300000Y649015D01*
Y651385D01*
X299387Y653674D01*
X298202Y655726D01*
X296526Y657402D01*
X294474Y658587D01*
X292185Y659200D01*
D02*
G37*
G36*
X275458Y648200D02*
X267600D01*
Y640342D01*
X269475Y640844D01*
X271765Y642166D01*
X273634Y644035D01*
X274956Y646325D01*
X275458Y648200D01*
D02*
G37*
G36*
X263600D02*
X255742D01*
X256244Y646325D01*
X257566Y644035D01*
X259435Y642166D01*
X261725Y640844D01*
X263600Y640342D01*
Y648200D01*
D02*
G37*
G36*
X106200Y649786D02*
X98200D01*
X95590Y649443D01*
X93157Y648435D01*
X91068Y646832D01*
X89465Y644743D01*
X88457Y642310D01*
X88114Y639700D01*
X88457Y637090D01*
X89465Y634657D01*
X91068Y632568D01*
X93157Y630965D01*
X95590Y629957D01*
X98200Y629614D01*
X106200D01*
X108811Y629957D01*
X111243Y630965D01*
X113332Y632568D01*
X114935Y634657D01*
X115943Y637090D01*
X116286Y639700D01*
X115943Y642310D01*
X114935Y644743D01*
X113332Y646832D01*
X111243Y648435D01*
X108811Y649443D01*
X106200Y649786D01*
D02*
G37*
G36*
X267600Y634658D02*
Y626800D01*
X275458D01*
X274956Y628675D01*
X273634Y630965D01*
X271765Y632834D01*
X269475Y634156D01*
X267600Y634658D01*
D02*
G37*
G36*
X263600D02*
X261725Y634156D01*
X259435Y632834D01*
X257566Y630965D01*
X256244Y628675D01*
X255742Y626800D01*
X263600D01*
Y634658D01*
D02*
G37*
G36*
X292185Y633800D02*
X289815D01*
X287526Y633187D01*
X285474Y632002D01*
X283798Y630326D01*
X282613Y628274D01*
X282000Y625985D01*
Y623615D01*
X282613Y621326D01*
X283798Y619274D01*
X285474Y617598D01*
X287526Y616413D01*
X289815Y615800D01*
X292185D01*
X294474Y616413D01*
X296526Y617598D01*
X298202Y619274D01*
X299387Y621326D01*
X300000Y623615D01*
Y625985D01*
X299387Y628274D01*
X298202Y630326D01*
X296526Y632002D01*
X294474Y633187D01*
X292185Y633800D01*
D02*
G37*
G36*
X275458Y622800D02*
X267600D01*
Y614942D01*
X269475Y615444D01*
X271765Y616766D01*
X273634Y618635D01*
X274956Y620925D01*
X275458Y622800D01*
D02*
G37*
G36*
X263600D02*
X255742D01*
X256244Y620925D01*
X257566Y618635D01*
X259435Y616766D01*
X261725Y615444D01*
X263600Y614942D01*
Y622800D01*
D02*
G37*
G36*
X1092053Y625000D02*
X1089947D01*
X1087912Y624455D01*
X1086088Y623402D01*
X1084598Y621912D01*
X1083545Y620088D01*
X1083000Y618053D01*
Y615947D01*
X1083545Y613912D01*
X1084598Y612088D01*
X1086088Y610598D01*
X1087912Y609545D01*
X1089947Y609000D01*
X1092053D01*
X1094088Y609545D01*
X1095912Y610598D01*
X1097402Y612088D01*
X1098455Y613912D01*
X1099000Y615947D01*
Y618053D01*
X1098455Y620088D01*
X1097402Y621912D01*
X1095912Y623402D01*
X1094088Y624455D01*
X1092053Y625000D01*
D02*
G37*
G36*
X106200Y624386D02*
X98200D01*
X95590Y624043D01*
X93157Y623035D01*
X91068Y621432D01*
X89465Y619343D01*
X88457Y616911D01*
X88114Y614300D01*
X88457Y611689D01*
X89465Y609257D01*
X91068Y607168D01*
X93157Y605565D01*
X95590Y604557D01*
X98200Y604214D01*
X106200D01*
X108811Y604557D01*
X111243Y605565D01*
X113332Y607168D01*
X114935Y609257D01*
X115943Y611689D01*
X116286Y614300D01*
X115943Y616911D01*
X114935Y619343D01*
X113332Y621432D01*
X111243Y623035D01*
X108811Y624043D01*
X106200Y624386D01*
D02*
G37*
G36*
X1053895Y611500D02*
X1052105D01*
X1050451Y610815D01*
X1049185Y609549D01*
X1048500Y607895D01*
Y606105D01*
X1049185Y604451D01*
X1050451Y603185D01*
X1052105Y602500D01*
X1053895D01*
X1055549Y603185D01*
X1056815Y604451D01*
X1057500Y606105D01*
Y607895D01*
X1056815Y609549D01*
X1055549Y610815D01*
X1053895Y611500D01*
D02*
G37*
G36*
X267600Y609258D02*
Y601400D01*
X275458D01*
X274956Y603275D01*
X273634Y605565D01*
X271765Y607434D01*
X269475Y608756D01*
X267600Y609258D01*
D02*
G37*
G36*
X263600D02*
X261725Y608756D01*
X259435Y607434D01*
X257566Y605565D01*
X256244Y603275D01*
X255742Y601400D01*
X263600D01*
Y609258D01*
D02*
G37*
G36*
X292185Y608400D02*
X289815D01*
X287526Y607787D01*
X285474Y606602D01*
X283798Y604926D01*
X282613Y602874D01*
X282000Y600585D01*
Y598215D01*
X282613Y595926D01*
X283798Y593874D01*
X285474Y592198D01*
X287526Y591013D01*
X289815Y590400D01*
X292185D01*
X294474Y591013D01*
X296526Y592198D01*
X298202Y593874D01*
X299387Y595926D01*
X300000Y598215D01*
Y600585D01*
X299387Y602874D01*
X298202Y604926D01*
X296526Y606602D01*
X294474Y607787D01*
X292185Y608400D01*
D02*
G37*
G36*
X275458Y597400D02*
X267600D01*
Y589542D01*
X269475Y590044D01*
X271765Y591366D01*
X273634Y593235D01*
X274956Y595525D01*
X275458Y597400D01*
D02*
G37*
G36*
X263600D02*
X255742D01*
X256244Y595525D01*
X257566Y593235D01*
X259435Y591366D01*
X261725Y590044D01*
X263600Y589542D01*
Y597400D01*
D02*
G37*
G36*
X106200Y598986D02*
X98200D01*
X95590Y598643D01*
X93157Y597635D01*
X91068Y596032D01*
X89465Y593943D01*
X88457Y591511D01*
X88114Y588900D01*
X88457Y586289D01*
X89465Y583857D01*
X91068Y581768D01*
X93157Y580165D01*
X95590Y579157D01*
X98200Y578814D01*
X106200D01*
X108811Y579157D01*
X111243Y580165D01*
X113332Y581768D01*
X114935Y583857D01*
X115943Y586289D01*
X116286Y588900D01*
X115943Y591511D01*
X114935Y593943D01*
X113332Y596032D01*
X111243Y597635D01*
X108811Y598643D01*
X106200Y598986D01*
D02*
G37*
G36*
X1032895Y586500D02*
X1031105D01*
X1029451Y585815D01*
X1028185Y584549D01*
X1027500Y582895D01*
Y581105D01*
X1028185Y579451D01*
X1029451Y578185D01*
X1031105Y577500D01*
X1032895D01*
X1034549Y578185D01*
X1035815Y579451D01*
X1036500Y581105D01*
Y582895D01*
X1035815Y584549D01*
X1034549Y585815D01*
X1032895Y586500D01*
D02*
G37*
G36*
X1014895D02*
X1013105D01*
X1011451Y585815D01*
X1010185Y584549D01*
X1009500Y582895D01*
Y581105D01*
X1010185Y579451D01*
X1011451Y578185D01*
X1013105Y577500D01*
X1014895D01*
X1016549Y578185D01*
X1017815Y579451D01*
X1018500Y581105D01*
Y582895D01*
X1017815Y584549D01*
X1016549Y585815D01*
X1014895Y586500D01*
D02*
G37*
G36*
X267600Y583858D02*
Y576000D01*
X275458D01*
X274956Y577875D01*
X273634Y580165D01*
X271765Y582034D01*
X269475Y583356D01*
X267600Y583858D01*
D02*
G37*
G36*
X263600D02*
X261725Y583356D01*
X259435Y582034D01*
X257566Y580165D01*
X256244Y577875D01*
X255742Y576000D01*
X263600D01*
Y583858D01*
D02*
G37*
G36*
X292185Y583000D02*
X289815D01*
X287526Y582387D01*
X285474Y581202D01*
X283798Y579526D01*
X282613Y577474D01*
X282000Y575185D01*
Y572815D01*
X282613Y570526D01*
X283798Y568474D01*
X285474Y566798D01*
X287526Y565613D01*
X289815Y565000D01*
X292185D01*
X294474Y565613D01*
X296526Y566798D01*
X298202Y568474D01*
X299387Y570526D01*
X300000Y572815D01*
Y575185D01*
X299387Y577474D01*
X298202Y579526D01*
X296526Y581202D01*
X294474Y582387D01*
X292185Y583000D01*
D02*
G37*
G36*
X275458Y572000D02*
X267600D01*
Y564142D01*
X269475Y564644D01*
X271765Y565966D01*
X273634Y567835D01*
X274956Y570125D01*
X275458Y572000D01*
D02*
G37*
G36*
X263600D02*
X255742D01*
X256244Y570125D01*
X257566Y567835D01*
X259435Y565966D01*
X261725Y564644D01*
X263600Y564142D01*
Y572000D01*
D02*
G37*
G36*
X1003895Y564500D02*
X1002105D01*
X1000451Y563815D01*
X999185Y562549D01*
X998500Y560895D01*
Y559105D01*
X999185Y557451D01*
X1000451Y556185D01*
X1002105Y555500D01*
X1003895D01*
X1005549Y556185D01*
X1006815Y557451D01*
X1007500Y559105D01*
Y560895D01*
X1006815Y562549D01*
X1005549Y563815D01*
X1003895Y564500D01*
D02*
G37*
G36*
X106200Y573586D02*
X98200D01*
X95590Y573242D01*
X93157Y572235D01*
X91068Y570632D01*
X89465Y568543D01*
X88457Y566110D01*
X88114Y563500D01*
X88457Y560890D01*
X89465Y558457D01*
X91068Y556368D01*
X93157Y554765D01*
X95590Y553757D01*
X98200Y553414D01*
X106200D01*
X108811Y553757D01*
X111243Y554765D01*
X113332Y556368D01*
X114935Y558457D01*
X115943Y560890D01*
X116286Y563500D01*
X115943Y566110D01*
X114935Y568543D01*
X113332Y570632D01*
X111243Y572235D01*
X108811Y573242D01*
X106200Y573586D01*
D02*
G37*
G36*
X267600Y558458D02*
Y550600D01*
X275458D01*
X274956Y552475D01*
X273634Y554765D01*
X271765Y556634D01*
X269475Y557956D01*
X267600Y558458D01*
D02*
G37*
G36*
X263600D02*
X261725Y557956D01*
X259435Y556634D01*
X257566Y554765D01*
X256244Y552475D01*
X255742Y550600D01*
X263600D01*
Y558458D01*
D02*
G37*
G36*
X1003895Y553500D02*
X1002105D01*
X1000451Y552815D01*
X999185Y551549D01*
X998500Y549895D01*
Y548105D01*
X999185Y546451D01*
X1000451Y545185D01*
X1002105Y544500D01*
X1003895D01*
X1005549Y545185D01*
X1006815Y546451D01*
X1007500Y548105D01*
Y549895D01*
X1006815Y551549D01*
X1005549Y552815D01*
X1003895Y553500D01*
D02*
G37*
G36*
X292185Y557600D02*
X289815D01*
X287526Y556987D01*
X285474Y555802D01*
X283798Y554126D01*
X282613Y552074D01*
X282000Y549785D01*
Y547415D01*
X282613Y545126D01*
X283798Y543074D01*
X285474Y541398D01*
X287526Y540213D01*
X289815Y539600D01*
X292185D01*
X294474Y540213D01*
X296526Y541398D01*
X298202Y543074D01*
X299387Y545126D01*
X300000Y547415D01*
Y549785D01*
X299387Y552074D01*
X298202Y554126D01*
X296526Y555802D01*
X294474Y556987D01*
X292185Y557600D01*
D02*
G37*
G36*
X275458Y546600D02*
X267600D01*
Y538742D01*
X269475Y539244D01*
X271765Y540566D01*
X273634Y542435D01*
X274956Y544725D01*
X275458Y546600D01*
D02*
G37*
G36*
X263600D02*
X255742D01*
X256244Y544725D01*
X257566Y542435D01*
X259435Y540566D01*
X261725Y539244D01*
X263600Y538742D01*
Y546600D01*
D02*
G37*
G36*
X1009895Y544500D02*
X1008105D01*
X1006451Y543815D01*
X1005185Y542549D01*
X1004500Y540895D01*
Y539105D01*
X1005185Y537451D01*
X1005374Y537262D01*
X1004655Y536185D01*
X1003895Y536500D01*
X1002105D01*
X1000451Y535815D01*
X999185Y534549D01*
X998500Y532895D01*
Y531105D01*
X999185Y529451D01*
X1000451Y528185D01*
X1002105Y527500D01*
X1003895D01*
X1004655Y527815D01*
X1005374Y526738D01*
X1005185Y526549D01*
X1004500Y524895D01*
Y523105D01*
X1005185Y521451D01*
X1005374Y521262D01*
X1004655Y520185D01*
X1003895Y520500D01*
X1002105D01*
X1000451Y519815D01*
X999185Y518549D01*
X998500Y516895D01*
Y515105D01*
X999185Y513451D01*
X1000451Y512185D01*
X1002105Y511500D01*
X1003895D01*
X1005549Y512185D01*
X1006815Y513451D01*
X1007500Y515105D01*
Y516895D01*
X1006815Y518549D01*
X1006626Y518738D01*
X1007345Y519815D01*
X1008105Y519500D01*
X1009895D01*
X1011549Y520185D01*
X1012815Y521451D01*
X1013500Y523105D01*
Y524895D01*
X1012815Y526549D01*
X1011549Y527815D01*
X1009895Y528500D01*
X1008105D01*
X1007345Y528185D01*
X1006626Y529262D01*
X1006815Y529451D01*
X1007500Y531105D01*
Y532895D01*
X1006815Y534549D01*
X1006626Y534738D01*
X1007345Y535815D01*
X1008105Y535500D01*
X1009895D01*
X1011549Y536185D01*
X1012815Y537451D01*
X1013500Y539105D01*
Y540895D01*
X1012815Y542549D01*
X1011549Y543815D01*
X1009895Y544500D01*
D02*
G37*
G36*
X1022895D02*
X1021105D01*
X1019451Y543815D01*
X1018185Y542549D01*
X1017500Y540895D01*
Y539105D01*
X1018185Y537451D01*
X1019451Y536185D01*
X1021105Y535500D01*
X1022895D01*
X1024549Y536185D01*
X1025815Y537451D01*
X1026500Y539105D01*
Y540895D01*
X1025815Y542549D01*
X1024549Y543815D01*
X1022895Y544500D01*
D02*
G37*
G36*
X982895Y537500D02*
X981105D01*
X979451Y536815D01*
X978185Y535549D01*
X977500Y533895D01*
Y532105D01*
X977947Y531025D01*
X976975Y530052D01*
X975895Y530500D01*
X974105D01*
X972451Y529815D01*
X971185Y528549D01*
X970500Y526895D01*
Y525105D01*
X971185Y523451D01*
X972451Y522185D01*
X974105Y521500D01*
X975895D01*
X977549Y522185D01*
X978815Y523451D01*
X979500Y525105D01*
Y526895D01*
X979053Y527976D01*
X980024Y528947D01*
X981105Y528500D01*
X982895D01*
X984549Y529185D01*
X985815Y530451D01*
X986500Y532105D01*
Y533895D01*
X985815Y535549D01*
X984549Y536815D01*
X982895Y537500D01*
D02*
G37*
G36*
X106200Y548186D02*
X98200D01*
X95590Y547842D01*
X93157Y546835D01*
X91068Y545232D01*
X89465Y543143D01*
X88457Y540710D01*
X88114Y538100D01*
X88457Y535490D01*
X89465Y533057D01*
X91068Y530968D01*
X93157Y529365D01*
X95590Y528357D01*
X98200Y528014D01*
X106200D01*
X108811Y528357D01*
X111243Y529365D01*
X113332Y530968D01*
X114935Y533057D01*
X115943Y535490D01*
X116286Y538100D01*
X115943Y540710D01*
X114935Y543143D01*
X113332Y545232D01*
X111243Y546835D01*
X108811Y547842D01*
X106200Y548186D01*
D02*
G37*
G36*
X267600Y533058D02*
Y525200D01*
X275458D01*
X274956Y527075D01*
X273634Y529365D01*
X271765Y531234D01*
X269475Y532556D01*
X267600Y533058D01*
D02*
G37*
G36*
X263600D02*
X261725Y532556D01*
X259435Y531234D01*
X257566Y529365D01*
X256244Y527075D01*
X255742Y525200D01*
X263600D01*
Y533058D01*
D02*
G37*
G36*
X1071395Y531500D02*
X1069605D01*
X1067951Y530815D01*
X1066685Y529549D01*
X1066000Y527895D01*
Y526105D01*
X1066685Y524451D01*
X1067951Y523185D01*
X1069605Y522500D01*
X1071395D01*
X1073049Y523185D01*
X1074315Y524451D01*
X1075000Y526105D01*
Y527895D01*
X1074315Y529549D01*
X1073049Y530815D01*
X1071395Y531500D01*
D02*
G37*
G36*
X996895Y528500D02*
X995105D01*
X993451Y527815D01*
X992185Y526549D01*
X991500Y524895D01*
Y523105D01*
X992185Y521451D01*
X993451Y520185D01*
X995105Y519500D01*
X996895D01*
X998549Y520185D01*
X999815Y521451D01*
X1000500Y523105D01*
Y524895D01*
X999815Y526549D01*
X998549Y527815D01*
X996895Y528500D01*
D02*
G37*
G36*
X292185Y532200D02*
X289815D01*
X287526Y531587D01*
X285474Y530402D01*
X283798Y528726D01*
X282613Y526674D01*
X282000Y524385D01*
Y522015D01*
X282613Y519726D01*
X283798Y517674D01*
X285474Y515998D01*
X287526Y514813D01*
X289815Y514200D01*
X292185D01*
X294474Y514813D01*
X296526Y515998D01*
X298202Y517674D01*
X299387Y519726D01*
X300000Y522015D01*
Y524385D01*
X299387Y526674D01*
X298202Y528726D01*
X296526Y530402D01*
X294474Y531587D01*
X292185Y532200D01*
D02*
G37*
G36*
X275458Y521200D02*
X267600D01*
Y513342D01*
X269475Y513844D01*
X271765Y515166D01*
X273634Y517035D01*
X274956Y519325D01*
X275458Y521200D01*
D02*
G37*
G36*
X263600D02*
X255742D01*
X256244Y519325D01*
X257566Y517035D01*
X259435Y515166D01*
X261725Y513844D01*
X263600Y513342D01*
Y521200D01*
D02*
G37*
G36*
X989895Y520500D02*
X988105D01*
X986451Y519815D01*
X985185Y518549D01*
X984500Y516895D01*
Y515105D01*
X985185Y513451D01*
X986451Y512185D01*
X988105Y511500D01*
X989895D01*
X991549Y512185D01*
X992815Y513451D01*
X993500Y515105D01*
Y516895D01*
X992815Y518549D01*
X991549Y519815D01*
X989895Y520500D01*
D02*
G37*
G36*
X968895D02*
X967105D01*
X965451Y519815D01*
X964185Y518549D01*
X963500Y516895D01*
Y515105D01*
X964185Y513451D01*
X965451Y512185D01*
X967105Y511500D01*
X968895D01*
X970549Y512185D01*
X971815Y513451D01*
X972500Y515105D01*
Y516895D01*
X971815Y518549D01*
X970549Y519815D01*
X968895Y520500D01*
D02*
G37*
G36*
X106200Y522786D02*
X98200D01*
X95590Y522443D01*
X93157Y521435D01*
X91068Y519832D01*
X89465Y517743D01*
X88457Y515311D01*
X88114Y512700D01*
X88457Y510089D01*
X89465Y507657D01*
X91068Y505568D01*
X93157Y503965D01*
X95590Y502957D01*
X98200Y502614D01*
X106200D01*
X108811Y502957D01*
X111243Y503965D01*
X113332Y505568D01*
X114935Y507657D01*
X115943Y510089D01*
X116286Y512700D01*
X115943Y515311D01*
X114935Y517743D01*
X113332Y519832D01*
X111243Y521435D01*
X108811Y522443D01*
X106200Y522786D01*
D02*
G37*
G36*
X267600Y507658D02*
Y499800D01*
X275458D01*
X274956Y501675D01*
X273634Y503965D01*
X271765Y505834D01*
X269475Y507156D01*
X267600Y507658D01*
D02*
G37*
G36*
X263600D02*
X261725Y507156D01*
X259435Y505834D01*
X257566Y503965D01*
X256244Y501675D01*
X255742Y499800D01*
X263600D01*
Y507658D01*
D02*
G37*
G36*
X292185Y506800D02*
X289815D01*
X287526Y506187D01*
X285474Y505002D01*
X283798Y503326D01*
X282613Y501274D01*
X282000Y498985D01*
Y496615D01*
X282613Y494326D01*
X283798Y492274D01*
X285474Y490598D01*
X287526Y489413D01*
X289815Y488800D01*
X292185D01*
X294474Y489413D01*
X296526Y490598D01*
X298202Y492274D01*
X299387Y494326D01*
X300000Y496615D01*
Y498985D01*
X299387Y501274D01*
X298202Y503326D01*
X296526Y505002D01*
X294474Y506187D01*
X292185Y506800D01*
D02*
G37*
G36*
X275458Y495800D02*
X267600D01*
Y487942D01*
X269475Y488444D01*
X271765Y489766D01*
X273634Y491635D01*
X274956Y493925D01*
X275458Y495800D01*
D02*
G37*
G36*
X263600D02*
X255742D01*
X256244Y493925D01*
X257566Y491635D01*
X259435Y489766D01*
X261725Y488444D01*
X263600Y487942D01*
Y495800D01*
D02*
G37*
G36*
X968895Y505500D02*
X967105D01*
X965451Y504815D01*
X964185Y503549D01*
X963500Y501895D01*
Y500105D01*
X964185Y498451D01*
X965451Y497185D01*
X966686Y496673D01*
Y495327D01*
X965451Y494815D01*
X964185Y493549D01*
X963500Y491895D01*
Y490105D01*
X964185Y488451D01*
X965451Y487185D01*
X967105Y486500D01*
X968895D01*
X970549Y487185D01*
X971815Y488451D01*
X972500Y490105D01*
Y491895D01*
X971815Y493549D01*
X970549Y494815D01*
X969314Y495327D01*
Y496673D01*
X970549Y497185D01*
X971815Y498451D01*
X972500Y500105D01*
Y501895D01*
X971815Y503549D01*
X970549Y504815D01*
X968895Y505500D01*
D02*
G37*
G36*
X978895Y490500D02*
X977105D01*
X975451Y489815D01*
X974185Y488549D01*
X973500Y486895D01*
Y485105D01*
X974185Y483451D01*
X975451Y482185D01*
X977105Y481500D01*
X978895D01*
X980549Y482185D01*
X981815Y483451D01*
X982500Y485105D01*
Y486895D01*
X981815Y488549D01*
X980549Y489815D01*
X978895Y490500D01*
D02*
G37*
G36*
X106200Y497386D02*
X98200D01*
X95590Y497043D01*
X93157Y496035D01*
X91068Y494432D01*
X89465Y492343D01*
X88457Y489911D01*
X88114Y487300D01*
X88457Y484689D01*
X89465Y482257D01*
X91068Y480168D01*
X93157Y478565D01*
X95590Y477557D01*
X98200Y477214D01*
X106200D01*
X108811Y477557D01*
X111243Y478565D01*
X113332Y480168D01*
X114935Y482257D01*
X115943Y484689D01*
X116286Y487300D01*
X115943Y489911D01*
X114935Y492343D01*
X113332Y494432D01*
X111243Y496035D01*
X108811Y497043D01*
X106200Y497386D01*
D02*
G37*
G36*
X968895Y483500D02*
X967105D01*
X965451Y482815D01*
X964185Y481549D01*
X963500Y479895D01*
Y478105D01*
X964185Y476451D01*
X965451Y475185D01*
X967105Y474500D01*
X968895D01*
X970549Y475185D01*
X971815Y476451D01*
X972500Y478105D01*
Y479895D01*
X971815Y481549D01*
X970549Y482815D01*
X968895Y483500D01*
D02*
G37*
G36*
X267600Y482258D02*
Y474400D01*
X275458D01*
X274956Y476275D01*
X273634Y478565D01*
X271765Y480434D01*
X269475Y481756D01*
X267600Y482258D01*
D02*
G37*
G36*
X263600D02*
X261725Y481756D01*
X259435Y480434D01*
X257566Y478565D01*
X256244Y476275D01*
X255742Y474400D01*
X263600D01*
Y482258D01*
D02*
G37*
G36*
X978895Y476500D02*
X977105D01*
X975451Y475815D01*
X974185Y474549D01*
X973500Y472895D01*
Y471105D01*
X974185Y469451D01*
X975451Y468185D01*
X977105Y467500D01*
X978895D01*
X980549Y468185D01*
X981815Y469451D01*
X982500Y471105D01*
Y472895D01*
X981815Y474549D01*
X980549Y475815D01*
X978895Y476500D01*
D02*
G37*
G36*
X292185Y481400D02*
X289815D01*
X287526Y480787D01*
X285474Y479602D01*
X283798Y477926D01*
X282613Y475874D01*
X282000Y473585D01*
Y471215D01*
X282613Y468926D01*
X283798Y466874D01*
X285474Y465198D01*
X287526Y464013D01*
X289815Y463400D01*
X292185D01*
X294474Y464013D01*
X296526Y465198D01*
X298202Y466874D01*
X299387Y468926D01*
X300000Y471215D01*
Y473585D01*
X299387Y475874D01*
X298202Y477926D01*
X296526Y479602D01*
X294474Y480787D01*
X292185Y481400D01*
D02*
G37*
G36*
X275458Y470400D02*
X267600D01*
Y462542D01*
X269475Y463044D01*
X271765Y464366D01*
X273634Y466235D01*
X274956Y468525D01*
X275458Y470400D01*
D02*
G37*
G36*
X263600D02*
X255742D01*
X256244Y468525D01*
X257566Y466235D01*
X259435Y464366D01*
X261725Y463044D01*
X263600Y462542D01*
Y470400D01*
D02*
G37*
G36*
X968895Y469500D02*
X967105D01*
X965451Y468815D01*
X964185Y467549D01*
X963500Y465895D01*
Y464105D01*
X964185Y462451D01*
X965451Y461185D01*
X967105Y460500D01*
X968895D01*
X970549Y461185D01*
X971815Y462451D01*
X972500Y464105D01*
Y465895D01*
X971815Y467549D01*
X970549Y468815D01*
X968895Y469500D01*
D02*
G37*
G36*
X1010895D02*
X1009105D01*
X1007451Y468815D01*
X1006185Y467549D01*
X1005500Y465895D01*
Y464105D01*
X1006185Y462451D01*
X1007451Y461185D01*
X1009105Y460500D01*
X1010895D01*
X1012549Y461185D01*
X1013815Y462451D01*
X1013927Y462721D01*
X1015301D01*
X1015574Y462062D01*
X1016840Y460796D01*
X1018494Y460111D01*
X1020284D01*
X1021938Y460796D01*
X1023204Y462062D01*
X1023889Y463716D01*
Y465506D01*
X1023204Y467160D01*
X1021938Y468426D01*
X1020284Y469111D01*
X1018494D01*
X1016840Y468426D01*
X1015574Y467160D01*
X1015462Y466890D01*
X1014088D01*
X1013815Y467549D01*
X1012549Y468815D01*
X1010895Y469500D01*
D02*
G37*
G36*
X1046895Y457500D02*
X1045105D01*
X1043451Y456815D01*
X1042185Y455549D01*
X1041673Y454314D01*
X1040327D01*
X1039815Y455549D01*
X1038549Y456815D01*
X1036895Y457500D01*
X1035105D01*
X1033451Y456815D01*
X1032185Y455549D01*
X1031500Y453895D01*
Y452105D01*
X1032185Y450451D01*
X1033451Y449185D01*
X1035105Y448500D01*
X1036895D01*
X1038549Y449185D01*
X1039815Y450451D01*
X1040327Y451686D01*
X1041673D01*
X1042185Y450451D01*
X1043451Y449185D01*
X1045105Y448500D01*
X1046895D01*
X1048549Y449185D01*
X1049815Y450451D01*
X1050500Y452105D01*
Y453895D01*
X1049815Y455549D01*
X1048549Y456815D01*
X1046895Y457500D01*
D02*
G37*
G36*
X978895Y462500D02*
X977105D01*
X975451Y461815D01*
X974185Y460549D01*
X973500Y458895D01*
Y457105D01*
X974185Y455451D01*
X975451Y454185D01*
X977105Y453500D01*
X978895D01*
X980549Y454185D01*
X981815Y455451D01*
X982500Y457105D01*
Y458895D01*
X981815Y460549D01*
X980549Y461815D01*
X978895Y462500D01*
D02*
G37*
G36*
X1020895Y456500D02*
X1019105D01*
X1017451Y455815D01*
X1016185Y454549D01*
X1015673Y453313D01*
X1014327D01*
X1013815Y454549D01*
X1012549Y455815D01*
X1010895Y456500D01*
X1009105D01*
X1007451Y455815D01*
X1006185Y454549D01*
X1005500Y452895D01*
Y451105D01*
X1006185Y449451D01*
X1007451Y448185D01*
X1009105Y447500D01*
X1010895D01*
X1012549Y448185D01*
X1013815Y449451D01*
X1014327Y450686D01*
X1015673D01*
X1016185Y449451D01*
X1017451Y448185D01*
X1019105Y447500D01*
X1020895D01*
X1022549Y448185D01*
X1023815Y449451D01*
X1024500Y451105D01*
Y452895D01*
X1023815Y454549D01*
X1022549Y455815D01*
X1020895Y456500D01*
D02*
G37*
G36*
X106200Y471986D02*
X98200D01*
X95590Y471642D01*
X93157Y470635D01*
X91068Y469032D01*
X89465Y466943D01*
X88457Y464510D01*
X88114Y461900D01*
X88457Y459290D01*
X89465Y456857D01*
X91068Y454768D01*
X93157Y453165D01*
X95590Y452157D01*
X98200Y451814D01*
X106200D01*
X108811Y452157D01*
X111243Y453165D01*
X113332Y454768D01*
X114935Y456857D01*
X115943Y459290D01*
X116286Y461900D01*
X115943Y464510D01*
X114935Y466943D01*
X113332Y469032D01*
X111243Y470635D01*
X108811Y471642D01*
X106200Y471986D01*
D02*
G37*
G36*
X267600Y456858D02*
Y449000D01*
X275458D01*
X274956Y450875D01*
X273634Y453165D01*
X271765Y455034D01*
X269475Y456356D01*
X267600Y456858D01*
D02*
G37*
G36*
X263600D02*
X261725Y456356D01*
X259435Y455034D01*
X257566Y453165D01*
X256244Y450875D01*
X255742Y449000D01*
X263600D01*
Y456858D01*
D02*
G37*
G36*
X292185Y456000D02*
X289815D01*
X287526Y455387D01*
X285474Y454202D01*
X283798Y452526D01*
X282613Y450474D01*
X282000Y448185D01*
Y445815D01*
X282613Y443526D01*
X283798Y441474D01*
X285474Y439798D01*
X287526Y438613D01*
X289815Y438000D01*
X292185D01*
X294474Y438613D01*
X296526Y439798D01*
X298202Y441474D01*
X299387Y443526D01*
X300000Y445815D01*
Y448185D01*
X299387Y450474D01*
X298202Y452526D01*
X296526Y454202D01*
X294474Y455387D01*
X292185Y456000D01*
D02*
G37*
G36*
X275458Y445000D02*
X267600D01*
Y437142D01*
X269475Y437644D01*
X271765Y438966D01*
X273634Y440835D01*
X274956Y443125D01*
X275458Y445000D01*
D02*
G37*
G36*
X263600D02*
X255742D01*
X256244Y443125D01*
X257566Y440835D01*
X259435Y438966D01*
X261725Y437644D01*
X263600Y437142D01*
Y445000D01*
D02*
G37*
G36*
X1046895Y443500D02*
X1045105D01*
X1043451Y442815D01*
X1042185Y441549D01*
X1041500Y439895D01*
Y438105D01*
X1042185Y436451D01*
X1043451Y435185D01*
X1045105Y434500D01*
X1046895D01*
X1048549Y435185D01*
X1049815Y436451D01*
X1050500Y438105D01*
Y439895D01*
X1049815Y441549D01*
X1048549Y442815D01*
X1046895Y443500D01*
D02*
G37*
G36*
X1057895Y436500D02*
X1056105D01*
X1054451Y435815D01*
X1053185Y434549D01*
X1052500Y432895D01*
Y431105D01*
X1053185Y429451D01*
X1054451Y428185D01*
X1056105Y427500D01*
X1057895D01*
X1059549Y428185D01*
X1060815Y429451D01*
X1061500Y431105D01*
Y432895D01*
X1060815Y434549D01*
X1059549Y435815D01*
X1057895Y436500D01*
D02*
G37*
G36*
X106200Y446586D02*
X98200D01*
X95590Y446242D01*
X93157Y445235D01*
X91068Y443632D01*
X89465Y441543D01*
X88457Y439110D01*
X88114Y436500D01*
X88457Y433890D01*
X89465Y431457D01*
X91068Y429368D01*
X93157Y427765D01*
X95590Y426757D01*
X98200Y426414D01*
X106200D01*
X108811Y426757D01*
X111243Y427765D01*
X113332Y429368D01*
X114935Y431457D01*
X115943Y433890D01*
X116286Y436500D01*
X115943Y439110D01*
X114935Y441543D01*
X113332Y443632D01*
X111243Y445235D01*
X108811Y446242D01*
X106200Y446586D01*
D02*
G37*
G36*
X267600Y431458D02*
Y423600D01*
X275458D01*
X274956Y425475D01*
X273634Y427765D01*
X271765Y429634D01*
X269475Y430956D01*
X267600Y431458D01*
D02*
G37*
G36*
X263600D02*
X261725Y430956D01*
X259435Y429634D01*
X257566Y427765D01*
X256244Y425475D01*
X255742Y423600D01*
X263600D01*
Y431458D01*
D02*
G37*
G36*
X292185Y430600D02*
X289815D01*
X287526Y429987D01*
X285474Y428802D01*
X283798Y427126D01*
X282613Y425074D01*
X282000Y422785D01*
Y420415D01*
X282613Y418126D01*
X283798Y416074D01*
X285474Y414398D01*
X287526Y413213D01*
X289815Y412600D01*
X292185D01*
X294474Y413213D01*
X296526Y414398D01*
X298202Y416074D01*
X299387Y418126D01*
X300000Y420415D01*
Y422785D01*
X299387Y425074D01*
X298202Y427126D01*
X296526Y428802D01*
X294474Y429987D01*
X292185Y430600D01*
D02*
G37*
G36*
X275458Y419600D02*
X267600D01*
Y411742D01*
X269475Y412244D01*
X271765Y413566D01*
X273634Y415435D01*
X274956Y417725D01*
X275458Y419600D01*
D02*
G37*
G36*
X263600D02*
X255742D01*
X256244Y417725D01*
X257566Y415435D01*
X259435Y413566D01*
X261725Y412244D01*
X263600Y411742D01*
Y419600D01*
D02*
G37*
G36*
X106200Y421186D02*
X98200D01*
X95590Y420843D01*
X93157Y419835D01*
X91068Y418232D01*
X89465Y416143D01*
X88457Y413711D01*
X88114Y411100D01*
X88457Y408489D01*
X89465Y406057D01*
X91068Y403968D01*
X93157Y402365D01*
X95590Y401357D01*
X98200Y401014D01*
X106200D01*
X108811Y401357D01*
X111243Y402365D01*
X113332Y403968D01*
X114935Y406057D01*
X115943Y408489D01*
X116286Y411100D01*
X115943Y413711D01*
X114935Y416143D01*
X113332Y418232D01*
X111243Y419835D01*
X108811Y420843D01*
X106200Y421186D01*
D02*
G37*
G36*
X267600Y406058D02*
Y398200D01*
X275458D01*
X274956Y400075D01*
X273634Y402365D01*
X271765Y404234D01*
X269475Y405556D01*
X267600Y406058D01*
D02*
G37*
G36*
X263600D02*
X261725Y405556D01*
X259435Y404234D01*
X257566Y402365D01*
X256244Y400075D01*
X255742Y398200D01*
X263600D01*
Y406058D01*
D02*
G37*
G36*
X292185Y405200D02*
X289815D01*
X287526Y404587D01*
X285474Y403402D01*
X283798Y401726D01*
X282613Y399674D01*
X282000Y397385D01*
Y395015D01*
X282613Y392726D01*
X283798Y390674D01*
X285474Y388998D01*
X287526Y387813D01*
X289815Y387200D01*
X292185D01*
X294474Y387813D01*
X296526Y388998D01*
X298202Y390674D01*
X299387Y392726D01*
X300000Y395015D01*
Y397385D01*
X299387Y399674D01*
X298202Y401726D01*
X296526Y403402D01*
X294474Y404587D01*
X292185Y405200D01*
D02*
G37*
G36*
X275458Y394200D02*
X267600D01*
Y386342D01*
X269475Y386844D01*
X271765Y388166D01*
X273634Y390035D01*
X274956Y392325D01*
X275458Y394200D01*
D02*
G37*
G36*
X263600D02*
X255742D01*
X256244Y392325D01*
X257566Y390035D01*
X259435Y388166D01*
X261725Y386844D01*
X263600Y386342D01*
Y394200D01*
D02*
G37*
G36*
X106200Y395786D02*
X98200D01*
X95590Y395443D01*
X93157Y394435D01*
X91068Y392832D01*
X89465Y390743D01*
X88457Y388311D01*
X88114Y385700D01*
X88457Y383089D01*
X89465Y380657D01*
X91068Y378568D01*
X93157Y376965D01*
X95590Y375957D01*
X98200Y375614D01*
X106200D01*
X108811Y375957D01*
X111243Y376965D01*
X113332Y378568D01*
X114935Y380657D01*
X115943Y383089D01*
X116286Y385700D01*
X115943Y388311D01*
X114935Y390743D01*
X113332Y392832D01*
X111243Y394435D01*
X108811Y395443D01*
X106200Y395786D01*
D02*
G37*
G36*
X267600Y380658D02*
Y372800D01*
X275458D01*
X274956Y374675D01*
X273634Y376965D01*
X271765Y378834D01*
X269475Y380156D01*
X267600Y380658D01*
D02*
G37*
G36*
X263600D02*
X261725Y380156D01*
X259435Y378834D01*
X257566Y376965D01*
X256244Y374675D01*
X255742Y372800D01*
X263600D01*
Y380658D01*
D02*
G37*
G36*
X292185Y379800D02*
X289815D01*
X287526Y379187D01*
X285474Y378002D01*
X283798Y376326D01*
X282613Y374274D01*
X282000Y371985D01*
Y369615D01*
X282613Y367326D01*
X283798Y365274D01*
X285474Y363598D01*
X287526Y362413D01*
X289815Y361800D01*
X292185D01*
X294474Y362413D01*
X296526Y363598D01*
X298202Y365274D01*
X299387Y367326D01*
X300000Y369615D01*
Y371985D01*
X299387Y374274D01*
X298202Y376326D01*
X296526Y378002D01*
X294474Y379187D01*
X292185Y379800D01*
D02*
G37*
G36*
X275458Y368800D02*
X267600D01*
Y360942D01*
X269475Y361444D01*
X271765Y362766D01*
X273634Y364635D01*
X274956Y366925D01*
X275458Y368800D01*
D02*
G37*
G36*
X263600D02*
X255742D01*
X256244Y366925D01*
X257566Y364635D01*
X259435Y362766D01*
X261725Y361444D01*
X263600Y360942D01*
Y368800D01*
D02*
G37*
G36*
X106200Y370386D02*
X98200D01*
X95590Y370042D01*
X93157Y369035D01*
X91068Y367432D01*
X89465Y365343D01*
X88457Y362910D01*
X88114Y360300D01*
X88457Y357690D01*
X89465Y355257D01*
X91068Y353168D01*
X93157Y351565D01*
X95590Y350557D01*
X98200Y350214D01*
X106200D01*
X108811Y350557D01*
X111243Y351565D01*
X113332Y353168D01*
X114935Y355257D01*
X115943Y357690D01*
X116286Y360300D01*
X115943Y362910D01*
X114935Y365343D01*
X113332Y367432D01*
X111243Y369035D01*
X108811Y370042D01*
X106200Y370386D01*
D02*
G37*
G36*
X267600Y355258D02*
Y347400D01*
X275458D01*
X274956Y349275D01*
X273634Y351565D01*
X271765Y353434D01*
X269475Y354756D01*
X267600Y355258D01*
D02*
G37*
G36*
X263600D02*
X261725Y354756D01*
X259435Y353434D01*
X257566Y351565D01*
X256244Y349275D01*
X255742Y347400D01*
X263600D01*
Y355258D01*
D02*
G37*
G36*
X292185Y354400D02*
X289815D01*
X287526Y353787D01*
X285474Y352602D01*
X283798Y350926D01*
X282613Y348874D01*
X282000Y346585D01*
Y344215D01*
X282613Y341926D01*
X283798Y339874D01*
X285474Y338198D01*
X287526Y337013D01*
X289815Y336400D01*
X292185D01*
X294474Y337013D01*
X296526Y338198D01*
X298202Y339874D01*
X299387Y341926D01*
X300000Y344215D01*
Y346585D01*
X299387Y348874D01*
X298202Y350926D01*
X296526Y352602D01*
X294474Y353787D01*
X292185Y354400D01*
D02*
G37*
G36*
X275458Y343400D02*
X267600D01*
Y335542D01*
X269475Y336044D01*
X271765Y337366D01*
X273634Y339235D01*
X274956Y341525D01*
X275458Y343400D01*
D02*
G37*
G36*
X263600D02*
X255742D01*
X256244Y341525D01*
X257566Y339235D01*
X259435Y337366D01*
X261725Y336044D01*
X263600Y335542D01*
Y343400D01*
D02*
G37*
G36*
X106200Y344986D02*
X98200D01*
X95590Y344642D01*
X93157Y343635D01*
X91068Y342032D01*
X89465Y339943D01*
X88457Y337510D01*
X88114Y334900D01*
X88457Y332290D01*
X89465Y329857D01*
X91068Y327768D01*
X93157Y326165D01*
X95590Y325157D01*
X98200Y324814D01*
X106200D01*
X108811Y325157D01*
X111243Y326165D01*
X113332Y327768D01*
X114935Y329857D01*
X115943Y332290D01*
X116286Y334900D01*
X115943Y337510D01*
X114935Y339943D01*
X113332Y342032D01*
X111243Y343635D01*
X108811Y344642D01*
X106200Y344986D01*
D02*
G37*
G36*
X267600Y329858D02*
Y322000D01*
X275458D01*
X274956Y323875D01*
X273634Y326165D01*
X271765Y328034D01*
X269475Y329356D01*
X267600Y329858D01*
D02*
G37*
G36*
X263600D02*
X261725Y329356D01*
X259435Y328034D01*
X257566Y326165D01*
X256244Y323875D01*
X255742Y322000D01*
X263600D01*
Y329858D01*
D02*
G37*
G36*
X1273895Y519500D02*
X1272105D01*
X1270451Y518815D01*
X1269185Y517549D01*
X1269185Y517549D01*
X1263315D01*
X1263315Y517549D01*
X1262049Y518815D01*
X1260395Y519500D01*
X1258605D01*
X1256951Y518815D01*
X1255685Y517549D01*
X1255000Y515895D01*
Y514105D01*
X1255685Y512451D01*
X1256951Y511185D01*
X1258605Y510500D01*
X1260395D01*
X1262049Y511185D01*
X1263315Y512451D01*
X1263315Y512451D01*
X1269185D01*
X1269185Y512451D01*
X1270451Y511185D01*
X1272105Y510500D01*
X1273895D01*
X1275549Y511185D01*
X1276815Y512451D01*
X1277500Y514105D01*
Y515895D01*
X1276815Y517549D01*
X1275549Y518815D01*
X1273895Y519500D01*
D02*
G37*
G36*
X1566927Y960900D02*
X1566400D01*
Y946400D01*
X1580900D01*
Y946927D01*
X1580304Y949921D01*
X1579136Y952742D01*
X1577440Y955281D01*
X1575281Y957440D01*
X1572742Y959136D01*
X1569921Y960304D01*
X1566927Y960900D01*
D02*
G37*
G36*
X1564400D02*
X1563873D01*
X1560879Y960304D01*
X1558058Y959136D01*
X1555519Y957440D01*
X1553360Y955281D01*
X1551664Y952742D01*
X1550496Y949921D01*
X1549900Y946927D01*
Y946400D01*
X1564400D01*
Y960900D01*
D02*
G37*
G36*
X1516127D02*
X1515600D01*
Y946400D01*
X1530100D01*
Y946927D01*
X1529504Y949921D01*
X1528336Y952742D01*
X1526640Y955281D01*
X1524481Y957440D01*
X1521942Y959136D01*
X1519121Y960304D01*
X1516127Y960900D01*
D02*
G37*
G36*
X1513600D02*
X1513073D01*
X1510079Y960304D01*
X1507258Y959136D01*
X1504719Y957440D01*
X1502560Y955281D01*
X1500864Y952742D01*
X1499696Y949921D01*
X1499100Y946927D01*
Y946400D01*
X1513600D01*
Y960900D01*
D02*
G37*
G36*
X1580900Y944400D02*
X1566400D01*
Y929900D01*
X1566927D01*
X1569921Y930496D01*
X1572742Y931664D01*
X1575281Y933360D01*
X1577440Y935519D01*
X1579136Y938058D01*
X1580304Y940879D01*
X1580900Y943873D01*
Y944400D01*
D02*
G37*
G36*
X1564400D02*
X1549900D01*
Y943873D01*
X1550496Y940879D01*
X1551664Y938058D01*
X1553360Y935519D01*
X1555519Y933360D01*
X1558058Y931664D01*
X1560879Y930496D01*
X1563873Y929900D01*
X1564400D01*
Y944400D01*
D02*
G37*
G36*
X1530100D02*
X1515600D01*
Y929900D01*
X1516127D01*
X1519121Y930496D01*
X1521942Y931664D01*
X1524481Y933360D01*
X1526640Y935519D01*
X1528336Y938058D01*
X1529504Y940879D01*
X1530100Y943873D01*
Y944400D01*
D02*
G37*
G36*
X1513600D02*
X1499100D01*
Y943873D01*
X1499696Y940879D01*
X1500864Y938058D01*
X1502560Y935519D01*
X1504719Y933360D01*
X1507258Y931664D01*
X1510079Y930496D01*
X1513073Y929900D01*
X1513600D01*
Y944400D01*
D02*
G37*
G36*
X1257895Y922500D02*
X1256105D01*
X1254451Y921815D01*
X1253185Y920549D01*
X1252500Y918895D01*
Y917105D01*
X1253185Y915451D01*
X1254451Y914185D01*
X1256105Y913500D01*
X1257895D01*
X1259549Y914185D01*
X1260815Y915451D01*
X1261500Y917105D01*
Y918895D01*
X1260815Y920549D01*
X1259549Y921815D01*
X1257895Y922500D01*
D02*
G37*
G36*
X1541843Y934000D02*
X1538157D01*
X1534596Y933046D01*
X1531404Y931203D01*
X1528797Y928596D01*
X1526954Y925404D01*
X1526736Y924588D01*
X1452000D01*
X1451557Y924500D01*
X1451105D01*
X1450687Y924327D01*
X1450244Y924239D01*
X1449868Y923988D01*
X1449451Y923815D01*
X1449131Y923495D01*
X1448756Y923244D01*
X1448505Y922868D01*
X1448185Y922549D01*
X1448012Y922132D01*
X1447761Y921756D01*
X1447673Y921313D01*
X1447500Y920895D01*
Y920443D01*
X1447412Y920000D01*
X1447500Y919557D01*
Y919105D01*
X1447673Y918687D01*
X1447761Y918244D01*
X1448012Y917868D01*
X1448185Y917451D01*
X1448505Y917131D01*
X1448756Y916756D01*
X1449131Y916505D01*
X1449451Y916185D01*
X1449868Y916012D01*
X1450244Y915761D01*
X1450687Y915673D01*
X1451105Y915500D01*
X1451557D01*
X1452000Y915412D01*
X1526736D01*
X1526954Y914596D01*
X1528797Y911404D01*
X1531404Y908797D01*
X1534596Y906954D01*
X1538157Y906000D01*
X1541843D01*
X1545404Y906954D01*
X1548596Y908797D01*
X1551203Y911404D01*
X1553046Y914596D01*
X1554000Y918157D01*
Y921843D01*
X1553046Y925404D01*
X1551203Y928596D01*
X1548596Y931203D01*
X1545404Y933046D01*
X1541843Y934000D01*
D02*
G37*
G36*
X1282895Y909500D02*
X1281105D01*
X1279451Y908815D01*
X1278185Y907549D01*
X1277500Y905895D01*
Y904105D01*
X1278185Y902451D01*
X1279451Y901185D01*
X1281105Y900500D01*
X1282895D01*
X1284549Y901185D01*
X1285815Y902451D01*
X1286500Y904105D01*
Y905895D01*
X1285815Y907549D01*
X1284549Y908815D01*
X1282895Y909500D01*
D02*
G37*
G36*
X1566927Y910100D02*
X1566400D01*
Y895600D01*
X1580900D01*
Y896127D01*
X1580304Y899121D01*
X1579136Y901942D01*
X1577440Y904481D01*
X1575281Y906640D01*
X1572742Y908336D01*
X1569921Y909504D01*
X1566927Y910100D01*
D02*
G37*
G36*
X1564400D02*
X1563873D01*
X1560879Y909504D01*
X1558058Y908336D01*
X1555519Y906640D01*
X1553360Y904481D01*
X1551664Y901942D01*
X1550496Y899121D01*
X1549900Y896127D01*
Y895600D01*
X1564400D01*
Y910100D01*
D02*
G37*
G36*
X1516127D02*
X1515600D01*
Y895600D01*
X1530100D01*
Y896127D01*
X1529504Y899121D01*
X1528336Y901942D01*
X1526640Y904481D01*
X1524481Y906640D01*
X1521942Y908336D01*
X1519121Y909504D01*
X1516127Y910100D01*
D02*
G37*
G36*
X1513600D02*
X1513073D01*
X1510079Y909504D01*
X1507258Y908336D01*
X1504719Y906640D01*
X1502560Y904481D01*
X1500864Y901942D01*
X1499696Y899121D01*
X1499100Y896127D01*
Y895600D01*
X1513600D01*
Y910100D01*
D02*
G37*
G36*
X1580900Y893600D02*
X1566400D01*
Y879100D01*
X1566927D01*
X1569921Y879696D01*
X1572742Y880864D01*
X1575281Y882560D01*
X1577440Y884719D01*
X1579136Y887258D01*
X1580304Y890079D01*
X1580900Y893073D01*
Y893600D01*
D02*
G37*
G36*
X1564400D02*
X1549900D01*
Y893073D01*
X1550496Y890079D01*
X1551664Y887258D01*
X1553360Y884719D01*
X1555519Y882560D01*
X1558058Y880864D01*
X1560879Y879696D01*
X1563873Y879100D01*
X1564400D01*
Y893600D01*
D02*
G37*
G36*
X1530100D02*
X1515600D01*
Y879100D01*
X1516127D01*
X1519121Y879696D01*
X1521942Y880864D01*
X1524481Y882560D01*
X1526640Y884719D01*
X1528336Y887258D01*
X1529504Y890079D01*
X1530100Y893073D01*
Y893600D01*
D02*
G37*
G36*
X1513600D02*
X1499100D01*
Y893073D01*
X1499696Y890079D01*
X1500864Y887258D01*
X1502560Y884719D01*
X1504719Y882560D01*
X1507258Y880864D01*
X1510079Y879696D01*
X1513073Y879100D01*
X1513600D01*
Y893600D01*
D02*
G37*
G36*
X1566927Y840900D02*
X1566400D01*
Y826400D01*
X1580900D01*
Y826927D01*
X1580304Y829921D01*
X1579136Y832742D01*
X1577440Y835281D01*
X1575281Y837440D01*
X1572742Y839136D01*
X1569921Y840304D01*
X1566927Y840900D01*
D02*
G37*
G36*
X1564400D02*
X1563873D01*
X1560879Y840304D01*
X1558058Y839136D01*
X1555519Y837440D01*
X1553360Y835281D01*
X1551664Y832742D01*
X1550496Y829921D01*
X1549900Y826927D01*
Y826400D01*
X1564400D01*
Y840900D01*
D02*
G37*
G36*
X1516127D02*
X1515600D01*
Y826400D01*
X1530100D01*
Y826927D01*
X1529504Y829921D01*
X1528336Y832742D01*
X1526640Y835281D01*
X1524481Y837440D01*
X1521942Y839136D01*
X1519121Y840304D01*
X1516127Y840900D01*
D02*
G37*
G36*
X1513600D02*
X1513073D01*
X1510079Y840304D01*
X1507258Y839136D01*
X1504719Y837440D01*
X1502560Y835281D01*
X1500864Y832742D01*
X1499696Y829921D01*
X1499100Y826927D01*
Y826400D01*
X1513600D01*
Y840900D01*
D02*
G37*
G36*
X1580900Y824400D02*
X1566400D01*
Y809900D01*
X1566927D01*
X1569921Y810496D01*
X1572742Y811664D01*
X1575281Y813360D01*
X1577440Y815519D01*
X1579136Y818058D01*
X1580304Y820879D01*
X1580900Y823873D01*
Y824400D01*
D02*
G37*
G36*
X1564400D02*
X1549900D01*
Y823873D01*
X1550496Y820879D01*
X1551664Y818058D01*
X1553360Y815519D01*
X1555519Y813360D01*
X1558058Y811664D01*
X1560879Y810496D01*
X1563873Y809900D01*
X1564400D01*
Y824400D01*
D02*
G37*
G36*
X1530100D02*
X1515600D01*
Y809900D01*
X1516127D01*
X1519121Y810496D01*
X1521942Y811664D01*
X1524481Y813360D01*
X1526640Y815519D01*
X1528336Y818058D01*
X1529504Y820879D01*
X1530100Y823873D01*
Y824400D01*
D02*
G37*
G36*
X1513600D02*
X1499100D01*
Y823873D01*
X1499696Y820879D01*
X1500864Y818058D01*
X1502560Y815519D01*
X1504719Y813360D01*
X1507258Y811664D01*
X1510079Y810496D01*
X1513073Y809900D01*
X1513600D01*
Y824400D01*
D02*
G37*
G36*
X1541843Y814000D02*
X1538157D01*
X1534596Y813046D01*
X1531404Y811203D01*
X1528797Y808596D01*
X1526954Y805404D01*
X1526736Y804588D01*
X1450000D01*
X1449557Y804500D01*
X1449105D01*
X1448687Y804327D01*
X1448244Y804239D01*
X1447868Y803988D01*
X1447451Y803815D01*
X1447131Y803495D01*
X1446756Y803244D01*
X1446505Y802868D01*
X1446185Y802549D01*
X1446012Y802132D01*
X1445761Y801756D01*
X1445673Y801313D01*
X1445500Y800895D01*
Y800443D01*
X1445412Y800000D01*
X1445500Y799557D01*
Y799105D01*
X1445673Y798687D01*
X1445761Y798244D01*
X1446012Y797868D01*
X1446185Y797451D01*
X1446505Y797132D01*
X1446756Y796756D01*
X1447131Y796505D01*
X1447451Y796185D01*
X1447868Y796012D01*
X1448244Y795761D01*
X1448687Y795673D01*
X1449105Y795500D01*
X1449557D01*
X1450000Y795412D01*
X1526736D01*
X1526954Y794596D01*
X1528797Y791404D01*
X1531404Y788797D01*
X1534596Y786954D01*
X1538157Y786000D01*
X1541843D01*
X1545404Y786954D01*
X1548596Y788797D01*
X1551203Y791404D01*
X1553046Y794596D01*
X1554000Y798157D01*
Y801843D01*
X1553046Y805404D01*
X1551203Y808596D01*
X1548596Y811203D01*
X1545404Y813046D01*
X1541843Y814000D01*
D02*
G37*
G36*
X1566927Y790100D02*
X1566400D01*
Y775600D01*
X1580900D01*
Y776127D01*
X1580304Y779121D01*
X1579136Y781942D01*
X1577440Y784481D01*
X1575281Y786640D01*
X1572742Y788336D01*
X1569921Y789504D01*
X1566927Y790100D01*
D02*
G37*
G36*
X1564400D02*
X1563873D01*
X1560879Y789504D01*
X1558058Y788336D01*
X1555519Y786640D01*
X1553360Y784481D01*
X1551664Y781942D01*
X1550496Y779121D01*
X1549900Y776127D01*
Y775600D01*
X1564400D01*
Y790100D01*
D02*
G37*
G36*
X1516127D02*
X1515600D01*
Y775600D01*
X1530100D01*
Y776127D01*
X1529504Y779121D01*
X1528336Y781942D01*
X1526640Y784481D01*
X1524481Y786640D01*
X1521942Y788336D01*
X1519121Y789504D01*
X1516127Y790100D01*
D02*
G37*
G36*
X1513600D02*
X1513073D01*
X1510079Y789504D01*
X1507258Y788336D01*
X1504719Y786640D01*
X1502560Y784481D01*
X1500864Y781942D01*
X1499696Y779121D01*
X1499100Y776127D01*
Y775600D01*
X1513600D01*
Y790100D01*
D02*
G37*
G36*
X1255585Y787000D02*
X1253215D01*
X1250926Y786387D01*
X1248874Y785202D01*
X1247198Y783526D01*
X1246013Y781474D01*
X1245400Y779185D01*
Y776815D01*
X1246013Y774526D01*
X1247198Y772474D01*
X1248874Y770798D01*
X1250926Y769613D01*
X1253215Y769000D01*
X1255585D01*
X1257874Y769613D01*
X1259926Y770798D01*
X1261602Y772474D01*
X1262787Y774526D01*
X1263400Y776815D01*
Y779185D01*
X1262787Y781474D01*
X1261602Y783526D01*
X1259926Y785202D01*
X1257874Y786387D01*
X1255585Y787000D01*
D02*
G37*
G36*
X1230185D02*
X1227815D01*
X1225526Y786387D01*
X1223474Y785202D01*
X1221798Y783526D01*
X1220613Y781474D01*
X1220000Y779185D01*
Y776815D01*
X1220613Y774526D01*
X1221798Y772474D01*
X1223474Y770798D01*
X1225526Y769613D01*
X1227815Y769000D01*
X1230185D01*
X1232474Y769613D01*
X1234526Y770798D01*
X1236202Y772474D01*
X1237387Y774526D01*
X1238000Y776815D01*
Y779185D01*
X1237387Y781474D01*
X1236202Y783526D01*
X1234526Y785202D01*
X1232474Y786387D01*
X1230185Y787000D01*
D02*
G37*
G36*
X1212600D02*
X1194600D01*
Y769000D01*
X1212600D01*
Y787000D01*
D02*
G37*
G36*
X1580900Y773600D02*
X1566400D01*
Y759100D01*
X1566927D01*
X1569921Y759696D01*
X1572742Y760864D01*
X1575281Y762560D01*
X1577440Y764719D01*
X1579136Y767258D01*
X1580304Y770079D01*
X1580900Y773073D01*
Y773600D01*
D02*
G37*
G36*
X1564400D02*
X1549900D01*
Y773073D01*
X1550496Y770079D01*
X1551664Y767258D01*
X1553360Y764719D01*
X1555519Y762560D01*
X1558058Y760864D01*
X1560879Y759696D01*
X1563873Y759100D01*
X1564400D01*
Y773600D01*
D02*
G37*
G36*
X1530100D02*
X1515600D01*
Y759100D01*
X1516127D01*
X1519121Y759696D01*
X1521942Y760864D01*
X1524481Y762560D01*
X1526640Y764719D01*
X1528336Y767258D01*
X1529504Y770079D01*
X1530100Y773073D01*
Y773600D01*
D02*
G37*
G36*
X1513600D02*
X1499100D01*
Y773073D01*
X1499696Y770079D01*
X1500864Y767258D01*
X1502560Y764719D01*
X1504719Y762560D01*
X1507258Y760864D01*
X1510079Y759696D01*
X1513073Y759100D01*
X1513600D01*
Y773600D01*
D02*
G37*
G36*
X1255585Y756000D02*
X1253215D01*
X1250926Y755387D01*
X1248874Y754202D01*
X1247198Y752526D01*
X1246013Y750474D01*
X1245400Y748185D01*
Y745815D01*
X1246013Y743526D01*
X1247198Y741474D01*
X1248874Y739798D01*
X1250926Y738613D01*
X1253215Y738000D01*
X1255585D01*
X1257874Y738613D01*
X1259926Y739798D01*
X1261602Y741474D01*
X1262787Y743526D01*
X1263400Y745815D01*
Y748185D01*
X1262787Y750474D01*
X1261602Y752526D01*
X1259926Y754202D01*
X1257874Y755387D01*
X1255585Y756000D01*
D02*
G37*
G36*
X1230185D02*
X1227815D01*
X1225526Y755387D01*
X1223474Y754202D01*
X1221798Y752526D01*
X1220613Y750474D01*
X1220000Y748185D01*
Y745815D01*
X1220613Y743526D01*
X1221798Y741474D01*
X1223474Y739798D01*
X1225526Y738613D01*
X1227815Y738000D01*
X1230185D01*
X1232474Y738613D01*
X1234526Y739798D01*
X1236202Y741474D01*
X1237387Y743526D01*
X1238000Y745815D01*
Y748185D01*
X1237387Y750474D01*
X1236202Y752526D01*
X1234526Y754202D01*
X1232474Y755387D01*
X1230185Y756000D01*
D02*
G37*
G36*
X1212600D02*
X1194600D01*
Y738000D01*
X1212600D01*
Y756000D01*
D02*
G37*
G36*
X1566927Y720900D02*
X1566400D01*
Y706400D01*
X1580900D01*
Y706927D01*
X1580304Y709921D01*
X1579136Y712742D01*
X1577440Y715281D01*
X1575281Y717440D01*
X1572742Y719136D01*
X1569921Y720304D01*
X1566927Y720900D01*
D02*
G37*
G36*
X1564400D02*
X1563873D01*
X1560879Y720304D01*
X1558058Y719136D01*
X1555519Y717440D01*
X1553360Y715281D01*
X1551664Y712742D01*
X1550496Y709921D01*
X1549900Y706927D01*
Y706400D01*
X1564400D01*
Y720900D01*
D02*
G37*
G36*
X1516127D02*
X1515600D01*
Y706400D01*
X1530100D01*
Y706927D01*
X1529504Y709921D01*
X1528336Y712742D01*
X1526640Y715281D01*
X1524481Y717440D01*
X1521942Y719136D01*
X1519121Y720304D01*
X1516127Y720900D01*
D02*
G37*
G36*
X1513600D02*
X1513073D01*
X1510079Y720304D01*
X1507258Y719136D01*
X1504719Y717440D01*
X1502560Y715281D01*
X1500864Y712742D01*
X1499696Y709921D01*
X1499100Y706927D01*
Y706400D01*
X1513600D01*
Y720900D01*
D02*
G37*
G36*
X1580900Y704400D02*
X1566400D01*
Y689900D01*
X1566927D01*
X1569921Y690496D01*
X1572742Y691664D01*
X1575281Y693360D01*
X1577440Y695519D01*
X1579136Y698058D01*
X1580304Y700879D01*
X1580900Y703873D01*
Y704400D01*
D02*
G37*
G36*
X1564400D02*
X1549900D01*
Y703873D01*
X1550496Y700879D01*
X1551664Y698058D01*
X1553360Y695519D01*
X1555519Y693360D01*
X1558058Y691664D01*
X1560879Y690496D01*
X1563873Y689900D01*
X1564400D01*
Y704400D01*
D02*
G37*
G36*
X1530100D02*
X1515600D01*
Y689900D01*
X1516127D01*
X1519121Y690496D01*
X1521942Y691664D01*
X1524481Y693360D01*
X1526640Y695519D01*
X1528336Y698058D01*
X1529504Y700879D01*
X1530100Y703873D01*
Y704400D01*
D02*
G37*
G36*
X1513600D02*
X1499100D01*
Y703873D01*
X1499696Y700879D01*
X1500864Y698058D01*
X1502560Y695519D01*
X1504719Y693360D01*
X1507258Y691664D01*
X1510079Y690496D01*
X1513073Y689900D01*
X1513600D01*
Y704400D01*
D02*
G37*
G36*
X1541843Y694000D02*
X1538157D01*
X1534596Y693046D01*
X1531404Y691203D01*
X1528797Y688596D01*
X1526954Y685404D01*
X1526736Y684588D01*
X1453000D01*
X1452557Y684500D01*
X1452105D01*
X1451687Y684327D01*
X1451244Y684239D01*
X1450868Y683988D01*
X1450451Y683815D01*
X1450131Y683495D01*
X1449756Y683244D01*
X1449505Y682869D01*
X1449185Y682549D01*
X1449012Y682132D01*
X1448761Y681756D01*
X1448673Y681313D01*
X1448500Y680895D01*
Y680443D01*
X1448412Y680000D01*
X1448500Y679557D01*
Y679105D01*
X1448673Y678687D01*
X1448761Y678244D01*
X1449012Y677868D01*
X1449185Y677451D01*
X1449505Y677132D01*
X1449756Y676756D01*
X1450131Y676505D01*
X1450451Y676185D01*
X1450868Y676012D01*
X1451244Y675761D01*
X1451687Y675673D01*
X1452105Y675500D01*
X1452557D01*
X1453000Y675412D01*
X1526736D01*
X1526954Y674596D01*
X1528797Y671404D01*
X1531404Y668797D01*
X1534596Y666954D01*
X1538157Y666000D01*
X1541843D01*
X1545404Y666954D01*
X1548596Y668797D01*
X1551203Y671404D01*
X1553046Y674596D01*
X1554000Y678157D01*
Y681843D01*
X1553046Y685404D01*
X1551203Y688596D01*
X1548596Y691203D01*
X1545404Y693046D01*
X1541843Y694000D01*
D02*
G37*
G36*
X1566927Y670100D02*
X1566400D01*
Y655600D01*
X1580900D01*
Y656127D01*
X1580304Y659121D01*
X1579136Y661942D01*
X1577440Y664481D01*
X1575281Y666640D01*
X1572742Y668336D01*
X1569921Y669504D01*
X1566927Y670100D01*
D02*
G37*
G36*
X1564400D02*
X1563873D01*
X1560879Y669504D01*
X1558058Y668336D01*
X1555519Y666640D01*
X1553360Y664481D01*
X1551664Y661942D01*
X1550496Y659121D01*
X1549900Y656127D01*
Y655600D01*
X1564400D01*
Y670100D01*
D02*
G37*
G36*
X1516127D02*
X1515600D01*
Y655600D01*
X1530100D01*
Y656127D01*
X1529504Y659121D01*
X1528336Y661942D01*
X1526640Y664481D01*
X1524481Y666640D01*
X1521942Y668336D01*
X1519121Y669504D01*
X1516127Y670100D01*
D02*
G37*
G36*
X1513600D02*
X1513073D01*
X1510079Y669504D01*
X1507258Y668336D01*
X1504719Y666640D01*
X1502560Y664481D01*
X1500864Y661942D01*
X1499696Y659121D01*
X1499100Y656127D01*
Y655600D01*
X1513600D01*
Y670100D01*
D02*
G37*
G36*
X1580900Y653600D02*
X1566400D01*
Y639100D01*
X1566927D01*
X1569921Y639696D01*
X1572742Y640864D01*
X1575281Y642560D01*
X1577440Y644719D01*
X1579136Y647258D01*
X1580304Y650079D01*
X1580900Y653073D01*
Y653600D01*
D02*
G37*
G36*
X1564400D02*
X1549900D01*
Y653073D01*
X1550496Y650079D01*
X1551664Y647258D01*
X1553360Y644719D01*
X1555519Y642560D01*
X1558058Y640864D01*
X1560879Y639696D01*
X1563873Y639100D01*
X1564400D01*
Y653600D01*
D02*
G37*
G36*
X1530100D02*
X1515600D01*
Y639100D01*
X1516127D01*
X1519121Y639696D01*
X1521942Y640864D01*
X1524481Y642560D01*
X1526640Y644719D01*
X1528336Y647258D01*
X1529504Y650079D01*
X1530100Y653073D01*
Y653600D01*
D02*
G37*
G36*
X1513600D02*
X1499100D01*
Y653073D01*
X1499696Y650079D01*
X1500864Y647258D01*
X1502560Y644719D01*
X1504719Y642560D01*
X1507258Y640864D01*
X1510079Y639696D01*
X1513073Y639100D01*
X1513600D01*
Y653600D01*
D02*
G37*
G36*
X1144895Y624500D02*
X1143105D01*
X1141451Y623815D01*
X1140185Y622549D01*
X1139500Y620895D01*
Y619105D01*
X1140185Y617451D01*
X1141451Y616185D01*
X1143105Y615500D01*
X1144895D01*
X1146549Y616185D01*
X1147815Y617451D01*
X1148500Y619105D01*
Y620895D01*
X1147815Y622549D01*
X1146549Y623815D01*
X1144895Y624500D01*
D02*
G37*
G36*
X1161395Y614500D02*
X1159605D01*
X1157951Y613815D01*
X1156685Y612549D01*
X1156000Y610895D01*
Y609105D01*
X1156685Y607451D01*
X1157951Y606185D01*
X1159605Y605500D01*
X1161395D01*
X1163049Y606185D01*
X1164315Y607451D01*
X1165000Y609105D01*
Y610895D01*
X1164315Y612549D01*
X1163049Y613815D01*
X1161395Y614500D01*
D02*
G37*
G36*
X1566927Y600900D02*
X1566400D01*
Y586400D01*
X1580900D01*
Y586927D01*
X1580304Y589921D01*
X1579136Y592742D01*
X1577440Y595281D01*
X1575281Y597440D01*
X1572742Y599136D01*
X1569921Y600304D01*
X1566927Y600900D01*
D02*
G37*
G36*
X1564400D02*
X1563873D01*
X1560879Y600304D01*
X1558058Y599136D01*
X1555519Y597440D01*
X1553360Y595281D01*
X1551664Y592742D01*
X1550496Y589921D01*
X1549900Y586927D01*
Y586400D01*
X1564400D01*
Y600900D01*
D02*
G37*
G36*
X1516127D02*
X1515600D01*
Y586400D01*
X1530100D01*
Y586927D01*
X1529504Y589921D01*
X1528336Y592742D01*
X1526640Y595281D01*
X1524481Y597440D01*
X1521942Y599136D01*
X1519121Y600304D01*
X1516127Y600900D01*
D02*
G37*
G36*
X1513600D02*
X1513073D01*
X1510079Y600304D01*
X1507258Y599136D01*
X1504719Y597440D01*
X1502560Y595281D01*
X1500864Y592742D01*
X1499696Y589921D01*
X1499100Y586927D01*
Y586400D01*
X1513600D01*
Y600900D01*
D02*
G37*
G36*
X1580900Y584400D02*
X1566400D01*
Y569900D01*
X1566927D01*
X1569921Y570496D01*
X1572742Y571664D01*
X1575281Y573360D01*
X1577440Y575519D01*
X1579136Y578058D01*
X1580304Y580879D01*
X1580900Y583873D01*
Y584400D01*
D02*
G37*
G36*
X1564400D02*
X1549900D01*
Y583873D01*
X1550496Y580879D01*
X1551664Y578058D01*
X1553360Y575519D01*
X1555519Y573360D01*
X1558058Y571664D01*
X1560879Y570496D01*
X1563873Y569900D01*
X1564400D01*
Y584400D01*
D02*
G37*
G36*
X1530100D02*
X1515600D01*
Y569900D01*
X1516127D01*
X1519121Y570496D01*
X1521942Y571664D01*
X1524481Y573360D01*
X1526640Y575519D01*
X1528336Y578058D01*
X1529504Y580879D01*
X1530100Y583873D01*
Y584400D01*
D02*
G37*
G36*
X1513600D02*
X1499100D01*
Y583873D01*
X1499696Y580879D01*
X1500864Y578058D01*
X1502560Y575519D01*
X1504719Y573360D01*
X1507258Y571664D01*
X1510079Y570496D01*
X1513073Y569900D01*
X1513600D01*
Y584400D01*
D02*
G37*
G36*
X1541843Y574000D02*
X1538157D01*
X1534596Y573046D01*
X1531404Y571203D01*
X1528797Y568596D01*
X1526954Y565404D01*
X1526736Y564588D01*
X1453000D01*
X1452557Y564500D01*
X1452105D01*
X1451687Y564327D01*
X1451244Y564239D01*
X1450868Y563988D01*
X1450451Y563815D01*
X1450131Y563495D01*
X1449756Y563244D01*
X1449505Y562868D01*
X1449185Y562549D01*
X1449012Y562132D01*
X1448761Y561756D01*
X1448673Y561313D01*
X1448500Y560895D01*
Y560443D01*
X1448412Y560000D01*
X1448500Y559557D01*
Y559105D01*
X1448673Y558687D01*
X1448761Y558244D01*
X1449012Y557868D01*
X1449185Y557451D01*
X1449505Y557131D01*
X1449756Y556756D01*
X1450131Y556505D01*
X1450451Y556185D01*
X1450868Y556012D01*
X1451244Y555761D01*
X1451687Y555673D01*
X1452105Y555500D01*
X1452557D01*
X1453000Y555412D01*
X1526736D01*
X1526954Y554596D01*
X1528797Y551404D01*
X1531404Y548797D01*
X1534596Y546954D01*
X1538157Y546000D01*
X1541843D01*
X1545404Y546954D01*
X1548596Y548797D01*
X1551203Y551404D01*
X1553046Y554596D01*
X1554000Y558157D01*
Y561843D01*
X1553046Y565404D01*
X1551203Y568596D01*
X1548596Y571203D01*
X1545404Y573046D01*
X1541843Y574000D01*
D02*
G37*
G36*
X1566927Y550100D02*
X1566400D01*
Y535600D01*
X1580900D01*
Y536127D01*
X1580304Y539121D01*
X1579136Y541942D01*
X1577440Y544481D01*
X1575281Y546640D01*
X1572742Y548336D01*
X1569921Y549504D01*
X1566927Y550100D01*
D02*
G37*
G36*
X1564400D02*
X1563873D01*
X1560879Y549504D01*
X1558058Y548336D01*
X1555519Y546640D01*
X1553360Y544481D01*
X1551664Y541942D01*
X1550496Y539121D01*
X1549900Y536127D01*
Y535600D01*
X1564400D01*
Y550100D01*
D02*
G37*
G36*
X1516127D02*
X1515600D01*
Y535600D01*
X1530100D01*
Y536127D01*
X1529504Y539121D01*
X1528336Y541942D01*
X1526640Y544481D01*
X1524481Y546640D01*
X1521942Y548336D01*
X1519121Y549504D01*
X1516127Y550100D01*
D02*
G37*
G36*
X1513600D02*
X1513073D01*
X1510079Y549504D01*
X1507258Y548336D01*
X1504719Y546640D01*
X1502560Y544481D01*
X1500864Y541942D01*
X1499696Y539121D01*
X1499100Y536127D01*
Y535600D01*
X1513600D01*
Y550100D01*
D02*
G37*
G36*
X1580900Y533600D02*
X1566400D01*
Y519100D01*
X1566927D01*
X1569921Y519696D01*
X1572742Y520864D01*
X1575281Y522560D01*
X1577440Y524719D01*
X1579136Y527258D01*
X1580304Y530079D01*
X1580900Y533073D01*
Y533600D01*
D02*
G37*
G36*
X1564400D02*
X1549900D01*
Y533073D01*
X1550496Y530079D01*
X1551664Y527258D01*
X1553360Y524719D01*
X1555519Y522560D01*
X1558058Y520864D01*
X1560879Y519696D01*
X1563873Y519100D01*
X1564400D01*
Y533600D01*
D02*
G37*
G36*
X1530100D02*
X1515600D01*
Y519100D01*
X1516127D01*
X1519121Y519696D01*
X1521942Y520864D01*
X1524481Y522560D01*
X1526640Y524719D01*
X1528336Y527258D01*
X1529504Y530079D01*
X1530100Y533073D01*
Y533600D01*
D02*
G37*
G36*
X1513600D02*
X1499100D01*
Y533073D01*
X1499696Y530079D01*
X1500864Y527258D01*
X1502560Y524719D01*
X1504719Y522560D01*
X1507258Y520864D01*
X1510079Y519696D01*
X1513073Y519100D01*
X1513600D01*
Y533600D01*
D02*
G37*
G36*
X1566927Y480900D02*
X1566400D01*
Y466400D01*
X1580900D01*
Y466927D01*
X1580304Y469921D01*
X1579136Y472742D01*
X1577440Y475281D01*
X1575281Y477440D01*
X1572742Y479136D01*
X1569921Y480304D01*
X1566927Y480900D01*
D02*
G37*
G36*
X1564400D02*
X1563873D01*
X1560879Y480304D01*
X1558058Y479136D01*
X1555519Y477440D01*
X1553360Y475281D01*
X1551664Y472742D01*
X1550496Y469921D01*
X1549900Y466927D01*
Y466400D01*
X1564400D01*
Y480900D01*
D02*
G37*
G36*
X1516127D02*
X1515600D01*
Y466400D01*
X1530100D01*
Y466927D01*
X1529504Y469921D01*
X1528336Y472742D01*
X1526640Y475281D01*
X1524481Y477440D01*
X1521942Y479136D01*
X1519121Y480304D01*
X1516127Y480900D01*
D02*
G37*
G36*
X1513600D02*
X1513073D01*
X1510079Y480304D01*
X1507258Y479136D01*
X1504719Y477440D01*
X1502560Y475281D01*
X1500864Y472742D01*
X1499696Y469921D01*
X1499100Y466927D01*
Y466400D01*
X1513600D01*
Y480900D01*
D02*
G37*
G36*
X1580900Y464400D02*
X1566400D01*
Y449900D01*
X1566927D01*
X1569921Y450496D01*
X1572742Y451664D01*
X1575281Y453360D01*
X1577440Y455519D01*
X1579136Y458058D01*
X1580304Y460879D01*
X1580900Y463873D01*
Y464400D01*
D02*
G37*
G36*
X1564400D02*
X1549900D01*
Y463873D01*
X1550496Y460879D01*
X1551664Y458058D01*
X1553360Y455519D01*
X1555519Y453360D01*
X1558058Y451664D01*
X1560879Y450496D01*
X1563873Y449900D01*
X1564400D01*
Y464400D01*
D02*
G37*
G36*
X1530100D02*
X1515600D01*
Y449900D01*
X1516127D01*
X1519121Y450496D01*
X1521942Y451664D01*
X1524481Y453360D01*
X1526640Y455519D01*
X1528336Y458058D01*
X1529504Y460879D01*
X1530100Y463873D01*
Y464400D01*
D02*
G37*
G36*
X1513600D02*
X1499100D01*
Y463873D01*
X1499696Y460879D01*
X1500864Y458058D01*
X1502560Y455519D01*
X1504719Y453360D01*
X1507258Y451664D01*
X1510079Y450496D01*
X1513073Y449900D01*
X1513600D01*
Y464400D01*
D02*
G37*
G36*
X1149284Y457111D02*
X1147494D01*
X1145840Y456426D01*
X1144574Y455160D01*
X1143889Y453506D01*
Y451716D01*
X1144574Y450062D01*
X1145840Y448796D01*
X1147494Y448111D01*
X1149284D01*
X1150938Y448796D01*
X1152204Y450062D01*
X1152889Y451716D01*
Y453506D01*
X1152204Y455160D01*
X1150938Y456426D01*
X1149284Y457111D01*
D02*
G37*
G36*
X1541843Y454000D02*
X1538157D01*
X1534596Y453046D01*
X1531404Y451203D01*
X1528797Y448596D01*
X1526954Y445404D01*
X1526736Y444588D01*
X1454000D01*
X1453557Y444500D01*
X1453105D01*
X1452687Y444327D01*
X1452244Y444239D01*
X1451868Y443988D01*
X1451451Y443815D01*
X1451131Y443495D01*
X1450756Y443244D01*
X1450505Y442869D01*
X1450185Y442549D01*
X1450012Y442132D01*
X1449761Y441756D01*
X1449673Y441313D01*
X1449500Y440895D01*
Y440443D01*
X1449412Y440000D01*
X1449500Y439557D01*
Y439105D01*
X1449673Y438687D01*
X1449761Y438244D01*
X1450012Y437868D01*
X1450185Y437451D01*
X1450505Y437132D01*
X1450756Y436756D01*
X1451131Y436505D01*
X1451451Y436185D01*
X1451868Y436012D01*
X1452244Y435761D01*
X1452687Y435673D01*
X1453105Y435500D01*
X1453557D01*
X1454000Y435412D01*
X1526736D01*
X1526954Y434596D01*
X1528797Y431404D01*
X1531404Y428797D01*
X1534596Y426954D01*
X1538157Y426000D01*
X1541843D01*
X1545404Y426954D01*
X1548596Y428797D01*
X1551203Y431404D01*
X1553046Y434596D01*
X1554000Y438157D01*
Y441843D01*
X1553046Y445404D01*
X1551203Y448596D01*
X1548596Y451203D01*
X1545404Y453046D01*
X1541843Y454000D01*
D02*
G37*
G36*
X1141094Y431500D02*
X1138906D01*
X1136885Y430663D01*
X1135337Y429115D01*
X1134500Y427094D01*
Y424906D01*
X1135337Y422884D01*
X1136885Y421337D01*
X1138906Y420500D01*
X1141094D01*
X1143115Y421337D01*
X1144663Y422884D01*
X1145500Y424906D01*
Y427094D01*
X1144663Y429115D01*
X1143115Y430663D01*
X1141094Y431500D01*
D02*
G37*
G36*
X1566927Y430100D02*
X1566400D01*
Y415600D01*
X1580900D01*
Y416127D01*
X1580304Y419121D01*
X1579136Y421942D01*
X1577440Y424481D01*
X1575281Y426640D01*
X1572742Y428336D01*
X1569921Y429504D01*
X1566927Y430100D01*
D02*
G37*
G36*
X1564400D02*
X1563873D01*
X1560879Y429504D01*
X1558058Y428336D01*
X1555519Y426640D01*
X1553360Y424481D01*
X1551664Y421942D01*
X1550496Y419121D01*
X1549900Y416127D01*
Y415600D01*
X1564400D01*
Y430100D01*
D02*
G37*
G36*
X1516127D02*
X1515600D01*
Y415600D01*
X1530100D01*
Y416127D01*
X1529504Y419121D01*
X1528336Y421942D01*
X1526640Y424481D01*
X1524481Y426640D01*
X1521942Y428336D01*
X1519121Y429504D01*
X1516127Y430100D01*
D02*
G37*
G36*
X1513600D02*
X1513073D01*
X1510079Y429504D01*
X1507258Y428336D01*
X1504719Y426640D01*
X1502560Y424481D01*
X1500864Y421942D01*
X1499696Y419121D01*
X1499100Y416127D01*
Y415600D01*
X1513600D01*
Y430100D01*
D02*
G37*
G36*
X1580900Y413600D02*
X1566400D01*
Y399100D01*
X1566927D01*
X1569921Y399696D01*
X1572742Y400864D01*
X1575281Y402560D01*
X1577440Y404719D01*
X1579136Y407258D01*
X1580304Y410079D01*
X1580900Y413073D01*
Y413600D01*
D02*
G37*
G36*
X1564400D02*
X1549900D01*
Y413073D01*
X1550496Y410079D01*
X1551664Y407258D01*
X1553360Y404719D01*
X1555519Y402560D01*
X1558058Y400864D01*
X1560879Y399696D01*
X1563873Y399100D01*
X1564400D01*
Y413600D01*
D02*
G37*
G36*
X1530100D02*
X1515600D01*
Y399100D01*
X1516127D01*
X1519121Y399696D01*
X1521942Y400864D01*
X1524481Y402560D01*
X1526640Y404719D01*
X1528336Y407258D01*
X1529504Y410079D01*
X1530100Y413073D01*
Y413600D01*
D02*
G37*
G36*
X1513600D02*
X1499100D01*
Y413073D01*
X1499696Y410079D01*
X1500864Y407258D01*
X1502560Y404719D01*
X1504719Y402560D01*
X1507258Y400864D01*
X1510079Y399696D01*
X1513073Y399100D01*
X1513600D01*
Y413600D01*
D02*
G37*
G36*
X1566927Y360900D02*
X1566400D01*
Y346400D01*
X1580900D01*
Y346927D01*
X1580304Y349921D01*
X1579136Y352742D01*
X1577440Y355281D01*
X1575281Y357440D01*
X1572742Y359136D01*
X1569921Y360304D01*
X1566927Y360900D01*
D02*
G37*
G36*
X1564400D02*
X1563873D01*
X1560879Y360304D01*
X1558058Y359136D01*
X1555519Y357440D01*
X1553360Y355281D01*
X1551664Y352742D01*
X1550496Y349921D01*
X1549900Y346927D01*
Y346400D01*
X1564400D01*
Y360900D01*
D02*
G37*
G36*
X1516127D02*
X1515600D01*
Y346400D01*
X1530100D01*
Y346927D01*
X1529504Y349921D01*
X1528336Y352742D01*
X1526640Y355281D01*
X1524481Y357440D01*
X1521942Y359136D01*
X1519121Y360304D01*
X1516127Y360900D01*
D02*
G37*
G36*
X1513600D02*
X1513073D01*
X1510079Y360304D01*
X1507258Y359136D01*
X1504719Y357440D01*
X1502560Y355281D01*
X1500864Y352742D01*
X1499696Y349921D01*
X1499100Y346927D01*
Y346400D01*
X1513600D01*
Y360900D01*
D02*
G37*
G36*
X1580900Y344400D02*
X1566400D01*
Y329900D01*
X1566927D01*
X1569921Y330496D01*
X1572742Y331664D01*
X1575281Y333360D01*
X1577440Y335519D01*
X1579136Y338058D01*
X1580304Y340879D01*
X1580900Y343873D01*
Y344400D01*
D02*
G37*
G36*
X1564400D02*
X1549900D01*
Y343873D01*
X1550496Y340879D01*
X1551664Y338058D01*
X1553360Y335519D01*
X1555519Y333360D01*
X1558058Y331664D01*
X1560879Y330496D01*
X1563873Y329900D01*
X1564400D01*
Y344400D01*
D02*
G37*
G36*
X1530100D02*
X1515600D01*
Y329900D01*
X1516127D01*
X1519121Y330496D01*
X1521942Y331664D01*
X1524481Y333360D01*
X1526640Y335519D01*
X1528336Y338058D01*
X1529504Y340879D01*
X1530100Y343873D01*
Y344400D01*
D02*
G37*
G36*
X1513600D02*
X1499100D01*
Y343873D01*
X1499696Y340879D01*
X1500864Y338058D01*
X1502560Y335519D01*
X1504719Y333360D01*
X1507258Y331664D01*
X1510079Y330496D01*
X1513073Y329900D01*
X1513600D01*
Y344400D01*
D02*
G37*
G36*
X1541843Y334000D02*
X1538157D01*
X1534596Y333046D01*
X1531404Y331203D01*
X1528797Y328596D01*
X1526954Y325404D01*
X1526736Y324588D01*
X1453000D01*
X1452557Y324500D01*
X1452105D01*
X1451687Y324327D01*
X1451244Y324239D01*
X1450868Y323988D01*
X1450451Y323815D01*
X1450131Y323495D01*
X1449756Y323244D01*
X1449505Y322868D01*
X1449185Y322549D01*
X1449012Y322132D01*
X1448761Y321756D01*
X1448673Y321313D01*
X1448500Y320895D01*
Y320443D01*
X1448412Y320000D01*
X1448500Y319557D01*
Y319105D01*
X1448673Y318687D01*
X1448761Y318244D01*
X1449012Y317868D01*
X1449185Y317451D01*
X1449505Y317131D01*
X1449756Y316756D01*
X1450131Y316505D01*
X1450451Y316185D01*
X1450868Y316012D01*
X1451244Y315761D01*
X1451687Y315673D01*
X1452105Y315500D01*
X1452557D01*
X1453000Y315412D01*
X1526736D01*
X1526954Y314596D01*
X1528797Y311404D01*
X1531404Y308797D01*
X1534596Y306954D01*
X1538157Y306000D01*
X1541843D01*
X1545404Y306954D01*
X1548596Y308797D01*
X1551203Y311404D01*
X1553046Y314596D01*
X1554000Y318157D01*
Y321843D01*
X1553046Y325404D01*
X1551203Y328596D01*
X1548596Y331203D01*
X1545404Y333046D01*
X1541843Y334000D01*
D02*
G37*
G36*
X1566927Y310100D02*
X1566400D01*
Y295600D01*
X1580900D01*
Y296127D01*
X1580304Y299121D01*
X1579136Y301942D01*
X1577440Y304481D01*
X1575281Y306640D01*
X1572742Y308336D01*
X1569921Y309504D01*
X1566927Y310100D01*
D02*
G37*
G36*
X1564400D02*
X1563873D01*
X1560879Y309504D01*
X1558058Y308336D01*
X1555519Y306640D01*
X1553360Y304481D01*
X1551664Y301942D01*
X1550496Y299121D01*
X1549900Y296127D01*
Y295600D01*
X1564400D01*
Y310100D01*
D02*
G37*
G36*
X1516127D02*
X1515600D01*
Y295600D01*
X1530100D01*
Y296127D01*
X1529504Y299121D01*
X1528336Y301942D01*
X1526640Y304481D01*
X1524481Y306640D01*
X1521942Y308336D01*
X1519121Y309504D01*
X1516127Y310100D01*
D02*
G37*
G36*
X1513600D02*
X1513073D01*
X1510079Y309504D01*
X1507258Y308336D01*
X1504719Y306640D01*
X1502560Y304481D01*
X1500864Y301942D01*
X1499696Y299121D01*
X1499100Y296127D01*
Y295600D01*
X1513600D01*
Y310100D01*
D02*
G37*
G36*
X1580900Y293600D02*
X1566400D01*
Y279100D01*
X1566927D01*
X1569921Y279696D01*
X1572742Y280864D01*
X1575281Y282560D01*
X1577440Y284719D01*
X1579136Y287258D01*
X1580304Y290079D01*
X1580900Y293073D01*
Y293600D01*
D02*
G37*
G36*
X1564400D02*
X1549900D01*
Y293073D01*
X1550496Y290079D01*
X1551664Y287258D01*
X1553360Y284719D01*
X1555519Y282560D01*
X1558058Y280864D01*
X1560879Y279696D01*
X1563873Y279100D01*
X1564400D01*
Y293600D01*
D02*
G37*
G36*
X1530100D02*
X1515600D01*
Y279100D01*
X1516127D01*
X1519121Y279696D01*
X1521942Y280864D01*
X1524481Y282560D01*
X1526640Y284719D01*
X1528336Y287258D01*
X1529504Y290079D01*
X1530100Y293073D01*
Y293600D01*
D02*
G37*
G36*
X1513600D02*
X1499100D01*
Y293073D01*
X1499696Y290079D01*
X1500864Y287258D01*
X1502560Y284719D01*
X1504719Y282560D01*
X1507258Y280864D01*
X1510079Y279696D01*
X1513073Y279100D01*
X1513600D01*
Y293600D01*
D02*
G37*
G36*
X1566927Y240900D02*
X1566400D01*
Y226400D01*
X1580900D01*
Y226927D01*
X1580304Y229921D01*
X1579136Y232742D01*
X1577440Y235281D01*
X1575281Y237440D01*
X1572742Y239136D01*
X1569921Y240304D01*
X1566927Y240900D01*
D02*
G37*
G36*
X1564400D02*
X1563873D01*
X1560879Y240304D01*
X1558058Y239136D01*
X1555519Y237440D01*
X1553360Y235281D01*
X1551664Y232742D01*
X1550496Y229921D01*
X1549900Y226927D01*
Y226400D01*
X1564400D01*
Y240900D01*
D02*
G37*
G36*
X1516127D02*
X1515600D01*
Y226400D01*
X1530100D01*
Y226927D01*
X1529504Y229921D01*
X1528336Y232742D01*
X1526640Y235281D01*
X1524481Y237440D01*
X1521942Y239136D01*
X1519121Y240304D01*
X1516127Y240900D01*
D02*
G37*
G36*
X1513600D02*
X1513073D01*
X1510079Y240304D01*
X1507258Y239136D01*
X1504719Y237440D01*
X1502560Y235281D01*
X1500864Y232742D01*
X1499696Y229921D01*
X1499100Y226927D01*
Y226400D01*
X1513600D01*
Y240900D01*
D02*
G37*
G36*
X1580900Y224400D02*
X1566400D01*
Y209900D01*
X1566927D01*
X1569921Y210496D01*
X1572742Y211664D01*
X1575281Y213360D01*
X1577440Y215519D01*
X1579136Y218058D01*
X1580304Y220879D01*
X1580900Y223873D01*
Y224400D01*
D02*
G37*
G36*
X1564400D02*
X1549900D01*
Y223873D01*
X1550496Y220879D01*
X1551664Y218058D01*
X1553360Y215519D01*
X1555519Y213360D01*
X1558058Y211664D01*
X1560879Y210496D01*
X1563873Y209900D01*
X1564400D01*
Y224400D01*
D02*
G37*
G36*
X1530100D02*
X1515600D01*
Y209900D01*
X1516127D01*
X1519121Y210496D01*
X1521942Y211664D01*
X1524481Y213360D01*
X1526640Y215519D01*
X1528336Y218058D01*
X1529504Y220879D01*
X1530100Y223873D01*
Y224400D01*
D02*
G37*
G36*
X1513600D02*
X1499100D01*
Y223873D01*
X1499696Y220879D01*
X1500864Y218058D01*
X1502560Y215519D01*
X1504719Y213360D01*
X1507258Y211664D01*
X1510079Y210496D01*
X1513073Y209900D01*
X1513600D01*
Y224400D01*
D02*
G37*
G36*
X731322Y215040D02*
X728678D01*
X726125Y214356D01*
X723835Y213034D01*
X721966Y211165D01*
X720644Y208875D01*
X719960Y206322D01*
Y203678D01*
X720644Y201125D01*
X721966Y198835D01*
X723835Y196966D01*
X726125Y195644D01*
X728678Y194960D01*
X731322D01*
X733875Y195644D01*
X736165Y196966D01*
X738034Y198835D01*
X739356Y201125D01*
X740040Y203678D01*
Y206322D01*
X739356Y208875D01*
X738034Y211165D01*
X736165Y213034D01*
X733875Y214356D01*
X731322Y215040D01*
D02*
G37*
G36*
X668500Y279995D02*
X662679Y279614D01*
X656958Y278476D01*
X651434Y276601D01*
X646202Y274021D01*
X641352Y270780D01*
X636966Y266934D01*
X633120Y262548D01*
X629879Y257698D01*
X627299Y252466D01*
X625424Y246942D01*
X624286Y241221D01*
X623904Y235400D01*
X624286Y229579D01*
X625424Y223858D01*
X627299Y218334D01*
X629879Y213102D01*
X633120Y208252D01*
X636966Y203866D01*
X641352Y200020D01*
X646202Y196779D01*
X651434Y194199D01*
X656958Y192324D01*
X662679Y191186D01*
X668500Y190805D01*
X674321Y191186D01*
X680042Y192324D01*
X685566Y194199D01*
X690798Y196779D01*
X695648Y200020D01*
X700034Y203866D01*
X703880Y208252D01*
X707121Y213102D01*
X709701Y218334D01*
X711576Y223858D01*
X712714Y229579D01*
X713095Y235400D01*
X712714Y241221D01*
X711576Y246942D01*
X709701Y252466D01*
X707121Y257698D01*
X703880Y262548D01*
X700034Y266934D01*
X695648Y270780D01*
X690798Y274021D01*
X685566Y276601D01*
X680042Y278476D01*
X674321Y279614D01*
X668500Y279995D01*
D02*
G37*
G36*
X1541843Y214000D02*
X1538157D01*
X1534596Y213046D01*
X1531404Y211203D01*
X1528797Y208596D01*
X1526954Y205404D01*
X1526736Y204588D01*
X1453000D01*
X1452557Y204500D01*
X1452105D01*
X1451687Y204327D01*
X1451244Y204239D01*
X1450868Y203988D01*
X1450451Y203815D01*
X1450131Y203495D01*
X1449756Y203244D01*
X1449505Y202869D01*
X1449185Y202549D01*
X1449012Y202132D01*
X1448761Y201756D01*
X1448673Y201313D01*
X1448500Y200895D01*
Y200443D01*
X1448412Y200000D01*
X1448500Y199557D01*
Y199105D01*
X1448673Y198687D01*
X1448761Y198244D01*
X1449012Y197868D01*
X1449185Y197451D01*
X1449505Y197132D01*
X1449756Y196756D01*
X1450131Y196505D01*
X1450451Y196185D01*
X1450868Y196012D01*
X1451244Y195761D01*
X1451687Y195673D01*
X1452105Y195500D01*
X1452557D01*
X1453000Y195412D01*
X1526736D01*
X1526954Y194596D01*
X1528797Y191404D01*
X1531404Y188797D01*
X1534596Y186954D01*
X1538157Y186000D01*
X1541843D01*
X1545404Y186954D01*
X1548596Y188797D01*
X1551203Y191404D01*
X1553046Y194596D01*
X1554000Y198157D01*
Y201843D01*
X1553046Y205404D01*
X1551203Y208596D01*
X1548596Y211203D01*
X1545404Y213046D01*
X1541843Y214000D01*
D02*
G37*
G36*
X1566927Y190100D02*
X1566400D01*
Y175600D01*
X1580900D01*
Y176127D01*
X1580304Y179121D01*
X1579136Y181942D01*
X1577440Y184481D01*
X1575281Y186640D01*
X1572742Y188336D01*
X1569921Y189504D01*
X1566927Y190100D01*
D02*
G37*
G36*
X1564400D02*
X1563873D01*
X1560879Y189504D01*
X1558058Y188336D01*
X1555519Y186640D01*
X1553360Y184481D01*
X1551664Y181942D01*
X1550496Y179121D01*
X1549900Y176127D01*
Y175600D01*
X1564400D01*
Y190100D01*
D02*
G37*
G36*
X1516127D02*
X1515600D01*
Y175600D01*
X1530100D01*
Y176127D01*
X1529504Y179121D01*
X1528336Y181942D01*
X1526640Y184481D01*
X1524481Y186640D01*
X1521942Y188336D01*
X1519121Y189504D01*
X1516127Y190100D01*
D02*
G37*
G36*
X1513600D02*
X1513073D01*
X1510079Y189504D01*
X1507258Y188336D01*
X1504719Y186640D01*
X1502560Y184481D01*
X1500864Y181942D01*
X1499696Y179121D01*
X1499100Y176127D01*
Y175600D01*
X1513600D01*
Y190100D01*
D02*
G37*
G36*
X1580900Y173600D02*
X1566400D01*
Y159100D01*
X1566927D01*
X1569921Y159696D01*
X1572742Y160864D01*
X1575281Y162560D01*
X1577440Y164719D01*
X1579136Y167258D01*
X1580304Y170079D01*
X1580900Y173073D01*
Y173600D01*
D02*
G37*
G36*
X1564400D02*
X1549900D01*
Y173073D01*
X1550496Y170079D01*
X1551664Y167258D01*
X1553360Y164719D01*
X1555519Y162560D01*
X1558058Y160864D01*
X1560879Y159696D01*
X1563873Y159100D01*
X1564400D01*
Y173600D01*
D02*
G37*
G36*
X1530100D02*
X1515600D01*
Y159100D01*
X1516127D01*
X1519121Y159696D01*
X1521942Y160864D01*
X1524481Y162560D01*
X1526640Y164719D01*
X1528336Y167258D01*
X1529504Y170079D01*
X1530100Y173073D01*
Y173600D01*
D02*
G37*
G36*
X1513600D02*
X1499100D01*
Y173073D01*
X1499696Y170079D01*
X1500864Y167258D01*
X1502560Y164719D01*
X1504719Y162560D01*
X1507258Y160864D01*
X1510079Y159696D01*
X1513073Y159100D01*
X1513600D01*
Y173600D01*
D02*
G37*
G36*
X1576000Y139000D02*
X1563000D01*
Y132000D01*
X1576000D01*
Y139000D01*
D02*
G37*
G36*
Y130000D02*
X1563000D01*
Y123000D01*
X1576000D01*
Y130000D01*
D02*
G37*
G36*
X731322Y137040D02*
X728678D01*
X726125Y136356D01*
X723835Y135034D01*
X721966Y133165D01*
X720644Y130875D01*
X719960Y128322D01*
Y125678D01*
X720644Y123125D01*
X721966Y120835D01*
X723835Y118966D01*
X726125Y117644D01*
X728678Y116960D01*
X731322D01*
X733875Y117644D01*
X736165Y118966D01*
X738034Y120835D01*
X739356Y123125D01*
X740040Y125678D01*
Y128322D01*
X739356Y130875D01*
X738034Y133165D01*
X736165Y135034D01*
X733875Y136356D01*
X731322Y137040D01*
D02*
G37*
G36*
X1566927Y120900D02*
X1566400D01*
Y106400D01*
X1580900D01*
Y106927D01*
X1580304Y109921D01*
X1579136Y112742D01*
X1577440Y115281D01*
X1575281Y117440D01*
X1572742Y119136D01*
X1569921Y120304D01*
X1566927Y120900D01*
D02*
G37*
G36*
X1564400D02*
X1563873D01*
X1560879Y120304D01*
X1558058Y119136D01*
X1555519Y117440D01*
X1553360Y115281D01*
X1551664Y112742D01*
X1550496Y109921D01*
X1549900Y106927D01*
Y106400D01*
X1564400D01*
Y120900D01*
D02*
G37*
G36*
X1516127D02*
X1515600D01*
Y106400D01*
X1530100D01*
Y106927D01*
X1529504Y109921D01*
X1528336Y112742D01*
X1526640Y115281D01*
X1524481Y117440D01*
X1521942Y119136D01*
X1519121Y120304D01*
X1516127Y120900D01*
D02*
G37*
G36*
X1513600D02*
X1513073D01*
X1510079Y120304D01*
X1507258Y119136D01*
X1504719Y117440D01*
X1502560Y115281D01*
X1500864Y112742D01*
X1499696Y109921D01*
X1499100Y106927D01*
Y106400D01*
X1513600D01*
Y120900D01*
D02*
G37*
G36*
X1580900Y104400D02*
X1566400D01*
Y89900D01*
X1566927D01*
X1569921Y90496D01*
X1572742Y91664D01*
X1575281Y93360D01*
X1577440Y95519D01*
X1579136Y98058D01*
X1580304Y100879D01*
X1580900Y103873D01*
Y104400D01*
D02*
G37*
G36*
X1564400D02*
X1549900D01*
Y103873D01*
X1550496Y100879D01*
X1551664Y98058D01*
X1553360Y95519D01*
X1555519Y93360D01*
X1558058Y91664D01*
X1560879Y90496D01*
X1563873Y89900D01*
X1564400D01*
Y104400D01*
D02*
G37*
G36*
X1530100D02*
X1515600D01*
Y89900D01*
X1516127D01*
X1519121Y90496D01*
X1521942Y91664D01*
X1524481Y93360D01*
X1526640Y95519D01*
X1528336Y98058D01*
X1529504Y100879D01*
X1530100Y103873D01*
Y104400D01*
D02*
G37*
G36*
X1513600D02*
X1499100D01*
Y103873D01*
X1499696Y100879D01*
X1500864Y98058D01*
X1502560Y95519D01*
X1504719Y93360D01*
X1507258Y91664D01*
X1510079Y90496D01*
X1513073Y89900D01*
X1513600D01*
Y104400D01*
D02*
G37*
G36*
X1541843Y94000D02*
X1538157D01*
X1534596Y93046D01*
X1531404Y91203D01*
X1528797Y88596D01*
X1526954Y85404D01*
X1526736Y84588D01*
X1452000D01*
X1451557Y84500D01*
X1451105D01*
X1450687Y84327D01*
X1450244Y84239D01*
X1449868Y83988D01*
X1449451Y83815D01*
X1449131Y83495D01*
X1448756Y83244D01*
X1448505Y82868D01*
X1448185Y82549D01*
X1448012Y82132D01*
X1447761Y81756D01*
X1447673Y81313D01*
X1447500Y80895D01*
Y80443D01*
X1447412Y80000D01*
X1447500Y79557D01*
Y79105D01*
X1447673Y78687D01*
X1447761Y78244D01*
X1448012Y77868D01*
X1448185Y77451D01*
X1448505Y77131D01*
X1448756Y76756D01*
X1449131Y76505D01*
X1449451Y76185D01*
X1449868Y76012D01*
X1450244Y75761D01*
X1450687Y75673D01*
X1451105Y75500D01*
X1451557D01*
X1452000Y75412D01*
X1526736D01*
X1526954Y74596D01*
X1528797Y71404D01*
X1531404Y68797D01*
X1534596Y66954D01*
X1538157Y66000D01*
X1541843D01*
X1545404Y66954D01*
X1548596Y68797D01*
X1551203Y71404D01*
X1553046Y74596D01*
X1554000Y78157D01*
Y81843D01*
X1553046Y85404D01*
X1551203Y88596D01*
X1548596Y91203D01*
X1545404Y93046D01*
X1541843Y94000D01*
D02*
G37*
G36*
X1566927Y70100D02*
X1566400D01*
Y55600D01*
X1580900D01*
Y56127D01*
X1580304Y59121D01*
X1579136Y61942D01*
X1577440Y64481D01*
X1575281Y66640D01*
X1572742Y68336D01*
X1569921Y69504D01*
X1566927Y70100D01*
D02*
G37*
G36*
X1564400D02*
X1563873D01*
X1560879Y69504D01*
X1558058Y68336D01*
X1555519Y66640D01*
X1553360Y64481D01*
X1551664Y61942D01*
X1550496Y59121D01*
X1549900Y56127D01*
Y55600D01*
X1564400D01*
Y70100D01*
D02*
G37*
G36*
X1516127D02*
X1515600D01*
Y55600D01*
X1530100D01*
Y56127D01*
X1529504Y59121D01*
X1528336Y61942D01*
X1526640Y64481D01*
X1524481Y66640D01*
X1521942Y68336D01*
X1519121Y69504D01*
X1516127Y70100D01*
D02*
G37*
G36*
X1513600D02*
X1513073D01*
X1510079Y69504D01*
X1507258Y68336D01*
X1504719Y66640D01*
X1502560Y64481D01*
X1500864Y61942D01*
X1499696Y59121D01*
X1499100Y56127D01*
Y55600D01*
X1513600D01*
Y70100D01*
D02*
G37*
G36*
X668000Y143996D02*
X662179Y143614D01*
X656458Y142476D01*
X650934Y140601D01*
X645702Y138021D01*
X640852Y134780D01*
X636466Y130934D01*
X632620Y126548D01*
X629379Y121698D01*
X626799Y116466D01*
X624924Y110942D01*
X623786Y105221D01*
X623405Y99400D01*
X623786Y93579D01*
X624924Y87858D01*
X626799Y82334D01*
X629379Y77102D01*
X632620Y72252D01*
X636466Y67866D01*
X640852Y64020D01*
X645702Y60779D01*
X650934Y58199D01*
X656458Y56324D01*
X662179Y55186D01*
X668000Y54805D01*
X673821Y55186D01*
X679542Y56324D01*
X685066Y58199D01*
X690298Y60779D01*
X695148Y64020D01*
X699534Y67866D01*
X703380Y72252D01*
X706621Y77102D01*
X709201Y82334D01*
X711076Y87858D01*
X712214Y93579D01*
X712596Y99400D01*
X712214Y105221D01*
X711076Y110942D01*
X709201Y116466D01*
X706621Y121698D01*
X703380Y126548D01*
X699534Y130934D01*
X695148Y134780D01*
X690298Y138021D01*
X685066Y140601D01*
X679542Y142476D01*
X673821Y143614D01*
X668000Y143996D01*
D02*
G37*
G36*
X1580900Y53600D02*
X1566400D01*
Y39100D01*
X1566927D01*
X1569921Y39696D01*
X1572742Y40864D01*
X1575281Y42560D01*
X1577440Y44719D01*
X1579136Y47258D01*
X1580304Y50079D01*
X1580900Y53073D01*
Y53600D01*
D02*
G37*
G36*
X1564400D02*
X1549900D01*
Y53073D01*
X1550496Y50079D01*
X1551664Y47258D01*
X1553360Y44719D01*
X1555519Y42560D01*
X1558058Y40864D01*
X1560879Y39696D01*
X1563873Y39100D01*
X1564400D01*
Y53600D01*
D02*
G37*
G36*
X1530100D02*
X1515600D01*
Y39100D01*
X1516127D01*
X1519121Y39696D01*
X1521942Y40864D01*
X1524481Y42560D01*
X1526640Y44719D01*
X1528336Y47258D01*
X1529504Y50079D01*
X1530100Y53073D01*
Y53600D01*
D02*
G37*
G36*
X1513600D02*
X1499100D01*
Y53073D01*
X1499696Y50079D01*
X1500864Y47258D01*
X1502560Y44719D01*
X1504719Y42560D01*
X1507258Y40864D01*
X1510079Y39696D01*
X1513073Y39100D01*
X1513600D01*
Y53600D01*
D02*
G37*
%LPD*%
D10*
X51400Y258700D02*
Y284100D01*
X102200D01*
X1452000Y920000D02*
X1540000D01*
X1490000Y143000D02*
X1549000D01*
X1555000Y149000D02*
X1577000D01*
X1549000Y143000D02*
X1555000Y149000D01*
X1480000Y120000D02*
X1491000Y131000D01*
X1577000D01*
X1452000Y80000D02*
X1540000D01*
X1453000Y200000D02*
X1540000D01*
X1453000Y320000D02*
X1540000D01*
X1453000Y560000D02*
X1540000D01*
X1454000Y440000D02*
X1540000D01*
X1091000Y531000D02*
X1102000Y520000D01*
X1234000D01*
X1453000Y680000D02*
X1540000D01*
X1450000Y800000D02*
X1540000D01*
D12*
X1039778Y563000D02*
X1148000D01*
X1168000Y543000D01*
X1032389Y570389D02*
X1039778Y563000D01*
X1148000Y442000D02*
X1157000Y433000D01*
X1191000D01*
X1139000Y441000D02*
Y442000D01*
Y441000D02*
X1163000Y417000D01*
X1198000D01*
X1199000Y441000D02*
X1278000D01*
X1191000Y433000D02*
X1199000Y441000D01*
X1259500Y515000D02*
X1273000D01*
X1188111Y596000D02*
X1194346Y602235D01*
X1302765D01*
X1303000Y602000D01*
X1198000Y417000D02*
X1217000Y436000D01*
X1281000D01*
X1278000Y441000D02*
X1324500Y487500D01*
X1281000Y436000D02*
X1329000Y484000D01*
Y548000D01*
X1324500Y487500D02*
Y628500D01*
X1177000Y446000D02*
X1274000D01*
X1320000Y492000D02*
Y638828D01*
X1274000Y446000D02*
X1320000Y492000D01*
X1195082Y451000D02*
X1272000D01*
X1315000Y494000D02*
Y630000D01*
X1272000Y451000D02*
X1315000Y494000D01*
X1173000Y442000D02*
X1177000Y446000D01*
X1310000Y635000D02*
X1315000Y630000D01*
X1329000Y548000D02*
X1343000Y562000D01*
X1324500Y628500D02*
X1328000Y632000D01*
X1319765Y639063D02*
X1320000Y638828D01*
X1319000Y642000D02*
X1319765Y641235D01*
Y639063D02*
Y641235D01*
X1193082Y453000D02*
X1195082Y451000D01*
X1192000Y453000D02*
X1193082D01*
X1140222Y596000D02*
X1188111D01*
X1134611Y601611D02*
X1140222Y596000D01*
X1025765Y557235D02*
X1072000Y511000D01*
X1234000D01*
X1014000Y560000D02*
X1070250Y503750D01*
X1239000D01*
X1168000Y543000D02*
X1248000D01*
X1025765Y557235D02*
Y559235D01*
X1025000Y560000D02*
X1025765Y559235D01*
D13*
X0Y1000000D02*
X1600000D01*
X0Y0D02*
Y1000000D01*
X1600000D02*
X1600000Y0D01*
X0D02*
X1600000D01*
D22*
X1343000Y770000D02*
D03*
X1342000Y787000D02*
D03*
X1488000D02*
D03*
X1487000Y812000D02*
D03*
X1488000Y907000D02*
D03*
X1487000Y933000D02*
D03*
X1342000Y906000D02*
D03*
X1343000Y889000D02*
D03*
Y650000D02*
D03*
X1342000Y665000D02*
D03*
X1487000Y692000D02*
D03*
X1488000Y667000D02*
D03*
Y547000D02*
D03*
X1487000Y572000D02*
D03*
X1343000Y529000D02*
D03*
X1342000Y546000D02*
D03*
X1488000Y307000D02*
D03*
X1487000Y332000D02*
D03*
X1342000Y306000D02*
D03*
X1343000Y289000D02*
D03*
X1342000Y67000D02*
D03*
X1343000Y49000D02*
D03*
X1488000Y67000D02*
D03*
X1487000Y92000D02*
D03*
X1342000Y170000D02*
D03*
Y187000D02*
D03*
X1487000Y213000D02*
D03*
X1488000Y187000D02*
D03*
X478000Y295000D02*
D03*
X1487000Y427000D02*
D03*
X1486000Y452000D02*
D03*
X1344000Y409000D02*
D03*
X1343000Y427000D02*
D03*
X1241000Y530000D02*
D03*
X420000Y255000D02*
D03*
X1141000Y913000D02*
D03*
X1160000Y909000D02*
D03*
X1142000Y869000D02*
D03*
X488000Y888000D02*
D03*
X265280Y198120D02*
D03*
X307500Y150000D02*
D03*
X392500Y790000D02*
D03*
X400000Y830000D02*
D03*
X377500Y790000D02*
D03*
X400000Y855000D02*
D03*
X362500Y790000D02*
D03*
X400000Y880000D02*
D03*
X347500Y790000D02*
D03*
X400000Y905000D02*
D03*
X345000D02*
D03*
Y880000D02*
D03*
Y855000D02*
D03*
Y830000D02*
D03*
Y805000D02*
D03*
X307500Y205000D02*
D03*
X352500Y115000D02*
D03*
Y240000D02*
D03*
D69*
X256000Y917000D02*
X277700D01*
X232000Y893000D02*
X256000Y917000D01*
X291000Y929600D02*
Y930100D01*
X290900Y930200D02*
X291000Y930100D01*
X277700Y917000D02*
X290900Y930200D01*
D71*
X232000Y219000D02*
Y893000D01*
X169000Y156000D02*
X232000Y219000D01*
X100800Y103400D02*
X102200D01*
D72*
X1398000Y40000D02*
Y133000D01*
X1173284D02*
X1398000D01*
Y160000D01*
X1432000Y40000D02*
Y260000D01*
X1173284Y133000D02*
X1185000Y144716D01*
Y333000D01*
X1150000Y133000D02*
X1173284D01*
X1398000Y278000D02*
Y399000D01*
Y400000D02*
Y522000D01*
X1397000Y400000D02*
X1398000Y399000D01*
Y522000D02*
Y642000D01*
Y760000D01*
X1397000Y277000D02*
X1398000Y278000D01*
Y160000D02*
Y277000D01*
Y761000D02*
Y878000D01*
X1397000Y160000D02*
X1398000D01*
X1432000Y260000D02*
X1432000Y260000D01*
Y278000D01*
Y399000D01*
X1432000Y399000D02*
Y521000D01*
X1432000Y642000D02*
Y878000D01*
X1432000Y521000D02*
X1432000Y642000D01*
X1432000Y399000D02*
X1432000Y399000D01*
Y260000D02*
X1450000D01*
D73*
X119300Y106300D02*
X169000Y156000D01*
X102200Y106300D02*
X119300D01*
X1540000Y920000D02*
X1550000D01*
D74*
X26000Y55500D02*
D03*
Y944500D02*
D03*
D75*
X265600Y929600D02*
D03*
X291000D02*
D03*
X265600Y904200D02*
D03*
X291000D02*
D03*
X265600Y878800D02*
D03*
X291000D02*
D03*
X265600Y853400D02*
D03*
X291000D02*
D03*
X265600Y828000D02*
D03*
X291000D02*
D03*
X265600Y802600D02*
D03*
X291000D02*
D03*
X265600Y777200D02*
D03*
X291000D02*
D03*
X265600Y751800D02*
D03*
X291000D02*
D03*
X265600Y726400D02*
D03*
X291000D02*
D03*
X265600Y701000D02*
D03*
X291000D02*
D03*
X265600Y675600D02*
D03*
X291000D02*
D03*
X265600Y650200D02*
D03*
X291000D02*
D03*
X265600Y624800D02*
D03*
X291000D02*
D03*
X265600Y599400D02*
D03*
X291000D02*
D03*
X265600Y574000D02*
D03*
X291000D02*
D03*
Y396200D02*
D03*
Y345400D02*
D03*
X265600Y320000D02*
D03*
Y345400D02*
D03*
X291000Y370800D02*
D03*
X265600D02*
D03*
Y396200D02*
D03*
X291000Y421600D02*
D03*
X265600D02*
D03*
X291000Y447000D02*
D03*
X265600D02*
D03*
X291000Y472400D02*
D03*
X265600D02*
D03*
X291000Y497800D02*
D03*
X265600D02*
D03*
X291000Y523200D02*
D03*
X265600D02*
D03*
X291000Y548600D02*
D03*
X265600D02*
D03*
X1254400Y747000D02*
D03*
X1229000D02*
D03*
Y778000D02*
D03*
X1254400D02*
D03*
X247000Y930000D02*
D03*
X501000Y167000D02*
D03*
X1173284Y133000D02*
D03*
X1150000D02*
D03*
X730000Y127000D02*
D03*
Y169000D02*
D03*
Y205000D02*
D03*
X1450000Y260000D02*
D03*
X213000Y862000D02*
D03*
X485000Y167000D02*
D03*
X469000D02*
D03*
X1100000Y690000D02*
D03*
X1480000Y120000D02*
D03*
X160500Y861500D02*
D03*
X1432000Y260000D02*
D03*
X1100000Y670000D02*
D03*
D76*
X291000Y320000D02*
D03*
D77*
X668000Y99400D02*
D03*
X668500Y235400D02*
D03*
D78*
X502000Y74000D02*
D03*
Y99400D02*
D03*
X502500Y210000D02*
D03*
Y235400D02*
D03*
D79*
X502000Y124800D02*
D03*
X502500Y260800D02*
D03*
D80*
X1514600Y105400D02*
D03*
X1565400D02*
D03*
Y54600D02*
D03*
X1514600D02*
D03*
Y225400D02*
D03*
X1565400D02*
D03*
Y174600D02*
D03*
X1514600D02*
D03*
Y345400D02*
D03*
X1565400D02*
D03*
Y294600D02*
D03*
X1514600D02*
D03*
Y465400D02*
D03*
X1565400D02*
D03*
Y414600D02*
D03*
X1514600D02*
D03*
Y585400D02*
D03*
X1565400D02*
D03*
Y534600D02*
D03*
X1514600D02*
D03*
Y945400D02*
D03*
X1565400D02*
D03*
Y894600D02*
D03*
X1514600D02*
D03*
Y705400D02*
D03*
X1565400D02*
D03*
Y654600D02*
D03*
X1514600D02*
D03*
Y825400D02*
D03*
X1565400D02*
D03*
Y774600D02*
D03*
X1514600D02*
D03*
D81*
X1540000Y80000D02*
D03*
Y200000D02*
D03*
Y320000D02*
D03*
Y440000D02*
D03*
Y560000D02*
D03*
Y920000D02*
D03*
Y680000D02*
D03*
Y800000D02*
D03*
D82*
X1203600Y747000D02*
D03*
Y778000D02*
D03*
D83*
X102200Y868300D02*
D03*
Y842900D02*
D03*
Y817500D02*
D03*
Y792100D02*
D03*
Y766700D02*
D03*
Y741300D02*
D03*
Y715900D02*
D03*
Y690500D02*
D03*
Y665100D02*
D03*
Y639700D02*
D03*
Y614300D02*
D03*
Y309500D02*
D03*
Y334900D02*
D03*
Y360300D02*
D03*
Y385700D02*
D03*
Y411100D02*
D03*
Y436500D02*
D03*
Y461900D02*
D03*
Y487300D02*
D03*
Y512700D02*
D03*
Y538100D02*
D03*
Y563500D02*
D03*
Y588900D02*
D03*
Y893700D02*
D03*
X51400Y792100D02*
D03*
Y715900D02*
D03*
Y639700D02*
D03*
Y360300D02*
D03*
Y284100D02*
D03*
Y207900D02*
D03*
Y131700D02*
D03*
Y411100D02*
D03*
Y436500D02*
D03*
X51400Y461900D02*
D03*
X51400Y487300D02*
D03*
Y512700D02*
D03*
Y538100D02*
D03*
Y563500D02*
D03*
Y588900D02*
D03*
Y614300D02*
D03*
Y665100D02*
D03*
X51400Y690500D02*
D03*
X51400Y741300D02*
D03*
Y766700D02*
D03*
X51400Y817500D02*
D03*
X51400Y842900D02*
D03*
Y893700D02*
D03*
Y385700D02*
D03*
X51400Y334900D02*
D03*
X51400Y309500D02*
D03*
Y258700D02*
D03*
X51400Y233300D02*
D03*
X51400Y182500D02*
D03*
Y157100D02*
D03*
X102200Y258700D02*
D03*
Y233300D02*
D03*
Y182500D02*
D03*
Y157100D02*
D03*
X51400Y868300D02*
D03*
X102200Y284100D02*
D03*
Y207900D02*
D03*
Y131700D02*
D03*
Y106300D02*
D03*
D84*
X51400D02*
D03*
D85*
X1200000Y550000D02*
D03*
X1100000Y350000D02*
D03*
X1075000Y900000D02*
D03*
X1050000Y850000D02*
D03*
X1075000Y800000D02*
D03*
X1050000Y750000D02*
D03*
X1075000Y700000D02*
D03*
X1050000Y650000D02*
D03*
X1075000Y600000D02*
D03*
Y400000D02*
D03*
X1050000Y350000D02*
D03*
X1025000Y900000D02*
D03*
X1000000Y850000D02*
D03*
X1025000Y800000D02*
D03*
X1000000Y750000D02*
D03*
X1025000Y700000D02*
D03*
X1000000Y650000D02*
D03*
X1025000Y600000D02*
D03*
Y400000D02*
D03*
X1000000Y350000D02*
D03*
X975000Y900000D02*
D03*
X950000Y850000D02*
D03*
X975000Y800000D02*
D03*
X950000Y750000D02*
D03*
X975000Y700000D02*
D03*
X950000Y650000D02*
D03*
X975000Y600000D02*
D03*
Y400000D02*
D03*
X950000Y350000D02*
D03*
X925000Y900000D02*
D03*
X900000Y850000D02*
D03*
X925000Y800000D02*
D03*
X900000Y750000D02*
D03*
X925000Y700000D02*
D03*
X900000Y650000D02*
D03*
X925000Y600000D02*
D03*
Y500000D02*
D03*
Y400000D02*
D03*
X900000Y350000D02*
D03*
X875000Y900000D02*
D03*
X850000Y850000D02*
D03*
X875000Y800000D02*
D03*
X850000Y750000D02*
D03*
X875000Y700000D02*
D03*
X850000Y650000D02*
D03*
X875000Y600000D02*
D03*
Y500000D02*
D03*
Y400000D02*
D03*
X850000Y350000D02*
D03*
X825000Y900000D02*
D03*
X800000Y850000D02*
D03*
X825000Y800000D02*
D03*
X800000Y750000D02*
D03*
X825000Y700000D02*
D03*
X800000Y650000D02*
D03*
X825000Y600000D02*
D03*
Y500000D02*
D03*
Y400000D02*
D03*
X800000Y350000D02*
D03*
X775000Y900000D02*
D03*
X750000Y850000D02*
D03*
X775000Y800000D02*
D03*
X750000Y750000D02*
D03*
X775000Y700000D02*
D03*
X750000Y650000D02*
D03*
X775000Y600000D02*
D03*
Y500000D02*
D03*
Y400000D02*
D03*
X750000Y350000D02*
D03*
X725000Y900000D02*
D03*
X700000Y850000D02*
D03*
X725000Y800000D02*
D03*
X700000Y750000D02*
D03*
X725000Y700000D02*
D03*
X700000Y650000D02*
D03*
X725000Y600000D02*
D03*
Y500000D02*
D03*
Y400000D02*
D03*
X700000Y350000D02*
D03*
X675000Y900000D02*
D03*
X650000Y850000D02*
D03*
X675000Y800000D02*
D03*
X650000Y750000D02*
D03*
X675000Y700000D02*
D03*
X650000Y650000D02*
D03*
X675000Y600000D02*
D03*
Y500000D02*
D03*
Y400000D02*
D03*
X650000Y350000D02*
D03*
X625000Y900000D02*
D03*
X600000Y850000D02*
D03*
X625000Y800000D02*
D03*
X600000Y750000D02*
D03*
X625000Y700000D02*
D03*
X600000Y650000D02*
D03*
X625000Y600000D02*
D03*
Y500000D02*
D03*
Y400000D02*
D03*
X600000Y350000D02*
D03*
X575000Y800000D02*
D03*
X550000Y750000D02*
D03*
X575000Y700000D02*
D03*
X550000Y650000D02*
D03*
X575000Y600000D02*
D03*
Y500000D02*
D03*
Y400000D02*
D03*
X550000Y350000D02*
D03*
X525000Y900000D02*
D03*
X500000Y850000D02*
D03*
X525000Y800000D02*
D03*
X500000Y750000D02*
D03*
X525000Y700000D02*
D03*
X500000Y650000D02*
D03*
X525000Y600000D02*
D03*
Y500000D02*
D03*
Y400000D02*
D03*
X500000Y350000D02*
D03*
X475000Y800000D02*
D03*
X450000Y750000D02*
D03*
X475000Y700000D02*
D03*
X450000Y650000D02*
D03*
X475000Y400000D02*
D03*
X450000Y350000D02*
D03*
X425000Y700000D02*
D03*
X375000Y900000D02*
D03*
X250000Y850000D02*
D03*
Y750000D02*
D03*
Y650000D02*
D03*
Y550000D02*
D03*
X200000Y750000D02*
D03*
Y650000D02*
D03*
Y550000D02*
D03*
Y450000D02*
D03*
Y350000D02*
D03*
X175000Y800000D02*
D03*
Y700000D02*
D03*
X125000Y800000D02*
D03*
Y700000D02*
D03*
X1550000Y850000D02*
D03*
X1575000Y800000D02*
D03*
X1550000Y750000D02*
D03*
X1575000Y500000D02*
D03*
X1550000Y250000D02*
D03*
X1575000Y200000D02*
D03*
X1500000Y850000D02*
D03*
Y750000D02*
D03*
Y550000D02*
D03*
X1525000Y500000D02*
D03*
X1500000Y450000D02*
D03*
Y250000D02*
D03*
X1450000Y850000D02*
D03*
Y750000D02*
D03*
X1475000Y600000D02*
D03*
Y500000D02*
D03*
Y400000D02*
D03*
X1425000Y900000D02*
D03*
X1350000Y850000D02*
D03*
Y750000D02*
D03*
X1375000Y700000D02*
D03*
Y600000D02*
D03*
Y500000D02*
D03*
X1350000Y350000D02*
D03*
Y150000D02*
D03*
X1375000Y100000D02*
D03*
X1300000Y750000D02*
D03*
Y650000D02*
D03*
Y350000D02*
D03*
X1325000Y200000D02*
D03*
X1300000Y150000D02*
D03*
X1325000Y100000D02*
D03*
X1300000Y50000D02*
D03*
X1275000Y800000D02*
D03*
Y700000D02*
D03*
Y400000D02*
D03*
X1250000Y350000D02*
D03*
X1275000Y300000D02*
D03*
Y200000D02*
D03*
X1250000Y150000D02*
D03*
X1275000Y100000D02*
D03*
X1250000Y50000D02*
D03*
X1200000Y850000D02*
D03*
Y650000D02*
D03*
X1225000Y400000D02*
D03*
X1200000Y350000D02*
D03*
X1225000Y300000D02*
D03*
Y200000D02*
D03*
X1200000Y150000D02*
D03*
X1225000Y100000D02*
D03*
X1200000Y50000D02*
D03*
X1150000Y850000D02*
D03*
Y750000D02*
D03*
X1175000Y700000D02*
D03*
X1150000Y350000D02*
D03*
Y150000D02*
D03*
X1175000Y100000D02*
D03*
X1150000Y50000D02*
D03*
X1100000Y250000D02*
D03*
X1125000Y100000D02*
D03*
X1100000Y50000D02*
D03*
X1050000Y250000D02*
D03*
X1075000Y100000D02*
D03*
X1050000Y50000D02*
D03*
X1000000Y250000D02*
D03*
X1025000Y100000D02*
D03*
X1000000Y50000D02*
D03*
X950000Y250000D02*
D03*
X975000Y100000D02*
D03*
X950000Y50000D02*
D03*
X900000Y250000D02*
D03*
X925000Y100000D02*
D03*
X900000Y50000D02*
D03*
X850000Y250000D02*
D03*
X875000Y100000D02*
D03*
X850000Y50000D02*
D03*
X800000Y250000D02*
D03*
X825000Y100000D02*
D03*
X800000Y50000D02*
D03*
X750000Y250000D02*
D03*
X775000Y100000D02*
D03*
X750000Y50000D02*
D03*
X725000Y100000D02*
D03*
X1148000Y442000D02*
D03*
X1139000D02*
D03*
X1452000Y920000D02*
D03*
X337000Y758000D02*
D03*
X1228000Y922000D02*
D03*
Y892000D02*
D03*
X1144000Y620000D02*
D03*
X1230000Y802000D02*
D03*
X1230000Y823000D02*
D03*
X1490000Y143000D02*
D03*
X1303000Y602000D02*
D03*
X1328000Y632000D02*
D03*
X1319000Y642000D02*
D03*
X1310000Y635000D02*
D03*
X1253000Y494000D02*
D03*
X1271000D02*
D03*
X1273000Y515000D02*
D03*
X1259500D02*
D03*
X1296000Y526000D02*
D03*
X1270000Y569000D02*
D03*
X1175000Y649101D02*
D03*
X1247000Y650000D02*
D03*
X1452000Y80000D02*
D03*
X1453000Y200000D02*
D03*
X1343000Y562000D02*
D03*
X1453000Y320000D02*
D03*
Y560000D02*
D03*
X1454000Y440000D02*
D03*
X1247000Y583000D02*
D03*
X1192000Y453000D02*
D03*
X1173000Y442000D02*
D03*
X1032389Y570389D02*
D03*
X1248000Y543000D02*
D03*
X1234000Y563000D02*
D03*
X1032000Y582000D02*
D03*
X1045000Y580000D02*
D03*
Y571000D02*
D03*
X1014000Y582000D02*
D03*
X1025000Y560000D02*
D03*
X1014000D02*
D03*
X1003000D02*
D03*
X1239000Y503750D02*
D03*
X1234000Y511000D02*
D03*
Y520000D02*
D03*
X1172000Y610000D02*
D03*
X1160500D02*
D03*
X1182000Y603000D02*
D03*
X1134611Y601611D02*
D03*
X1148389Y452611D02*
D03*
X1046000Y453000D02*
D03*
X1036000D02*
D03*
X1046000Y439000D02*
D03*
X1057000Y432000D02*
D03*
X1453000Y680000D02*
D03*
X1450000Y800000D02*
D03*
X1124000Y760000D02*
D03*
X1257000Y918000D02*
D03*
X1282000Y905000D02*
D03*
X1148000Y823000D02*
D03*
Y807000D02*
D03*
X1216000Y818000D02*
D03*
X1254000Y944000D02*
D03*
X1053000Y607000D02*
D03*
X1253000Y875000D02*
D03*
X978000Y472000D02*
D03*
X968000Y479000D02*
D03*
X1019389Y464611D02*
D03*
X978000Y458000D02*
D03*
X968000Y465000D02*
D03*
X1010000D02*
D03*
Y452000D02*
D03*
X1020000D02*
D03*
X1022000Y540000D02*
D03*
X982000Y533000D02*
D03*
X1046000Y518000D02*
D03*
X975000Y526000D02*
D03*
X1070500Y527000D02*
D03*
X1009000Y540000D02*
D03*
X1003000Y532000D02*
D03*
X1009000Y524000D02*
D03*
X996000D02*
D03*
X989000Y516000D02*
D03*
X1003000D02*
D03*
X968000D02*
D03*
Y491000D02*
D03*
X978000Y486000D02*
D03*
X1003000Y549000D02*
D03*
X968000Y501000D02*
D03*
D86*
X213000Y959000D02*
D03*
X1398000Y40000D02*
D03*
Y399000D02*
D03*
X1162000Y376000D02*
D03*
X1432000Y160000D02*
D03*
X1398000D02*
D03*
X1432000Y399000D02*
D03*
Y278000D02*
D03*
X1398000D02*
D03*
Y878000D02*
D03*
X1432000D02*
D03*
Y521000D02*
D03*
X1398000Y522000D02*
D03*
X1185000Y333000D02*
D03*
X1138000D02*
D03*
X1080000Y543000D02*
D03*
X1432000Y642000D02*
D03*
X1398000D02*
D03*
X1432000Y760000D02*
D03*
X1398000D02*
D03*
X1432000Y40000D02*
D03*
X1065000Y626000D02*
D03*
X1091000Y617000D02*
D03*
D87*
X1184000Y425500D02*
D03*
X1140000Y426000D02*
D03*
X1091000Y531000D02*
D03*
D89*
X1577000Y149000D02*
D03*
D90*
Y131000D02*
D03*
D91*
X1238000Y533000D02*
X1241000Y530000D01*
X1162000Y533000D02*
X1238000D01*
X1080000Y543000D02*
X1080189D01*
X1082189Y545000D01*
X1150000D01*
X1162000Y533000D01*
M02*
